G04 #@! TF.FileFunction,Legend,Bot*
%FSLAX46Y46*%
G04 Gerber Fmt 4.6, Leading zero omitted, Abs format (unit mm)*
G04 Created by KiCad (PCBNEW 4.0.5) date 2017 June 19, Monday 16:04:20*
%MOMM*%
%LPD*%
G01*
G04 APERTURE LIST*
%ADD10C,0.100000*%
%ADD11C,0.120000*%
%ADD12C,0.003000*%
G04 APERTURE END LIST*
D10*
D11*
X96261905Y-61232381D02*
X96261905Y-60565714D01*
X96261905Y-60660952D02*
X96214286Y-60613333D01*
X96119048Y-60565714D01*
X95976190Y-60565714D01*
X95880952Y-60613333D01*
X95833333Y-60708571D01*
X95833333Y-61232381D01*
X95833333Y-60708571D02*
X95785714Y-60613333D01*
X95690476Y-60565714D01*
X95547619Y-60565714D01*
X95452381Y-60613333D01*
X95404762Y-60708571D01*
X95404762Y-61232381D01*
X95023810Y-60565714D02*
X94785715Y-61232381D01*
X94547619Y-60565714D02*
X94785715Y-61232381D01*
X94880953Y-61470476D01*
X94928572Y-61518095D01*
X95023810Y-61565714D01*
X94214286Y-61184762D02*
X94119048Y-61232381D01*
X93928572Y-61232381D01*
X93833333Y-61184762D01*
X93785714Y-61089524D01*
X93785714Y-61041905D01*
X93833333Y-60946667D01*
X93928572Y-60899048D01*
X94071429Y-60899048D01*
X94166667Y-60851429D01*
X94214286Y-60756190D01*
X94214286Y-60708571D01*
X94166667Y-60613333D01*
X94071429Y-60565714D01*
X93928572Y-60565714D01*
X93833333Y-60613333D01*
X92976190Y-61184762D02*
X93071428Y-61232381D01*
X93261905Y-61232381D01*
X93357143Y-61184762D01*
X93404762Y-61089524D01*
X93404762Y-60708571D01*
X93357143Y-60613333D01*
X93261905Y-60565714D01*
X93071428Y-60565714D01*
X92976190Y-60613333D01*
X92928571Y-60708571D01*
X92928571Y-60803810D01*
X93404762Y-60899048D01*
X92500000Y-60565714D02*
X92500000Y-61232381D01*
X92500000Y-60660952D02*
X92452381Y-60613333D01*
X92357143Y-60565714D01*
X92214285Y-60565714D01*
X92119047Y-60613333D01*
X92071428Y-60708571D01*
X92071428Y-61232381D01*
X91642857Y-61184762D02*
X91547619Y-61232381D01*
X91357143Y-61232381D01*
X91261904Y-61184762D01*
X91214285Y-61089524D01*
X91214285Y-61041905D01*
X91261904Y-60946667D01*
X91357143Y-60899048D01*
X91500000Y-60899048D01*
X91595238Y-60851429D01*
X91642857Y-60756190D01*
X91642857Y-60708571D01*
X91595238Y-60613333D01*
X91500000Y-60565714D01*
X91357143Y-60565714D01*
X91261904Y-60613333D01*
X90642857Y-61232381D02*
X90738095Y-61184762D01*
X90785714Y-61137143D01*
X90833333Y-61041905D01*
X90833333Y-60756190D01*
X90785714Y-60660952D01*
X90738095Y-60613333D01*
X90642857Y-60565714D01*
X90499999Y-60565714D01*
X90404761Y-60613333D01*
X90357142Y-60660952D01*
X90309523Y-60756190D01*
X90309523Y-61041905D01*
X90357142Y-61137143D01*
X90404761Y-61184762D01*
X90499999Y-61232381D01*
X90642857Y-61232381D01*
X89880952Y-61232381D02*
X89880952Y-60565714D01*
X89880952Y-60756190D02*
X89833333Y-60660952D01*
X89785714Y-60613333D01*
X89690476Y-60565714D01*
X89595237Y-60565714D01*
X89309523Y-61184762D02*
X89214285Y-61232381D01*
X89023809Y-61232381D01*
X88928570Y-61184762D01*
X88880951Y-61089524D01*
X88880951Y-61041905D01*
X88928570Y-60946667D01*
X89023809Y-60899048D01*
X89166666Y-60899048D01*
X89261904Y-60851429D01*
X89309523Y-60756190D01*
X89309523Y-60708571D01*
X89261904Y-60613333D01*
X89166666Y-60565714D01*
X89023809Y-60565714D01*
X88928570Y-60613333D01*
X87547618Y-61232381D02*
X87642856Y-61184762D01*
X87690475Y-61137143D01*
X87738094Y-61041905D01*
X87738094Y-60756190D01*
X87690475Y-60660952D01*
X87642856Y-60613333D01*
X87547618Y-60565714D01*
X87404760Y-60565714D01*
X87309522Y-60613333D01*
X87261903Y-60660952D01*
X87214284Y-60756190D01*
X87214284Y-61041905D01*
X87261903Y-61137143D01*
X87309522Y-61184762D01*
X87404760Y-61232381D01*
X87547618Y-61232381D01*
X86785713Y-60565714D02*
X86785713Y-61565714D01*
X86785713Y-60613333D02*
X86690475Y-60565714D01*
X86499998Y-60565714D01*
X86404760Y-60613333D01*
X86357141Y-60660952D01*
X86309522Y-60756190D01*
X86309522Y-61041905D01*
X86357141Y-61137143D01*
X86404760Y-61184762D01*
X86499998Y-61232381D01*
X86690475Y-61232381D01*
X86785713Y-61184762D01*
X85499998Y-61184762D02*
X85595236Y-61232381D01*
X85785713Y-61232381D01*
X85880951Y-61184762D01*
X85928570Y-61089524D01*
X85928570Y-60708571D01*
X85880951Y-60613333D01*
X85785713Y-60565714D01*
X85595236Y-60565714D01*
X85499998Y-60613333D01*
X85452379Y-60708571D01*
X85452379Y-60803810D01*
X85928570Y-60899048D01*
X85023808Y-60565714D02*
X85023808Y-61232381D01*
X85023808Y-60660952D02*
X84976189Y-60613333D01*
X84880951Y-60565714D01*
X84738093Y-60565714D01*
X84642855Y-60613333D01*
X84595236Y-60708571D01*
X84595236Y-61232381D01*
X84261903Y-60565714D02*
X83880951Y-60565714D01*
X84119046Y-60232381D02*
X84119046Y-61089524D01*
X84071427Y-61184762D01*
X83976189Y-61232381D01*
X83880951Y-61232381D01*
X83547617Y-61232381D02*
X83547617Y-60232381D01*
X83119045Y-61232381D02*
X83119045Y-60708571D01*
X83166664Y-60613333D01*
X83261902Y-60565714D01*
X83404760Y-60565714D01*
X83499998Y-60613333D01*
X83547617Y-60660952D01*
X82261902Y-61184762D02*
X82357140Y-61232381D01*
X82547617Y-61232381D01*
X82642855Y-61184762D01*
X82690474Y-61089524D01*
X82690474Y-60708571D01*
X82642855Y-60613333D01*
X82547617Y-60565714D01*
X82357140Y-60565714D01*
X82261902Y-60613333D01*
X82214283Y-60708571D01*
X82214283Y-60803810D01*
X82690474Y-60899048D01*
X81785712Y-61232381D02*
X81785712Y-60565714D01*
X81785712Y-60756190D02*
X81738093Y-60660952D01*
X81690474Y-60613333D01*
X81595236Y-60565714D01*
X81499997Y-60565714D01*
X81166664Y-61232381D02*
X81166664Y-60565714D01*
X81166664Y-60660952D02*
X81119045Y-60613333D01*
X81023807Y-60565714D01*
X80880949Y-60565714D01*
X80785711Y-60613333D01*
X80738092Y-60708571D01*
X80738092Y-61232381D01*
X80738092Y-60708571D02*
X80690473Y-60613333D01*
X80595235Y-60565714D01*
X80452378Y-60565714D01*
X80357140Y-60613333D01*
X80309521Y-60708571D01*
X80309521Y-61232381D01*
X78642854Y-60565714D02*
X78642854Y-61375238D01*
X78690473Y-61470476D01*
X78738092Y-61518095D01*
X78833331Y-61565714D01*
X78976188Y-61565714D01*
X79071426Y-61518095D01*
X78642854Y-61184762D02*
X78738092Y-61232381D01*
X78928569Y-61232381D01*
X79023807Y-61184762D01*
X79071426Y-61137143D01*
X79119045Y-61041905D01*
X79119045Y-60756190D01*
X79071426Y-60660952D01*
X79023807Y-60613333D01*
X78928569Y-60565714D01*
X78738092Y-60565714D01*
X78642854Y-60613333D01*
X77738092Y-61232381D02*
X77738092Y-60708571D01*
X77785711Y-60613333D01*
X77880949Y-60565714D01*
X78071426Y-60565714D01*
X78166664Y-60613333D01*
X77738092Y-61184762D02*
X77833330Y-61232381D01*
X78071426Y-61232381D01*
X78166664Y-61184762D01*
X78214283Y-61089524D01*
X78214283Y-60994286D01*
X78166664Y-60899048D01*
X78071426Y-60851429D01*
X77833330Y-60851429D01*
X77738092Y-60803810D01*
X77404759Y-60565714D02*
X77023807Y-60565714D01*
X77261902Y-60232381D02*
X77261902Y-61089524D01*
X77214283Y-61184762D01*
X77119045Y-61232381D01*
X77023807Y-61232381D01*
X76309520Y-61184762D02*
X76404758Y-61232381D01*
X76595235Y-61232381D01*
X76690473Y-61184762D01*
X76738092Y-61089524D01*
X76738092Y-60708571D01*
X76690473Y-60613333D01*
X76595235Y-60565714D01*
X76404758Y-60565714D01*
X76309520Y-60613333D01*
X76261901Y-60708571D01*
X76261901Y-60803810D01*
X76738092Y-60899048D01*
X75928568Y-60565714D02*
X75738092Y-61232381D01*
X75547615Y-60756190D01*
X75357139Y-61232381D01*
X75166663Y-60565714D01*
X74357139Y-61232381D02*
X74357139Y-60708571D01*
X74404758Y-60613333D01*
X74499996Y-60565714D01*
X74690473Y-60565714D01*
X74785711Y-60613333D01*
X74357139Y-61184762D02*
X74452377Y-61232381D01*
X74690473Y-61232381D01*
X74785711Y-61184762D01*
X74833330Y-61089524D01*
X74833330Y-60994286D01*
X74785711Y-60899048D01*
X74690473Y-60851429D01*
X74452377Y-60851429D01*
X74357139Y-60803810D01*
X73976187Y-60565714D02*
X73738092Y-61232381D01*
X73499996Y-60565714D02*
X73738092Y-61232381D01*
X73833330Y-61470476D01*
X73880949Y-61518095D01*
X73976187Y-61565714D01*
X71785710Y-61232381D02*
X72119044Y-60756190D01*
X72357139Y-61232381D02*
X72357139Y-60232381D01*
X71976186Y-60232381D01*
X71880948Y-60280000D01*
X71833329Y-60327619D01*
X71785710Y-60422857D01*
X71785710Y-60565714D01*
X71833329Y-60660952D01*
X71880948Y-60708571D01*
X71976186Y-60756190D01*
X72357139Y-60756190D01*
X70976186Y-61184762D02*
X71071424Y-61232381D01*
X71261901Y-61232381D01*
X71357139Y-61184762D01*
X71404758Y-61089524D01*
X71404758Y-60708571D01*
X71357139Y-60613333D01*
X71261901Y-60565714D01*
X71071424Y-60565714D01*
X70976186Y-60613333D01*
X70928567Y-60708571D01*
X70928567Y-60803810D01*
X71404758Y-60899048D01*
X70595234Y-60565714D02*
X70357139Y-61232381D01*
X70119043Y-60565714D01*
X68785710Y-60232381D02*
X68690471Y-60232381D01*
X68595233Y-60280000D01*
X68547614Y-60327619D01*
X68499995Y-60422857D01*
X68452376Y-60613333D01*
X68452376Y-60851429D01*
X68499995Y-61041905D01*
X68547614Y-61137143D01*
X68595233Y-61184762D01*
X68690471Y-61232381D01*
X68785710Y-61232381D01*
X68880948Y-61184762D01*
X68928567Y-61137143D01*
X68976186Y-61041905D01*
X69023805Y-60851429D01*
X69023805Y-60613333D01*
X68976186Y-60422857D01*
X68928567Y-60327619D01*
X68880948Y-60280000D01*
X68785710Y-60232381D01*
X96261905Y-62852381D02*
X96261905Y-61852381D01*
X95833333Y-62852381D02*
X95833333Y-62328571D01*
X95880952Y-62233333D01*
X95976190Y-62185714D01*
X96119048Y-62185714D01*
X96214286Y-62233333D01*
X96261905Y-62280952D01*
X95500000Y-62185714D02*
X95119048Y-62185714D01*
X95357143Y-61852381D02*
X95357143Y-62709524D01*
X95309524Y-62804762D01*
X95214286Y-62852381D01*
X95119048Y-62852381D01*
X94928571Y-62185714D02*
X94547619Y-62185714D01*
X94785714Y-61852381D02*
X94785714Y-62709524D01*
X94738095Y-62804762D01*
X94642857Y-62852381D01*
X94547619Y-62852381D01*
X94214285Y-62185714D02*
X94214285Y-63185714D01*
X94214285Y-62233333D02*
X94119047Y-62185714D01*
X93928570Y-62185714D01*
X93833332Y-62233333D01*
X93785713Y-62280952D01*
X93738094Y-62376190D01*
X93738094Y-62661905D01*
X93785713Y-62757143D01*
X93833332Y-62804762D01*
X93928570Y-62852381D01*
X94119047Y-62852381D01*
X94214285Y-62804762D01*
X93357142Y-62804762D02*
X93261904Y-62852381D01*
X93071428Y-62852381D01*
X92976189Y-62804762D01*
X92928570Y-62709524D01*
X92928570Y-62661905D01*
X92976189Y-62566667D01*
X93071428Y-62519048D01*
X93214285Y-62519048D01*
X93309523Y-62471429D01*
X93357142Y-62376190D01*
X93357142Y-62328571D01*
X93309523Y-62233333D01*
X93214285Y-62185714D01*
X93071428Y-62185714D01*
X92976189Y-62233333D01*
X92499999Y-62757143D02*
X92452380Y-62804762D01*
X92499999Y-62852381D01*
X92547618Y-62804762D01*
X92499999Y-62757143D01*
X92499999Y-62852381D01*
X92499999Y-62233333D02*
X92452380Y-62280952D01*
X92499999Y-62328571D01*
X92547618Y-62280952D01*
X92499999Y-62233333D01*
X92499999Y-62328571D01*
X91309523Y-61804762D02*
X92166666Y-63090476D01*
X90261904Y-61804762D02*
X91119047Y-63090476D01*
X89499999Y-62185714D02*
X89499999Y-62995238D01*
X89547618Y-63090476D01*
X89595237Y-63138095D01*
X89690476Y-63185714D01*
X89833333Y-63185714D01*
X89928571Y-63138095D01*
X89499999Y-62804762D02*
X89595237Y-62852381D01*
X89785714Y-62852381D01*
X89880952Y-62804762D01*
X89928571Y-62757143D01*
X89976190Y-62661905D01*
X89976190Y-62376190D01*
X89928571Y-62280952D01*
X89880952Y-62233333D01*
X89785714Y-62185714D01*
X89595237Y-62185714D01*
X89499999Y-62233333D01*
X89023809Y-62852381D02*
X89023809Y-62185714D01*
X89023809Y-61852381D02*
X89071428Y-61900000D01*
X89023809Y-61947619D01*
X88976190Y-61900000D01*
X89023809Y-61852381D01*
X89023809Y-61947619D01*
X88690476Y-62185714D02*
X88309524Y-62185714D01*
X88547619Y-61852381D02*
X88547619Y-62709524D01*
X88500000Y-62804762D01*
X88404762Y-62852381D01*
X88309524Y-62852381D01*
X87976190Y-62852381D02*
X87976190Y-61852381D01*
X87547618Y-62852381D02*
X87547618Y-62328571D01*
X87595237Y-62233333D01*
X87690475Y-62185714D01*
X87833333Y-62185714D01*
X87928571Y-62233333D01*
X87976190Y-62280952D01*
X86642856Y-62185714D02*
X86642856Y-62852381D01*
X87071428Y-62185714D02*
X87071428Y-62709524D01*
X87023809Y-62804762D01*
X86928571Y-62852381D01*
X86785713Y-62852381D01*
X86690475Y-62804762D01*
X86642856Y-62757143D01*
X86166666Y-62852381D02*
X86166666Y-61852381D01*
X86166666Y-62233333D02*
X86071428Y-62185714D01*
X85880951Y-62185714D01*
X85785713Y-62233333D01*
X85738094Y-62280952D01*
X85690475Y-62376190D01*
X85690475Y-62661905D01*
X85738094Y-62757143D01*
X85785713Y-62804762D01*
X85880951Y-62852381D01*
X86071428Y-62852381D01*
X86166666Y-62804762D01*
X85261904Y-62757143D02*
X85214285Y-62804762D01*
X85261904Y-62852381D01*
X85309523Y-62804762D01*
X85261904Y-62757143D01*
X85261904Y-62852381D01*
X84357142Y-62804762D02*
X84452380Y-62852381D01*
X84642857Y-62852381D01*
X84738095Y-62804762D01*
X84785714Y-62757143D01*
X84833333Y-62661905D01*
X84833333Y-62376190D01*
X84785714Y-62280952D01*
X84738095Y-62233333D01*
X84642857Y-62185714D01*
X84452380Y-62185714D01*
X84357142Y-62233333D01*
X83785714Y-62852381D02*
X83880952Y-62804762D01*
X83928571Y-62757143D01*
X83976190Y-62661905D01*
X83976190Y-62376190D01*
X83928571Y-62280952D01*
X83880952Y-62233333D01*
X83785714Y-62185714D01*
X83642856Y-62185714D01*
X83547618Y-62233333D01*
X83499999Y-62280952D01*
X83452380Y-62376190D01*
X83452380Y-62661905D01*
X83499999Y-62757143D01*
X83547618Y-62804762D01*
X83642856Y-62852381D01*
X83785714Y-62852381D01*
X83023809Y-62852381D02*
X83023809Y-62185714D01*
X83023809Y-62280952D02*
X82976190Y-62233333D01*
X82880952Y-62185714D01*
X82738094Y-62185714D01*
X82642856Y-62233333D01*
X82595237Y-62328571D01*
X82595237Y-62852381D01*
X82595237Y-62328571D02*
X82547618Y-62233333D01*
X82452380Y-62185714D01*
X82309523Y-62185714D01*
X82214285Y-62233333D01*
X82166666Y-62328571D01*
X82166666Y-62852381D01*
X80976190Y-61804762D02*
X81833333Y-63090476D01*
X80214285Y-62852381D02*
X80214285Y-61852381D01*
X80214285Y-62804762D02*
X80309523Y-62852381D01*
X80500000Y-62852381D01*
X80595238Y-62804762D01*
X80642857Y-62757143D01*
X80690476Y-62661905D01*
X80690476Y-62376190D01*
X80642857Y-62280952D01*
X80595238Y-62233333D01*
X80500000Y-62185714D01*
X80309523Y-62185714D01*
X80214285Y-62233333D01*
X79738095Y-62852381D02*
X79738095Y-62185714D01*
X79738095Y-61852381D02*
X79785714Y-61900000D01*
X79738095Y-61947619D01*
X79690476Y-61900000D01*
X79738095Y-61852381D01*
X79738095Y-61947619D01*
X79261905Y-62852381D02*
X79261905Y-62185714D01*
X79261905Y-62376190D02*
X79214286Y-62280952D01*
X79166667Y-62233333D01*
X79071429Y-62185714D01*
X78976190Y-62185714D01*
X78642857Y-62852381D02*
X78642857Y-61852381D01*
X78547619Y-62471429D02*
X78261904Y-62852381D01*
X78261904Y-62185714D02*
X78642857Y-62566667D01*
X77833333Y-62185714D02*
X77833333Y-63042857D01*
X77880952Y-63138095D01*
X77976190Y-63185714D01*
X78023809Y-63185714D01*
X77833333Y-61852381D02*
X77880952Y-61900000D01*
X77833333Y-61947619D01*
X77785714Y-61900000D01*
X77833333Y-61852381D01*
X77833333Y-61947619D01*
X76928571Y-62852381D02*
X76928571Y-62328571D01*
X76976190Y-62233333D01*
X77071428Y-62185714D01*
X77261905Y-62185714D01*
X77357143Y-62233333D01*
X76928571Y-62804762D02*
X77023809Y-62852381D01*
X77261905Y-62852381D01*
X77357143Y-62804762D01*
X77404762Y-62709524D01*
X77404762Y-62614286D01*
X77357143Y-62519048D01*
X77261905Y-62471429D01*
X77023809Y-62471429D01*
X76928571Y-62423810D01*
X76452381Y-62185714D02*
X76452381Y-62852381D01*
X76452381Y-62280952D02*
X76404762Y-62233333D01*
X76309524Y-62185714D01*
X76166666Y-62185714D01*
X76071428Y-62233333D01*
X76023809Y-62328571D01*
X76023809Y-62852381D01*
X75547619Y-62852381D02*
X75547619Y-61852381D01*
X75452381Y-62471429D02*
X75166666Y-62852381D01*
X75166666Y-62185714D02*
X75547619Y-62566667D01*
X74738095Y-62852381D02*
X74738095Y-62185714D01*
X74738095Y-62376190D02*
X74690476Y-62280952D01*
X74642857Y-62233333D01*
X74547619Y-62185714D01*
X74452380Y-62185714D01*
X74119047Y-62852381D02*
X74119047Y-62185714D01*
X74119047Y-61852381D02*
X74166666Y-61900000D01*
X74119047Y-61947619D01*
X74071428Y-61900000D01*
X74119047Y-61852381D01*
X74119047Y-61947619D01*
X73642857Y-62185714D02*
X73642857Y-63042857D01*
X73690476Y-63138095D01*
X73785714Y-63185714D01*
X73833333Y-63185714D01*
X73642857Y-61852381D02*
X73690476Y-61900000D01*
X73642857Y-61947619D01*
X73595238Y-61900000D01*
X73642857Y-61852381D01*
X73642857Y-61947619D01*
X73166667Y-62185714D02*
X73166667Y-62852381D01*
X73166667Y-62280952D02*
X73119048Y-62233333D01*
X73023810Y-62185714D01*
X72880952Y-62185714D01*
X72785714Y-62233333D01*
X72738095Y-62328571D01*
X72738095Y-62852381D01*
X71833333Y-62852381D02*
X71833333Y-61852381D01*
X71833333Y-62804762D02*
X71928571Y-62852381D01*
X72119048Y-62852381D01*
X72214286Y-62804762D01*
X72261905Y-62757143D01*
X72309524Y-62661905D01*
X72309524Y-62376190D01*
X72261905Y-62280952D01*
X72214286Y-62233333D01*
X72119048Y-62185714D01*
X71928571Y-62185714D01*
X71833333Y-62233333D01*
X70976190Y-62804762D02*
X71071428Y-62852381D01*
X71261905Y-62852381D01*
X71357143Y-62804762D01*
X71404762Y-62709524D01*
X71404762Y-62328571D01*
X71357143Y-62233333D01*
X71261905Y-62185714D01*
X71071428Y-62185714D01*
X70976190Y-62233333D01*
X70928571Y-62328571D01*
X70928571Y-62423810D01*
X71404762Y-62519048D01*
X70500000Y-62852381D02*
X70500000Y-62185714D01*
X70500000Y-62376190D02*
X70452381Y-62280952D01*
X70404762Y-62233333D01*
X70309524Y-62185714D01*
X70214285Y-62185714D01*
X69928571Y-62804762D02*
X69833333Y-62852381D01*
X69642857Y-62852381D01*
X69547618Y-62804762D01*
X69499999Y-62709524D01*
X69499999Y-62661905D01*
X69547618Y-62566667D01*
X69642857Y-62519048D01*
X69785714Y-62519048D01*
X69880952Y-62471429D01*
X69928571Y-62376190D01*
X69928571Y-62328571D01*
X69880952Y-62233333D01*
X69785714Y-62185714D01*
X69642857Y-62185714D01*
X69547618Y-62233333D01*
X68357142Y-61804762D02*
X69214285Y-63090476D01*
X68023809Y-62852381D02*
X68023809Y-62185714D01*
X68023809Y-62280952D02*
X67976190Y-62233333D01*
X67880952Y-62185714D01*
X67738094Y-62185714D01*
X67642856Y-62233333D01*
X67595237Y-62328571D01*
X67595237Y-62852381D01*
X67595237Y-62328571D02*
X67547618Y-62233333D01*
X67452380Y-62185714D01*
X67309523Y-62185714D01*
X67214285Y-62233333D01*
X67166666Y-62328571D01*
X67166666Y-62852381D01*
X66785714Y-62185714D02*
X66547619Y-62852381D01*
X66309523Y-62185714D02*
X66547619Y-62852381D01*
X66642857Y-63090476D01*
X66690476Y-63138095D01*
X66785714Y-63185714D01*
X65976190Y-62804762D02*
X65880952Y-62852381D01*
X65690476Y-62852381D01*
X65595237Y-62804762D01*
X65547618Y-62709524D01*
X65547618Y-62661905D01*
X65595237Y-62566667D01*
X65690476Y-62519048D01*
X65833333Y-62519048D01*
X65928571Y-62471429D01*
X65976190Y-62376190D01*
X65976190Y-62328571D01*
X65928571Y-62233333D01*
X65833333Y-62185714D01*
X65690476Y-62185714D01*
X65595237Y-62233333D01*
X64738094Y-62804762D02*
X64833332Y-62852381D01*
X65023809Y-62852381D01*
X65119047Y-62804762D01*
X65166666Y-62709524D01*
X65166666Y-62328571D01*
X65119047Y-62233333D01*
X65023809Y-62185714D01*
X64833332Y-62185714D01*
X64738094Y-62233333D01*
X64690475Y-62328571D01*
X64690475Y-62423810D01*
X65166666Y-62519048D01*
X64261904Y-62185714D02*
X64261904Y-62852381D01*
X64261904Y-62280952D02*
X64214285Y-62233333D01*
X64119047Y-62185714D01*
X63976189Y-62185714D01*
X63880951Y-62233333D01*
X63833332Y-62328571D01*
X63833332Y-62852381D01*
X63404761Y-62804762D02*
X63309523Y-62852381D01*
X63119047Y-62852381D01*
X63023808Y-62804762D01*
X62976189Y-62709524D01*
X62976189Y-62661905D01*
X63023808Y-62566667D01*
X63119047Y-62519048D01*
X63261904Y-62519048D01*
X63357142Y-62471429D01*
X63404761Y-62376190D01*
X63404761Y-62328571D01*
X63357142Y-62233333D01*
X63261904Y-62185714D01*
X63119047Y-62185714D01*
X63023808Y-62233333D01*
X62404761Y-62852381D02*
X62499999Y-62804762D01*
X62547618Y-62757143D01*
X62595237Y-62661905D01*
X62595237Y-62376190D01*
X62547618Y-62280952D01*
X62499999Y-62233333D01*
X62404761Y-62185714D01*
X62261903Y-62185714D01*
X62166665Y-62233333D01*
X62119046Y-62280952D01*
X62071427Y-62376190D01*
X62071427Y-62661905D01*
X62119046Y-62757143D01*
X62166665Y-62804762D01*
X62261903Y-62852381D01*
X62404761Y-62852381D01*
X61642856Y-62852381D02*
X61642856Y-62185714D01*
X61642856Y-62376190D02*
X61595237Y-62280952D01*
X61547618Y-62233333D01*
X61452380Y-62185714D01*
X61357141Y-62185714D01*
X61071427Y-62804762D02*
X60976189Y-62852381D01*
X60785713Y-62852381D01*
X60690474Y-62804762D01*
X60642855Y-62709524D01*
X60642855Y-62661905D01*
X60690474Y-62566667D01*
X60785713Y-62519048D01*
X60928570Y-62519048D01*
X61023808Y-62471429D01*
X61071427Y-62376190D01*
X61071427Y-62328571D01*
X61023808Y-62233333D01*
X60928570Y-62185714D01*
X60785713Y-62185714D01*
X60690474Y-62233333D01*
X60214284Y-62471429D02*
X59452379Y-62471429D01*
X58833332Y-62852381D02*
X58928570Y-62804762D01*
X58976189Y-62757143D01*
X59023808Y-62661905D01*
X59023808Y-62376190D01*
X58976189Y-62280952D01*
X58928570Y-62233333D01*
X58833332Y-62185714D01*
X58690474Y-62185714D01*
X58595236Y-62233333D01*
X58547617Y-62280952D01*
X58499998Y-62376190D01*
X58499998Y-62661905D01*
X58547617Y-62757143D01*
X58595236Y-62804762D01*
X58690474Y-62852381D01*
X58833332Y-62852381D01*
X58071427Y-62185714D02*
X58071427Y-63185714D01*
X58071427Y-62233333D02*
X57976189Y-62185714D01*
X57785712Y-62185714D01*
X57690474Y-62233333D01*
X57642855Y-62280952D01*
X57595236Y-62376190D01*
X57595236Y-62661905D01*
X57642855Y-62757143D01*
X57690474Y-62804762D01*
X57785712Y-62852381D01*
X57976189Y-62852381D01*
X58071427Y-62804762D01*
X56785712Y-62804762D02*
X56880950Y-62852381D01*
X57071427Y-62852381D01*
X57166665Y-62804762D01*
X57214284Y-62709524D01*
X57214284Y-62328571D01*
X57166665Y-62233333D01*
X57071427Y-62185714D01*
X56880950Y-62185714D01*
X56785712Y-62233333D01*
X56738093Y-62328571D01*
X56738093Y-62423810D01*
X57214284Y-62519048D01*
X56309522Y-62185714D02*
X56309522Y-62852381D01*
X56309522Y-62280952D02*
X56261903Y-62233333D01*
X56166665Y-62185714D01*
X56023807Y-62185714D01*
X55928569Y-62233333D01*
X55880950Y-62328571D01*
X55880950Y-62852381D01*
X55547617Y-62185714D02*
X55166665Y-62185714D01*
X55404760Y-61852381D02*
X55404760Y-62709524D01*
X55357141Y-62804762D01*
X55261903Y-62852381D01*
X55166665Y-62852381D01*
X54833331Y-62852381D02*
X54833331Y-61852381D01*
X54404759Y-62852381D02*
X54404759Y-62328571D01*
X54452378Y-62233333D01*
X54547616Y-62185714D01*
X54690474Y-62185714D01*
X54785712Y-62233333D01*
X54833331Y-62280952D01*
X53547616Y-62804762D02*
X53642854Y-62852381D01*
X53833331Y-62852381D01*
X53928569Y-62804762D01*
X53976188Y-62709524D01*
X53976188Y-62328571D01*
X53928569Y-62233333D01*
X53833331Y-62185714D01*
X53642854Y-62185714D01*
X53547616Y-62233333D01*
X53499997Y-62328571D01*
X53499997Y-62423810D01*
X53976188Y-62519048D01*
X53071426Y-62852381D02*
X53071426Y-62185714D01*
X53071426Y-62376190D02*
X53023807Y-62280952D01*
X52976188Y-62233333D01*
X52880950Y-62185714D01*
X52785711Y-62185714D01*
X52452378Y-62852381D02*
X52452378Y-62185714D01*
X52452378Y-62280952D02*
X52404759Y-62233333D01*
X52309521Y-62185714D01*
X52166663Y-62185714D01*
X52071425Y-62233333D01*
X52023806Y-62328571D01*
X52023806Y-62852381D01*
X52023806Y-62328571D02*
X51976187Y-62233333D01*
X51880949Y-62185714D01*
X51738092Y-62185714D01*
X51642854Y-62233333D01*
X51595235Y-62328571D01*
X51595235Y-62852381D01*
X96071429Y-63472381D02*
X95880952Y-63472381D01*
X95785714Y-63520000D01*
X95690476Y-63615238D01*
X95642857Y-63805714D01*
X95642857Y-64139048D01*
X95690476Y-64329524D01*
X95785714Y-64424762D01*
X95880952Y-64472381D01*
X96071429Y-64472381D01*
X96166667Y-64424762D01*
X96261905Y-64329524D01*
X96309524Y-64139048D01*
X96309524Y-63805714D01*
X96261905Y-63615238D01*
X96166667Y-63520000D01*
X96071429Y-63472381D01*
X95214286Y-64472381D02*
X95214286Y-63805714D01*
X95214286Y-63996190D02*
X95166667Y-63900952D01*
X95119048Y-63853333D01*
X95023810Y-63805714D01*
X94928571Y-63805714D01*
X94595238Y-64472381D02*
X94595238Y-63805714D01*
X94595238Y-63472381D02*
X94642857Y-63520000D01*
X94595238Y-63567619D01*
X94547619Y-63520000D01*
X94595238Y-63472381D01*
X94595238Y-63567619D01*
X93690476Y-63805714D02*
X93690476Y-64615238D01*
X93738095Y-64710476D01*
X93785714Y-64758095D01*
X93880953Y-64805714D01*
X94023810Y-64805714D01*
X94119048Y-64758095D01*
X93690476Y-64424762D02*
X93785714Y-64472381D01*
X93976191Y-64472381D01*
X94071429Y-64424762D01*
X94119048Y-64377143D01*
X94166667Y-64281905D01*
X94166667Y-63996190D01*
X94119048Y-63900952D01*
X94071429Y-63853333D01*
X93976191Y-63805714D01*
X93785714Y-63805714D01*
X93690476Y-63853333D01*
X93214286Y-64472381D02*
X93214286Y-63805714D01*
X93214286Y-63472381D02*
X93261905Y-63520000D01*
X93214286Y-63567619D01*
X93166667Y-63520000D01*
X93214286Y-63472381D01*
X93214286Y-63567619D01*
X92738096Y-63805714D02*
X92738096Y-64472381D01*
X92738096Y-63900952D02*
X92690477Y-63853333D01*
X92595239Y-63805714D01*
X92452381Y-63805714D01*
X92357143Y-63853333D01*
X92309524Y-63948571D01*
X92309524Y-64472381D01*
X91404762Y-64472381D02*
X91404762Y-63948571D01*
X91452381Y-63853333D01*
X91547619Y-63805714D01*
X91738096Y-63805714D01*
X91833334Y-63853333D01*
X91404762Y-64424762D02*
X91500000Y-64472381D01*
X91738096Y-64472381D01*
X91833334Y-64424762D01*
X91880953Y-64329524D01*
X91880953Y-64234286D01*
X91833334Y-64139048D01*
X91738096Y-64091429D01*
X91500000Y-64091429D01*
X91404762Y-64043810D01*
X90785715Y-64472381D02*
X90880953Y-64424762D01*
X90928572Y-64329524D01*
X90928572Y-63472381D01*
X89214285Y-63805714D02*
X89214285Y-64615238D01*
X89261904Y-64710476D01*
X89309523Y-64758095D01*
X89404762Y-64805714D01*
X89547619Y-64805714D01*
X89642857Y-64758095D01*
X89214285Y-64424762D02*
X89309523Y-64472381D01*
X89500000Y-64472381D01*
X89595238Y-64424762D01*
X89642857Y-64377143D01*
X89690476Y-64281905D01*
X89690476Y-63996190D01*
X89642857Y-63900952D01*
X89595238Y-63853333D01*
X89500000Y-63805714D01*
X89309523Y-63805714D01*
X89214285Y-63853333D01*
X88309523Y-64472381D02*
X88309523Y-63948571D01*
X88357142Y-63853333D01*
X88452380Y-63805714D01*
X88642857Y-63805714D01*
X88738095Y-63853333D01*
X88309523Y-64424762D02*
X88404761Y-64472381D01*
X88642857Y-64472381D01*
X88738095Y-64424762D01*
X88785714Y-64329524D01*
X88785714Y-64234286D01*
X88738095Y-64139048D01*
X88642857Y-64091429D01*
X88404761Y-64091429D01*
X88309523Y-64043810D01*
X87976190Y-63805714D02*
X87595238Y-63805714D01*
X87833333Y-63472381D02*
X87833333Y-64329524D01*
X87785714Y-64424762D01*
X87690476Y-64472381D01*
X87595238Y-64472381D01*
X86880951Y-64424762D02*
X86976189Y-64472381D01*
X87166666Y-64472381D01*
X87261904Y-64424762D01*
X87309523Y-64329524D01*
X87309523Y-63948571D01*
X87261904Y-63853333D01*
X87166666Y-63805714D01*
X86976189Y-63805714D01*
X86880951Y-63853333D01*
X86833332Y-63948571D01*
X86833332Y-64043810D01*
X87309523Y-64139048D01*
X86499999Y-63805714D02*
X86309523Y-64472381D01*
X86119046Y-63996190D01*
X85928570Y-64472381D01*
X85738094Y-63805714D01*
X84928570Y-64472381D02*
X84928570Y-63948571D01*
X84976189Y-63853333D01*
X85071427Y-63805714D01*
X85261904Y-63805714D01*
X85357142Y-63853333D01*
X84928570Y-64424762D02*
X85023808Y-64472381D01*
X85261904Y-64472381D01*
X85357142Y-64424762D01*
X85404761Y-64329524D01*
X85404761Y-64234286D01*
X85357142Y-64139048D01*
X85261904Y-64091429D01*
X85023808Y-64091429D01*
X84928570Y-64043810D01*
X84547618Y-63805714D02*
X84309523Y-64472381D01*
X84071427Y-63805714D02*
X84309523Y-64472381D01*
X84404761Y-64710476D01*
X84452380Y-64758095D01*
X84547618Y-64805714D01*
X83690475Y-64377143D02*
X83642856Y-64424762D01*
X83690475Y-64472381D01*
X83738094Y-64424762D01*
X83690475Y-64377143D01*
X83690475Y-64472381D01*
X83690475Y-63853333D02*
X83642856Y-63900952D01*
X83690475Y-63948571D01*
X83738094Y-63900952D01*
X83690475Y-63853333D01*
X83690475Y-63948571D01*
X82452380Y-64472381D02*
X82452380Y-63472381D01*
X82023808Y-64472381D02*
X82023808Y-63948571D01*
X82071427Y-63853333D01*
X82166665Y-63805714D01*
X82309523Y-63805714D01*
X82404761Y-63853333D01*
X82452380Y-63900952D01*
X81690475Y-63805714D02*
X81309523Y-63805714D01*
X81547618Y-63472381D02*
X81547618Y-64329524D01*
X81499999Y-64424762D01*
X81404761Y-64472381D01*
X81309523Y-64472381D01*
X81119046Y-63805714D02*
X80738094Y-63805714D01*
X80976189Y-63472381D02*
X80976189Y-64329524D01*
X80928570Y-64424762D01*
X80833332Y-64472381D01*
X80738094Y-64472381D01*
X80404760Y-63805714D02*
X80404760Y-64805714D01*
X80404760Y-63853333D02*
X80309522Y-63805714D01*
X80119045Y-63805714D01*
X80023807Y-63853333D01*
X79976188Y-63900952D01*
X79928569Y-63996190D01*
X79928569Y-64281905D01*
X79976188Y-64377143D01*
X80023807Y-64424762D01*
X80119045Y-64472381D01*
X80309522Y-64472381D01*
X80404760Y-64424762D01*
X79499998Y-64377143D02*
X79452379Y-64424762D01*
X79499998Y-64472381D01*
X79547617Y-64424762D01*
X79499998Y-64377143D01*
X79499998Y-64472381D01*
X79499998Y-63853333D02*
X79452379Y-63900952D01*
X79499998Y-63948571D01*
X79547617Y-63900952D01*
X79499998Y-63853333D01*
X79499998Y-63948571D01*
X78309522Y-63424762D02*
X79166665Y-64710476D01*
X77261903Y-63424762D02*
X78119046Y-64710476D01*
X76785713Y-64472381D02*
X76880951Y-64424762D01*
X76928570Y-64377143D01*
X76976189Y-64281905D01*
X76976189Y-63996190D01*
X76928570Y-63900952D01*
X76880951Y-63853333D01*
X76785713Y-63805714D01*
X76642855Y-63805714D01*
X76547617Y-63853333D01*
X76499998Y-63900952D01*
X76452379Y-63996190D01*
X76452379Y-64281905D01*
X76499998Y-64377143D01*
X76547617Y-64424762D01*
X76642855Y-64472381D01*
X76785713Y-64472381D01*
X76166665Y-63805714D02*
X75785713Y-63805714D01*
X76023808Y-63472381D02*
X76023808Y-64329524D01*
X75976189Y-64424762D01*
X75880951Y-64472381D01*
X75785713Y-64472381D01*
X75023807Y-63805714D02*
X75023807Y-64615238D01*
X75071426Y-64710476D01*
X75119045Y-64758095D01*
X75214284Y-64805714D01*
X75357141Y-64805714D01*
X75452379Y-64758095D01*
X75023807Y-64424762D02*
X75119045Y-64472381D01*
X75309522Y-64472381D01*
X75404760Y-64424762D01*
X75452379Y-64377143D01*
X75499998Y-64281905D01*
X75499998Y-63996190D01*
X75452379Y-63900952D01*
X75404760Y-63853333D01*
X75309522Y-63805714D01*
X75119045Y-63805714D01*
X75023807Y-63853333D01*
X74642855Y-63805714D02*
X74452379Y-64472381D01*
X74261902Y-63996190D01*
X74071426Y-64472381D01*
X73880950Y-63805714D01*
X73499998Y-64377143D02*
X73452379Y-64424762D01*
X73499998Y-64472381D01*
X73547617Y-64424762D01*
X73499998Y-64377143D01*
X73499998Y-64472381D01*
X73166665Y-63805714D02*
X72785713Y-63805714D01*
X73023808Y-63472381D02*
X73023808Y-64329524D01*
X72976189Y-64424762D01*
X72880951Y-64472381D01*
X72785713Y-64472381D01*
X72023807Y-64424762D02*
X72119045Y-64472381D01*
X72309522Y-64472381D01*
X72404760Y-64424762D01*
X72452379Y-64377143D01*
X72499998Y-64281905D01*
X72499998Y-63996190D01*
X72452379Y-63900952D01*
X72404760Y-63853333D01*
X72309522Y-63805714D01*
X72119045Y-63805714D01*
X72023807Y-63853333D01*
X71452379Y-64472381D02*
X71547617Y-64424762D01*
X71595236Y-64329524D01*
X71595236Y-63472381D01*
X70642854Y-64424762D02*
X70738092Y-64472381D01*
X70928569Y-64472381D01*
X71023807Y-64424762D01*
X71071426Y-64377143D01*
X71119045Y-64281905D01*
X71119045Y-63996190D01*
X71071426Y-63900952D01*
X71023807Y-63853333D01*
X70928569Y-63805714D01*
X70738092Y-63805714D01*
X70642854Y-63853333D01*
X70071426Y-64472381D02*
X70166664Y-64424762D01*
X70214283Y-64377143D01*
X70261902Y-64281905D01*
X70261902Y-63996190D01*
X70214283Y-63900952D01*
X70166664Y-63853333D01*
X70071426Y-63805714D01*
X69928568Y-63805714D01*
X69833330Y-63853333D01*
X69785711Y-63900952D01*
X69738092Y-63996190D01*
X69738092Y-64281905D01*
X69785711Y-64377143D01*
X69833330Y-64424762D01*
X69928568Y-64472381D01*
X70071426Y-64472381D01*
X68880949Y-64472381D02*
X68880949Y-63472381D01*
X68880949Y-64424762D02*
X68976187Y-64472381D01*
X69166664Y-64472381D01*
X69261902Y-64424762D01*
X69309521Y-64377143D01*
X69357140Y-64281905D01*
X69357140Y-63996190D01*
X69309521Y-63900952D01*
X69261902Y-63853333D01*
X69166664Y-63805714D01*
X68976187Y-63805714D01*
X68880949Y-63853333D01*
X68023806Y-64424762D02*
X68119044Y-64472381D01*
X68309521Y-64472381D01*
X68404759Y-64424762D01*
X68452378Y-64329524D01*
X68452378Y-63948571D01*
X68404759Y-63853333D01*
X68309521Y-63805714D01*
X68119044Y-63805714D01*
X68023806Y-63853333D01*
X67976187Y-63948571D01*
X67976187Y-64043810D01*
X68452378Y-64139048D01*
X67547616Y-64377143D02*
X67499997Y-64424762D01*
X67547616Y-64472381D01*
X67595235Y-64424762D01*
X67547616Y-64377143D01*
X67547616Y-64472381D01*
X66642854Y-64424762D02*
X66738092Y-64472381D01*
X66928569Y-64472381D01*
X67023807Y-64424762D01*
X67071426Y-64377143D01*
X67119045Y-64281905D01*
X67119045Y-63996190D01*
X67071426Y-63900952D01*
X67023807Y-63853333D01*
X66928569Y-63805714D01*
X66738092Y-63805714D01*
X66642854Y-63853333D01*
X66071426Y-64472381D02*
X66166664Y-64424762D01*
X66214283Y-64377143D01*
X66261902Y-64281905D01*
X66261902Y-63996190D01*
X66214283Y-63900952D01*
X66166664Y-63853333D01*
X66071426Y-63805714D01*
X65928568Y-63805714D01*
X65833330Y-63853333D01*
X65785711Y-63900952D01*
X65738092Y-63996190D01*
X65738092Y-64281905D01*
X65785711Y-64377143D01*
X65833330Y-64424762D01*
X65928568Y-64472381D01*
X66071426Y-64472381D01*
X65309521Y-64472381D02*
X65309521Y-63805714D01*
X65309521Y-63900952D02*
X65261902Y-63853333D01*
X65166664Y-63805714D01*
X65023806Y-63805714D01*
X64928568Y-63853333D01*
X64880949Y-63948571D01*
X64880949Y-64472381D01*
X64880949Y-63948571D02*
X64833330Y-63853333D01*
X64738092Y-63805714D01*
X64595235Y-63805714D01*
X64499997Y-63853333D01*
X64452378Y-63948571D01*
X64452378Y-64472381D01*
D12*
G36*
X73955946Y-93055041D02*
X74180731Y-93012959D01*
X74316959Y-92920466D01*
X74404734Y-92759283D01*
X74429914Y-92687866D01*
X74494887Y-92321693D01*
X74455659Y-91987245D01*
X74328958Y-91715732D01*
X74131512Y-91538369D01*
X73880050Y-91486367D01*
X73793617Y-91500613D01*
X73672302Y-91522069D01*
X73609107Y-91483291D01*
X73585097Y-91347539D01*
X73581333Y-91088730D01*
X73584984Y-90823471D01*
X73610039Y-90690086D01*
X73677648Y-90651114D01*
X73808962Y-90669094D01*
X73817330Y-90670766D01*
X74090624Y-90651620D01*
X74259721Y-90550838D01*
X74368586Y-90441665D01*
X74435672Y-90300999D01*
X74474485Y-90082975D01*
X74498533Y-89741729D01*
X74498645Y-89739522D01*
X74513065Y-89413940D01*
X74508744Y-89222099D01*
X74475548Y-89128623D01*
X74403346Y-89098138D01*
X74314122Y-89095333D01*
X74198691Y-89104956D01*
X74131356Y-89158836D01*
X74096225Y-89294493D01*
X74077405Y-89549446D01*
X74072035Y-89666833D01*
X74054946Y-89969778D01*
X74026739Y-90140932D01*
X73971889Y-90217778D01*
X73874870Y-90237803D01*
X73835333Y-90238333D01*
X73722680Y-90228025D01*
X73656840Y-90172110D01*
X73622289Y-90033103D01*
X73603502Y-89773521D01*
X73598631Y-89666833D01*
X73581416Y-89363783D01*
X73553017Y-89192564D01*
X73498175Y-89115724D01*
X73401633Y-89095809D01*
X73365798Y-89095333D01*
X73158000Y-89095333D01*
X73158000Y-92274078D01*
X73581333Y-92274078D01*
X73605800Y-92027803D01*
X73695329Y-91915526D01*
X73874111Y-91906918D01*
X73874183Y-91906929D01*
X73991907Y-91961030D01*
X74052368Y-92109035D01*
X74072510Y-92280775D01*
X74070562Y-92526813D01*
X74009562Y-92653427D01*
X73955946Y-92684402D01*
X73769370Y-92684114D01*
X73636128Y-92544574D01*
X73581554Y-92293535D01*
X73581333Y-92274078D01*
X73158000Y-92274078D01*
X73158000Y-93064971D01*
X73602500Y-93064992D01*
X73955946Y-93055041D01*
X73955946Y-93055041D01*
G37*
X73955946Y-93055041D02*
X74180731Y-93012959D01*
X74316959Y-92920466D01*
X74404734Y-92759283D01*
X74429914Y-92687866D01*
X74494887Y-92321693D01*
X74455659Y-91987245D01*
X74328958Y-91715732D01*
X74131512Y-91538369D01*
X73880050Y-91486367D01*
X73793617Y-91500613D01*
X73672302Y-91522069D01*
X73609107Y-91483291D01*
X73585097Y-91347539D01*
X73581333Y-91088730D01*
X73584984Y-90823471D01*
X73610039Y-90690086D01*
X73677648Y-90651114D01*
X73808962Y-90669094D01*
X73817330Y-90670766D01*
X74090624Y-90651620D01*
X74259721Y-90550838D01*
X74368586Y-90441665D01*
X74435672Y-90300999D01*
X74474485Y-90082975D01*
X74498533Y-89741729D01*
X74498645Y-89739522D01*
X74513065Y-89413940D01*
X74508744Y-89222099D01*
X74475548Y-89128623D01*
X74403346Y-89098138D01*
X74314122Y-89095333D01*
X74198691Y-89104956D01*
X74131356Y-89158836D01*
X74096225Y-89294493D01*
X74077405Y-89549446D01*
X74072035Y-89666833D01*
X74054946Y-89969778D01*
X74026739Y-90140932D01*
X73971889Y-90217778D01*
X73874870Y-90237803D01*
X73835333Y-90238333D01*
X73722680Y-90228025D01*
X73656840Y-90172110D01*
X73622289Y-90033103D01*
X73603502Y-89773521D01*
X73598631Y-89666833D01*
X73581416Y-89363783D01*
X73553017Y-89192564D01*
X73498175Y-89115724D01*
X73401633Y-89095809D01*
X73365798Y-89095333D01*
X73158000Y-89095333D01*
X73158000Y-92274078D01*
X73581333Y-92274078D01*
X73605800Y-92027803D01*
X73695329Y-91915526D01*
X73874111Y-91906918D01*
X73874183Y-91906929D01*
X73991907Y-91961030D01*
X74052368Y-92109035D01*
X74072510Y-92280775D01*
X74070562Y-92526813D01*
X74009562Y-92653427D01*
X73955946Y-92684402D01*
X73769370Y-92684114D01*
X73636128Y-92544574D01*
X73581554Y-92293535D01*
X73581333Y-92274078D01*
X73158000Y-92274078D01*
X73158000Y-93064971D01*
X73602500Y-93064992D01*
X73955946Y-93055041D01*
G36*
X75450201Y-90674793D02*
X75707678Y-90543855D01*
X75812681Y-90435646D01*
X75877704Y-90290300D01*
X75915687Y-90062626D01*
X75937978Y-89739522D01*
X75970508Y-89095333D01*
X75453254Y-89095333D01*
X75126575Y-89109625D01*
X74915770Y-89160999D01*
X74769138Y-89262208D01*
X74766667Y-89264667D01*
X74622795Y-89460619D01*
X74624191Y-89623077D01*
X75026506Y-89623077D01*
X75040498Y-89515624D01*
X75178024Y-89443281D01*
X75274667Y-89434000D01*
X75460587Y-89460611D01*
X75526046Y-89559622D01*
X75528667Y-89603334D01*
X75469907Y-89744271D01*
X75296870Y-89763345D01*
X75154591Y-89721275D01*
X75026506Y-89623077D01*
X74624191Y-89623077D01*
X74624429Y-89650720D01*
X74729134Y-89838495D01*
X74880728Y-89974247D01*
X75114877Y-90024565D01*
X75201009Y-90026667D01*
X75419933Y-90039808D01*
X75508884Y-90091364D01*
X75511645Y-90174834D01*
X75425908Y-90287284D01*
X75210387Y-90329681D01*
X75187937Y-90330419D01*
X74890006Y-90342014D01*
X74740048Y-90366148D01*
X74716706Y-90415516D01*
X74798618Y-90502814D01*
X74839546Y-90537484D01*
X75132648Y-90681468D01*
X75450201Y-90674793D01*
X75450201Y-90674793D01*
G37*
X75450201Y-90674793D02*
X75707678Y-90543855D01*
X75812681Y-90435646D01*
X75877704Y-90290300D01*
X75915687Y-90062626D01*
X75937978Y-89739522D01*
X75970508Y-89095333D01*
X75453254Y-89095333D01*
X75126575Y-89109625D01*
X74915770Y-89160999D01*
X74769138Y-89262208D01*
X74766667Y-89264667D01*
X74622795Y-89460619D01*
X74624191Y-89623077D01*
X75026506Y-89623077D01*
X75040498Y-89515624D01*
X75178024Y-89443281D01*
X75274667Y-89434000D01*
X75460587Y-89460611D01*
X75526046Y-89559622D01*
X75528667Y-89603334D01*
X75469907Y-89744271D01*
X75296870Y-89763345D01*
X75154591Y-89721275D01*
X75026506Y-89623077D01*
X74624191Y-89623077D01*
X74624429Y-89650720D01*
X74729134Y-89838495D01*
X74880728Y-89974247D01*
X75114877Y-90024565D01*
X75201009Y-90026667D01*
X75419933Y-90039808D01*
X75508884Y-90091364D01*
X75511645Y-90174834D01*
X75425908Y-90287284D01*
X75210387Y-90329681D01*
X75187937Y-90330419D01*
X74890006Y-90342014D01*
X74740048Y-90366148D01*
X74716706Y-90415516D01*
X74798618Y-90502814D01*
X74839546Y-90537484D01*
X75132648Y-90681468D01*
X75450201Y-90674793D01*
G36*
X76935332Y-90676451D02*
X77122911Y-90647683D01*
X77179245Y-90620016D01*
X77193930Y-90467252D01*
X77076181Y-90335792D01*
X76861929Y-90265044D01*
X76854960Y-90264327D01*
X76587000Y-90238333D01*
X76561965Y-89666833D01*
X76542870Y-89360752D01*
X76511222Y-89187696D01*
X76454917Y-89111357D01*
X76371465Y-89095333D01*
X76294056Y-89108526D01*
X76245386Y-89169127D01*
X76218877Y-89308670D01*
X76207950Y-89558690D01*
X76206000Y-89888530D01*
X76206000Y-90681727D01*
X76670970Y-90685906D01*
X76935332Y-90676451D01*
X76935332Y-90676451D01*
G37*
X76935332Y-90676451D02*
X77122911Y-90647683D01*
X77179245Y-90620016D01*
X77193930Y-90467252D01*
X77076181Y-90335792D01*
X76861929Y-90265044D01*
X76854960Y-90264327D01*
X76587000Y-90238333D01*
X76561965Y-89666833D01*
X76542870Y-89360752D01*
X76511222Y-89187696D01*
X76454917Y-89111357D01*
X76371465Y-89095333D01*
X76294056Y-89108526D01*
X76245386Y-89169127D01*
X76218877Y-89308670D01*
X76207950Y-89558690D01*
X76206000Y-89888530D01*
X76206000Y-90681727D01*
X76670970Y-90685906D01*
X76935332Y-90676451D01*
G36*
X78391796Y-91287331D02*
X78439027Y-91241335D01*
X78468510Y-91131691D01*
X78484399Y-90931416D01*
X78490843Y-90613523D01*
X78492000Y-90196000D01*
X78492000Y-89095333D01*
X77997122Y-89095333D01*
X77671039Y-89112150D01*
X77466306Y-89169964D01*
X77362122Y-89250167D01*
X77259078Y-89465024D01*
X77215474Y-89770545D01*
X77226716Y-90029185D01*
X77583563Y-90029185D01*
X77584641Y-89785853D01*
X77632772Y-89639423D01*
X77767463Y-89468266D01*
X77918587Y-89456499D01*
X78050071Y-89603128D01*
X78070901Y-89651542D01*
X78123959Y-89926570D01*
X78072574Y-90145592D01*
X77931072Y-90267914D01*
X77849434Y-90280667D01*
X77677159Y-90209905D01*
X77583563Y-90029185D01*
X77226716Y-90029185D01*
X77229792Y-90099944D01*
X77300514Y-90386437D01*
X77391333Y-90534667D01*
X77617094Y-90683626D01*
X77860303Y-90673319D01*
X77989566Y-90616355D01*
X78089587Y-90577978D01*
X78137670Y-90626933D01*
X78152513Y-90797053D01*
X78153333Y-90912688D01*
X78164235Y-91151918D01*
X78209577Y-91265513D01*
X78308319Y-91296462D01*
X78322667Y-91296667D01*
X78391796Y-91287331D01*
X78391796Y-91287331D01*
G37*
X78391796Y-91287331D02*
X78439027Y-91241335D01*
X78468510Y-91131691D01*
X78484399Y-90931416D01*
X78490843Y-90613523D01*
X78492000Y-90196000D01*
X78492000Y-89095333D01*
X77997122Y-89095333D01*
X77671039Y-89112150D01*
X77466306Y-89169964D01*
X77362122Y-89250167D01*
X77259078Y-89465024D01*
X77215474Y-89770545D01*
X77226716Y-90029185D01*
X77583563Y-90029185D01*
X77584641Y-89785853D01*
X77632772Y-89639423D01*
X77767463Y-89468266D01*
X77918587Y-89456499D01*
X78050071Y-89603128D01*
X78070901Y-89651542D01*
X78123959Y-89926570D01*
X78072574Y-90145592D01*
X77931072Y-90267914D01*
X77849434Y-90280667D01*
X77677159Y-90209905D01*
X77583563Y-90029185D01*
X77226716Y-90029185D01*
X77229792Y-90099944D01*
X77300514Y-90386437D01*
X77391333Y-90534667D01*
X77617094Y-90683626D01*
X77860303Y-90673319D01*
X77989566Y-90616355D01*
X78089587Y-90577978D01*
X78137670Y-90626933D01*
X78152513Y-90797053D01*
X78153333Y-90912688D01*
X78164235Y-91151918D01*
X78209577Y-91265513D01*
X78308319Y-91296462D01*
X78322667Y-91296667D01*
X78391796Y-91287331D01*
G36*
X78900525Y-90685641D02*
X78983317Y-90604043D01*
X79048797Y-90419426D01*
X79092184Y-90237812D01*
X79156172Y-89994832D01*
X79214458Y-89845577D01*
X79246423Y-89820466D01*
X79300692Y-89923336D01*
X79382909Y-90130453D01*
X79430592Y-90265487D01*
X79555016Y-90557969D01*
X79674978Y-90682625D01*
X79793045Y-90639066D01*
X79911789Y-90426906D01*
X79996008Y-90180157D01*
X80154543Y-89645667D01*
X80279283Y-90153667D01*
X80362476Y-90446624D01*
X80444643Y-90609351D01*
X80547660Y-90679394D01*
X80591011Y-90688722D01*
X80691722Y-90699223D01*
X80748986Y-90677312D01*
X80761593Y-90595834D01*
X80728334Y-90427638D01*
X80647998Y-90145569D01*
X80552838Y-89832187D01*
X80439685Y-89477437D01*
X80353227Y-89257932D01*
X80277529Y-89145040D01*
X80196651Y-89110127D01*
X80152263Y-89112520D01*
X80029592Y-89178400D01*
X79924014Y-89356667D01*
X79837826Y-89603334D01*
X79696660Y-90069000D01*
X79553989Y-89582167D01*
X79456788Y-89295697D01*
X79365353Y-89144305D01*
X79259261Y-89095776D01*
X79245335Y-89095333D01*
X79093129Y-89142148D01*
X79046302Y-89201167D01*
X78954982Y-89491240D01*
X78850616Y-89819263D01*
X78747945Y-90139347D01*
X78661710Y-90405603D01*
X78606652Y-90572140D01*
X78597553Y-90598167D01*
X78634595Y-90681374D01*
X78773203Y-90704000D01*
X78900525Y-90685641D01*
X78900525Y-90685641D01*
G37*
X78900525Y-90685641D02*
X78983317Y-90604043D01*
X79048797Y-90419426D01*
X79092184Y-90237812D01*
X79156172Y-89994832D01*
X79214458Y-89845577D01*
X79246423Y-89820466D01*
X79300692Y-89923336D01*
X79382909Y-90130453D01*
X79430592Y-90265487D01*
X79555016Y-90557969D01*
X79674978Y-90682625D01*
X79793045Y-90639066D01*
X79911789Y-90426906D01*
X79996008Y-90180157D01*
X80154543Y-89645667D01*
X80279283Y-90153667D01*
X80362476Y-90446624D01*
X80444643Y-90609351D01*
X80547660Y-90679394D01*
X80591011Y-90688722D01*
X80691722Y-90699223D01*
X80748986Y-90677312D01*
X80761593Y-90595834D01*
X80728334Y-90427638D01*
X80647998Y-90145569D01*
X80552838Y-89832187D01*
X80439685Y-89477437D01*
X80353227Y-89257932D01*
X80277529Y-89145040D01*
X80196651Y-89110127D01*
X80152263Y-89112520D01*
X80029592Y-89178400D01*
X79924014Y-89356667D01*
X79837826Y-89603334D01*
X79696660Y-90069000D01*
X79553989Y-89582167D01*
X79456788Y-89295697D01*
X79365353Y-89144305D01*
X79259261Y-89095776D01*
X79245335Y-89095333D01*
X79093129Y-89142148D01*
X79046302Y-89201167D01*
X78954982Y-89491240D01*
X78850616Y-89819263D01*
X78747945Y-90139347D01*
X78661710Y-90405603D01*
X78606652Y-90572140D01*
X78597553Y-90598167D01*
X78634595Y-90681374D01*
X78773203Y-90704000D01*
X78900525Y-90685641D01*
G36*
X81552612Y-90687350D02*
X81816530Y-90585774D01*
X81878666Y-90534667D01*
X81969753Y-90412458D01*
X82021836Y-90243046D01*
X82044501Y-89980905D01*
X82048000Y-89730334D01*
X82048000Y-89095333D01*
X81553122Y-89095333D01*
X81227039Y-89112150D01*
X81022306Y-89169964D01*
X80918122Y-89250167D01*
X80783495Y-89492149D01*
X80786299Y-89533792D01*
X81149850Y-89533792D01*
X81153149Y-89528133D01*
X81251589Y-89470326D01*
X81414057Y-89435523D01*
X81563879Y-89433271D01*
X81624667Y-89469409D01*
X81651005Y-89568933D01*
X81676058Y-89638742D01*
X81671969Y-89742098D01*
X81530841Y-89771385D01*
X81527891Y-89771370D01*
X81301941Y-89735112D01*
X81162441Y-89647165D01*
X81149850Y-89533792D01*
X80786299Y-89533792D01*
X80798869Y-89720453D01*
X80945821Y-89903886D01*
X81205927Y-90011250D01*
X81376714Y-90026667D01*
X81586574Y-90043431D01*
X81701768Y-90085223D01*
X81709333Y-90100966D01*
X81635701Y-90239312D01*
X81451235Y-90317677D01*
X81223722Y-90314778D01*
X81006367Y-90310999D01*
X80892289Y-90383962D01*
X80906595Y-90503747D01*
X80992914Y-90589844D01*
X81251430Y-90690366D01*
X81552612Y-90687350D01*
X81552612Y-90687350D01*
G37*
X81552612Y-90687350D02*
X81816530Y-90585774D01*
X81878666Y-90534667D01*
X81969753Y-90412458D01*
X82021836Y-90243046D01*
X82044501Y-89980905D01*
X82048000Y-89730334D01*
X82048000Y-89095333D01*
X81553122Y-89095333D01*
X81227039Y-89112150D01*
X81022306Y-89169964D01*
X80918122Y-89250167D01*
X80783495Y-89492149D01*
X80786299Y-89533792D01*
X81149850Y-89533792D01*
X81153149Y-89528133D01*
X81251589Y-89470326D01*
X81414057Y-89435523D01*
X81563879Y-89433271D01*
X81624667Y-89469409D01*
X81651005Y-89568933D01*
X81676058Y-89638742D01*
X81671969Y-89742098D01*
X81530841Y-89771385D01*
X81527891Y-89771370D01*
X81301941Y-89735112D01*
X81162441Y-89647165D01*
X81149850Y-89533792D01*
X80786299Y-89533792D01*
X80798869Y-89720453D01*
X80945821Y-89903886D01*
X81205927Y-90011250D01*
X81376714Y-90026667D01*
X81586574Y-90043431D01*
X81701768Y-90085223D01*
X81709333Y-90100966D01*
X81635701Y-90239312D01*
X81451235Y-90317677D01*
X81223722Y-90314778D01*
X81006367Y-90310999D01*
X80892289Y-90383962D01*
X80906595Y-90503747D01*
X80992914Y-90589844D01*
X81251430Y-90690366D01*
X81552612Y-90687350D01*
G36*
X82806317Y-90673148D02*
X83085305Y-90654314D01*
X83291849Y-90624168D01*
X83368715Y-90596840D01*
X83382665Y-90493016D01*
X83279537Y-90381981D01*
X83105785Y-90300478D01*
X82968966Y-90280667D01*
X82725333Y-90280667D01*
X82725333Y-89688000D01*
X82722221Y-89378364D01*
X82704098Y-89201153D01*
X82657786Y-89119469D01*
X82570108Y-89096413D01*
X82513667Y-89095333D01*
X82415299Y-89100988D01*
X82353399Y-89139179D01*
X82319521Y-89241751D01*
X82305218Y-89440547D01*
X82302044Y-89767411D01*
X82302000Y-89893354D01*
X82302000Y-90691375D01*
X82806317Y-90673148D01*
X82806317Y-90673148D01*
G37*
X82806317Y-90673148D02*
X83085305Y-90654314D01*
X83291849Y-90624168D01*
X83368715Y-90596840D01*
X83382665Y-90493016D01*
X83279537Y-90381981D01*
X83105785Y-90300478D01*
X82968966Y-90280667D01*
X82725333Y-90280667D01*
X82725333Y-89688000D01*
X82722221Y-89378364D01*
X82704098Y-89201153D01*
X82657786Y-89119469D01*
X82570108Y-89096413D01*
X82513667Y-89095333D01*
X82415299Y-89100988D01*
X82353399Y-89139179D01*
X82319521Y-89241751D01*
X82305218Y-89440547D01*
X82302044Y-89767411D01*
X82302000Y-89893354D01*
X82302000Y-90691375D01*
X82806317Y-90673148D01*
G36*
X84297138Y-90628680D02*
X84511836Y-90437946D01*
X84648409Y-90184633D01*
X84672667Y-90030515D01*
X84665321Y-89883829D01*
X84615677Y-89807045D01*
X84482326Y-89777534D01*
X84223857Y-89772669D01*
X84200792Y-89772667D01*
X83930672Y-89765391D01*
X83793618Y-89735540D01*
X83753691Y-89671076D01*
X83758434Y-89624500D01*
X83824772Y-89524021D01*
X83996808Y-89481088D01*
X84137819Y-89476333D01*
X84425239Y-89453245D01*
X84562104Y-89387356D01*
X84542048Y-89283730D01*
X84465851Y-89215411D01*
X84223870Y-89118421D01*
X83932505Y-89103605D01*
X83679179Y-89172462D01*
X83634328Y-89201167D01*
X83438663Y-89438973D01*
X83356904Y-89735683D01*
X83377652Y-90050379D01*
X83411118Y-90137671D01*
X83749309Y-90137671D01*
X83801021Y-90053951D01*
X83995333Y-90026667D01*
X84191514Y-90062091D01*
X84249333Y-90144608D01*
X84181446Y-90274273D01*
X84028250Y-90326922D01*
X83865444Y-90277982D01*
X83857602Y-90271761D01*
X83749309Y-90137671D01*
X83411118Y-90137671D01*
X83489509Y-90342140D01*
X83681078Y-90570049D01*
X83940961Y-90693186D01*
X84052933Y-90704000D01*
X84297138Y-90628680D01*
X84297138Y-90628680D01*
G37*
X84297138Y-90628680D02*
X84511836Y-90437946D01*
X84648409Y-90184633D01*
X84672667Y-90030515D01*
X84665321Y-89883829D01*
X84615677Y-89807045D01*
X84482326Y-89777534D01*
X84223857Y-89772669D01*
X84200792Y-89772667D01*
X83930672Y-89765391D01*
X83793618Y-89735540D01*
X83753691Y-89671076D01*
X83758434Y-89624500D01*
X83824772Y-89524021D01*
X83996808Y-89481088D01*
X84137819Y-89476333D01*
X84425239Y-89453245D01*
X84562104Y-89387356D01*
X84542048Y-89283730D01*
X84465851Y-89215411D01*
X84223870Y-89118421D01*
X83932505Y-89103605D01*
X83679179Y-89172462D01*
X83634328Y-89201167D01*
X83438663Y-89438973D01*
X83356904Y-89735683D01*
X83377652Y-90050379D01*
X83411118Y-90137671D01*
X83749309Y-90137671D01*
X83801021Y-90053951D01*
X83995333Y-90026667D01*
X84191514Y-90062091D01*
X84249333Y-90144608D01*
X84181446Y-90274273D01*
X84028250Y-90326922D01*
X83865444Y-90277982D01*
X83857602Y-90271761D01*
X83749309Y-90137671D01*
X83411118Y-90137671D01*
X83489509Y-90342140D01*
X83681078Y-90570049D01*
X83940961Y-90693186D01*
X84052933Y-90704000D01*
X84297138Y-90628680D01*
G36*
X72651762Y-93004457D02*
X72866926Y-92800490D01*
X72976208Y-92472757D01*
X72988667Y-92282195D01*
X72929599Y-91915340D01*
X72770577Y-91649263D01*
X72538876Y-91500655D01*
X72261769Y-91486208D01*
X71966528Y-91622614D01*
X71941751Y-91641479D01*
X71808131Y-91771512D01*
X71741255Y-91928485D01*
X71719578Y-92173729D01*
X71718776Y-92264174D01*
X72057333Y-92264174D01*
X72108687Y-92024092D01*
X72234169Y-91880885D01*
X72390915Y-91846874D01*
X72536056Y-91934378D01*
X72615895Y-92103642D01*
X72637282Y-92416187D01*
X72524785Y-92634840D01*
X72466597Y-92679682D01*
X72292353Y-92713502D01*
X72149623Y-92607182D01*
X72067140Y-92389895D01*
X72057333Y-92264174D01*
X71718776Y-92264174D01*
X71718667Y-92276478D01*
X71763756Y-92668810D01*
X71903580Y-92925207D01*
X72144979Y-93054470D01*
X72338908Y-93074667D01*
X72651762Y-93004457D01*
X72651762Y-93004457D01*
G37*
X72651762Y-93004457D02*
X72866926Y-92800490D01*
X72976208Y-92472757D01*
X72988667Y-92282195D01*
X72929599Y-91915340D01*
X72770577Y-91649263D01*
X72538876Y-91500655D01*
X72261769Y-91486208D01*
X71966528Y-91622614D01*
X71941751Y-91641479D01*
X71808131Y-91771512D01*
X71741255Y-91928485D01*
X71719578Y-92173729D01*
X71718776Y-92264174D01*
X72057333Y-92264174D01*
X72108687Y-92024092D01*
X72234169Y-91880885D01*
X72390915Y-91846874D01*
X72536056Y-91934378D01*
X72615895Y-92103642D01*
X72637282Y-92416187D01*
X72524785Y-92634840D01*
X72466597Y-92679682D01*
X72292353Y-92713502D01*
X72149623Y-92607182D01*
X72067140Y-92389895D01*
X72057333Y-92264174D01*
X71718776Y-92264174D01*
X71718667Y-92276478D01*
X71763756Y-92668810D01*
X71903580Y-92925207D01*
X72144979Y-93054470D01*
X72338908Y-93074667D01*
X72651762Y-93004457D01*
G36*
X75570330Y-93007981D02*
X75782004Y-92817891D01*
X75912985Y-92515583D01*
X75923320Y-92460834D01*
X75974156Y-92143333D01*
X75497411Y-92143333D01*
X75192839Y-92128441D01*
X75046500Y-92079419D01*
X75049562Y-91989755D01*
X75150174Y-91887253D01*
X75304162Y-91823087D01*
X75482411Y-91872141D01*
X75658961Y-91920294D01*
X75779140Y-91850847D01*
X75789582Y-91838667D01*
X75844963Y-91690285D01*
X75809871Y-91628671D01*
X75635372Y-91544156D01*
X75375709Y-91505527D01*
X75110295Y-91518814D01*
X74959859Y-91564097D01*
X74764109Y-91750162D01*
X74651229Y-92039740D01*
X74635695Y-92381436D01*
X74674836Y-92576142D01*
X74681019Y-92587834D01*
X75041833Y-92587834D01*
X75085891Y-92507545D01*
X75274667Y-92482000D01*
X75468745Y-92509956D01*
X75507500Y-92587834D01*
X75405449Y-92670477D01*
X75274667Y-92693667D01*
X75107094Y-92653755D01*
X75041833Y-92587834D01*
X74681019Y-92587834D01*
X74830217Y-92869933D01*
X75056531Y-93037503D01*
X75315871Y-93082352D01*
X75570330Y-93007981D01*
X75570330Y-93007981D01*
G37*
X75570330Y-93007981D02*
X75782004Y-92817891D01*
X75912985Y-92515583D01*
X75923320Y-92460834D01*
X75974156Y-92143333D01*
X75497411Y-92143333D01*
X75192839Y-92128441D01*
X75046500Y-92079419D01*
X75049562Y-91989755D01*
X75150174Y-91887253D01*
X75304162Y-91823087D01*
X75482411Y-91872141D01*
X75658961Y-91920294D01*
X75779140Y-91850847D01*
X75789582Y-91838667D01*
X75844963Y-91690285D01*
X75809871Y-91628671D01*
X75635372Y-91544156D01*
X75375709Y-91505527D01*
X75110295Y-91518814D01*
X74959859Y-91564097D01*
X74764109Y-91750162D01*
X74651229Y-92039740D01*
X74635695Y-92381436D01*
X74674836Y-92576142D01*
X74681019Y-92587834D01*
X75041833Y-92587834D01*
X75085891Y-92507545D01*
X75274667Y-92482000D01*
X75468745Y-92509956D01*
X75507500Y-92587834D01*
X75405449Y-92670477D01*
X75274667Y-92693667D01*
X75107094Y-92653755D01*
X75041833Y-92587834D01*
X74681019Y-92587834D01*
X74830217Y-92869933D01*
X75056531Y-93037503D01*
X75315871Y-93082352D01*
X75570330Y-93007981D01*
G36*
X76951628Y-93043534D02*
X77177992Y-92976574D01*
X77310933Y-92828132D01*
X77374126Y-92570191D01*
X77391244Y-92174736D01*
X77391333Y-92130211D01*
X77387510Y-91796311D01*
X77370351Y-91597426D01*
X77331324Y-91499304D01*
X77261897Y-91467696D01*
X77225868Y-91466000D01*
X77135800Y-91485945D01*
X77081923Y-91570140D01*
X77051866Y-91755127D01*
X77035368Y-92028661D01*
X77007388Y-92367912D01*
X76954509Y-92573649D01*
X76867567Y-92680960D01*
X76864497Y-92682925D01*
X76705760Y-92725446D01*
X76589870Y-92620617D01*
X76512939Y-92361779D01*
X76475301Y-92016098D01*
X76449354Y-91715372D01*
X76411293Y-91547786D01*
X76348322Y-91477148D01*
X76280803Y-91466000D01*
X76206076Y-91480743D01*
X76159078Y-91545879D01*
X76133505Y-91692773D01*
X76123050Y-91952789D01*
X76121333Y-92259197D01*
X76121333Y-93052394D01*
X76608167Y-93057027D01*
X76951628Y-93043534D01*
X76951628Y-93043534D01*
G37*
X76951628Y-93043534D02*
X77177992Y-92976574D01*
X77310933Y-92828132D01*
X77374126Y-92570191D01*
X77391244Y-92174736D01*
X77391333Y-92130211D01*
X77387510Y-91796311D01*
X77370351Y-91597426D01*
X77331324Y-91499304D01*
X77261897Y-91467696D01*
X77225868Y-91466000D01*
X77135800Y-91485945D01*
X77081923Y-91570140D01*
X77051866Y-91755127D01*
X77035368Y-92028661D01*
X77007388Y-92367912D01*
X76954509Y-92573649D01*
X76867567Y-92680960D01*
X76864497Y-92682925D01*
X76705760Y-92725446D01*
X76589870Y-92620617D01*
X76512939Y-92361779D01*
X76475301Y-92016098D01*
X76449354Y-91715372D01*
X76411293Y-91547786D01*
X76348322Y-91477148D01*
X76280803Y-91466000D01*
X76206076Y-91480743D01*
X76159078Y-91545879D01*
X76133505Y-91692773D01*
X76123050Y-91952789D01*
X76121333Y-92259197D01*
X76121333Y-93052394D01*
X76608167Y-93057027D01*
X76951628Y-93043534D01*
G36*
X79262647Y-93030381D02*
X79412498Y-92955778D01*
X79457670Y-92849175D01*
X79418914Y-92773009D01*
X79273259Y-92694387D01*
X79016714Y-92700995D01*
X78990114Y-92705068D01*
X78773750Y-92726923D01*
X78678510Y-92692208D01*
X78661333Y-92619821D01*
X78728281Y-92510359D01*
X78896494Y-92482000D01*
X79199890Y-92418965D01*
X79415383Y-92249768D01*
X79507024Y-92004273D01*
X79508000Y-91974000D01*
X79436229Y-91725617D01*
X79245221Y-91555717D01*
X78971436Y-91476204D01*
X78651332Y-91498983D01*
X78376036Y-91604402D01*
X78219157Y-91704569D01*
X78196945Y-91784601D01*
X78255539Y-91858492D01*
X78389385Y-91935476D01*
X78574659Y-91905516D01*
X78615519Y-91890657D01*
X78838541Y-91843643D01*
X79039156Y-91859935D01*
X79157979Y-91930957D01*
X79169333Y-91970647D01*
X79093470Y-92062227D01*
X78900631Y-92125706D01*
X78701543Y-92143333D01*
X78504490Y-92214880D01*
X78330097Y-92386309D01*
X78240374Y-92592805D01*
X78238000Y-92627839D01*
X78293423Y-92763117D01*
X78407333Y-92905333D01*
X78580460Y-93010460D01*
X78807083Y-93062895D01*
X79047660Y-93067811D01*
X79262647Y-93030381D01*
X79262647Y-93030381D01*
G37*
X79262647Y-93030381D02*
X79412498Y-92955778D01*
X79457670Y-92849175D01*
X79418914Y-92773009D01*
X79273259Y-92694387D01*
X79016714Y-92700995D01*
X78990114Y-92705068D01*
X78773750Y-92726923D01*
X78678510Y-92692208D01*
X78661333Y-92619821D01*
X78728281Y-92510359D01*
X78896494Y-92482000D01*
X79199890Y-92418965D01*
X79415383Y-92249768D01*
X79507024Y-92004273D01*
X79508000Y-91974000D01*
X79436229Y-91725617D01*
X79245221Y-91555717D01*
X78971436Y-91476204D01*
X78651332Y-91498983D01*
X78376036Y-91604402D01*
X78219157Y-91704569D01*
X78196945Y-91784601D01*
X78255539Y-91858492D01*
X78389385Y-91935476D01*
X78574659Y-91905516D01*
X78615519Y-91890657D01*
X78838541Y-91843643D01*
X79039156Y-91859935D01*
X79157979Y-91930957D01*
X79169333Y-91970647D01*
X79093470Y-92062227D01*
X78900631Y-92125706D01*
X78701543Y-92143333D01*
X78504490Y-92214880D01*
X78330097Y-92386309D01*
X78240374Y-92592805D01*
X78238000Y-92627839D01*
X78293423Y-92763117D01*
X78407333Y-92905333D01*
X78580460Y-93010460D01*
X78807083Y-93062895D01*
X79047660Y-93067811D01*
X79262647Y-93030381D01*
G36*
X80605354Y-93001062D02*
X80818398Y-92791609D01*
X80931990Y-92463348D01*
X80947333Y-92255067D01*
X80886114Y-91899046D01*
X80722186Y-91641579D01*
X80485144Y-91500014D01*
X80204582Y-91491694D01*
X79910096Y-91633966D01*
X79900418Y-91641479D01*
X79766798Y-91771512D01*
X79699922Y-91928485D01*
X79678244Y-92173729D01*
X79677413Y-92267511D01*
X80016000Y-92267511D01*
X80037932Y-92030730D01*
X80126370Y-91918542D01*
X80315270Y-91889362D01*
X80324831Y-91889334D01*
X80496124Y-91947475D01*
X80575466Y-92107244D01*
X80582706Y-92356168D01*
X80536561Y-92530577D01*
X80403183Y-92700555D01*
X80251449Y-92726819D01*
X80115530Y-92626639D01*
X80029595Y-92417283D01*
X80016000Y-92267511D01*
X79677413Y-92267511D01*
X79677333Y-92276478D01*
X79721649Y-92667630D01*
X79859921Y-92923034D01*
X80100138Y-93052827D01*
X80306188Y-93074667D01*
X80605354Y-93001062D01*
X80605354Y-93001062D01*
G37*
X80605354Y-93001062D02*
X80818398Y-92791609D01*
X80931990Y-92463348D01*
X80947333Y-92255067D01*
X80886114Y-91899046D01*
X80722186Y-91641579D01*
X80485144Y-91500014D01*
X80204582Y-91491694D01*
X79910096Y-91633966D01*
X79900418Y-91641479D01*
X79766798Y-91771512D01*
X79699922Y-91928485D01*
X79678244Y-92173729D01*
X79677413Y-92267511D01*
X80016000Y-92267511D01*
X80037932Y-92030730D01*
X80126370Y-91918542D01*
X80315270Y-91889362D01*
X80324831Y-91889334D01*
X80496124Y-91947475D01*
X80575466Y-92107244D01*
X80582706Y-92356168D01*
X80536561Y-92530577D01*
X80403183Y-92700555D01*
X80251449Y-92726819D01*
X80115530Y-92626639D01*
X80029595Y-92417283D01*
X80016000Y-92267511D01*
X79677413Y-92267511D01*
X79677333Y-92276478D01*
X79721649Y-92667630D01*
X79859921Y-92923034D01*
X80100138Y-93052827D01*
X80306188Y-93074667D01*
X80605354Y-93001062D01*
G36*
X81435129Y-93063831D02*
X81499902Y-93006353D01*
X81534043Y-92864782D01*
X81552810Y-92601665D01*
X81557298Y-92503167D01*
X81574387Y-92200222D01*
X81602594Y-92029069D01*
X81657444Y-91952222D01*
X81754463Y-91932198D01*
X81794000Y-91931667D01*
X81906240Y-91941849D01*
X81972034Y-91997271D01*
X82006700Y-92135248D01*
X82025559Y-92393096D01*
X82030824Y-92508532D01*
X82048109Y-92812758D01*
X82075601Y-92982952D01*
X82126864Y-93054379D01*
X82215464Y-93062307D01*
X82242491Y-93058866D01*
X82331016Y-93035727D01*
X82385971Y-92974596D01*
X82415313Y-92841829D01*
X82426999Y-92603778D01*
X82429000Y-92270334D01*
X82429000Y-91508334D01*
X81974929Y-91492889D01*
X81681904Y-91497366D01*
X81490384Y-91548102D01*
X81334808Y-91663747D01*
X81318762Y-91679541D01*
X81209358Y-91812081D01*
X81147956Y-91968616D01*
X81121483Y-92200810D01*
X81116667Y-92478152D01*
X81119840Y-92789078D01*
X81137898Y-92967445D01*
X81183647Y-93050014D01*
X81269891Y-93073545D01*
X81324465Y-93074667D01*
X81435129Y-93063831D01*
X81435129Y-93063831D01*
G37*
X81435129Y-93063831D02*
X81499902Y-93006353D01*
X81534043Y-92864782D01*
X81552810Y-92601665D01*
X81557298Y-92503167D01*
X81574387Y-92200222D01*
X81602594Y-92029069D01*
X81657444Y-91952222D01*
X81754463Y-91932198D01*
X81794000Y-91931667D01*
X81906240Y-91941849D01*
X81972034Y-91997271D01*
X82006700Y-92135248D01*
X82025559Y-92393096D01*
X82030824Y-92508532D01*
X82048109Y-92812758D01*
X82075601Y-92982952D01*
X82126864Y-93054379D01*
X82215464Y-93062307D01*
X82242491Y-93058866D01*
X82331016Y-93035727D01*
X82385971Y-92974596D01*
X82415313Y-92841829D01*
X82426999Y-92603778D01*
X82429000Y-92270334D01*
X82429000Y-91508334D01*
X81974929Y-91492889D01*
X81681904Y-91497366D01*
X81490384Y-91548102D01*
X81334808Y-91663747D01*
X81318762Y-91679541D01*
X81209358Y-91812081D01*
X81147956Y-91968616D01*
X81121483Y-92200810D01*
X81116667Y-92478152D01*
X81119840Y-92789078D01*
X81137898Y-92967445D01*
X81183647Y-93050014D01*
X81269891Y-93073545D01*
X81324465Y-93074667D01*
X81435129Y-93063831D01*
G36*
X83453735Y-93051328D02*
X83644655Y-93016244D01*
X83703288Y-92983061D01*
X83703158Y-92853236D01*
X83602690Y-92732344D01*
X83462243Y-92682711D01*
X83420704Y-92691274D01*
X83246554Y-92695289D01*
X83131174Y-92548188D01*
X83072651Y-92246297D01*
X83064000Y-92005966D01*
X83058522Y-91711543D01*
X83034200Y-91548580D01*
X82979203Y-91479350D01*
X82894667Y-91466000D01*
X82815612Y-91478262D01*
X82765873Y-91536097D01*
X82738729Y-91671081D01*
X82727459Y-91914789D01*
X82725333Y-92261577D01*
X82725333Y-93057154D01*
X83187999Y-93062680D01*
X83453735Y-93051328D01*
X83453735Y-93051328D01*
G37*
X83453735Y-93051328D02*
X83644655Y-93016244D01*
X83703288Y-92983061D01*
X83703158Y-92853236D01*
X83602690Y-92732344D01*
X83462243Y-92682711D01*
X83420704Y-92691274D01*
X83246554Y-92695289D01*
X83131174Y-92548188D01*
X83072651Y-92246297D01*
X83064000Y-92005966D01*
X83058522Y-91711543D01*
X83034200Y-91548580D01*
X82979203Y-91479350D01*
X82894667Y-91466000D01*
X82815612Y-91478262D01*
X82765873Y-91536097D01*
X82738729Y-91671081D01*
X82727459Y-91914789D01*
X82725333Y-92261577D01*
X82725333Y-93057154D01*
X83187999Y-93062680D01*
X83453735Y-93051328D01*
G36*
X84630295Y-93035578D02*
X84836717Y-92934512D01*
X84926003Y-92795769D01*
X84926667Y-92782410D01*
X84862042Y-92653222D01*
X84692715Y-92626761D01*
X84527007Y-92676622D01*
X84309036Y-92708995D01*
X84158855Y-92597988D01*
X84094460Y-92362065D01*
X84096885Y-92235247D01*
X84121440Y-92048425D01*
X84186326Y-91960145D01*
X84340849Y-91933469D01*
X84502106Y-91931667D01*
X84752912Y-91915421D01*
X84877184Y-91856894D01*
X84910433Y-91783747D01*
X84860339Y-91636364D01*
X84715649Y-91550914D01*
X84404790Y-91473470D01*
X84152303Y-91522588D01*
X83936555Y-91670336D01*
X83754053Y-91919430D01*
X83687851Y-92217913D01*
X83725584Y-92524220D01*
X83854889Y-92796789D01*
X84063399Y-92994057D01*
X84338751Y-93074460D01*
X84354325Y-93074667D01*
X84630295Y-93035578D01*
X84630295Y-93035578D01*
G37*
X84630295Y-93035578D02*
X84836717Y-92934512D01*
X84926003Y-92795769D01*
X84926667Y-92782410D01*
X84862042Y-92653222D01*
X84692715Y-92626761D01*
X84527007Y-92676622D01*
X84309036Y-92708995D01*
X84158855Y-92597988D01*
X84094460Y-92362065D01*
X84096885Y-92235247D01*
X84121440Y-92048425D01*
X84186326Y-91960145D01*
X84340849Y-91933469D01*
X84502106Y-91931667D01*
X84752912Y-91915421D01*
X84877184Y-91856894D01*
X84910433Y-91783747D01*
X84860339Y-91636364D01*
X84715649Y-91550914D01*
X84404790Y-91473470D01*
X84152303Y-91522588D01*
X83936555Y-91670336D01*
X83754053Y-91919430D01*
X83687851Y-92217913D01*
X83725584Y-92524220D01*
X83854889Y-92796789D01*
X84063399Y-92994057D01*
X84338751Y-93074460D01*
X84354325Y-93074667D01*
X84630295Y-93035578D01*
G36*
X85945942Y-93015319D02*
X86153596Y-92837445D01*
X86269744Y-92569240D01*
X86281333Y-92439667D01*
X86281333Y-92143333D01*
X85818324Y-92143333D01*
X85548903Y-92134216D01*
X85418451Y-92101147D01*
X85397307Y-92035555D01*
X85401537Y-92022880D01*
X85535868Y-91874352D01*
X85743984Y-91850328D01*
X85869546Y-91895512D01*
X86051313Y-91938763D01*
X86168438Y-91877628D01*
X86245399Y-91786784D01*
X86201429Y-91696362D01*
X86111313Y-91617752D01*
X85822572Y-91482226D01*
X85513191Y-91497360D01*
X85233347Y-91659998D01*
X85219151Y-91673818D01*
X85056617Y-91945392D01*
X85004386Y-92283857D01*
X85046753Y-92526355D01*
X85388926Y-92526355D01*
X85456062Y-92489821D01*
X85646333Y-92482000D01*
X85845069Y-92491152D01*
X85903884Y-92530188D01*
X85858000Y-92609000D01*
X85719326Y-92716313D01*
X85646333Y-92736000D01*
X85507332Y-92676708D01*
X85434667Y-92609000D01*
X85388926Y-92526355D01*
X85046753Y-92526355D01*
X85064191Y-92626162D01*
X85186812Y-92851582D01*
X85421263Y-93037926D01*
X85688069Y-93087326D01*
X85945942Y-93015319D01*
X85945942Y-93015319D01*
G37*
X85945942Y-93015319D02*
X86153596Y-92837445D01*
X86269744Y-92569240D01*
X86281333Y-92439667D01*
X86281333Y-92143333D01*
X85818324Y-92143333D01*
X85548903Y-92134216D01*
X85418451Y-92101147D01*
X85397307Y-92035555D01*
X85401537Y-92022880D01*
X85535868Y-91874352D01*
X85743984Y-91850328D01*
X85869546Y-91895512D01*
X86051313Y-91938763D01*
X86168438Y-91877628D01*
X86245399Y-91786784D01*
X86201429Y-91696362D01*
X86111313Y-91617752D01*
X85822572Y-91482226D01*
X85513191Y-91497360D01*
X85233347Y-91659998D01*
X85219151Y-91673818D01*
X85056617Y-91945392D01*
X85004386Y-92283857D01*
X85046753Y-92526355D01*
X85388926Y-92526355D01*
X85456062Y-92489821D01*
X85646333Y-92482000D01*
X85845069Y-92491152D01*
X85903884Y-92530188D01*
X85858000Y-92609000D01*
X85719326Y-92716313D01*
X85646333Y-92736000D01*
X85507332Y-92676708D01*
X85434667Y-92609000D01*
X85388926Y-92526355D01*
X85046753Y-92526355D01*
X85064191Y-92626162D01*
X85186812Y-92851582D01*
X85421263Y-93037926D01*
X85688069Y-93087326D01*
X85945942Y-93015319D01*
G36*
X79924184Y-103806167D02*
X79994335Y-103408506D01*
X80057102Y-103141207D01*
X80133876Y-102967760D01*
X80246048Y-102851654D01*
X80415007Y-102756381D01*
X80583899Y-102680156D01*
X80843239Y-102569915D01*
X81039506Y-102494668D01*
X81118481Y-102472667D01*
X81212910Y-102517548D01*
X81411476Y-102637853D01*
X81417855Y-102642000D01*
X81878666Y-102642000D01*
X81878666Y-102056389D01*
X81894836Y-101683507D01*
X81942983Y-101472018D01*
X81984500Y-101424931D01*
X82196385Y-101401579D01*
X82461977Y-101453766D01*
X82694982Y-101561772D01*
X82740944Y-101597795D01*
X82862548Y-101811704D01*
X82894667Y-102057655D01*
X82830946Y-102359806D01*
X82638850Y-102552684D01*
X82316977Y-102637465D01*
X82198494Y-102642000D01*
X81878666Y-102642000D01*
X81417855Y-102642000D01*
X81679473Y-102812073D01*
X81830239Y-102913756D01*
X82476587Y-103354845D01*
X83042049Y-102789383D01*
X83607512Y-102223920D01*
X83162836Y-101572317D01*
X82718160Y-100920715D01*
X82945292Y-100386292D01*
X83078717Y-100111297D01*
X83209537Y-99905538D01*
X83308712Y-99814013D01*
X83456413Y-99781619D01*
X83716795Y-99732008D01*
X84035462Y-99675513D01*
X84058833Y-99671518D01*
X84672667Y-99566881D01*
X84672667Y-97920817D01*
X83997341Y-97811146D01*
X83673453Y-97754194D01*
X83415080Y-97700675D01*
X83267297Y-97660167D01*
X83252489Y-97652904D01*
X83180795Y-97547660D01*
X83078615Y-97337169D01*
X82968747Y-97076918D01*
X82873989Y-96822389D01*
X82817142Y-96629070D01*
X82810000Y-96576028D01*
X82854564Y-96455416D01*
X82973198Y-96236380D01*
X83143317Y-95959536D01*
X83206601Y-95862871D01*
X83603203Y-95266437D01*
X83040498Y-94703733D01*
X82477794Y-94141029D01*
X81876144Y-94552119D01*
X81274493Y-94963209D01*
X80970770Y-94818373D01*
X80849517Y-94758598D01*
X80756735Y-94725405D01*
X80678559Y-94737555D01*
X80601124Y-94813807D01*
X80510562Y-94972921D01*
X80396901Y-95225023D01*
X81794001Y-95225023D01*
X81889521Y-94979660D01*
X82103420Y-94794118D01*
X82159368Y-94768591D01*
X82331456Y-94704934D01*
X82451133Y-94697050D01*
X82619500Y-94736698D01*
X82786538Y-94821515D01*
X82805191Y-94920640D01*
X82688935Y-94998631D01*
X82511009Y-95022000D01*
X82263500Y-95063868D01*
X82149889Y-95200407D01*
X82158387Y-95448020D01*
X82169751Y-95496896D01*
X82236996Y-95652129D01*
X82368195Y-95691640D01*
X82471967Y-95681180D01*
X82689982Y-95692537D01*
X82766411Y-95768926D01*
X82789406Y-95888020D01*
X82718654Y-95948660D01*
X82522335Y-95969174D01*
X82416880Y-95970267D01*
X82128296Y-95902829D01*
X81922328Y-95728328D01*
X81807916Y-95488486D01*
X81794001Y-95225023D01*
X80396901Y-95225023D01*
X80393009Y-95233655D01*
X80234598Y-95614769D01*
X80051354Y-96062274D01*
X79571465Y-97231275D01*
X79931749Y-97539665D01*
X80278937Y-97915120D01*
X80471312Y-98325981D01*
X80524000Y-98747334D01*
X80446868Y-99242414D01*
X80396906Y-99340000D01*
X83402666Y-99340000D01*
X83402666Y-98753541D01*
X83409701Y-98434564D01*
X83436661Y-98247451D01*
X83492326Y-98155104D01*
X83550833Y-98127565D01*
X83807788Y-98110893D01*
X84079323Y-98166883D01*
X84284468Y-98276374D01*
X84314701Y-98308321D01*
X84379277Y-98478807D01*
X84366745Y-98575571D01*
X84326694Y-98762226D01*
X84322621Y-98907898D01*
X84284399Y-99147318D01*
X84126382Y-99287093D01*
X83833540Y-99339048D01*
X83773300Y-99340000D01*
X83402666Y-99340000D01*
X80396906Y-99340000D01*
X80230544Y-99664939D01*
X79897636Y-99992301D01*
X79470749Y-100201894D01*
X79000000Y-100271334D01*
X78504920Y-100194202D01*
X78082395Y-99977878D01*
X77755032Y-99644969D01*
X77545439Y-99218082D01*
X77476000Y-98747334D01*
X77541830Y-98280963D01*
X77749076Y-97875982D01*
X78069934Y-97538224D01*
X78431902Y-97228393D01*
X77951168Y-96061696D01*
X77744881Y-95559994D01*
X77591759Y-95195029D01*
X77477978Y-94948017D01*
X77389712Y-94800177D01*
X77313139Y-94732727D01*
X77234435Y-94726881D01*
X77139776Y-94763859D01*
X77034313Y-94815949D01*
X76735673Y-94958361D01*
X76218521Y-94607170D01*
X75950931Y-94429601D01*
X75729532Y-94290176D01*
X75598736Y-94216780D01*
X75592751Y-94214298D01*
X75489003Y-94252329D01*
X75302203Y-94389145D01*
X75064703Y-94599611D01*
X74941116Y-94720505D01*
X74777652Y-94885435D01*
X75185529Y-94885435D01*
X75239529Y-94784137D01*
X75338167Y-94740093D01*
X75565688Y-94724203D01*
X75799814Y-94771792D01*
X75959223Y-94864812D01*
X75971022Y-94880546D01*
X76033030Y-95106677D01*
X75933132Y-95313408D01*
X75783202Y-95428105D01*
X75583926Y-95564697D01*
X75545009Y-95655003D01*
X75666826Y-95696662D01*
X75740333Y-95699334D01*
X75908758Y-95747000D01*
X75945693Y-95851420D01*
X75844289Y-95954725D01*
X75773580Y-95980242D01*
X75498878Y-95993214D01*
X75301837Y-95897364D01*
X75201162Y-95731619D01*
X75215559Y-95534909D01*
X75363733Y-95346162D01*
X75443465Y-95293229D01*
X75642538Y-95157664D01*
X75679280Y-95069140D01*
X75553693Y-95026513D01*
X75444000Y-95022000D01*
X75259476Y-94980147D01*
X75185529Y-94885435D01*
X74777652Y-94885435D01*
X74398098Y-95268393D01*
X74794049Y-95863848D01*
X74975990Y-96150600D01*
X75113844Y-96392881D01*
X75185005Y-96550032D01*
X75190000Y-96576028D01*
X75158209Y-96722632D01*
X75078035Y-96955933D01*
X74972278Y-97220445D01*
X74863735Y-97460684D01*
X74775206Y-97621165D01*
X74747511Y-97652904D01*
X74636121Y-97688425D01*
X74402341Y-97739464D01*
X74091247Y-97796442D01*
X74002658Y-97811146D01*
X73327333Y-97920817D01*
X73327333Y-99340000D01*
X73581333Y-99340000D01*
X73581333Y-98747334D01*
X73585902Y-98435869D01*
X73606504Y-98257435D01*
X73653484Y-98175825D01*
X73737188Y-98154832D01*
X73750667Y-98154667D01*
X73893373Y-98215399D01*
X73920000Y-98311752D01*
X74001402Y-98459342D01*
X74195167Y-98547280D01*
X74400396Y-98641275D01*
X74487432Y-98798047D01*
X74497618Y-98860981D01*
X74476885Y-99118009D01*
X74333988Y-99272967D01*
X74056337Y-99336904D01*
X73951966Y-99340000D01*
X73581333Y-99340000D01*
X73327333Y-99340000D01*
X73327333Y-99566881D01*
X73941167Y-99671518D01*
X74262599Y-99728302D01*
X74530270Y-99779166D01*
X74689399Y-99813672D01*
X74694957Y-99815178D01*
X74796813Y-99908504D01*
X74929159Y-100115595D01*
X75062969Y-100390791D01*
X75291024Y-100927383D01*
X74840923Y-101574819D01*
X74390823Y-102222255D01*
X74810568Y-102642000D01*
X75190000Y-102642000D01*
X75190000Y-102049333D01*
X75194568Y-101737869D01*
X75215170Y-101559435D01*
X75262151Y-101477825D01*
X75345854Y-101456832D01*
X75359333Y-101456667D01*
X75493385Y-101507774D01*
X75528667Y-101662710D01*
X75567600Y-101822058D01*
X75715762Y-101889177D01*
X75761500Y-101895543D01*
X75940412Y-101957463D01*
X75994333Y-102049333D01*
X75918554Y-102155641D01*
X75761500Y-102203124D01*
X75573206Y-102255183D01*
X75541135Y-102325802D01*
X75661178Y-102379074D01*
X75782667Y-102388000D01*
X75984319Y-102425864D01*
X76036667Y-102515000D01*
X75991347Y-102594866D01*
X75834439Y-102633874D01*
X75613333Y-102642000D01*
X75190000Y-102642000D01*
X74810568Y-102642000D01*
X75516945Y-103348377D01*
X76197731Y-102901429D01*
X76878516Y-102454480D01*
X77353478Y-102651341D01*
X77618221Y-102777155D01*
X77817155Y-102901282D01*
X77893844Y-102977935D01*
X77938487Y-103120410D01*
X77996964Y-103379034D01*
X78001890Y-103405187D01*
X78326199Y-103405187D01*
X78330295Y-103138411D01*
X78353349Y-102936521D01*
X78380875Y-102866014D01*
X78499080Y-102827307D01*
X78600331Y-102936906D01*
X78661333Y-103153533D01*
X78703667Y-103439939D01*
X78807685Y-103210303D01*
X78926518Y-103024342D01*
X79043205Y-103005558D01*
X79164003Y-103154655D01*
X79212440Y-103255833D01*
X79332038Y-103531000D01*
X79335353Y-103218497D01*
X79369930Y-102968048D01*
X79455651Y-102838141D01*
X79575164Y-102850115D01*
X79610591Y-102880058D01*
X79654660Y-103022935D01*
X79656904Y-103306554D01*
X79638808Y-103524614D01*
X79577066Y-103874692D01*
X79486397Y-104062128D01*
X79370217Y-104085303D01*
X79231942Y-103942601D01*
X79133600Y-103763833D01*
X78981837Y-103446333D01*
X78854863Y-103763833D01*
X78723205Y-103986753D01*
X78577084Y-104079164D01*
X78447306Y-104032897D01*
X78376031Y-103890834D01*
X78341349Y-103676208D01*
X78326199Y-103405187D01*
X78001890Y-103405187D01*
X78057891Y-103702507D01*
X78068268Y-103763833D01*
X78177287Y-104420000D01*
X79819547Y-104420000D01*
X79924184Y-103806167D01*
X79924184Y-103806167D01*
G37*
X79924184Y-103806167D02*
X79994335Y-103408506D01*
X80057102Y-103141207D01*
X80133876Y-102967760D01*
X80246048Y-102851654D01*
X80415007Y-102756381D01*
X80583899Y-102680156D01*
X80843239Y-102569915D01*
X81039506Y-102494668D01*
X81118481Y-102472667D01*
X81212910Y-102517548D01*
X81411476Y-102637853D01*
X81417855Y-102642000D01*
X81878666Y-102642000D01*
X81878666Y-102056389D01*
X81894836Y-101683507D01*
X81942983Y-101472018D01*
X81984500Y-101424931D01*
X82196385Y-101401579D01*
X82461977Y-101453766D01*
X82694982Y-101561772D01*
X82740944Y-101597795D01*
X82862548Y-101811704D01*
X82894667Y-102057655D01*
X82830946Y-102359806D01*
X82638850Y-102552684D01*
X82316977Y-102637465D01*
X82198494Y-102642000D01*
X81878666Y-102642000D01*
X81417855Y-102642000D01*
X81679473Y-102812073D01*
X81830239Y-102913756D01*
X82476587Y-103354845D01*
X83042049Y-102789383D01*
X83607512Y-102223920D01*
X83162836Y-101572317D01*
X82718160Y-100920715D01*
X82945292Y-100386292D01*
X83078717Y-100111297D01*
X83209537Y-99905538D01*
X83308712Y-99814013D01*
X83456413Y-99781619D01*
X83716795Y-99732008D01*
X84035462Y-99675513D01*
X84058833Y-99671518D01*
X84672667Y-99566881D01*
X84672667Y-97920817D01*
X83997341Y-97811146D01*
X83673453Y-97754194D01*
X83415080Y-97700675D01*
X83267297Y-97660167D01*
X83252489Y-97652904D01*
X83180795Y-97547660D01*
X83078615Y-97337169D01*
X82968747Y-97076918D01*
X82873989Y-96822389D01*
X82817142Y-96629070D01*
X82810000Y-96576028D01*
X82854564Y-96455416D01*
X82973198Y-96236380D01*
X83143317Y-95959536D01*
X83206601Y-95862871D01*
X83603203Y-95266437D01*
X83040498Y-94703733D01*
X82477794Y-94141029D01*
X81876144Y-94552119D01*
X81274493Y-94963209D01*
X80970770Y-94818373D01*
X80849517Y-94758598D01*
X80756735Y-94725405D01*
X80678559Y-94737555D01*
X80601124Y-94813807D01*
X80510562Y-94972921D01*
X80396901Y-95225023D01*
X81794001Y-95225023D01*
X81889521Y-94979660D01*
X82103420Y-94794118D01*
X82159368Y-94768591D01*
X82331456Y-94704934D01*
X82451133Y-94697050D01*
X82619500Y-94736698D01*
X82786538Y-94821515D01*
X82805191Y-94920640D01*
X82688935Y-94998631D01*
X82511009Y-95022000D01*
X82263500Y-95063868D01*
X82149889Y-95200407D01*
X82158387Y-95448020D01*
X82169751Y-95496896D01*
X82236996Y-95652129D01*
X82368195Y-95691640D01*
X82471967Y-95681180D01*
X82689982Y-95692537D01*
X82766411Y-95768926D01*
X82789406Y-95888020D01*
X82718654Y-95948660D01*
X82522335Y-95969174D01*
X82416880Y-95970267D01*
X82128296Y-95902829D01*
X81922328Y-95728328D01*
X81807916Y-95488486D01*
X81794001Y-95225023D01*
X80396901Y-95225023D01*
X80393009Y-95233655D01*
X80234598Y-95614769D01*
X80051354Y-96062274D01*
X79571465Y-97231275D01*
X79931749Y-97539665D01*
X80278937Y-97915120D01*
X80471312Y-98325981D01*
X80524000Y-98747334D01*
X80446868Y-99242414D01*
X80396906Y-99340000D01*
X83402666Y-99340000D01*
X83402666Y-98753541D01*
X83409701Y-98434564D01*
X83436661Y-98247451D01*
X83492326Y-98155104D01*
X83550833Y-98127565D01*
X83807788Y-98110893D01*
X84079323Y-98166883D01*
X84284468Y-98276374D01*
X84314701Y-98308321D01*
X84379277Y-98478807D01*
X84366745Y-98575571D01*
X84326694Y-98762226D01*
X84322621Y-98907898D01*
X84284399Y-99147318D01*
X84126382Y-99287093D01*
X83833540Y-99339048D01*
X83773300Y-99340000D01*
X83402666Y-99340000D01*
X80396906Y-99340000D01*
X80230544Y-99664939D01*
X79897636Y-99992301D01*
X79470749Y-100201894D01*
X79000000Y-100271334D01*
X78504920Y-100194202D01*
X78082395Y-99977878D01*
X77755032Y-99644969D01*
X77545439Y-99218082D01*
X77476000Y-98747334D01*
X77541830Y-98280963D01*
X77749076Y-97875982D01*
X78069934Y-97538224D01*
X78431902Y-97228393D01*
X77951168Y-96061696D01*
X77744881Y-95559994D01*
X77591759Y-95195029D01*
X77477978Y-94948017D01*
X77389712Y-94800177D01*
X77313139Y-94732727D01*
X77234435Y-94726881D01*
X77139776Y-94763859D01*
X77034313Y-94815949D01*
X76735673Y-94958361D01*
X76218521Y-94607170D01*
X75950931Y-94429601D01*
X75729532Y-94290176D01*
X75598736Y-94216780D01*
X75592751Y-94214298D01*
X75489003Y-94252329D01*
X75302203Y-94389145D01*
X75064703Y-94599611D01*
X74941116Y-94720505D01*
X74777652Y-94885435D01*
X75185529Y-94885435D01*
X75239529Y-94784137D01*
X75338167Y-94740093D01*
X75565688Y-94724203D01*
X75799814Y-94771792D01*
X75959223Y-94864812D01*
X75971022Y-94880546D01*
X76033030Y-95106677D01*
X75933132Y-95313408D01*
X75783202Y-95428105D01*
X75583926Y-95564697D01*
X75545009Y-95655003D01*
X75666826Y-95696662D01*
X75740333Y-95699334D01*
X75908758Y-95747000D01*
X75945693Y-95851420D01*
X75844289Y-95954725D01*
X75773580Y-95980242D01*
X75498878Y-95993214D01*
X75301837Y-95897364D01*
X75201162Y-95731619D01*
X75215559Y-95534909D01*
X75363733Y-95346162D01*
X75443465Y-95293229D01*
X75642538Y-95157664D01*
X75679280Y-95069140D01*
X75553693Y-95026513D01*
X75444000Y-95022000D01*
X75259476Y-94980147D01*
X75185529Y-94885435D01*
X74777652Y-94885435D01*
X74398098Y-95268393D01*
X74794049Y-95863848D01*
X74975990Y-96150600D01*
X75113844Y-96392881D01*
X75185005Y-96550032D01*
X75190000Y-96576028D01*
X75158209Y-96722632D01*
X75078035Y-96955933D01*
X74972278Y-97220445D01*
X74863735Y-97460684D01*
X74775206Y-97621165D01*
X74747511Y-97652904D01*
X74636121Y-97688425D01*
X74402341Y-97739464D01*
X74091247Y-97796442D01*
X74002658Y-97811146D01*
X73327333Y-97920817D01*
X73327333Y-99340000D01*
X73581333Y-99340000D01*
X73581333Y-98747334D01*
X73585902Y-98435869D01*
X73606504Y-98257435D01*
X73653484Y-98175825D01*
X73737188Y-98154832D01*
X73750667Y-98154667D01*
X73893373Y-98215399D01*
X73920000Y-98311752D01*
X74001402Y-98459342D01*
X74195167Y-98547280D01*
X74400396Y-98641275D01*
X74487432Y-98798047D01*
X74497618Y-98860981D01*
X74476885Y-99118009D01*
X74333988Y-99272967D01*
X74056337Y-99336904D01*
X73951966Y-99340000D01*
X73581333Y-99340000D01*
X73327333Y-99340000D01*
X73327333Y-99566881D01*
X73941167Y-99671518D01*
X74262599Y-99728302D01*
X74530270Y-99779166D01*
X74689399Y-99813672D01*
X74694957Y-99815178D01*
X74796813Y-99908504D01*
X74929159Y-100115595D01*
X75062969Y-100390791D01*
X75291024Y-100927383D01*
X74840923Y-101574819D01*
X74390823Y-102222255D01*
X74810568Y-102642000D01*
X75190000Y-102642000D01*
X75190000Y-102049333D01*
X75194568Y-101737869D01*
X75215170Y-101559435D01*
X75262151Y-101477825D01*
X75345854Y-101456832D01*
X75359333Y-101456667D01*
X75493385Y-101507774D01*
X75528667Y-101662710D01*
X75567600Y-101822058D01*
X75715762Y-101889177D01*
X75761500Y-101895543D01*
X75940412Y-101957463D01*
X75994333Y-102049333D01*
X75918554Y-102155641D01*
X75761500Y-102203124D01*
X75573206Y-102255183D01*
X75541135Y-102325802D01*
X75661178Y-102379074D01*
X75782667Y-102388000D01*
X75984319Y-102425864D01*
X76036667Y-102515000D01*
X75991347Y-102594866D01*
X75834439Y-102633874D01*
X75613333Y-102642000D01*
X75190000Y-102642000D01*
X74810568Y-102642000D01*
X75516945Y-103348377D01*
X76197731Y-102901429D01*
X76878516Y-102454480D01*
X77353478Y-102651341D01*
X77618221Y-102777155D01*
X77817155Y-102901282D01*
X77893844Y-102977935D01*
X77938487Y-103120410D01*
X77996964Y-103379034D01*
X78001890Y-103405187D01*
X78326199Y-103405187D01*
X78330295Y-103138411D01*
X78353349Y-102936521D01*
X78380875Y-102866014D01*
X78499080Y-102827307D01*
X78600331Y-102936906D01*
X78661333Y-103153533D01*
X78703667Y-103439939D01*
X78807685Y-103210303D01*
X78926518Y-103024342D01*
X79043205Y-103005558D01*
X79164003Y-103154655D01*
X79212440Y-103255833D01*
X79332038Y-103531000D01*
X79335353Y-103218497D01*
X79369930Y-102968048D01*
X79455651Y-102838141D01*
X79575164Y-102850115D01*
X79610591Y-102880058D01*
X79654660Y-103022935D01*
X79656904Y-103306554D01*
X79638808Y-103524614D01*
X79577066Y-103874692D01*
X79486397Y-104062128D01*
X79370217Y-104085303D01*
X79231942Y-103942601D01*
X79133600Y-103763833D01*
X78981837Y-103446333D01*
X78854863Y-103763833D01*
X78723205Y-103986753D01*
X78577084Y-104079164D01*
X78447306Y-104032897D01*
X78376031Y-103890834D01*
X78341349Y-103676208D01*
X78326199Y-103405187D01*
X78001890Y-103405187D01*
X78057891Y-103702507D01*
X78068268Y-103763833D01*
X78177287Y-104420000D01*
X79819547Y-104420000D01*
X79924184Y-103806167D01*
G36*
X84023615Y-98577005D02*
X84055148Y-98479176D01*
X83968369Y-98413341D01*
X83917722Y-98408667D01*
X83772174Y-98462452D01*
X83741333Y-98541875D01*
X83804812Y-98643601D01*
X83882484Y-98647708D01*
X84023615Y-98577005D01*
X84023615Y-98577005D01*
G37*
X84023615Y-98577005D02*
X84055148Y-98479176D01*
X83968369Y-98413341D01*
X83917722Y-98408667D01*
X83772174Y-98462452D01*
X83741333Y-98541875D01*
X83804812Y-98643601D01*
X83882484Y-98647708D01*
X84023615Y-98577005D01*
G36*
X83981005Y-99040283D02*
X83995333Y-99001333D01*
X83926757Y-98926219D01*
X83868333Y-98916667D01*
X83755661Y-98962384D01*
X83741333Y-99001333D01*
X83809910Y-99076448D01*
X83868333Y-99086000D01*
X83981005Y-99040283D01*
X83981005Y-99040283D01*
G37*
X83981005Y-99040283D02*
X83995333Y-99001333D01*
X83926757Y-98926219D01*
X83868333Y-98916667D01*
X83755661Y-98962384D01*
X83741333Y-99001333D01*
X83809910Y-99076448D01*
X83868333Y-99086000D01*
X83981005Y-99040283D01*
G36*
X74159248Y-99018227D02*
X74174000Y-98959000D01*
X74106227Y-98846752D01*
X74047000Y-98832000D01*
X73934751Y-98899773D01*
X73920000Y-98959000D01*
X73987773Y-99071249D01*
X74047000Y-99086000D01*
X74159248Y-99018227D01*
X74159248Y-99018227D01*
G37*
X74159248Y-99018227D02*
X74174000Y-98959000D01*
X74106227Y-98846752D01*
X74047000Y-98832000D01*
X73934751Y-98899773D01*
X73920000Y-98959000D01*
X73987773Y-99071249D01*
X74047000Y-99086000D01*
X74159248Y-99018227D01*
G36*
X82323167Y-102372722D02*
X82454966Y-102321947D01*
X82507486Y-102186620D01*
X82513667Y-102049333D01*
X82493059Y-101841385D01*
X82410858Y-101748013D01*
X82323167Y-101725945D01*
X82202222Y-101727065D01*
X82147142Y-101804893D01*
X82132845Y-102002005D01*
X82132667Y-102049333D01*
X82142613Y-102270411D01*
X82189172Y-102365124D01*
X82297425Y-102376049D01*
X82323167Y-102372722D01*
X82323167Y-102372722D01*
G37*
X82323167Y-102372722D02*
X82454966Y-102321947D01*
X82507486Y-102186620D01*
X82513667Y-102049333D01*
X82493059Y-101841385D01*
X82410858Y-101748013D01*
X82323167Y-101725945D01*
X82202222Y-101727065D01*
X82147142Y-101804893D01*
X82132845Y-102002005D01*
X82132667Y-102049333D01*
X82142613Y-102270411D01*
X82189172Y-102365124D01*
X82297425Y-102376049D01*
X82323167Y-102372722D01*
M02*
