G04 #@! TF.FileFunction,Legend,Top*
%FSLAX46Y46*%
G04 Gerber Fmt 4.6, Leading zero omitted, Abs format (unit mm)*
G04 Created by KiCad (PCBNEW 4.0.5) date 2017 June 19, Monday 17:17:01*
%MOMM*%
%LPD*%
G01*
G04 APERTURE LIST*
%ADD10C,0.100000*%
%ADD11C,0.300000*%
%ADD12C,0.200000*%
%ADD13C,0.150000*%
%ADD14C,0.120000*%
%ADD15C,0.070000*%
G04 APERTURE END LIST*
D10*
D11*
X70278571Y-96057142D02*
X69564286Y-96557142D01*
X70278571Y-96914285D02*
X68778571Y-96914285D01*
X68778571Y-96342857D01*
X68850000Y-96199999D01*
X68921429Y-96128571D01*
X69064286Y-96057142D01*
X69278571Y-96057142D01*
X69421429Y-96128571D01*
X69492857Y-96199999D01*
X69564286Y-96342857D01*
X69564286Y-96914285D01*
X70207143Y-94842857D02*
X70278571Y-94985714D01*
X70278571Y-95271428D01*
X70207143Y-95414285D01*
X70064286Y-95485714D01*
X69492857Y-95485714D01*
X69350000Y-95414285D01*
X69278571Y-95271428D01*
X69278571Y-94985714D01*
X69350000Y-94842857D01*
X69492857Y-94771428D01*
X69635714Y-94771428D01*
X69778571Y-95485714D01*
X70207143Y-94200000D02*
X70278571Y-94057143D01*
X70278571Y-93771428D01*
X70207143Y-93628571D01*
X70064286Y-93557143D01*
X69992857Y-93557143D01*
X69850000Y-93628571D01*
X69778571Y-93771428D01*
X69778571Y-93985714D01*
X69707143Y-94128571D01*
X69564286Y-94200000D01*
X69492857Y-94200000D01*
X69350000Y-94128571D01*
X69278571Y-93985714D01*
X69278571Y-93771428D01*
X69350000Y-93628571D01*
X70207143Y-92342857D02*
X70278571Y-92485714D01*
X70278571Y-92771428D01*
X70207143Y-92914285D01*
X70064286Y-92985714D01*
X69492857Y-92985714D01*
X69350000Y-92914285D01*
X69278571Y-92771428D01*
X69278571Y-92485714D01*
X69350000Y-92342857D01*
X69492857Y-92271428D01*
X69635714Y-92271428D01*
X69778571Y-92985714D01*
X69278571Y-91842857D02*
X69278571Y-91271428D01*
X68778571Y-91628571D02*
X70064286Y-91628571D01*
X70207143Y-91557143D01*
X70278571Y-91414285D01*
X70278571Y-91271428D01*
X121778571Y-76635714D02*
X121778571Y-75778571D01*
X123278571Y-76207142D02*
X121778571Y-76207142D01*
X123278571Y-75278571D02*
X121778571Y-75278571D01*
X123278571Y-74635714D02*
X122492857Y-74635714D01*
X122350000Y-74707143D01*
X122278571Y-74850000D01*
X122278571Y-75064285D01*
X122350000Y-75207143D01*
X122421429Y-75278571D01*
X123207143Y-73350000D02*
X123278571Y-73492857D01*
X123278571Y-73778571D01*
X123207143Y-73921428D01*
X123064286Y-73992857D01*
X122492857Y-73992857D01*
X122350000Y-73921428D01*
X122278571Y-73778571D01*
X122278571Y-73492857D01*
X122350000Y-73350000D01*
X122492857Y-73278571D01*
X122635714Y-73278571D01*
X122778571Y-73992857D01*
X123278571Y-72635714D02*
X122278571Y-72635714D01*
X122564286Y-72635714D02*
X122421429Y-72564286D01*
X122350000Y-72492857D01*
X122278571Y-72350000D01*
X122278571Y-72207143D01*
X123278571Y-71707143D02*
X122278571Y-71707143D01*
X122421429Y-71707143D02*
X122350000Y-71635715D01*
X122278571Y-71492857D01*
X122278571Y-71278572D01*
X122350000Y-71135715D01*
X122492857Y-71064286D01*
X123278571Y-71064286D01*
X122492857Y-71064286D02*
X122350000Y-70992857D01*
X122278571Y-70850000D01*
X122278571Y-70635715D01*
X122350000Y-70492857D01*
X122492857Y-70421429D01*
X123278571Y-70421429D01*
X123278571Y-69492857D02*
X123207143Y-69635715D01*
X123135714Y-69707143D01*
X122992857Y-69778572D01*
X122564286Y-69778572D01*
X122421429Y-69707143D01*
X122350000Y-69635715D01*
X122278571Y-69492857D01*
X122278571Y-69278572D01*
X122350000Y-69135715D01*
X122421429Y-69064286D01*
X122564286Y-68992857D01*
X122992857Y-68992857D01*
X123135714Y-69064286D01*
X123207143Y-69135715D01*
X123278571Y-69278572D01*
X123278571Y-69492857D01*
X123207143Y-68421429D02*
X123278571Y-68278572D01*
X123278571Y-67992857D01*
X123207143Y-67850000D01*
X123064286Y-67778572D01*
X122992857Y-67778572D01*
X122850000Y-67850000D01*
X122778571Y-67992857D01*
X122778571Y-68207143D01*
X122707143Y-68350000D01*
X122564286Y-68421429D01*
X122492857Y-68421429D01*
X122350000Y-68350000D01*
X122278571Y-68207143D01*
X122278571Y-67992857D01*
X122350000Y-67850000D01*
X122278571Y-67350000D02*
X122278571Y-66778571D01*
X121778571Y-67135714D02*
X123064286Y-67135714D01*
X123207143Y-67064286D01*
X123278571Y-66921428D01*
X123278571Y-66778571D01*
X123278571Y-65635714D02*
X122492857Y-65635714D01*
X122350000Y-65707143D01*
X122278571Y-65850000D01*
X122278571Y-66135714D01*
X122350000Y-66278571D01*
X123207143Y-65635714D02*
X123278571Y-65778571D01*
X123278571Y-66135714D01*
X123207143Y-66278571D01*
X123064286Y-66350000D01*
X122921429Y-66350000D01*
X122778571Y-66278571D01*
X122707143Y-66135714D01*
X122707143Y-65778571D01*
X122635714Y-65635714D01*
X122278571Y-65135714D02*
X122278571Y-64564285D01*
X121778571Y-64921428D02*
X123064286Y-64921428D01*
X123207143Y-64850000D01*
X123278571Y-64707142D01*
X123278571Y-64564285D01*
X121992857Y-93428571D02*
X122064286Y-93214285D01*
X122135714Y-93142857D01*
X122278571Y-93071428D01*
X122492857Y-93071428D01*
X122635714Y-93142857D01*
X122707143Y-93214285D01*
X122778571Y-93357143D01*
X122778571Y-93928571D01*
X121278571Y-93928571D01*
X121278571Y-93428571D01*
X121350000Y-93285714D01*
X121421429Y-93214285D01*
X121564286Y-93142857D01*
X121707143Y-93142857D01*
X121850000Y-93214285D01*
X121921429Y-93285714D01*
X121992857Y-93428571D01*
X121992857Y-93928571D01*
X122778571Y-92214285D02*
X122707143Y-92357143D01*
X122635714Y-92428571D01*
X122492857Y-92500000D01*
X122064286Y-92500000D01*
X121921429Y-92428571D01*
X121850000Y-92357143D01*
X121778571Y-92214285D01*
X121778571Y-92000000D01*
X121850000Y-91857143D01*
X121921429Y-91785714D01*
X122064286Y-91714285D01*
X122492857Y-91714285D01*
X122635714Y-91785714D01*
X122707143Y-91857143D01*
X122778571Y-92000000D01*
X122778571Y-92214285D01*
X122778571Y-91071428D02*
X121778571Y-91071428D01*
X121278571Y-91071428D02*
X121350000Y-91142857D01*
X121421429Y-91071428D01*
X121350000Y-91000000D01*
X121278571Y-91071428D01*
X121421429Y-91071428D01*
X122778571Y-90142856D02*
X122707143Y-90285714D01*
X122564286Y-90357142D01*
X121278571Y-90357142D01*
X122707143Y-89000000D02*
X122778571Y-89142857D01*
X122778571Y-89428571D01*
X122707143Y-89571428D01*
X122564286Y-89642857D01*
X121992857Y-89642857D01*
X121850000Y-89571428D01*
X121778571Y-89428571D01*
X121778571Y-89142857D01*
X121850000Y-89000000D01*
X121992857Y-88928571D01*
X122135714Y-88928571D01*
X122278571Y-89642857D01*
X122778571Y-88285714D02*
X121778571Y-88285714D01*
X122064286Y-88285714D02*
X121921429Y-88214286D01*
X121850000Y-88142857D01*
X121778571Y-88000000D01*
X121778571Y-87857143D01*
D12*
X40685715Y-83821429D02*
X40757144Y-83750000D01*
X40900001Y-83678571D01*
X41257144Y-83678571D01*
X41400001Y-83750000D01*
X41471430Y-83821429D01*
X41542858Y-83964286D01*
X41542858Y-84107143D01*
X41471430Y-84321429D01*
X40614287Y-85178571D01*
X41542858Y-85178571D01*
X42471429Y-83678571D02*
X42614286Y-83678571D01*
X42757143Y-83750000D01*
X42828572Y-83821429D01*
X42900001Y-83964286D01*
X42971429Y-84250000D01*
X42971429Y-84607143D01*
X42900001Y-84892857D01*
X42828572Y-85035714D01*
X42757143Y-85107143D01*
X42614286Y-85178571D01*
X42471429Y-85178571D01*
X42328572Y-85107143D01*
X42257143Y-85035714D01*
X42185715Y-84892857D01*
X42114286Y-84607143D01*
X42114286Y-84250000D01*
X42185715Y-83964286D01*
X42257143Y-83821429D01*
X42328572Y-83750000D01*
X42471429Y-83678571D01*
X43614286Y-84607143D02*
X44757143Y-84607143D01*
X45328572Y-83678571D02*
X46257143Y-83678571D01*
X45757143Y-84250000D01*
X45971429Y-84250000D01*
X46114286Y-84321429D01*
X46185715Y-84392857D01*
X46257143Y-84535714D01*
X46257143Y-84892857D01*
X46185715Y-85035714D01*
X46114286Y-85107143D01*
X45971429Y-85178571D01*
X45542857Y-85178571D01*
X45400000Y-85107143D01*
X45328572Y-85035714D01*
X47614286Y-83678571D02*
X46900000Y-83678571D01*
X46828571Y-84392857D01*
X46900000Y-84321429D01*
X47042857Y-84250000D01*
X47400000Y-84250000D01*
X47542857Y-84321429D01*
X47614286Y-84392857D01*
X47685714Y-84535714D01*
X47685714Y-84892857D01*
X47614286Y-85035714D01*
X47542857Y-85107143D01*
X47400000Y-85178571D01*
X47042857Y-85178571D01*
X46900000Y-85107143D01*
X46828571Y-85035714D01*
X48114285Y-83678571D02*
X48614285Y-85178571D01*
X49114285Y-83678571D01*
X50757142Y-85178571D02*
X50757142Y-83678571D01*
X51114285Y-83678571D01*
X51328570Y-83750000D01*
X51471428Y-83892857D01*
X51542856Y-84035714D01*
X51614285Y-84321429D01*
X51614285Y-84535714D01*
X51542856Y-84821429D01*
X51471428Y-84964286D01*
X51328570Y-85107143D01*
X51114285Y-85178571D01*
X50757142Y-85178571D01*
X53114285Y-85035714D02*
X53042856Y-85107143D01*
X52828570Y-85178571D01*
X52685713Y-85178571D01*
X52471428Y-85107143D01*
X52328570Y-84964286D01*
X52257142Y-84821429D01*
X52185713Y-84535714D01*
X52185713Y-84321429D01*
X52257142Y-84035714D01*
X52328570Y-83892857D01*
X52471428Y-83750000D01*
X52685713Y-83678571D01*
X52828570Y-83678571D01*
X53042856Y-83750000D01*
X53114285Y-83821429D01*
D13*
X120052381Y-96404762D02*
X120052381Y-96976191D01*
X120052381Y-96690477D02*
X119052381Y-96690477D01*
X119195238Y-96785715D01*
X119290476Y-96880953D01*
X119338095Y-96976191D01*
X120052381Y-95976191D02*
X119052381Y-95976191D01*
X120052381Y-95404762D01*
X119052381Y-95404762D01*
X119385714Y-94500000D02*
X120052381Y-94500000D01*
X119004762Y-94738096D02*
X119719048Y-94976191D01*
X119719048Y-94357143D01*
X120052381Y-93452381D02*
X120052381Y-94023810D01*
X120052381Y-93738096D02*
X119052381Y-93738096D01*
X119195238Y-93833334D01*
X119290476Y-93928572D01*
X119338095Y-94023810D01*
X119385714Y-92595238D02*
X120052381Y-92595238D01*
X119004762Y-92833334D02*
X119719048Y-93071429D01*
X119719048Y-92452381D01*
X119480952Y-91928572D02*
X119433333Y-92023810D01*
X119385714Y-92071429D01*
X119290476Y-92119048D01*
X119242857Y-92119048D01*
X119147619Y-92071429D01*
X119100000Y-92023810D01*
X119052381Y-91928572D01*
X119052381Y-91738095D01*
X119100000Y-91642857D01*
X119147619Y-91595238D01*
X119242857Y-91547619D01*
X119290476Y-91547619D01*
X119385714Y-91595238D01*
X119433333Y-91642857D01*
X119480952Y-91738095D01*
X119480952Y-91928572D01*
X119528571Y-92023810D01*
X119576190Y-92071429D01*
X119671429Y-92119048D01*
X119861905Y-92119048D01*
X119957143Y-92071429D01*
X120004762Y-92023810D01*
X120052381Y-91928572D01*
X120052381Y-91738095D01*
X120004762Y-91642857D01*
X119957143Y-91595238D01*
X119861905Y-91547619D01*
X119671429Y-91547619D01*
X119576190Y-91595238D01*
X119528571Y-91642857D01*
X119480952Y-91738095D01*
X119385714Y-89928571D02*
X120052381Y-89928571D01*
X119004762Y-90166667D02*
X119719048Y-90404762D01*
X119719048Y-89785714D01*
X120052381Y-89500000D02*
X119385714Y-88976190D01*
X119385714Y-89500000D02*
X120052381Y-88976190D01*
D11*
X85442857Y-76978571D02*
X85942857Y-78478571D01*
X86442857Y-76978571D01*
X87585714Y-78407143D02*
X87442857Y-78478571D01*
X87157143Y-78478571D01*
X87014285Y-78407143D01*
X86942857Y-78335714D01*
X86871428Y-78192857D01*
X86871428Y-77764286D01*
X86942857Y-77621429D01*
X87014285Y-77550000D01*
X87157143Y-77478571D01*
X87442857Y-77478571D01*
X87585714Y-77550000D01*
X88871428Y-78407143D02*
X88728571Y-78478571D01*
X88442857Y-78478571D01*
X88299999Y-78407143D01*
X88228571Y-78335714D01*
X88157142Y-78192857D01*
X88157142Y-77764286D01*
X88228571Y-77621429D01*
X88299999Y-77550000D01*
X88442857Y-77478571D01*
X88728571Y-77478571D01*
X88871428Y-77550000D01*
X85657143Y-81028571D02*
X85657143Y-79528571D01*
X86157143Y-80600000D01*
X86657143Y-79528571D01*
X86657143Y-81028571D01*
X85942857Y-82078571D02*
X86228571Y-82078571D01*
X86371429Y-82150000D01*
X86514286Y-82292857D01*
X86585714Y-82578571D01*
X86585714Y-83078571D01*
X86514286Y-83364286D01*
X86371429Y-83507143D01*
X86228571Y-83578571D01*
X85942857Y-83578571D01*
X85800000Y-83507143D01*
X85657143Y-83364286D01*
X85585714Y-83078571D01*
X85585714Y-82578571D01*
X85657143Y-82292857D01*
X85800000Y-82150000D01*
X85942857Y-82078571D01*
X85514286Y-84628571D02*
X86514286Y-86128571D01*
X86514286Y-84628571D02*
X85514286Y-86128571D01*
X86157143Y-87892857D02*
X85657143Y-87892857D01*
X85657143Y-88678571D02*
X85657143Y-87178571D01*
X86371429Y-87178571D01*
X86342857Y-68200000D02*
X86200000Y-68128571D01*
X85985714Y-68128571D01*
X85771429Y-68200000D01*
X85628571Y-68342857D01*
X85557143Y-68485714D01*
X85485714Y-68771429D01*
X85485714Y-68985714D01*
X85557143Y-69271429D01*
X85628571Y-69414286D01*
X85771429Y-69557143D01*
X85985714Y-69628571D01*
X86128571Y-69628571D01*
X86342857Y-69557143D01*
X86414286Y-69485714D01*
X86414286Y-68985714D01*
X86128571Y-68985714D01*
X87057143Y-69628571D02*
X87057143Y-68128571D01*
X87914286Y-69628571D01*
X87914286Y-68128571D01*
X88628572Y-69628571D02*
X88628572Y-68128571D01*
X88985715Y-68128571D01*
X89200000Y-68200000D01*
X89342858Y-68342857D01*
X89414286Y-68485714D01*
X89485715Y-68771429D01*
X89485715Y-68985714D01*
X89414286Y-69271429D01*
X89342858Y-69414286D01*
X89200000Y-69557143D01*
X88985715Y-69628571D01*
X88628572Y-69628571D01*
X86342857Y-70750000D02*
X86200000Y-70678571D01*
X85985714Y-70678571D01*
X85771429Y-70750000D01*
X85628571Y-70892857D01*
X85557143Y-71035714D01*
X85485714Y-71321429D01*
X85485714Y-71535714D01*
X85557143Y-71821429D01*
X85628571Y-71964286D01*
X85771429Y-72107143D01*
X85985714Y-72178571D01*
X86128571Y-72178571D01*
X86342857Y-72107143D01*
X86414286Y-72035714D01*
X86414286Y-71535714D01*
X86128571Y-71535714D01*
X87057143Y-72178571D02*
X87057143Y-70678571D01*
X87628571Y-70678571D01*
X87771429Y-70750000D01*
X87842857Y-70821429D01*
X87914286Y-70964286D01*
X87914286Y-71178571D01*
X87842857Y-71321429D01*
X87771429Y-71392857D01*
X87628571Y-71464286D01*
X87057143Y-71464286D01*
X88557143Y-72178571D02*
X88557143Y-70678571D01*
X89557143Y-70678571D02*
X89842857Y-70678571D01*
X89985715Y-70750000D01*
X90128572Y-70892857D01*
X90200000Y-71178571D01*
X90200000Y-71678571D01*
X90128572Y-71964286D01*
X89985715Y-72107143D01*
X89842857Y-72178571D01*
X89557143Y-72178571D01*
X89414286Y-72107143D01*
X89271429Y-71964286D01*
X89200000Y-71678571D01*
X89200000Y-71178571D01*
X89271429Y-70892857D01*
X89414286Y-70750000D01*
X89557143Y-70678571D01*
X91342858Y-71392857D02*
X91557144Y-71464286D01*
X91628572Y-71535714D01*
X91700001Y-71678571D01*
X91700001Y-71892857D01*
X91628572Y-72035714D01*
X91557144Y-72107143D01*
X91414286Y-72178571D01*
X90842858Y-72178571D01*
X90842858Y-70678571D01*
X91342858Y-70678571D01*
X91485715Y-70750000D01*
X91557144Y-70821429D01*
X91628572Y-70964286D01*
X91628572Y-71107143D01*
X91557144Y-71250000D01*
X91485715Y-71321429D01*
X91342858Y-71392857D01*
X90842858Y-71392857D01*
X86342857Y-73300000D02*
X86200000Y-73228571D01*
X85985714Y-73228571D01*
X85771429Y-73300000D01*
X85628571Y-73442857D01*
X85557143Y-73585714D01*
X85485714Y-73871429D01*
X85485714Y-74085714D01*
X85557143Y-74371429D01*
X85628571Y-74514286D01*
X85771429Y-74657143D01*
X85985714Y-74728571D01*
X86128571Y-74728571D01*
X86342857Y-74657143D01*
X86414286Y-74585714D01*
X86414286Y-74085714D01*
X86128571Y-74085714D01*
X87057143Y-74728571D02*
X87057143Y-73228571D01*
X87628571Y-73228571D01*
X87771429Y-73300000D01*
X87842857Y-73371429D01*
X87914286Y-73514286D01*
X87914286Y-73728571D01*
X87842857Y-73871429D01*
X87771429Y-73942857D01*
X87628571Y-74014286D01*
X87057143Y-74014286D01*
X88557143Y-74728571D02*
X88557143Y-73228571D01*
X89557143Y-73228571D02*
X89842857Y-73228571D01*
X89985715Y-73300000D01*
X90128572Y-73442857D01*
X90200000Y-73728571D01*
X90200000Y-74228571D01*
X90128572Y-74514286D01*
X89985715Y-74657143D01*
X89842857Y-74728571D01*
X89557143Y-74728571D01*
X89414286Y-74657143D01*
X89271429Y-74514286D01*
X89200000Y-74228571D01*
X89200000Y-73728571D01*
X89271429Y-73442857D01*
X89414286Y-73300000D01*
X89557143Y-73228571D01*
X90771429Y-74300000D02*
X91485715Y-74300000D01*
X90628572Y-74728571D02*
X91128572Y-73228571D01*
X91628572Y-74728571D01*
D14*
X111610000Y-91100000D02*
X109490000Y-91100000D01*
X109490000Y-91100000D02*
X109490000Y-95220000D01*
X109490000Y-95220000D02*
X111610000Y-95220000D01*
X111610000Y-95220000D02*
X111610000Y-91100000D01*
X110550000Y-90330000D02*
X110550000Y-91100000D01*
X110550000Y-95990000D02*
X110550000Y-95220000D01*
X111610000Y-91760000D02*
X109490000Y-91760000D01*
X115160000Y-91100000D02*
X113040000Y-91100000D01*
X113040000Y-91100000D02*
X113040000Y-95220000D01*
X113040000Y-95220000D02*
X115160000Y-95220000D01*
X115160000Y-95220000D02*
X115160000Y-91100000D01*
X114100000Y-90330000D02*
X114100000Y-91100000D01*
X114100000Y-95990000D02*
X114100000Y-95220000D01*
X115160000Y-91760000D02*
X113040000Y-91760000D01*
X118260000Y-91050000D02*
X116140000Y-91050000D01*
X116140000Y-91050000D02*
X116140000Y-95170000D01*
X116140000Y-95170000D02*
X118260000Y-95170000D01*
X118260000Y-95170000D02*
X118260000Y-91050000D01*
X117200000Y-90280000D02*
X117200000Y-91050000D01*
X117200000Y-95940000D02*
X117200000Y-95170000D01*
X118260000Y-91710000D02*
X116140000Y-91710000D01*
X122160000Y-80350000D02*
X120040000Y-80350000D01*
X120040000Y-80350000D02*
X120040000Y-84470000D01*
X120040000Y-84470000D02*
X122160000Y-84470000D01*
X122160000Y-84470000D02*
X122160000Y-80350000D01*
X121100000Y-79580000D02*
X121100000Y-80350000D01*
X121100000Y-85240000D02*
X121100000Y-84470000D01*
X122160000Y-81010000D02*
X120040000Y-81010000D01*
X108060000Y-91100000D02*
X105940000Y-91100000D01*
X105940000Y-91100000D02*
X105940000Y-95220000D01*
X105940000Y-95220000D02*
X108060000Y-95220000D01*
X108060000Y-95220000D02*
X108060000Y-91100000D01*
X107000000Y-90330000D02*
X107000000Y-91100000D01*
X107000000Y-95990000D02*
X107000000Y-95220000D01*
X108060000Y-91760000D02*
X105940000Y-91760000D01*
X97410000Y-91100000D02*
X95290000Y-91100000D01*
X95290000Y-91100000D02*
X95290000Y-95220000D01*
X95290000Y-95220000D02*
X97410000Y-95220000D01*
X97410000Y-95220000D02*
X97410000Y-91100000D01*
X96350000Y-90330000D02*
X96350000Y-91100000D01*
X96350000Y-95990000D02*
X96350000Y-95220000D01*
X97410000Y-91760000D02*
X95290000Y-91760000D01*
X93860000Y-91100000D02*
X91740000Y-91100000D01*
X91740000Y-91100000D02*
X91740000Y-95220000D01*
X91740000Y-95220000D02*
X93860000Y-95220000D01*
X93860000Y-95220000D02*
X93860000Y-91100000D01*
X92800000Y-90330000D02*
X92800000Y-91100000D01*
X92800000Y-95990000D02*
X92800000Y-95220000D01*
X93860000Y-91760000D02*
X91740000Y-91760000D01*
X82070000Y-79110000D02*
X82070000Y-89330000D01*
X82070000Y-89330000D02*
X84730000Y-89330000D01*
X84730000Y-89330000D02*
X84730000Y-79110000D01*
X84730000Y-79110000D02*
X82070000Y-79110000D01*
X82070000Y-77840000D02*
X82070000Y-76510000D01*
X82070000Y-76510000D02*
X83400000Y-76510000D01*
X82170000Y-70290000D02*
X82170000Y-75430000D01*
X82170000Y-75430000D02*
X84830000Y-75430000D01*
X84830000Y-75430000D02*
X84830000Y-70290000D01*
X84830000Y-70290000D02*
X82170000Y-70290000D01*
X82170000Y-69020000D02*
X82170000Y-67690000D01*
X82170000Y-67690000D02*
X83500000Y-67690000D01*
D13*
X97830000Y-102190000D02*
X90210000Y-102190000D01*
X90210000Y-102190000D02*
X90210000Y-107270000D01*
X90210000Y-107270000D02*
X100370000Y-107270000D01*
X100370000Y-107270000D02*
X100370000Y-104730000D01*
X100650000Y-103460000D02*
X100650000Y-101910000D01*
X100370000Y-104730000D02*
X97830000Y-104730000D01*
X97830000Y-104730000D02*
X97830000Y-102190000D01*
X100650000Y-101910000D02*
X99100000Y-101910000D01*
D14*
X84070000Y-104670000D02*
X71310000Y-104670000D01*
X71310000Y-104670000D02*
X71310000Y-107330000D01*
X71310000Y-107330000D02*
X84070000Y-107330000D01*
X84070000Y-107330000D02*
X84070000Y-104670000D01*
X85340000Y-104670000D02*
X86670000Y-104670000D01*
X86670000Y-104670000D02*
X86670000Y-106000000D01*
X110470000Y-86550000D02*
X114070000Y-86550000D01*
X110431522Y-86538478D02*
G75*
G02X112270000Y-82100000I1838478J1838478D01*
G01*
X114108478Y-86538478D02*
G75*
G03X112270000Y-82100000I-1838478J1838478D01*
G01*
X114400000Y-55420000D02*
X118000000Y-55420000D01*
X114361522Y-55408478D02*
G75*
G02X116200000Y-50970000I1838478J1838478D01*
G01*
X118038478Y-55408478D02*
G75*
G03X116200000Y-50970000I-1838478J1838478D01*
G01*
X114600000Y-61620000D02*
X118200000Y-61620000D01*
X114561522Y-61608478D02*
G75*
G02X116400000Y-57170000I1838478J1838478D01*
G01*
X118238478Y-61608478D02*
G75*
G03X116400000Y-57170000I-1838478J1838478D01*
G01*
X98530000Y-56050000D02*
X102130000Y-56050000D01*
X98491522Y-56038478D02*
G75*
G02X100330000Y-51600000I1838478J1838478D01*
G01*
X102168478Y-56038478D02*
G75*
G03X100330000Y-51600000I-1838478J1838478D01*
G01*
X98600000Y-62420000D02*
X102200000Y-62420000D01*
X98561522Y-62408478D02*
G75*
G02X100400000Y-57970000I1838478J1838478D01*
G01*
X102238478Y-62408478D02*
G75*
G03X100400000Y-57970000I-1838478J1838478D01*
G01*
X110700000Y-77920000D02*
X110700000Y-77590000D01*
X110700000Y-77590000D02*
X117120000Y-77590000D01*
X117120000Y-77590000D02*
X117120000Y-77920000D01*
X110700000Y-79880000D02*
X110700000Y-80210000D01*
X110700000Y-80210000D02*
X117120000Y-80210000D01*
X117120000Y-80210000D02*
X117120000Y-79880000D01*
X104430000Y-89950000D02*
X104760000Y-89950000D01*
X104760000Y-89950000D02*
X104760000Y-96370000D01*
X104760000Y-96370000D02*
X104430000Y-96370000D01*
X102470000Y-89950000D02*
X102140000Y-89950000D01*
X102140000Y-89950000D02*
X102140000Y-96370000D01*
X102140000Y-96370000D02*
X102470000Y-96370000D01*
X98920000Y-96400000D02*
X98590000Y-96400000D01*
X98590000Y-96400000D02*
X98590000Y-89980000D01*
X98590000Y-89980000D02*
X98920000Y-89980000D01*
X100880000Y-96400000D02*
X101210000Y-96400000D01*
X101210000Y-96400000D02*
X101210000Y-89980000D01*
X101210000Y-89980000D02*
X100880000Y-89980000D01*
X88420000Y-96500000D02*
X88090000Y-96500000D01*
X88090000Y-96500000D02*
X88090000Y-90080000D01*
X88090000Y-90080000D02*
X88420000Y-90080000D01*
X90380000Y-96500000D02*
X90710000Y-96500000D01*
X90710000Y-96500000D02*
X90710000Y-90080000D01*
X90710000Y-90080000D02*
X90380000Y-90080000D01*
X108980000Y-68720000D02*
X108980000Y-68390000D01*
X108980000Y-68390000D02*
X115400000Y-68390000D01*
X115400000Y-68390000D02*
X115400000Y-68720000D01*
X108980000Y-70680000D02*
X108980000Y-71010000D01*
X108980000Y-71010000D02*
X115400000Y-71010000D01*
X115400000Y-71010000D02*
X115400000Y-70680000D01*
X108880000Y-72420000D02*
X108880000Y-72090000D01*
X108880000Y-72090000D02*
X115300000Y-72090000D01*
X115300000Y-72090000D02*
X115300000Y-72420000D01*
X108880000Y-74380000D02*
X108880000Y-74710000D01*
X108880000Y-74710000D02*
X115300000Y-74710000D01*
X115300000Y-74710000D02*
X115300000Y-74380000D01*
X121580000Y-65200000D02*
X121910000Y-65200000D01*
X121910000Y-65200000D02*
X121910000Y-71620000D01*
X121910000Y-71620000D02*
X121580000Y-71620000D01*
X119620000Y-65200000D02*
X119290000Y-65200000D01*
X119290000Y-65200000D02*
X119290000Y-71620000D01*
X119290000Y-71620000D02*
X119620000Y-71620000D01*
X95680000Y-79200000D02*
X96010000Y-79200000D01*
X96010000Y-79200000D02*
X96010000Y-85620000D01*
X96010000Y-85620000D02*
X95680000Y-85620000D01*
X93720000Y-79200000D02*
X93390000Y-79200000D01*
X93390000Y-79200000D02*
X93390000Y-85620000D01*
X93390000Y-85620000D02*
X93720000Y-85620000D01*
X87200000Y-53520000D02*
X87200000Y-53190000D01*
X87200000Y-53190000D02*
X93620000Y-53190000D01*
X93620000Y-53190000D02*
X93620000Y-53520000D01*
X87200000Y-55480000D02*
X87200000Y-55810000D01*
X87200000Y-55810000D02*
X93620000Y-55810000D01*
X93620000Y-55810000D02*
X93620000Y-55480000D01*
X55680000Y-81720000D02*
X55680000Y-81390000D01*
X55680000Y-81390000D02*
X62100000Y-81390000D01*
X62100000Y-81390000D02*
X62100000Y-81720000D01*
X55680000Y-83680000D02*
X55680000Y-84010000D01*
X55680000Y-84010000D02*
X62100000Y-84010000D01*
X62100000Y-84010000D02*
X62100000Y-83680000D01*
X105800000Y-62220000D02*
X105800000Y-61890000D01*
X105800000Y-61890000D02*
X112220000Y-61890000D01*
X112220000Y-61890000D02*
X112220000Y-62220000D01*
X105800000Y-64180000D02*
X105800000Y-64510000D01*
X105800000Y-64510000D02*
X112220000Y-64510000D01*
X112220000Y-64510000D02*
X112220000Y-64180000D01*
X105800000Y-65320000D02*
X105800000Y-64990000D01*
X105800000Y-64990000D02*
X112220000Y-64990000D01*
X112220000Y-64990000D02*
X112220000Y-65320000D01*
X105800000Y-67280000D02*
X105800000Y-67610000D01*
X105800000Y-67610000D02*
X112220000Y-67610000D01*
X112220000Y-67610000D02*
X112220000Y-67280000D01*
X71010000Y-66270000D02*
X69240000Y-66270000D01*
X69240000Y-66270000D02*
X69240000Y-89370000D01*
X69240000Y-89370000D02*
X74780000Y-89370000D01*
X74780000Y-89370000D02*
X74780000Y-66270000D01*
X74780000Y-66270000D02*
X73010000Y-66270000D01*
X73010000Y-66270000D02*
G75*
G02X71010000Y-66270000I-1000000J0D01*
G01*
X103610000Y-84530000D02*
X105380000Y-84530000D01*
X105380000Y-84530000D02*
X105380000Y-74130000D01*
X105380000Y-74130000D02*
X99840000Y-74130000D01*
X99840000Y-74130000D02*
X99840000Y-84530000D01*
X99840000Y-84530000D02*
X101610000Y-84530000D01*
X101610000Y-84530000D02*
G75*
G02X103610000Y-84530000I1000000J0D01*
G01*
X42680000Y-74660000D02*
X42680000Y-64420000D01*
X47321000Y-74660000D02*
X47321000Y-64420000D01*
X42680000Y-74660000D02*
X47321000Y-74660000D01*
X42680000Y-64420000D02*
X47321000Y-64420000D01*
X44190000Y-74660000D02*
X44190000Y-64420000D01*
X42680000Y-71390000D02*
X44190000Y-71390000D01*
X42680000Y-67689000D02*
X44190000Y-67689000D01*
X63951525Y-89120806D02*
G75*
G03X54048667Y-89120000I-4951525J-1179194D01*
G01*
X63951525Y-91479194D02*
G75*
G02X54048667Y-91480000I-4951525J1179194D01*
G01*
X63951525Y-91479194D02*
G75*
G03X63951333Y-89120000I-4951525J1179194D01*
G01*
X59000000Y-85250000D02*
X59000000Y-95350000D01*
X59040000Y-85250000D02*
X59040000Y-95350000D01*
X59080000Y-85250000D02*
X59080000Y-95350000D01*
X59120000Y-85251000D02*
X59120000Y-95349000D01*
X59160000Y-85252000D02*
X59160000Y-95348000D01*
X59200000Y-85253000D02*
X59200000Y-95347000D01*
X59240000Y-85255000D02*
X59240000Y-95345000D01*
X59280000Y-85257000D02*
X59280000Y-95343000D01*
X59320000Y-85260000D02*
X59320000Y-95340000D01*
X59360000Y-85262000D02*
X59360000Y-95338000D01*
X59400000Y-85265000D02*
X59400000Y-95335000D01*
X59440000Y-85269000D02*
X59440000Y-95331000D01*
X59480000Y-85272000D02*
X59480000Y-95328000D01*
X59520000Y-85276000D02*
X59520000Y-95324000D01*
X59560000Y-85280000D02*
X59560000Y-95320000D01*
X59600000Y-85285000D02*
X59600000Y-95315000D01*
X59640000Y-85290000D02*
X59640000Y-95310000D01*
X59680000Y-85295000D02*
X59680000Y-95305000D01*
X59721000Y-85301000D02*
X59721000Y-95299000D01*
X59761000Y-85307000D02*
X59761000Y-95293000D01*
X59801000Y-85313000D02*
X59801000Y-95287000D01*
X59841000Y-85319000D02*
X59841000Y-95281000D01*
X59881000Y-85326000D02*
X59881000Y-95274000D01*
X59921000Y-85333000D02*
X59921000Y-95267000D01*
X59961000Y-85341000D02*
X59961000Y-95259000D01*
X60001000Y-85349000D02*
X60001000Y-95251000D01*
X60041000Y-85357000D02*
X60041000Y-95243000D01*
X60081000Y-85365000D02*
X60081000Y-95235000D01*
X60121000Y-85374000D02*
X60121000Y-95226000D01*
X60161000Y-85383000D02*
X60161000Y-95217000D01*
X60201000Y-85393000D02*
X60201000Y-95207000D01*
X60241000Y-85403000D02*
X60241000Y-95197000D01*
X60281000Y-85413000D02*
X60281000Y-95187000D01*
X60321000Y-85424000D02*
X60321000Y-89119000D01*
X60321000Y-91481000D02*
X60321000Y-95176000D01*
X60361000Y-85435000D02*
X60361000Y-89119000D01*
X60361000Y-91481000D02*
X60361000Y-95165000D01*
X60401000Y-85446000D02*
X60401000Y-89119000D01*
X60401000Y-91481000D02*
X60401000Y-95154000D01*
X60441000Y-85457000D02*
X60441000Y-89119000D01*
X60441000Y-91481000D02*
X60441000Y-95143000D01*
X60481000Y-85469000D02*
X60481000Y-89119000D01*
X60481000Y-91481000D02*
X60481000Y-95131000D01*
X60521000Y-85482000D02*
X60521000Y-89119000D01*
X60521000Y-91481000D02*
X60521000Y-95118000D01*
X60561000Y-85494000D02*
X60561000Y-89119000D01*
X60561000Y-91481000D02*
X60561000Y-95106000D01*
X60601000Y-85508000D02*
X60601000Y-89119000D01*
X60601000Y-91481000D02*
X60601000Y-95092000D01*
X60641000Y-85521000D02*
X60641000Y-89119000D01*
X60641000Y-91481000D02*
X60641000Y-95079000D01*
X60681000Y-85535000D02*
X60681000Y-89119000D01*
X60681000Y-91481000D02*
X60681000Y-95065000D01*
X60721000Y-85549000D02*
X60721000Y-89119000D01*
X60721000Y-91481000D02*
X60721000Y-95051000D01*
X60761000Y-85563000D02*
X60761000Y-89119000D01*
X60761000Y-91481000D02*
X60761000Y-95037000D01*
X60801000Y-85578000D02*
X60801000Y-89119000D01*
X60801000Y-91481000D02*
X60801000Y-95022000D01*
X60841000Y-85594000D02*
X60841000Y-89119000D01*
X60841000Y-91481000D02*
X60841000Y-95006000D01*
X60881000Y-85609000D02*
X60881000Y-89119000D01*
X60881000Y-91481000D02*
X60881000Y-94991000D01*
X60921000Y-85626000D02*
X60921000Y-89119000D01*
X60921000Y-91481000D02*
X60921000Y-94974000D01*
X60961000Y-85642000D02*
X60961000Y-89119000D01*
X60961000Y-91481000D02*
X60961000Y-94958000D01*
X61001000Y-85659000D02*
X61001000Y-89119000D01*
X61001000Y-93480000D02*
X61001000Y-94941000D01*
X61041000Y-85676000D02*
X61041000Y-89119000D01*
X61041000Y-93480000D02*
X61041000Y-94924000D01*
X61081000Y-85694000D02*
X61081000Y-89119000D01*
X61081000Y-93480000D02*
X61081000Y-94906000D01*
X61121000Y-85712000D02*
X61121000Y-89119000D01*
X61121000Y-93480000D02*
X61121000Y-94888000D01*
X61161000Y-85731000D02*
X61161000Y-89119000D01*
X61161000Y-93480000D02*
X61161000Y-94869000D01*
X61201000Y-85750000D02*
X61201000Y-89119000D01*
X61201000Y-93480000D02*
X61201000Y-94850000D01*
X61241000Y-85769000D02*
X61241000Y-89119000D01*
X61241000Y-93480000D02*
X61241000Y-94831000D01*
X61281000Y-85789000D02*
X61281000Y-89119000D01*
X61281000Y-93480000D02*
X61281000Y-94811000D01*
X61321000Y-85809000D02*
X61321000Y-89119000D01*
X61321000Y-93480000D02*
X61321000Y-94791000D01*
X61361000Y-85830000D02*
X61361000Y-89119000D01*
X61361000Y-93480000D02*
X61361000Y-94770000D01*
X61401000Y-85851000D02*
X61401000Y-89119000D01*
X61401000Y-93480000D02*
X61401000Y-94749000D01*
X61441000Y-85872000D02*
X61441000Y-89119000D01*
X61441000Y-93480000D02*
X61441000Y-94728000D01*
X61481000Y-85895000D02*
X61481000Y-89119000D01*
X61481000Y-93480000D02*
X61481000Y-94705000D01*
X61521000Y-85917000D02*
X61521000Y-89119000D01*
X61521000Y-93480000D02*
X61521000Y-94683000D01*
X61561000Y-85940000D02*
X61561000Y-89119000D01*
X61561000Y-93480000D02*
X61561000Y-94660000D01*
X61601000Y-85964000D02*
X61601000Y-89119000D01*
X61601000Y-93480000D02*
X61601000Y-94636000D01*
X61641000Y-85988000D02*
X61641000Y-89119000D01*
X61641000Y-93480000D02*
X61641000Y-94612000D01*
X61681000Y-86012000D02*
X61681000Y-89119000D01*
X61681000Y-93480000D02*
X61681000Y-94588000D01*
X61721000Y-86037000D02*
X61721000Y-89119000D01*
X61721000Y-93480000D02*
X61721000Y-94563000D01*
X61761000Y-86063000D02*
X61761000Y-89119000D01*
X61761000Y-93480000D02*
X61761000Y-94537000D01*
X61801000Y-86089000D02*
X61801000Y-89119000D01*
X61801000Y-93480000D02*
X61801000Y-94511000D01*
X61841000Y-86115000D02*
X61841000Y-89119000D01*
X61841000Y-93480000D02*
X61841000Y-94485000D01*
X61881000Y-86143000D02*
X61881000Y-89119000D01*
X61881000Y-93480000D02*
X61881000Y-94457000D01*
X61921000Y-86170000D02*
X61921000Y-89119000D01*
X61921000Y-93480000D02*
X61921000Y-94430000D01*
X61961000Y-86199000D02*
X61961000Y-89119000D01*
X61961000Y-93480000D02*
X61961000Y-94401000D01*
X62001000Y-86228000D02*
X62001000Y-89119000D01*
X62001000Y-93480000D02*
X62001000Y-94372000D01*
X62041000Y-86257000D02*
X62041000Y-89119000D01*
X62041000Y-93480000D02*
X62041000Y-94343000D01*
X62081000Y-86287000D02*
X62081000Y-89119000D01*
X62081000Y-93480000D02*
X62081000Y-94313000D01*
X62121000Y-86318000D02*
X62121000Y-89119000D01*
X62121000Y-93480000D02*
X62121000Y-94282000D01*
X62161000Y-86349000D02*
X62161000Y-89119000D01*
X62161000Y-93480000D02*
X62161000Y-94251000D01*
X62201000Y-86381000D02*
X62201000Y-89119000D01*
X62201000Y-93480000D02*
X62201000Y-94219000D01*
X62241000Y-86414000D02*
X62241000Y-89119000D01*
X62241000Y-93480000D02*
X62241000Y-94186000D01*
X62281000Y-86447000D02*
X62281000Y-89119000D01*
X62281000Y-93480000D02*
X62281000Y-94153000D01*
X62321000Y-86481000D02*
X62321000Y-89119000D01*
X62321000Y-93480000D02*
X62321000Y-94119000D01*
X62361000Y-86516000D02*
X62361000Y-89119000D01*
X62361000Y-93480000D02*
X62361000Y-94084000D01*
X62401000Y-86552000D02*
X62401000Y-89119000D01*
X62401000Y-93480000D02*
X62401000Y-94048000D01*
X62441000Y-86588000D02*
X62441000Y-89119000D01*
X62441000Y-93480000D02*
X62441000Y-94012000D01*
X62481000Y-86625000D02*
X62481000Y-89119000D01*
X62481000Y-93480000D02*
X62481000Y-93975000D01*
X62521000Y-86663000D02*
X62521000Y-89119000D01*
X62521000Y-93480000D02*
X62521000Y-93937000D01*
X62561000Y-86702000D02*
X62561000Y-89119000D01*
X62561000Y-93480000D02*
X62561000Y-93898000D01*
X62601000Y-86741000D02*
X62601000Y-89119000D01*
X62601000Y-93480000D02*
X62601000Y-93859000D01*
X62641000Y-86782000D02*
X62641000Y-89119000D01*
X62641000Y-93480000D02*
X62641000Y-93818000D01*
X62681000Y-86823000D02*
X62681000Y-91120000D01*
X62681000Y-93480000D02*
X62681000Y-93777000D01*
X62721000Y-86865000D02*
X62721000Y-91120000D01*
X62721000Y-93480000D02*
X62721000Y-93735000D01*
X62761000Y-86909000D02*
X62761000Y-91120000D01*
X62761000Y-93480000D02*
X62761000Y-93691000D01*
X62801000Y-86953000D02*
X62801000Y-91120000D01*
X62801000Y-93480000D02*
X62801000Y-93647000D01*
X62841000Y-86998000D02*
X62841000Y-91120000D01*
X62841000Y-93480000D02*
X62841000Y-93602000D01*
X62881000Y-87045000D02*
X62881000Y-91120000D01*
X62881000Y-93480000D02*
X62881000Y-93555000D01*
X62921000Y-87093000D02*
X62921000Y-91120000D01*
X62921000Y-93480000D02*
X62921000Y-93507000D01*
X62961000Y-87142000D02*
X62961000Y-91120000D01*
X63001000Y-87192000D02*
X63001000Y-91120000D01*
X63041000Y-87243000D02*
X63041000Y-91120000D01*
X63081000Y-87296000D02*
X63081000Y-91120000D01*
X63121000Y-87351000D02*
X63121000Y-91120000D01*
X63161000Y-87406000D02*
X63161000Y-91120000D01*
X63201000Y-87464000D02*
X63201000Y-91120000D01*
X63241000Y-87523000D02*
X63241000Y-91120000D01*
X63281000Y-87585000D02*
X63281000Y-91120000D01*
X63321000Y-87648000D02*
X63321000Y-91120000D01*
X63361000Y-87713000D02*
X63361000Y-92887000D01*
X63401000Y-87781000D02*
X63401000Y-92819000D01*
X63441000Y-87851000D02*
X63441000Y-92749000D01*
X63481000Y-87923000D02*
X63481000Y-92677000D01*
X63521000Y-87999000D02*
X63521000Y-92601000D01*
X63561000Y-88078000D02*
X63561000Y-92522000D01*
X63601000Y-88160000D02*
X63601000Y-92440000D01*
X63641000Y-88247000D02*
X63641000Y-92353000D01*
X63681000Y-88338000D02*
X63681000Y-92262000D01*
X63721000Y-88434000D02*
X63721000Y-92166000D01*
X63761000Y-88537000D02*
X63761000Y-92063000D01*
X63801000Y-88646000D02*
X63801000Y-91954000D01*
X63841000Y-88764000D02*
X63841000Y-91836000D01*
X63881000Y-88893000D02*
X63881000Y-91707000D01*
X63921000Y-89035000D02*
X63921000Y-91565000D01*
X63961000Y-89196000D02*
X63961000Y-91404000D01*
X64001000Y-89387000D02*
X64001000Y-91213000D01*
X64041000Y-89628000D02*
X64041000Y-90972000D01*
X64081000Y-90021000D02*
X64081000Y-90579000D01*
X53800000Y-90300000D02*
X55300000Y-90300000D01*
X54550000Y-89550000D02*
X54550000Y-91050000D01*
X62551525Y-68520806D02*
G75*
G03X52648667Y-68520000I-4951525J-1179194D01*
G01*
X62551525Y-70879194D02*
G75*
G02X52648667Y-70880000I-4951525J1179194D01*
G01*
X62551525Y-70879194D02*
G75*
G03X62551333Y-68520000I-4951525J1179194D01*
G01*
X57600000Y-64650000D02*
X57600000Y-74750000D01*
X57640000Y-64650000D02*
X57640000Y-74750000D01*
X57680000Y-64650000D02*
X57680000Y-74750000D01*
X57720000Y-64651000D02*
X57720000Y-74749000D01*
X57760000Y-64652000D02*
X57760000Y-74748000D01*
X57800000Y-64653000D02*
X57800000Y-74747000D01*
X57840000Y-64655000D02*
X57840000Y-74745000D01*
X57880000Y-64657000D02*
X57880000Y-74743000D01*
X57920000Y-64660000D02*
X57920000Y-74740000D01*
X57960000Y-64662000D02*
X57960000Y-74738000D01*
X58000000Y-64665000D02*
X58000000Y-74735000D01*
X58040000Y-64669000D02*
X58040000Y-74731000D01*
X58080000Y-64672000D02*
X58080000Y-74728000D01*
X58120000Y-64676000D02*
X58120000Y-74724000D01*
X58160000Y-64680000D02*
X58160000Y-74720000D01*
X58200000Y-64685000D02*
X58200000Y-74715000D01*
X58240000Y-64690000D02*
X58240000Y-74710000D01*
X58280000Y-64695000D02*
X58280000Y-74705000D01*
X58321000Y-64701000D02*
X58321000Y-74699000D01*
X58361000Y-64707000D02*
X58361000Y-74693000D01*
X58401000Y-64713000D02*
X58401000Y-74687000D01*
X58441000Y-64719000D02*
X58441000Y-74681000D01*
X58481000Y-64726000D02*
X58481000Y-74674000D01*
X58521000Y-64733000D02*
X58521000Y-74667000D01*
X58561000Y-64741000D02*
X58561000Y-74659000D01*
X58601000Y-64749000D02*
X58601000Y-74651000D01*
X58641000Y-64757000D02*
X58641000Y-74643000D01*
X58681000Y-64765000D02*
X58681000Y-74635000D01*
X58721000Y-64774000D02*
X58721000Y-74626000D01*
X58761000Y-64783000D02*
X58761000Y-74617000D01*
X58801000Y-64793000D02*
X58801000Y-74607000D01*
X58841000Y-64803000D02*
X58841000Y-74597000D01*
X58881000Y-64813000D02*
X58881000Y-74587000D01*
X58921000Y-64824000D02*
X58921000Y-68519000D01*
X58921000Y-70881000D02*
X58921000Y-74576000D01*
X58961000Y-64835000D02*
X58961000Y-68519000D01*
X58961000Y-70881000D02*
X58961000Y-74565000D01*
X59001000Y-64846000D02*
X59001000Y-68519000D01*
X59001000Y-70881000D02*
X59001000Y-74554000D01*
X59041000Y-64857000D02*
X59041000Y-68519000D01*
X59041000Y-70881000D02*
X59041000Y-74543000D01*
X59081000Y-64869000D02*
X59081000Y-68519000D01*
X59081000Y-70881000D02*
X59081000Y-74531000D01*
X59121000Y-64882000D02*
X59121000Y-68519000D01*
X59121000Y-70881000D02*
X59121000Y-74518000D01*
X59161000Y-64894000D02*
X59161000Y-68519000D01*
X59161000Y-70881000D02*
X59161000Y-74506000D01*
X59201000Y-64908000D02*
X59201000Y-68519000D01*
X59201000Y-70881000D02*
X59201000Y-74492000D01*
X59241000Y-64921000D02*
X59241000Y-68519000D01*
X59241000Y-70881000D02*
X59241000Y-74479000D01*
X59281000Y-64935000D02*
X59281000Y-68519000D01*
X59281000Y-70881000D02*
X59281000Y-74465000D01*
X59321000Y-64949000D02*
X59321000Y-68519000D01*
X59321000Y-70881000D02*
X59321000Y-74451000D01*
X59361000Y-64963000D02*
X59361000Y-68519000D01*
X59361000Y-70881000D02*
X59361000Y-74437000D01*
X59401000Y-64978000D02*
X59401000Y-68519000D01*
X59401000Y-70881000D02*
X59401000Y-74422000D01*
X59441000Y-64994000D02*
X59441000Y-68519000D01*
X59441000Y-70881000D02*
X59441000Y-74406000D01*
X59481000Y-65009000D02*
X59481000Y-68519000D01*
X59481000Y-70881000D02*
X59481000Y-74391000D01*
X59521000Y-65026000D02*
X59521000Y-68519000D01*
X59521000Y-70881000D02*
X59521000Y-74374000D01*
X59561000Y-65042000D02*
X59561000Y-68519000D01*
X59561000Y-70881000D02*
X59561000Y-74358000D01*
X59601000Y-65059000D02*
X59601000Y-68519000D01*
X59601000Y-72880000D02*
X59601000Y-74341000D01*
X59641000Y-65076000D02*
X59641000Y-68519000D01*
X59641000Y-72880000D02*
X59641000Y-74324000D01*
X59681000Y-65094000D02*
X59681000Y-68519000D01*
X59681000Y-72880000D02*
X59681000Y-74306000D01*
X59721000Y-65112000D02*
X59721000Y-68519000D01*
X59721000Y-72880000D02*
X59721000Y-74288000D01*
X59761000Y-65131000D02*
X59761000Y-68519000D01*
X59761000Y-72880000D02*
X59761000Y-74269000D01*
X59801000Y-65150000D02*
X59801000Y-68519000D01*
X59801000Y-72880000D02*
X59801000Y-74250000D01*
X59841000Y-65169000D02*
X59841000Y-68519000D01*
X59841000Y-72880000D02*
X59841000Y-74231000D01*
X59881000Y-65189000D02*
X59881000Y-68519000D01*
X59881000Y-72880000D02*
X59881000Y-74211000D01*
X59921000Y-65209000D02*
X59921000Y-68519000D01*
X59921000Y-72880000D02*
X59921000Y-74191000D01*
X59961000Y-65230000D02*
X59961000Y-68519000D01*
X59961000Y-72880000D02*
X59961000Y-74170000D01*
X60001000Y-65251000D02*
X60001000Y-68519000D01*
X60001000Y-72880000D02*
X60001000Y-74149000D01*
X60041000Y-65272000D02*
X60041000Y-68519000D01*
X60041000Y-72880000D02*
X60041000Y-74128000D01*
X60081000Y-65295000D02*
X60081000Y-68519000D01*
X60081000Y-72880000D02*
X60081000Y-74105000D01*
X60121000Y-65317000D02*
X60121000Y-68519000D01*
X60121000Y-72880000D02*
X60121000Y-74083000D01*
X60161000Y-65340000D02*
X60161000Y-68519000D01*
X60161000Y-72880000D02*
X60161000Y-74060000D01*
X60201000Y-65364000D02*
X60201000Y-68519000D01*
X60201000Y-72880000D02*
X60201000Y-74036000D01*
X60241000Y-65388000D02*
X60241000Y-68519000D01*
X60241000Y-72880000D02*
X60241000Y-74012000D01*
X60281000Y-65412000D02*
X60281000Y-68519000D01*
X60281000Y-72880000D02*
X60281000Y-73988000D01*
X60321000Y-65437000D02*
X60321000Y-68519000D01*
X60321000Y-72880000D02*
X60321000Y-73963000D01*
X60361000Y-65463000D02*
X60361000Y-68519000D01*
X60361000Y-72880000D02*
X60361000Y-73937000D01*
X60401000Y-65489000D02*
X60401000Y-68519000D01*
X60401000Y-72880000D02*
X60401000Y-73911000D01*
X60441000Y-65515000D02*
X60441000Y-68519000D01*
X60441000Y-72880000D02*
X60441000Y-73885000D01*
X60481000Y-65543000D02*
X60481000Y-68519000D01*
X60481000Y-72880000D02*
X60481000Y-73857000D01*
X60521000Y-65570000D02*
X60521000Y-68519000D01*
X60521000Y-72880000D02*
X60521000Y-73830000D01*
X60561000Y-65599000D02*
X60561000Y-68519000D01*
X60561000Y-72880000D02*
X60561000Y-73801000D01*
X60601000Y-65628000D02*
X60601000Y-68519000D01*
X60601000Y-72880000D02*
X60601000Y-73772000D01*
X60641000Y-65657000D02*
X60641000Y-68519000D01*
X60641000Y-72880000D02*
X60641000Y-73743000D01*
X60681000Y-65687000D02*
X60681000Y-68519000D01*
X60681000Y-72880000D02*
X60681000Y-73713000D01*
X60721000Y-65718000D02*
X60721000Y-68519000D01*
X60721000Y-72880000D02*
X60721000Y-73682000D01*
X60761000Y-65749000D02*
X60761000Y-68519000D01*
X60761000Y-72880000D02*
X60761000Y-73651000D01*
X60801000Y-65781000D02*
X60801000Y-68519000D01*
X60801000Y-72880000D02*
X60801000Y-73619000D01*
X60841000Y-65814000D02*
X60841000Y-68519000D01*
X60841000Y-72880000D02*
X60841000Y-73586000D01*
X60881000Y-65847000D02*
X60881000Y-68519000D01*
X60881000Y-72880000D02*
X60881000Y-73553000D01*
X60921000Y-65881000D02*
X60921000Y-68519000D01*
X60921000Y-72880000D02*
X60921000Y-73519000D01*
X60961000Y-65916000D02*
X60961000Y-68519000D01*
X60961000Y-72880000D02*
X60961000Y-73484000D01*
X61001000Y-65952000D02*
X61001000Y-68519000D01*
X61001000Y-72880000D02*
X61001000Y-73448000D01*
X61041000Y-65988000D02*
X61041000Y-68519000D01*
X61041000Y-72880000D02*
X61041000Y-73412000D01*
X61081000Y-66025000D02*
X61081000Y-68519000D01*
X61081000Y-72880000D02*
X61081000Y-73375000D01*
X61121000Y-66063000D02*
X61121000Y-68519000D01*
X61121000Y-72880000D02*
X61121000Y-73337000D01*
X61161000Y-66102000D02*
X61161000Y-68519000D01*
X61161000Y-72880000D02*
X61161000Y-73298000D01*
X61201000Y-66141000D02*
X61201000Y-68519000D01*
X61201000Y-72880000D02*
X61201000Y-73259000D01*
X61241000Y-66182000D02*
X61241000Y-68519000D01*
X61241000Y-72880000D02*
X61241000Y-73218000D01*
X61281000Y-66223000D02*
X61281000Y-70520000D01*
X61281000Y-72880000D02*
X61281000Y-73177000D01*
X61321000Y-66265000D02*
X61321000Y-70520000D01*
X61321000Y-72880000D02*
X61321000Y-73135000D01*
X61361000Y-66309000D02*
X61361000Y-70520000D01*
X61361000Y-72880000D02*
X61361000Y-73091000D01*
X61401000Y-66353000D02*
X61401000Y-70520000D01*
X61401000Y-72880000D02*
X61401000Y-73047000D01*
X61441000Y-66398000D02*
X61441000Y-70520000D01*
X61441000Y-72880000D02*
X61441000Y-73002000D01*
X61481000Y-66445000D02*
X61481000Y-70520000D01*
X61481000Y-72880000D02*
X61481000Y-72955000D01*
X61521000Y-66493000D02*
X61521000Y-70520000D01*
X61521000Y-72880000D02*
X61521000Y-72907000D01*
X61561000Y-66542000D02*
X61561000Y-70520000D01*
X61601000Y-66592000D02*
X61601000Y-70520000D01*
X61641000Y-66643000D02*
X61641000Y-70520000D01*
X61681000Y-66696000D02*
X61681000Y-70520000D01*
X61721000Y-66751000D02*
X61721000Y-70520000D01*
X61761000Y-66806000D02*
X61761000Y-70520000D01*
X61801000Y-66864000D02*
X61801000Y-70520000D01*
X61841000Y-66923000D02*
X61841000Y-70520000D01*
X61881000Y-66985000D02*
X61881000Y-70520000D01*
X61921000Y-67048000D02*
X61921000Y-70520000D01*
X61961000Y-67113000D02*
X61961000Y-72287000D01*
X62001000Y-67181000D02*
X62001000Y-72219000D01*
X62041000Y-67251000D02*
X62041000Y-72149000D01*
X62081000Y-67323000D02*
X62081000Y-72077000D01*
X62121000Y-67399000D02*
X62121000Y-72001000D01*
X62161000Y-67478000D02*
X62161000Y-71922000D01*
X62201000Y-67560000D02*
X62201000Y-71840000D01*
X62241000Y-67647000D02*
X62241000Y-71753000D01*
X62281000Y-67738000D02*
X62281000Y-71662000D01*
X62321000Y-67834000D02*
X62321000Y-71566000D01*
X62361000Y-67937000D02*
X62361000Y-71463000D01*
X62401000Y-68046000D02*
X62401000Y-71354000D01*
X62441000Y-68164000D02*
X62441000Y-71236000D01*
X62481000Y-68293000D02*
X62481000Y-71107000D01*
X62521000Y-68435000D02*
X62521000Y-70965000D01*
X62561000Y-68596000D02*
X62561000Y-70804000D01*
X62601000Y-68787000D02*
X62601000Y-70613000D01*
X62641000Y-69028000D02*
X62641000Y-70372000D01*
X62681000Y-69421000D02*
X62681000Y-69979000D01*
X52400000Y-69700000D02*
X53900000Y-69700000D01*
X53150000Y-68950000D02*
X53150000Y-70450000D01*
X45200000Y-94700000D02*
X36400000Y-94700000D01*
X36400000Y-94700000D02*
X36400000Y-85500000D01*
X51100000Y-92000000D02*
X51100000Y-94700000D01*
X51100000Y-94700000D02*
X49200000Y-94700000D01*
X36400000Y-85500000D02*
X51100000Y-85500000D01*
X51100000Y-85500000D02*
X51100000Y-88100000D01*
X123720000Y-95980000D02*
X135880000Y-95980000D01*
X135880000Y-95980000D02*
X135880000Y-83820000D01*
X135880000Y-83820000D02*
X123720000Y-83820000D01*
X123720000Y-83820000D02*
X123720000Y-95980000D01*
X134380000Y-95980000D02*
X132580000Y-95980000D01*
X132580000Y-95980000D02*
X132580000Y-83820000D01*
X132580000Y-83820000D02*
X134380000Y-83820000D01*
X134380000Y-83820000D02*
X134380000Y-95980000D01*
X135880000Y-93400000D02*
X135880000Y-91400000D01*
X135880000Y-91400000D02*
X134380000Y-91650000D01*
X134380000Y-91650000D02*
X134380000Y-93150000D01*
X134380000Y-93150000D02*
X135880000Y-93400000D01*
X135880000Y-88400000D02*
X135880000Y-86400000D01*
X135880000Y-86400000D02*
X134380000Y-86650000D01*
X134380000Y-86650000D02*
X134380000Y-88150000D01*
X134380000Y-88150000D02*
X135880000Y-88400000D01*
X122920000Y-92100000D02*
X123520000Y-92400000D01*
X123520000Y-92400000D02*
X122920000Y-92700000D01*
X122920000Y-92700000D02*
X122920000Y-92100000D01*
X123720000Y-76080000D02*
X135880000Y-76080000D01*
X135880000Y-76080000D02*
X135880000Y-63920000D01*
X135880000Y-63920000D02*
X123720000Y-63920000D01*
X123720000Y-63920000D02*
X123720000Y-76080000D01*
X134380000Y-76080000D02*
X132580000Y-76080000D01*
X132580000Y-76080000D02*
X132580000Y-63920000D01*
X132580000Y-63920000D02*
X134380000Y-63920000D01*
X134380000Y-63920000D02*
X134380000Y-76080000D01*
X135880000Y-73500000D02*
X135880000Y-71500000D01*
X135880000Y-71500000D02*
X134380000Y-71750000D01*
X134380000Y-71750000D02*
X134380000Y-73250000D01*
X134380000Y-73250000D02*
X135880000Y-73500000D01*
X135880000Y-68500000D02*
X135880000Y-66500000D01*
X135880000Y-66500000D02*
X134380000Y-66750000D01*
X134380000Y-66750000D02*
X134380000Y-68250000D01*
X134380000Y-68250000D02*
X135880000Y-68500000D01*
X122920000Y-72200000D02*
X123520000Y-72500000D01*
X123520000Y-72500000D02*
X122920000Y-72800000D01*
X122920000Y-72800000D02*
X122920000Y-72200000D01*
D13*
X36000000Y-110000000D02*
X36000000Y-50000000D01*
X132000000Y-114000000D02*
X40000000Y-114000000D01*
X136000000Y-50000000D02*
X136000000Y-110000000D01*
X40000000Y-46000000D02*
X132000000Y-46000000D01*
X36000000Y-110000000D02*
G75*
G03X40000000Y-114000000I4000000J0D01*
G01*
X132000000Y-114000000D02*
G75*
G03X136000000Y-110000000I0J4000000D01*
G01*
X136000000Y-50000000D02*
G75*
G03X132000000Y-46000000I-4000000J0D01*
G01*
X40000000Y-46000000D02*
G75*
G03X36000000Y-50000000I0J-4000000D01*
G01*
X128500000Y-80000000D02*
G75*
G03X128500000Y-80000000I-3000000J0D01*
G01*
X111000000Y-102000000D02*
G75*
G03X111000000Y-102000000I-3500000J0D01*
G01*
X111000000Y-58000000D02*
G75*
G03X111000000Y-58000000I-3500000J0D01*
G01*
X68000000Y-102000000D02*
G75*
G03X68000000Y-102000000I-3500000J0D01*
G01*
X68000000Y-58000000D02*
G75*
G03X68000000Y-58000000I-3500000J0D01*
G01*
X50000000Y-80000000D02*
G75*
G03X50000000Y-80000000I-3500000J0D01*
G01*
D14*
X65770000Y-93770000D02*
X65770000Y-96370000D01*
X65770000Y-96370000D02*
X68430000Y-96370000D01*
X68430000Y-96370000D02*
X68430000Y-93770000D01*
X68430000Y-93770000D02*
X65770000Y-93770000D01*
X65770000Y-92500000D02*
X65770000Y-91170000D01*
X65770000Y-91170000D02*
X67100000Y-91170000D01*
D13*
X124166667Y-76452381D02*
X123833333Y-75976190D01*
X123595238Y-76452381D02*
X123595238Y-75452381D01*
X123976191Y-75452381D01*
X124071429Y-75500000D01*
X124119048Y-75547619D01*
X124166667Y-75642857D01*
X124166667Y-75785714D01*
X124119048Y-75880952D01*
X124071429Y-75928571D01*
X123976191Y-75976190D01*
X123595238Y-75976190D01*
X124595238Y-75928571D02*
X124928572Y-75928571D01*
X125071429Y-76452381D02*
X124595238Y-76452381D01*
X124595238Y-75452381D01*
X125071429Y-75452381D01*
X125833334Y-75928571D02*
X125500000Y-75928571D01*
X125500000Y-76452381D02*
X125500000Y-75452381D01*
X125976191Y-75452381D01*
X126500000Y-75452381D02*
X126500000Y-75690476D01*
X126261905Y-75595238D02*
X126500000Y-75690476D01*
X126738096Y-75595238D01*
X126357143Y-75880952D02*
X126500000Y-75690476D01*
X126642858Y-75880952D01*
X127261905Y-75452381D02*
X127261905Y-75690476D01*
X127023810Y-75595238D02*
X127261905Y-75690476D01*
X127500001Y-75595238D01*
X127119048Y-75880952D02*
X127261905Y-75690476D01*
X127404763Y-75880952D01*
X106166667Y-98252381D02*
X105833333Y-97776190D01*
X105595238Y-98252381D02*
X105595238Y-97252381D01*
X105976191Y-97252381D01*
X106071429Y-97300000D01*
X106119048Y-97347619D01*
X106166667Y-97442857D01*
X106166667Y-97585714D01*
X106119048Y-97680952D01*
X106071429Y-97728571D01*
X105976191Y-97776190D01*
X105595238Y-97776190D01*
X106595238Y-97728571D02*
X106928572Y-97728571D01*
X107071429Y-98252381D02*
X106595238Y-98252381D01*
X106595238Y-97252381D01*
X107071429Y-97252381D01*
X107833334Y-97728571D02*
X107500000Y-97728571D01*
X107500000Y-98252381D02*
X107500000Y-97252381D01*
X107976191Y-97252381D01*
X108500000Y-97252381D02*
X108500000Y-97490476D01*
X108261905Y-97395238D02*
X108500000Y-97490476D01*
X108738096Y-97395238D01*
X108357143Y-97680952D02*
X108500000Y-97490476D01*
X108642858Y-97680952D01*
X109261905Y-97252381D02*
X109261905Y-97490476D01*
X109023810Y-97395238D02*
X109261905Y-97490476D01*
X109500001Y-97395238D01*
X109119048Y-97680952D02*
X109261905Y-97490476D01*
X109404763Y-97680952D01*
X109761905Y-87952381D02*
X109761905Y-86952381D01*
X110000000Y-86952381D01*
X110142858Y-87000000D01*
X110238096Y-87095238D01*
X110285715Y-87190476D01*
X110333334Y-87380952D01*
X110333334Y-87523810D01*
X110285715Y-87714286D01*
X110238096Y-87809524D01*
X110142858Y-87904762D01*
X110000000Y-87952381D01*
X109761905Y-87952381D01*
X111238096Y-86952381D02*
X110761905Y-86952381D01*
X110714286Y-87428571D01*
X110761905Y-87380952D01*
X110857143Y-87333333D01*
X111095239Y-87333333D01*
X111190477Y-87380952D01*
X111238096Y-87428571D01*
X111285715Y-87523810D01*
X111285715Y-87761905D01*
X111238096Y-87857143D01*
X111190477Y-87904762D01*
X111095239Y-87952381D01*
X110857143Y-87952381D01*
X110761905Y-87904762D01*
X110714286Y-87857143D01*
X113361905Y-87952381D02*
X113361905Y-86952381D01*
X113600000Y-86952381D01*
X113742858Y-87000000D01*
X113838096Y-87095238D01*
X113885715Y-87190476D01*
X113933334Y-87380952D01*
X113933334Y-87523810D01*
X113885715Y-87714286D01*
X113838096Y-87809524D01*
X113742858Y-87904762D01*
X113600000Y-87952381D01*
X113361905Y-87952381D01*
X114790477Y-86952381D02*
X114600000Y-86952381D01*
X114504762Y-87000000D01*
X114457143Y-87047619D01*
X114361905Y-87190476D01*
X114314286Y-87380952D01*
X114314286Y-87761905D01*
X114361905Y-87857143D01*
X114409524Y-87904762D01*
X114504762Y-87952381D01*
X114695239Y-87952381D01*
X114790477Y-87904762D01*
X114838096Y-87857143D01*
X114885715Y-87761905D01*
X114885715Y-87523810D01*
X114838096Y-87428571D01*
X114790477Y-87380952D01*
X114695239Y-87333333D01*
X114504762Y-87333333D01*
X114409524Y-87380952D01*
X114361905Y-87428571D01*
X114314286Y-87523810D01*
X116461905Y-87952381D02*
X116461905Y-86952381D01*
X116700000Y-86952381D01*
X116842858Y-87000000D01*
X116938096Y-87095238D01*
X116985715Y-87190476D01*
X117033334Y-87380952D01*
X117033334Y-87523810D01*
X116985715Y-87714286D01*
X116938096Y-87809524D01*
X116842858Y-87904762D01*
X116700000Y-87952381D01*
X116461905Y-87952381D01*
X117366667Y-86952381D02*
X118033334Y-86952381D01*
X117604762Y-87952381D01*
X119452381Y-83638095D02*
X118452381Y-83638095D01*
X118452381Y-83400000D01*
X118500000Y-83257142D01*
X118595238Y-83161904D01*
X118690476Y-83114285D01*
X118880952Y-83066666D01*
X119023810Y-83066666D01*
X119214286Y-83114285D01*
X119309524Y-83161904D01*
X119404762Y-83257142D01*
X119452381Y-83400000D01*
X119452381Y-83638095D01*
X118880952Y-82495238D02*
X118833333Y-82590476D01*
X118785714Y-82638095D01*
X118690476Y-82685714D01*
X118642857Y-82685714D01*
X118547619Y-82638095D01*
X118500000Y-82590476D01*
X118452381Y-82495238D01*
X118452381Y-82304761D01*
X118500000Y-82209523D01*
X118547619Y-82161904D01*
X118642857Y-82114285D01*
X118690476Y-82114285D01*
X118785714Y-82161904D01*
X118833333Y-82209523D01*
X118880952Y-82304761D01*
X118880952Y-82495238D01*
X118928571Y-82590476D01*
X118976190Y-82638095D01*
X119071429Y-82685714D01*
X119261905Y-82685714D01*
X119357143Y-82638095D01*
X119404762Y-82590476D01*
X119452381Y-82495238D01*
X119452381Y-82304761D01*
X119404762Y-82209523D01*
X119357143Y-82161904D01*
X119261905Y-82114285D01*
X119071429Y-82114285D01*
X118976190Y-82161904D01*
X118928571Y-82209523D01*
X118880952Y-82304761D01*
D15*
X121326190Y-83671428D02*
X121326190Y-83957142D01*
X121326190Y-83814285D02*
X120826190Y-83814285D01*
X120897619Y-83861904D01*
X120945238Y-83909523D01*
X120969048Y-83957142D01*
X121326190Y-83457142D02*
X120826190Y-83457142D01*
X121326190Y-83171428D01*
X120826190Y-83171428D01*
X120992857Y-82719047D02*
X121326190Y-82719047D01*
X120802381Y-82838094D02*
X121159524Y-82957142D01*
X121159524Y-82647618D01*
X121326190Y-82195238D02*
X121326190Y-82480952D01*
X121326190Y-82338095D02*
X120826190Y-82338095D01*
X120897619Y-82385714D01*
X120945238Y-82433333D01*
X120969048Y-82480952D01*
X120992857Y-81766667D02*
X121326190Y-81766667D01*
X120802381Y-81885714D02*
X121159524Y-82004762D01*
X121159524Y-81695238D01*
X121040476Y-81433334D02*
X121016667Y-81480953D01*
X120992857Y-81504762D01*
X120945238Y-81528572D01*
X120921429Y-81528572D01*
X120873810Y-81504762D01*
X120850000Y-81480953D01*
X120826190Y-81433334D01*
X120826190Y-81338096D01*
X120850000Y-81290477D01*
X120873810Y-81266667D01*
X120921429Y-81242858D01*
X120945238Y-81242858D01*
X120992857Y-81266667D01*
X121016667Y-81290477D01*
X121040476Y-81338096D01*
X121040476Y-81433334D01*
X121064286Y-81480953D01*
X121088095Y-81504762D01*
X121135714Y-81528572D01*
X121230952Y-81528572D01*
X121278571Y-81504762D01*
X121302381Y-81480953D01*
X121326190Y-81433334D01*
X121326190Y-81338096D01*
X121302381Y-81290477D01*
X121278571Y-81266667D01*
X121230952Y-81242858D01*
X121135714Y-81242858D01*
X121088095Y-81266667D01*
X121064286Y-81290477D01*
X121040476Y-81338096D01*
D13*
X107452381Y-87738095D02*
X106452381Y-87738095D01*
X106452381Y-87500000D01*
X106500000Y-87357142D01*
X106595238Y-87261904D01*
X106690476Y-87214285D01*
X106880952Y-87166666D01*
X107023810Y-87166666D01*
X107214286Y-87214285D01*
X107309524Y-87261904D01*
X107404762Y-87357142D01*
X107452381Y-87500000D01*
X107452381Y-87738095D01*
X107452381Y-86690476D02*
X107452381Y-86500000D01*
X107404762Y-86404761D01*
X107357143Y-86357142D01*
X107214286Y-86261904D01*
X107023810Y-86214285D01*
X106642857Y-86214285D01*
X106547619Y-86261904D01*
X106500000Y-86309523D01*
X106452381Y-86404761D01*
X106452381Y-86595238D01*
X106500000Y-86690476D01*
X106547619Y-86738095D01*
X106642857Y-86785714D01*
X106880952Y-86785714D01*
X106976190Y-86738095D01*
X107023810Y-86690476D01*
X107071429Y-86595238D01*
X107071429Y-86404761D01*
X107023810Y-86309523D01*
X106976190Y-86261904D01*
X106880952Y-86214285D01*
X106785714Y-94014285D02*
X107452381Y-94014285D01*
X106404762Y-94252381D02*
X107119048Y-94490476D01*
X107119048Y-93871428D01*
X106452381Y-93633333D02*
X107452381Y-93300000D01*
X106452381Y-92966666D01*
X106452381Y-92728571D02*
X106452381Y-92061904D01*
X107452381Y-92490476D01*
X97052381Y-87814286D02*
X96052381Y-87814286D01*
X96052381Y-87576191D01*
X96100000Y-87433333D01*
X96195238Y-87338095D01*
X96290476Y-87290476D01*
X96480952Y-87242857D01*
X96623810Y-87242857D01*
X96814286Y-87290476D01*
X96909524Y-87338095D01*
X97004762Y-87433333D01*
X97052381Y-87576191D01*
X97052381Y-87814286D01*
X97052381Y-86290476D02*
X97052381Y-86861905D01*
X97052381Y-86576191D02*
X96052381Y-86576191D01*
X96195238Y-86671429D01*
X96290476Y-86766667D01*
X96338095Y-86861905D01*
X96052381Y-85671429D02*
X96052381Y-85576190D01*
X96100000Y-85480952D01*
X96147619Y-85433333D01*
X96242857Y-85385714D01*
X96433333Y-85338095D01*
X96671429Y-85338095D01*
X96861905Y-85385714D01*
X96957143Y-85433333D01*
X97004762Y-85480952D01*
X97052381Y-85576190D01*
X97052381Y-85671429D01*
X97004762Y-85766667D01*
X96957143Y-85814286D01*
X96861905Y-85861905D01*
X96671429Y-85909524D01*
X96433333Y-85909524D01*
X96242857Y-85861905D01*
X96147619Y-85814286D01*
X96100000Y-85766667D01*
X96052381Y-85671429D01*
X96852381Y-94219047D02*
X96852381Y-94790476D01*
X96852381Y-94504762D02*
X95852381Y-94504762D01*
X95995238Y-94600000D01*
X96090476Y-94695238D01*
X96138095Y-94790476D01*
X95852381Y-93314285D02*
X95852381Y-93790476D01*
X96328571Y-93838095D01*
X96280952Y-93790476D01*
X96233333Y-93695238D01*
X96233333Y-93457142D01*
X96280952Y-93361904D01*
X96328571Y-93314285D01*
X96423810Y-93266666D01*
X96661905Y-93266666D01*
X96757143Y-93314285D01*
X96804762Y-93361904D01*
X96852381Y-93457142D01*
X96852381Y-93695238D01*
X96804762Y-93790476D01*
X96757143Y-93838095D01*
X95852381Y-92980952D02*
X96852381Y-92647619D01*
X95852381Y-92314285D01*
X93252381Y-87814286D02*
X92252381Y-87814286D01*
X92252381Y-87576191D01*
X92300000Y-87433333D01*
X92395238Y-87338095D01*
X92490476Y-87290476D01*
X92680952Y-87242857D01*
X92823810Y-87242857D01*
X93014286Y-87290476D01*
X93109524Y-87338095D01*
X93204762Y-87433333D01*
X93252381Y-87576191D01*
X93252381Y-87814286D01*
X93252381Y-86290476D02*
X93252381Y-86861905D01*
X93252381Y-86576191D02*
X92252381Y-86576191D01*
X92395238Y-86671429D01*
X92490476Y-86766667D01*
X92538095Y-86861905D01*
X93252381Y-85338095D02*
X93252381Y-85909524D01*
X93252381Y-85623810D02*
X92252381Y-85623810D01*
X92395238Y-85719048D01*
X92490476Y-85814286D01*
X92538095Y-85909524D01*
X92585714Y-94214285D02*
X93252381Y-94214285D01*
X92204762Y-94452381D02*
X92919048Y-94690476D01*
X92919048Y-94071428D01*
X92252381Y-93833333D02*
X93252381Y-93500000D01*
X92252381Y-93166666D01*
X92252381Y-92928571D02*
X92252381Y-92309523D01*
X92633333Y-92642857D01*
X92633333Y-92499999D01*
X92680952Y-92404761D01*
X92728571Y-92357142D01*
X92823810Y-92309523D01*
X93061905Y-92309523D01*
X93157143Y-92357142D01*
X93204762Y-92404761D01*
X93252381Y-92499999D01*
X93252381Y-92785714D01*
X93204762Y-92880952D01*
X93157143Y-92928571D01*
X82661905Y-75962381D02*
X82661905Y-74962381D01*
X83042858Y-74962381D01*
X83138096Y-75010000D01*
X83185715Y-75057619D01*
X83233334Y-75152857D01*
X83233334Y-75295714D01*
X83185715Y-75390952D01*
X83138096Y-75438571D01*
X83042858Y-75486190D01*
X82661905Y-75486190D01*
X83614286Y-75057619D02*
X83661905Y-75010000D01*
X83757143Y-74962381D01*
X83995239Y-74962381D01*
X84090477Y-75010000D01*
X84138096Y-75057619D01*
X84185715Y-75152857D01*
X84185715Y-75248095D01*
X84138096Y-75390952D01*
X83566667Y-75962381D01*
X84185715Y-75962381D01*
X82761905Y-67142381D02*
X82761905Y-66142381D01*
X83142858Y-66142381D01*
X83238096Y-66190000D01*
X83285715Y-66237619D01*
X83333334Y-66332857D01*
X83333334Y-66475714D01*
X83285715Y-66570952D01*
X83238096Y-66618571D01*
X83142858Y-66666190D01*
X82761905Y-66666190D01*
X83666667Y-66142381D02*
X84285715Y-66142381D01*
X83952381Y-66523333D01*
X84095239Y-66523333D01*
X84190477Y-66570952D01*
X84238096Y-66618571D01*
X84285715Y-66713810D01*
X84285715Y-66951905D01*
X84238096Y-67047143D01*
X84190477Y-67094762D01*
X84095239Y-67142381D01*
X83809524Y-67142381D01*
X83714286Y-67094762D01*
X83666667Y-67047143D01*
X102854381Y-104198095D02*
X101854381Y-104198095D01*
X101854381Y-103817142D01*
X101902000Y-103721904D01*
X101949619Y-103674285D01*
X102044857Y-103626666D01*
X102187714Y-103626666D01*
X102282952Y-103674285D01*
X102330571Y-103721904D01*
X102378190Y-103817142D01*
X102378190Y-104198095D01*
X101854381Y-102769523D02*
X101854381Y-102960000D01*
X101902000Y-103055238D01*
X101949619Y-103102857D01*
X102092476Y-103198095D01*
X102282952Y-103245714D01*
X102663905Y-103245714D01*
X102759143Y-103198095D01*
X102806762Y-103150476D01*
X102854381Y-103055238D01*
X102854381Y-102864761D01*
X102806762Y-102769523D01*
X102759143Y-102721904D01*
X102663905Y-102674285D01*
X102425810Y-102674285D01*
X102330571Y-102721904D01*
X102282952Y-102769523D01*
X102235333Y-102864761D01*
X102235333Y-103055238D01*
X102282952Y-103150476D01*
X102330571Y-103198095D01*
X102425810Y-103245714D01*
X89652381Y-107985714D02*
X88652381Y-107985714D01*
X89366667Y-107652380D01*
X88652381Y-107319047D01*
X89652381Y-107319047D01*
X89176190Y-106652381D02*
X89652381Y-106652381D01*
X88652381Y-106985714D02*
X89176190Y-106652381D01*
X88652381Y-106319047D01*
X89604762Y-106033333D02*
X89652381Y-105890476D01*
X89652381Y-105652380D01*
X89604762Y-105557142D01*
X89557143Y-105509523D01*
X89461905Y-105461904D01*
X89366667Y-105461904D01*
X89271429Y-105509523D01*
X89223810Y-105557142D01*
X89176190Y-105652380D01*
X89128571Y-105842857D01*
X89080952Y-105938095D01*
X89033333Y-105985714D01*
X88938095Y-106033333D01*
X88842857Y-106033333D01*
X88747619Y-105985714D01*
X88700000Y-105938095D01*
X88652381Y-105842857D01*
X88652381Y-105604761D01*
X88700000Y-105461904D01*
X88652381Y-105128571D02*
X89652381Y-104461904D01*
X88652381Y-104461904D02*
X89652381Y-105128571D01*
X89747619Y-104319047D02*
X89747619Y-103557142D01*
X88747619Y-103366666D02*
X88700000Y-103319047D01*
X88652381Y-103223809D01*
X88652381Y-102985713D01*
X88700000Y-102890475D01*
X88747619Y-102842856D01*
X88842857Y-102795237D01*
X88938095Y-102795237D01*
X89080952Y-102842856D01*
X89652381Y-103414285D01*
X89652381Y-102795237D01*
X89557143Y-102366666D02*
X89604762Y-102319047D01*
X89652381Y-102366666D01*
X89604762Y-102414285D01*
X89557143Y-102366666D01*
X89652381Y-102366666D01*
X88652381Y-101700000D02*
X88652381Y-101604761D01*
X88700000Y-101509523D01*
X88747619Y-101461904D01*
X88842857Y-101414285D01*
X89033333Y-101366666D01*
X89271429Y-101366666D01*
X89461905Y-101414285D01*
X89557143Y-101461904D01*
X89604762Y-101509523D01*
X89652381Y-101604761D01*
X89652381Y-101700000D01*
X89604762Y-101795238D01*
X89557143Y-101842857D01*
X89461905Y-101890476D01*
X89271429Y-101938095D01*
X89033333Y-101938095D01*
X88842857Y-101890476D01*
X88747619Y-101842857D01*
X88700000Y-101795238D01*
X88652381Y-101700000D01*
X88122381Y-106738095D02*
X87122381Y-106738095D01*
X87122381Y-106357142D01*
X87170000Y-106261904D01*
X87217619Y-106214285D01*
X87312857Y-106166666D01*
X87455714Y-106166666D01*
X87550952Y-106214285D01*
X87598571Y-106261904D01*
X87646190Y-106357142D01*
X87646190Y-106738095D01*
X87122381Y-105833333D02*
X87122381Y-105166666D01*
X88122381Y-105595238D01*
X109504762Y-82647619D02*
X109409524Y-82600000D01*
X109314286Y-82504762D01*
X109171429Y-82361905D01*
X109076190Y-82314286D01*
X108980952Y-82314286D01*
X109028571Y-82552381D02*
X108933333Y-82504762D01*
X108838095Y-82409524D01*
X108790476Y-82219048D01*
X108790476Y-81885714D01*
X108838095Y-81695238D01*
X108933333Y-81600000D01*
X109028571Y-81552381D01*
X109219048Y-81552381D01*
X109314286Y-81600000D01*
X109409524Y-81695238D01*
X109457143Y-81885714D01*
X109457143Y-82219048D01*
X109409524Y-82409524D01*
X109314286Y-82504762D01*
X109219048Y-82552381D01*
X109028571Y-82552381D01*
X110409524Y-82552381D02*
X109838095Y-82552381D01*
X110123809Y-82552381D02*
X110123809Y-81552381D01*
X110028571Y-81695238D01*
X109933333Y-81790476D01*
X109838095Y-81838095D01*
X115628571Y-86257142D02*
X115676190Y-86114285D01*
X115723810Y-86066666D01*
X115819048Y-86019047D01*
X115961905Y-86019047D01*
X116057143Y-86066666D01*
X116104762Y-86114285D01*
X116152381Y-86209523D01*
X116152381Y-86590476D01*
X115152381Y-86590476D01*
X115152381Y-86257142D01*
X115200000Y-86161904D01*
X115247619Y-86114285D01*
X115342857Y-86066666D01*
X115438095Y-86066666D01*
X115533333Y-86114285D01*
X115580952Y-86161904D01*
X115628571Y-86257142D01*
X115628571Y-86590476D01*
X116057143Y-85019047D02*
X116104762Y-85066666D01*
X116152381Y-85209523D01*
X116152381Y-85304761D01*
X116104762Y-85447619D01*
X116009524Y-85542857D01*
X115914286Y-85590476D01*
X115723810Y-85638095D01*
X115580952Y-85638095D01*
X115390476Y-85590476D01*
X115295238Y-85542857D01*
X115200000Y-85447619D01*
X115152381Y-85304761D01*
X115152381Y-85209523D01*
X115200000Y-85066666D01*
X115247619Y-85019047D01*
X115152381Y-84114285D02*
X115152381Y-84590476D01*
X115628571Y-84638095D01*
X115580952Y-84590476D01*
X115533333Y-84495238D01*
X115533333Y-84257142D01*
X115580952Y-84161904D01*
X115628571Y-84114285D01*
X115723810Y-84066666D01*
X115961905Y-84066666D01*
X116057143Y-84114285D01*
X116104762Y-84161904D01*
X116152381Y-84257142D01*
X116152381Y-84495238D01*
X116104762Y-84590476D01*
X116057143Y-84638095D01*
X115152381Y-83161904D02*
X115152381Y-83638095D01*
X115628571Y-83685714D01*
X115580952Y-83638095D01*
X115533333Y-83542857D01*
X115533333Y-83304761D01*
X115580952Y-83209523D01*
X115628571Y-83161904D01*
X115723810Y-83114285D01*
X115961905Y-83114285D01*
X116057143Y-83161904D01*
X116104762Y-83209523D01*
X116152381Y-83304761D01*
X116152381Y-83542857D01*
X116104762Y-83638095D01*
X116057143Y-83685714D01*
X115580952Y-82542857D02*
X115533333Y-82638095D01*
X115485714Y-82685714D01*
X115390476Y-82733333D01*
X115342857Y-82733333D01*
X115247619Y-82685714D01*
X115200000Y-82638095D01*
X115152381Y-82542857D01*
X115152381Y-82352380D01*
X115200000Y-82257142D01*
X115247619Y-82209523D01*
X115342857Y-82161904D01*
X115390476Y-82161904D01*
X115485714Y-82209523D01*
X115533333Y-82257142D01*
X115580952Y-82352380D01*
X115580952Y-82542857D01*
X115628571Y-82638095D01*
X115676190Y-82685714D01*
X115771429Y-82733333D01*
X115961905Y-82733333D01*
X116057143Y-82685714D01*
X116104762Y-82638095D01*
X116152381Y-82542857D01*
X116152381Y-82352380D01*
X116104762Y-82257142D01*
X116057143Y-82209523D01*
X115961905Y-82161904D01*
X115771429Y-82161904D01*
X115676190Y-82209523D01*
X115628571Y-82257142D01*
X115580952Y-82352380D01*
X112904762Y-51847619D02*
X112809524Y-51800000D01*
X112714286Y-51704762D01*
X112571429Y-51561905D01*
X112476190Y-51514286D01*
X112380952Y-51514286D01*
X112428571Y-51752381D02*
X112333333Y-51704762D01*
X112238095Y-51609524D01*
X112190476Y-51419048D01*
X112190476Y-51085714D01*
X112238095Y-50895238D01*
X112333333Y-50800000D01*
X112428571Y-50752381D01*
X112619048Y-50752381D01*
X112714286Y-50800000D01*
X112809524Y-50895238D01*
X112857143Y-51085714D01*
X112857143Y-51419048D01*
X112809524Y-51609524D01*
X112714286Y-51704762D01*
X112619048Y-51752381D01*
X112428571Y-51752381D01*
X113238095Y-50847619D02*
X113285714Y-50800000D01*
X113380952Y-50752381D01*
X113619048Y-50752381D01*
X113714286Y-50800000D01*
X113761905Y-50847619D01*
X113809524Y-50942857D01*
X113809524Y-51038095D01*
X113761905Y-51180952D01*
X113190476Y-51752381D01*
X113809524Y-51752381D01*
X109442858Y-52828571D02*
X109585715Y-52876190D01*
X109633334Y-52923810D01*
X109680953Y-53019048D01*
X109680953Y-53161905D01*
X109633334Y-53257143D01*
X109585715Y-53304762D01*
X109490477Y-53352381D01*
X109109524Y-53352381D01*
X109109524Y-52352381D01*
X109442858Y-52352381D01*
X109538096Y-52400000D01*
X109585715Y-52447619D01*
X109633334Y-52542857D01*
X109633334Y-52638095D01*
X109585715Y-52733333D01*
X109538096Y-52780952D01*
X109442858Y-52828571D01*
X109109524Y-52828571D01*
X110680953Y-53257143D02*
X110633334Y-53304762D01*
X110490477Y-53352381D01*
X110395239Y-53352381D01*
X110252381Y-53304762D01*
X110157143Y-53209524D01*
X110109524Y-53114286D01*
X110061905Y-52923810D01*
X110061905Y-52780952D01*
X110109524Y-52590476D01*
X110157143Y-52495238D01*
X110252381Y-52400000D01*
X110395239Y-52352381D01*
X110490477Y-52352381D01*
X110633334Y-52400000D01*
X110680953Y-52447619D01*
X111585715Y-52352381D02*
X111109524Y-52352381D01*
X111061905Y-52828571D01*
X111109524Y-52780952D01*
X111204762Y-52733333D01*
X111442858Y-52733333D01*
X111538096Y-52780952D01*
X111585715Y-52828571D01*
X111633334Y-52923810D01*
X111633334Y-53161905D01*
X111585715Y-53257143D01*
X111538096Y-53304762D01*
X111442858Y-53352381D01*
X111204762Y-53352381D01*
X111109524Y-53304762D01*
X111061905Y-53257143D01*
X112538096Y-52352381D02*
X112061905Y-52352381D01*
X112014286Y-52828571D01*
X112061905Y-52780952D01*
X112157143Y-52733333D01*
X112395239Y-52733333D01*
X112490477Y-52780952D01*
X112538096Y-52828571D01*
X112585715Y-52923810D01*
X112585715Y-53161905D01*
X112538096Y-53257143D01*
X112490477Y-53304762D01*
X112395239Y-53352381D01*
X112157143Y-53352381D01*
X112061905Y-53304762D01*
X112014286Y-53257143D01*
X113157143Y-52780952D02*
X113061905Y-52733333D01*
X113014286Y-52685714D01*
X112966667Y-52590476D01*
X112966667Y-52542857D01*
X113014286Y-52447619D01*
X113061905Y-52400000D01*
X113157143Y-52352381D01*
X113347620Y-52352381D01*
X113442858Y-52400000D01*
X113490477Y-52447619D01*
X113538096Y-52542857D01*
X113538096Y-52590476D01*
X113490477Y-52685714D01*
X113442858Y-52733333D01*
X113347620Y-52780952D01*
X113157143Y-52780952D01*
X113061905Y-52828571D01*
X113014286Y-52876190D01*
X112966667Y-52971429D01*
X112966667Y-53161905D01*
X113014286Y-53257143D01*
X113061905Y-53304762D01*
X113157143Y-53352381D01*
X113347620Y-53352381D01*
X113442858Y-53304762D01*
X113490477Y-53257143D01*
X113538096Y-53161905D01*
X113538096Y-52971429D01*
X113490477Y-52876190D01*
X113442858Y-52828571D01*
X113347620Y-52780952D01*
X113404762Y-58147619D02*
X113309524Y-58100000D01*
X113214286Y-58004762D01*
X113071429Y-57861905D01*
X112976190Y-57814286D01*
X112880952Y-57814286D01*
X112928571Y-58052381D02*
X112833333Y-58004762D01*
X112738095Y-57909524D01*
X112690476Y-57719048D01*
X112690476Y-57385714D01*
X112738095Y-57195238D01*
X112833333Y-57100000D01*
X112928571Y-57052381D01*
X113119048Y-57052381D01*
X113214286Y-57100000D01*
X113309524Y-57195238D01*
X113357143Y-57385714D01*
X113357143Y-57719048D01*
X113309524Y-57909524D01*
X113214286Y-58004762D01*
X113119048Y-58052381D01*
X112928571Y-58052381D01*
X113690476Y-57052381D02*
X114309524Y-57052381D01*
X113976190Y-57433333D01*
X114119048Y-57433333D01*
X114214286Y-57480952D01*
X114261905Y-57528571D01*
X114309524Y-57623810D01*
X114309524Y-57861905D01*
X114261905Y-57957143D01*
X114214286Y-58004762D01*
X114119048Y-58052381D01*
X113833333Y-58052381D01*
X113738095Y-58004762D01*
X113690476Y-57957143D01*
X116042858Y-62528571D02*
X116185715Y-62576190D01*
X116233334Y-62623810D01*
X116280953Y-62719048D01*
X116280953Y-62861905D01*
X116233334Y-62957143D01*
X116185715Y-63004762D01*
X116090477Y-63052381D01*
X115709524Y-63052381D01*
X115709524Y-62052381D01*
X116042858Y-62052381D01*
X116138096Y-62100000D01*
X116185715Y-62147619D01*
X116233334Y-62242857D01*
X116233334Y-62338095D01*
X116185715Y-62433333D01*
X116138096Y-62480952D01*
X116042858Y-62528571D01*
X115709524Y-62528571D01*
X117280953Y-62957143D02*
X117233334Y-63004762D01*
X117090477Y-63052381D01*
X116995239Y-63052381D01*
X116852381Y-63004762D01*
X116757143Y-62909524D01*
X116709524Y-62814286D01*
X116661905Y-62623810D01*
X116661905Y-62480952D01*
X116709524Y-62290476D01*
X116757143Y-62195238D01*
X116852381Y-62100000D01*
X116995239Y-62052381D01*
X117090477Y-62052381D01*
X117233334Y-62100000D01*
X117280953Y-62147619D01*
X118185715Y-62052381D02*
X117709524Y-62052381D01*
X117661905Y-62528571D01*
X117709524Y-62480952D01*
X117804762Y-62433333D01*
X118042858Y-62433333D01*
X118138096Y-62480952D01*
X118185715Y-62528571D01*
X118233334Y-62623810D01*
X118233334Y-62861905D01*
X118185715Y-62957143D01*
X118138096Y-63004762D01*
X118042858Y-63052381D01*
X117804762Y-63052381D01*
X117709524Y-63004762D01*
X117661905Y-62957143D01*
X119138096Y-62052381D02*
X118661905Y-62052381D01*
X118614286Y-62528571D01*
X118661905Y-62480952D01*
X118757143Y-62433333D01*
X118995239Y-62433333D01*
X119090477Y-62480952D01*
X119138096Y-62528571D01*
X119185715Y-62623810D01*
X119185715Y-62861905D01*
X119138096Y-62957143D01*
X119090477Y-63004762D01*
X118995239Y-63052381D01*
X118757143Y-63052381D01*
X118661905Y-63004762D01*
X118614286Y-62957143D01*
X119757143Y-62480952D02*
X119661905Y-62433333D01*
X119614286Y-62385714D01*
X119566667Y-62290476D01*
X119566667Y-62242857D01*
X119614286Y-62147619D01*
X119661905Y-62100000D01*
X119757143Y-62052381D01*
X119947620Y-62052381D01*
X120042858Y-62100000D01*
X120090477Y-62147619D01*
X120138096Y-62242857D01*
X120138096Y-62290476D01*
X120090477Y-62385714D01*
X120042858Y-62433333D01*
X119947620Y-62480952D01*
X119757143Y-62480952D01*
X119661905Y-62528571D01*
X119614286Y-62576190D01*
X119566667Y-62671429D01*
X119566667Y-62861905D01*
X119614286Y-62957143D01*
X119661905Y-63004762D01*
X119757143Y-63052381D01*
X119947620Y-63052381D01*
X120042858Y-63004762D01*
X120090477Y-62957143D01*
X120138096Y-62861905D01*
X120138096Y-62671429D01*
X120090477Y-62576190D01*
X120042858Y-62528571D01*
X119947620Y-62480952D01*
X97304762Y-52447619D02*
X97209524Y-52400000D01*
X97114286Y-52304762D01*
X96971429Y-52161905D01*
X96876190Y-52114286D01*
X96780952Y-52114286D01*
X96828571Y-52352381D02*
X96733333Y-52304762D01*
X96638095Y-52209524D01*
X96590476Y-52019048D01*
X96590476Y-51685714D01*
X96638095Y-51495238D01*
X96733333Y-51400000D01*
X96828571Y-51352381D01*
X97019048Y-51352381D01*
X97114286Y-51400000D01*
X97209524Y-51495238D01*
X97257143Y-51685714D01*
X97257143Y-52019048D01*
X97209524Y-52209524D01*
X97114286Y-52304762D01*
X97019048Y-52352381D01*
X96828571Y-52352381D01*
X98114286Y-51685714D02*
X98114286Y-52352381D01*
X97876190Y-51304762D02*
X97638095Y-52019048D01*
X98257143Y-52019048D01*
X98472858Y-57028571D02*
X98615715Y-57076190D01*
X98663334Y-57123810D01*
X98710953Y-57219048D01*
X98710953Y-57361905D01*
X98663334Y-57457143D01*
X98615715Y-57504762D01*
X98520477Y-57552381D01*
X98139524Y-57552381D01*
X98139524Y-56552381D01*
X98472858Y-56552381D01*
X98568096Y-56600000D01*
X98615715Y-56647619D01*
X98663334Y-56742857D01*
X98663334Y-56838095D01*
X98615715Y-56933333D01*
X98568096Y-56980952D01*
X98472858Y-57028571D01*
X98139524Y-57028571D01*
X99710953Y-57457143D02*
X99663334Y-57504762D01*
X99520477Y-57552381D01*
X99425239Y-57552381D01*
X99282381Y-57504762D01*
X99187143Y-57409524D01*
X99139524Y-57314286D01*
X99091905Y-57123810D01*
X99091905Y-56980952D01*
X99139524Y-56790476D01*
X99187143Y-56695238D01*
X99282381Y-56600000D01*
X99425239Y-56552381D01*
X99520477Y-56552381D01*
X99663334Y-56600000D01*
X99710953Y-56647619D01*
X100615715Y-56552381D02*
X100139524Y-56552381D01*
X100091905Y-57028571D01*
X100139524Y-56980952D01*
X100234762Y-56933333D01*
X100472858Y-56933333D01*
X100568096Y-56980952D01*
X100615715Y-57028571D01*
X100663334Y-57123810D01*
X100663334Y-57361905D01*
X100615715Y-57457143D01*
X100568096Y-57504762D01*
X100472858Y-57552381D01*
X100234762Y-57552381D01*
X100139524Y-57504762D01*
X100091905Y-57457143D01*
X101520477Y-56885714D02*
X101520477Y-57552381D01*
X101282381Y-56504762D02*
X101044286Y-57219048D01*
X101663334Y-57219048D01*
X101949048Y-56552381D02*
X102615715Y-56552381D01*
X102187143Y-57552381D01*
X97404762Y-59047619D02*
X97309524Y-59000000D01*
X97214286Y-58904762D01*
X97071429Y-58761905D01*
X96976190Y-58714286D01*
X96880952Y-58714286D01*
X96928571Y-58952381D02*
X96833333Y-58904762D01*
X96738095Y-58809524D01*
X96690476Y-58619048D01*
X96690476Y-58285714D01*
X96738095Y-58095238D01*
X96833333Y-58000000D01*
X96928571Y-57952381D01*
X97119048Y-57952381D01*
X97214286Y-58000000D01*
X97309524Y-58095238D01*
X97357143Y-58285714D01*
X97357143Y-58619048D01*
X97309524Y-58809524D01*
X97214286Y-58904762D01*
X97119048Y-58952381D01*
X96928571Y-58952381D01*
X98261905Y-57952381D02*
X97785714Y-57952381D01*
X97738095Y-58428571D01*
X97785714Y-58380952D01*
X97880952Y-58333333D01*
X98119048Y-58333333D01*
X98214286Y-58380952D01*
X98261905Y-58428571D01*
X98309524Y-58523810D01*
X98309524Y-58761905D01*
X98261905Y-58857143D01*
X98214286Y-58904762D01*
X98119048Y-58952381D01*
X97880952Y-58952381D01*
X97785714Y-58904762D01*
X97738095Y-58857143D01*
X95942858Y-63288571D02*
X96085715Y-63336190D01*
X96133334Y-63383810D01*
X96180953Y-63479048D01*
X96180953Y-63621905D01*
X96133334Y-63717143D01*
X96085715Y-63764762D01*
X95990477Y-63812381D01*
X95609524Y-63812381D01*
X95609524Y-62812381D01*
X95942858Y-62812381D01*
X96038096Y-62860000D01*
X96085715Y-62907619D01*
X96133334Y-63002857D01*
X96133334Y-63098095D01*
X96085715Y-63193333D01*
X96038096Y-63240952D01*
X95942858Y-63288571D01*
X95609524Y-63288571D01*
X97180953Y-63717143D02*
X97133334Y-63764762D01*
X96990477Y-63812381D01*
X96895239Y-63812381D01*
X96752381Y-63764762D01*
X96657143Y-63669524D01*
X96609524Y-63574286D01*
X96561905Y-63383810D01*
X96561905Y-63240952D01*
X96609524Y-63050476D01*
X96657143Y-62955238D01*
X96752381Y-62860000D01*
X96895239Y-62812381D01*
X96990477Y-62812381D01*
X97133334Y-62860000D01*
X97180953Y-62907619D01*
X98085715Y-62812381D02*
X97609524Y-62812381D01*
X97561905Y-63288571D01*
X97609524Y-63240952D01*
X97704762Y-63193333D01*
X97942858Y-63193333D01*
X98038096Y-63240952D01*
X98085715Y-63288571D01*
X98133334Y-63383810D01*
X98133334Y-63621905D01*
X98085715Y-63717143D01*
X98038096Y-63764762D01*
X97942858Y-63812381D01*
X97704762Y-63812381D01*
X97609524Y-63764762D01*
X97561905Y-63717143D01*
X99038096Y-62812381D02*
X98561905Y-62812381D01*
X98514286Y-63288571D01*
X98561905Y-63240952D01*
X98657143Y-63193333D01*
X98895239Y-63193333D01*
X98990477Y-63240952D01*
X99038096Y-63288571D01*
X99085715Y-63383810D01*
X99085715Y-63621905D01*
X99038096Y-63717143D01*
X98990477Y-63764762D01*
X98895239Y-63812381D01*
X98657143Y-63812381D01*
X98561905Y-63764762D01*
X98514286Y-63717143D01*
X99657143Y-63240952D02*
X99561905Y-63193333D01*
X99514286Y-63145714D01*
X99466667Y-63050476D01*
X99466667Y-63002857D01*
X99514286Y-62907619D01*
X99561905Y-62860000D01*
X99657143Y-62812381D01*
X99847620Y-62812381D01*
X99942858Y-62860000D01*
X99990477Y-62907619D01*
X100038096Y-63002857D01*
X100038096Y-63050476D01*
X99990477Y-63145714D01*
X99942858Y-63193333D01*
X99847620Y-63240952D01*
X99657143Y-63240952D01*
X99561905Y-63288571D01*
X99514286Y-63336190D01*
X99466667Y-63431429D01*
X99466667Y-63621905D01*
X99514286Y-63717143D01*
X99561905Y-63764762D01*
X99657143Y-63812381D01*
X99847620Y-63812381D01*
X99942858Y-63764762D01*
X99990477Y-63717143D01*
X100038096Y-63621905D01*
X100038096Y-63431429D01*
X99990477Y-63336190D01*
X99942858Y-63288571D01*
X99847620Y-63240952D01*
X113743334Y-77042381D02*
X113410000Y-76566190D01*
X113171905Y-77042381D02*
X113171905Y-76042381D01*
X113552858Y-76042381D01*
X113648096Y-76090000D01*
X113695715Y-76137619D01*
X113743334Y-76232857D01*
X113743334Y-76375714D01*
X113695715Y-76470952D01*
X113648096Y-76518571D01*
X113552858Y-76566190D01*
X113171905Y-76566190D01*
X114695715Y-77042381D02*
X114124286Y-77042381D01*
X114410000Y-77042381D02*
X114410000Y-76042381D01*
X114314762Y-76185238D01*
X114219524Y-76280476D01*
X114124286Y-76328095D01*
X112714286Y-78352381D02*
X113333334Y-78352381D01*
X113000000Y-78733333D01*
X113142858Y-78733333D01*
X113238096Y-78780952D01*
X113285715Y-78828571D01*
X113333334Y-78923810D01*
X113333334Y-79161905D01*
X113285715Y-79257143D01*
X113238096Y-79304762D01*
X113142858Y-79352381D01*
X112857143Y-79352381D01*
X112761905Y-79304762D01*
X112714286Y-79257143D01*
X113666667Y-78352381D02*
X114285715Y-78352381D01*
X113952381Y-78733333D01*
X114095239Y-78733333D01*
X114190477Y-78780952D01*
X114238096Y-78828571D01*
X114285715Y-78923810D01*
X114285715Y-79161905D01*
X114238096Y-79257143D01*
X114190477Y-79304762D01*
X114095239Y-79352381D01*
X113809524Y-79352381D01*
X113714286Y-79304762D01*
X113666667Y-79257143D01*
X114904762Y-78352381D02*
X115000001Y-78352381D01*
X115095239Y-78400000D01*
X115142858Y-78447619D01*
X115190477Y-78542857D01*
X115238096Y-78733333D01*
X115238096Y-78971429D01*
X115190477Y-79161905D01*
X115142858Y-79257143D01*
X115095239Y-79304762D01*
X115000001Y-79352381D01*
X114904762Y-79352381D01*
X114809524Y-79304762D01*
X114761905Y-79257143D01*
X114714286Y-79161905D01*
X114666667Y-78971429D01*
X114666667Y-78733333D01*
X114714286Y-78542857D01*
X114761905Y-78447619D01*
X114809524Y-78400000D01*
X114904762Y-78352381D01*
X103952381Y-87266666D02*
X103476190Y-87600000D01*
X103952381Y-87838095D02*
X102952381Y-87838095D01*
X102952381Y-87457142D01*
X103000000Y-87361904D01*
X103047619Y-87314285D01*
X103142857Y-87266666D01*
X103285714Y-87266666D01*
X103380952Y-87314285D01*
X103428571Y-87361904D01*
X103476190Y-87457142D01*
X103476190Y-87838095D01*
X103047619Y-86885714D02*
X103000000Y-86838095D01*
X102952381Y-86742857D01*
X102952381Y-86504761D01*
X103000000Y-86409523D01*
X103047619Y-86361904D01*
X103142857Y-86314285D01*
X103238095Y-86314285D01*
X103380952Y-86361904D01*
X103952381Y-86933333D01*
X103952381Y-86314285D01*
X103952381Y-93766666D02*
X103952381Y-94338095D01*
X103952381Y-94052381D02*
X102952381Y-94052381D01*
X103095238Y-94147619D01*
X103190476Y-94242857D01*
X103238095Y-94338095D01*
X102952381Y-93147619D02*
X102952381Y-93052380D01*
X103000000Y-92957142D01*
X103047619Y-92909523D01*
X103142857Y-92861904D01*
X103333333Y-92814285D01*
X103571429Y-92814285D01*
X103761905Y-92861904D01*
X103857143Y-92909523D01*
X103904762Y-92957142D01*
X103952381Y-93052380D01*
X103952381Y-93147619D01*
X103904762Y-93242857D01*
X103857143Y-93290476D01*
X103761905Y-93338095D01*
X103571429Y-93385714D01*
X103333333Y-93385714D01*
X103142857Y-93338095D01*
X103047619Y-93290476D01*
X103000000Y-93242857D01*
X102952381Y-93147619D01*
X102952381Y-92195238D02*
X102952381Y-92099999D01*
X103000000Y-92004761D01*
X103047619Y-91957142D01*
X103142857Y-91909523D01*
X103333333Y-91861904D01*
X103571429Y-91861904D01*
X103761905Y-91909523D01*
X103857143Y-91957142D01*
X103904762Y-92004761D01*
X103952381Y-92099999D01*
X103952381Y-92195238D01*
X103904762Y-92290476D01*
X103857143Y-92338095D01*
X103761905Y-92385714D01*
X103571429Y-92433333D01*
X103333333Y-92433333D01*
X103142857Y-92385714D01*
X103047619Y-92338095D01*
X103000000Y-92290476D01*
X102952381Y-92195238D01*
X100352381Y-87166666D02*
X99876190Y-87500000D01*
X100352381Y-87738095D02*
X99352381Y-87738095D01*
X99352381Y-87357142D01*
X99400000Y-87261904D01*
X99447619Y-87214285D01*
X99542857Y-87166666D01*
X99685714Y-87166666D01*
X99780952Y-87214285D01*
X99828571Y-87261904D01*
X99876190Y-87357142D01*
X99876190Y-87738095D01*
X99352381Y-86833333D02*
X99352381Y-86214285D01*
X99733333Y-86547619D01*
X99733333Y-86404761D01*
X99780952Y-86309523D01*
X99828571Y-86261904D01*
X99923810Y-86214285D01*
X100161905Y-86214285D01*
X100257143Y-86261904D01*
X100304762Y-86309523D01*
X100352381Y-86404761D01*
X100352381Y-86690476D01*
X100304762Y-86785714D01*
X100257143Y-86833333D01*
X99447619Y-94338095D02*
X99400000Y-94290476D01*
X99352381Y-94195238D01*
X99352381Y-93957142D01*
X99400000Y-93861904D01*
X99447619Y-93814285D01*
X99542857Y-93766666D01*
X99638095Y-93766666D01*
X99780952Y-93814285D01*
X100352381Y-94385714D01*
X100352381Y-93766666D01*
X99447619Y-93385714D02*
X99400000Y-93338095D01*
X99352381Y-93242857D01*
X99352381Y-93004761D01*
X99400000Y-92909523D01*
X99447619Y-92861904D01*
X99542857Y-92814285D01*
X99638095Y-92814285D01*
X99780952Y-92861904D01*
X100352381Y-93433333D01*
X100352381Y-92814285D01*
X99352381Y-92195238D02*
X99352381Y-92099999D01*
X99400000Y-92004761D01*
X99447619Y-91957142D01*
X99542857Y-91909523D01*
X99733333Y-91861904D01*
X99971429Y-91861904D01*
X100161905Y-91909523D01*
X100257143Y-91957142D01*
X100304762Y-92004761D01*
X100352381Y-92099999D01*
X100352381Y-92195238D01*
X100304762Y-92290476D01*
X100257143Y-92338095D01*
X100161905Y-92385714D01*
X99971429Y-92433333D01*
X99733333Y-92433333D01*
X99542857Y-92385714D01*
X99447619Y-92338095D01*
X99400000Y-92290476D01*
X99352381Y-92195238D01*
X89852381Y-87266666D02*
X89376190Y-87600000D01*
X89852381Y-87838095D02*
X88852381Y-87838095D01*
X88852381Y-87457142D01*
X88900000Y-87361904D01*
X88947619Y-87314285D01*
X89042857Y-87266666D01*
X89185714Y-87266666D01*
X89280952Y-87314285D01*
X89328571Y-87361904D01*
X89376190Y-87457142D01*
X89376190Y-87838095D01*
X89185714Y-86409523D02*
X89852381Y-86409523D01*
X88804762Y-86647619D02*
X89519048Y-86885714D01*
X89519048Y-86266666D01*
X88852381Y-94385714D02*
X88852381Y-93766666D01*
X89233333Y-94100000D01*
X89233333Y-93957142D01*
X89280952Y-93861904D01*
X89328571Y-93814285D01*
X89423810Y-93766666D01*
X89661905Y-93766666D01*
X89757143Y-93814285D01*
X89804762Y-93861904D01*
X89852381Y-93957142D01*
X89852381Y-94242857D01*
X89804762Y-94338095D01*
X89757143Y-94385714D01*
X88852381Y-93433333D02*
X88852381Y-92814285D01*
X89233333Y-93147619D01*
X89233333Y-93004761D01*
X89280952Y-92909523D01*
X89328571Y-92861904D01*
X89423810Y-92814285D01*
X89661905Y-92814285D01*
X89757143Y-92861904D01*
X89804762Y-92909523D01*
X89852381Y-93004761D01*
X89852381Y-93290476D01*
X89804762Y-93385714D01*
X89757143Y-93433333D01*
X88852381Y-92195238D02*
X88852381Y-92099999D01*
X88900000Y-92004761D01*
X88947619Y-91957142D01*
X89042857Y-91909523D01*
X89233333Y-91861904D01*
X89471429Y-91861904D01*
X89661905Y-91909523D01*
X89757143Y-91957142D01*
X89804762Y-92004761D01*
X89852381Y-92099999D01*
X89852381Y-92195238D01*
X89804762Y-92290476D01*
X89757143Y-92338095D01*
X89661905Y-92385714D01*
X89471429Y-92433333D01*
X89233333Y-92433333D01*
X89042857Y-92385714D01*
X88947619Y-92338095D01*
X88900000Y-92290476D01*
X88852381Y-92195238D01*
X106033334Y-70152381D02*
X105700000Y-69676190D01*
X105461905Y-70152381D02*
X105461905Y-69152381D01*
X105842858Y-69152381D01*
X105938096Y-69200000D01*
X105985715Y-69247619D01*
X106033334Y-69342857D01*
X106033334Y-69485714D01*
X105985715Y-69580952D01*
X105938096Y-69628571D01*
X105842858Y-69676190D01*
X105461905Y-69676190D01*
X106938096Y-69152381D02*
X106461905Y-69152381D01*
X106414286Y-69628571D01*
X106461905Y-69580952D01*
X106557143Y-69533333D01*
X106795239Y-69533333D01*
X106890477Y-69580952D01*
X106938096Y-69628571D01*
X106985715Y-69723810D01*
X106985715Y-69961905D01*
X106938096Y-70057143D01*
X106890477Y-70104762D01*
X106795239Y-70152381D01*
X106557143Y-70152381D01*
X106461905Y-70104762D01*
X106414286Y-70057143D01*
X110885714Y-69152381D02*
X111504762Y-69152381D01*
X111171428Y-69533333D01*
X111314286Y-69533333D01*
X111409524Y-69580952D01*
X111457143Y-69628571D01*
X111504762Y-69723810D01*
X111504762Y-69961905D01*
X111457143Y-70057143D01*
X111409524Y-70104762D01*
X111314286Y-70152381D01*
X111028571Y-70152381D01*
X110933333Y-70104762D01*
X110885714Y-70057143D01*
X111838095Y-69152381D02*
X112457143Y-69152381D01*
X112123809Y-69533333D01*
X112266667Y-69533333D01*
X112361905Y-69580952D01*
X112409524Y-69628571D01*
X112457143Y-69723810D01*
X112457143Y-69961905D01*
X112409524Y-70057143D01*
X112361905Y-70104762D01*
X112266667Y-70152381D01*
X111980952Y-70152381D01*
X111885714Y-70104762D01*
X111838095Y-70057143D01*
X112885714Y-70152381D02*
X112885714Y-69152381D01*
X112980952Y-69771429D02*
X113266667Y-70152381D01*
X113266667Y-69485714D02*
X112885714Y-69866667D01*
X117833334Y-73852381D02*
X117500000Y-73376190D01*
X117261905Y-73852381D02*
X117261905Y-72852381D01*
X117642858Y-72852381D01*
X117738096Y-72900000D01*
X117785715Y-72947619D01*
X117833334Y-73042857D01*
X117833334Y-73185714D01*
X117785715Y-73280952D01*
X117738096Y-73328571D01*
X117642858Y-73376190D01*
X117261905Y-73376190D01*
X118690477Y-72852381D02*
X118500000Y-72852381D01*
X118404762Y-72900000D01*
X118357143Y-72947619D01*
X118261905Y-73090476D01*
X118214286Y-73280952D01*
X118214286Y-73661905D01*
X118261905Y-73757143D01*
X118309524Y-73804762D01*
X118404762Y-73852381D01*
X118595239Y-73852381D01*
X118690477Y-73804762D01*
X118738096Y-73757143D01*
X118785715Y-73661905D01*
X118785715Y-73423810D01*
X118738096Y-73328571D01*
X118690477Y-73280952D01*
X118595239Y-73233333D01*
X118404762Y-73233333D01*
X118309524Y-73280952D01*
X118261905Y-73328571D01*
X118214286Y-73423810D01*
X111509524Y-73185714D02*
X111509524Y-73852381D01*
X111271428Y-72804762D02*
X111033333Y-73519048D01*
X111652381Y-73519048D01*
X112033333Y-73852381D02*
X112033333Y-72852381D01*
X112128571Y-73471429D02*
X112414286Y-73852381D01*
X112414286Y-73185714D02*
X112033333Y-73566667D01*
X112747619Y-72852381D02*
X113414286Y-72852381D01*
X112985714Y-73852381D01*
X118752381Y-68566666D02*
X118276190Y-68900000D01*
X118752381Y-69138095D02*
X117752381Y-69138095D01*
X117752381Y-68757142D01*
X117800000Y-68661904D01*
X117847619Y-68614285D01*
X117942857Y-68566666D01*
X118085714Y-68566666D01*
X118180952Y-68614285D01*
X118228571Y-68661904D01*
X118276190Y-68757142D01*
X118276190Y-69138095D01*
X117752381Y-68233333D02*
X117752381Y-67566666D01*
X118752381Y-67995238D01*
X120052381Y-69624286D02*
X120052381Y-69005238D01*
X120433333Y-69338572D01*
X120433333Y-69195714D01*
X120480952Y-69100476D01*
X120528571Y-69052857D01*
X120623810Y-69005238D01*
X120861905Y-69005238D01*
X120957143Y-69052857D01*
X121004762Y-69100476D01*
X121052381Y-69195714D01*
X121052381Y-69481429D01*
X121004762Y-69576667D01*
X120957143Y-69624286D01*
X120052381Y-68671905D02*
X120052381Y-68052857D01*
X120433333Y-68386191D01*
X120433333Y-68243333D01*
X120480952Y-68148095D01*
X120528571Y-68100476D01*
X120623810Y-68052857D01*
X120861905Y-68052857D01*
X120957143Y-68100476D01*
X121004762Y-68148095D01*
X121052381Y-68243333D01*
X121052381Y-68529048D01*
X121004762Y-68624286D01*
X120957143Y-68671905D01*
X121052381Y-67624286D02*
X120052381Y-67624286D01*
X120671429Y-67529048D02*
X121052381Y-67243333D01*
X120385714Y-67243333D02*
X120766667Y-67624286D01*
X92752381Y-82866666D02*
X92276190Y-83200000D01*
X92752381Y-83438095D02*
X91752381Y-83438095D01*
X91752381Y-83057142D01*
X91800000Y-82961904D01*
X91847619Y-82914285D01*
X91942857Y-82866666D01*
X92085714Y-82866666D01*
X92180952Y-82914285D01*
X92228571Y-82961904D01*
X92276190Y-83057142D01*
X92276190Y-83438095D01*
X92180952Y-82295238D02*
X92133333Y-82390476D01*
X92085714Y-82438095D01*
X91990476Y-82485714D01*
X91942857Y-82485714D01*
X91847619Y-82438095D01*
X91800000Y-82390476D01*
X91752381Y-82295238D01*
X91752381Y-82104761D01*
X91800000Y-82009523D01*
X91847619Y-81961904D01*
X91942857Y-81914285D01*
X91990476Y-81914285D01*
X92085714Y-81961904D01*
X92133333Y-82009523D01*
X92180952Y-82104761D01*
X92180952Y-82295238D01*
X92228571Y-82390476D01*
X92276190Y-82438095D01*
X92371429Y-82485714D01*
X92561905Y-82485714D01*
X92657143Y-82438095D01*
X92704762Y-82390476D01*
X92752381Y-82295238D01*
X92752381Y-82104761D01*
X92704762Y-82009523D01*
X92657143Y-81961904D01*
X92561905Y-81914285D01*
X92371429Y-81914285D01*
X92276190Y-81961904D01*
X92228571Y-82009523D01*
X92180952Y-82104761D01*
X95152381Y-83095238D02*
X95152381Y-83666667D01*
X95152381Y-83380953D02*
X94152381Y-83380953D01*
X94295238Y-83476191D01*
X94390476Y-83571429D01*
X94438095Y-83666667D01*
X95152381Y-82666667D02*
X94152381Y-82666667D01*
X94771429Y-82571429D02*
X95152381Y-82285714D01*
X94485714Y-82285714D02*
X94866667Y-82666667D01*
X94152381Y-81380952D02*
X94152381Y-81857143D01*
X94628571Y-81904762D01*
X94580952Y-81857143D01*
X94533333Y-81761905D01*
X94533333Y-81523809D01*
X94580952Y-81428571D01*
X94628571Y-81380952D01*
X94723810Y-81333333D01*
X94961905Y-81333333D01*
X95057143Y-81380952D01*
X95104762Y-81428571D01*
X95152381Y-81523809D01*
X95152381Y-81761905D01*
X95104762Y-81857143D01*
X95057143Y-81904762D01*
X83833334Y-54952381D02*
X83500000Y-54476190D01*
X83261905Y-54952381D02*
X83261905Y-53952381D01*
X83642858Y-53952381D01*
X83738096Y-54000000D01*
X83785715Y-54047619D01*
X83833334Y-54142857D01*
X83833334Y-54285714D01*
X83785715Y-54380952D01*
X83738096Y-54428571D01*
X83642858Y-54476190D01*
X83261905Y-54476190D01*
X84309524Y-54952381D02*
X84500000Y-54952381D01*
X84595239Y-54904762D01*
X84642858Y-54857143D01*
X84738096Y-54714286D01*
X84785715Y-54523810D01*
X84785715Y-54142857D01*
X84738096Y-54047619D01*
X84690477Y-54000000D01*
X84595239Y-53952381D01*
X84404762Y-53952381D01*
X84309524Y-54000000D01*
X84261905Y-54047619D01*
X84214286Y-54142857D01*
X84214286Y-54380952D01*
X84261905Y-54476190D01*
X84309524Y-54523810D01*
X84404762Y-54571429D01*
X84595239Y-54571429D01*
X84690477Y-54523810D01*
X84738096Y-54476190D01*
X84785715Y-54380952D01*
X89719524Y-54285714D02*
X89719524Y-54952381D01*
X89481428Y-53904762D02*
X89243333Y-54619048D01*
X89862381Y-54619048D01*
X90243333Y-54952381D02*
X90243333Y-53952381D01*
X90338571Y-54571429D02*
X90624286Y-54952381D01*
X90624286Y-54285714D02*
X90243333Y-54666667D01*
X90957619Y-53952381D02*
X91624286Y-53952381D01*
X91195714Y-54952381D01*
X58247143Y-80842381D02*
X57913809Y-80366190D01*
X57675714Y-80842381D02*
X57675714Y-79842381D01*
X58056667Y-79842381D01*
X58151905Y-79890000D01*
X58199524Y-79937619D01*
X58247143Y-80032857D01*
X58247143Y-80175714D01*
X58199524Y-80270952D01*
X58151905Y-80318571D01*
X58056667Y-80366190D01*
X57675714Y-80366190D01*
X59199524Y-80842381D02*
X58628095Y-80842381D01*
X58913809Y-80842381D02*
X58913809Y-79842381D01*
X58818571Y-79985238D01*
X58723333Y-80080476D01*
X58628095Y-80128095D01*
X59818571Y-79842381D02*
X59913810Y-79842381D01*
X60009048Y-79890000D01*
X60056667Y-79937619D01*
X60104286Y-80032857D01*
X60151905Y-80223333D01*
X60151905Y-80461429D01*
X60104286Y-80651905D01*
X60056667Y-80747143D01*
X60009048Y-80794762D01*
X59913810Y-80842381D01*
X59818571Y-80842381D01*
X59723333Y-80794762D01*
X59675714Y-80747143D01*
X59628095Y-80651905D01*
X59580476Y-80461429D01*
X59580476Y-80223333D01*
X59628095Y-80032857D01*
X59675714Y-79937619D01*
X59723333Y-79890000D01*
X59818571Y-79842381D01*
X58204762Y-83152381D02*
X57633333Y-83152381D01*
X57919047Y-83152381D02*
X57919047Y-82152381D01*
X57823809Y-82295238D01*
X57728571Y-82390476D01*
X57633333Y-82438095D01*
X59109524Y-82152381D02*
X58633333Y-82152381D01*
X58585714Y-82628571D01*
X58633333Y-82580952D01*
X58728571Y-82533333D01*
X58966667Y-82533333D01*
X59061905Y-82580952D01*
X59109524Y-82628571D01*
X59157143Y-82723810D01*
X59157143Y-82961905D01*
X59109524Y-83057143D01*
X59061905Y-83104762D01*
X58966667Y-83152381D01*
X58728571Y-83152381D01*
X58633333Y-83104762D01*
X58585714Y-83057143D01*
X59585714Y-83152381D02*
X59585714Y-82152381D01*
X59680952Y-82771429D02*
X59966667Y-83152381D01*
X59966667Y-82485714D02*
X59585714Y-82866667D01*
X102057143Y-63652381D02*
X101723809Y-63176190D01*
X101485714Y-63652381D02*
X101485714Y-62652381D01*
X101866667Y-62652381D01*
X101961905Y-62700000D01*
X102009524Y-62747619D01*
X102057143Y-62842857D01*
X102057143Y-62985714D01*
X102009524Y-63080952D01*
X101961905Y-63128571D01*
X101866667Y-63176190D01*
X101485714Y-63176190D01*
X103009524Y-63652381D02*
X102438095Y-63652381D01*
X102723809Y-63652381D02*
X102723809Y-62652381D01*
X102628571Y-62795238D01*
X102533333Y-62890476D01*
X102438095Y-62938095D01*
X103961905Y-63652381D02*
X103390476Y-63652381D01*
X103676190Y-63652381D02*
X103676190Y-62652381D01*
X103580952Y-62795238D01*
X103485714Y-62890476D01*
X103390476Y-62938095D01*
X108233334Y-63652381D02*
X107661905Y-63652381D01*
X107947619Y-63652381D02*
X107947619Y-62652381D01*
X107852381Y-62795238D01*
X107757143Y-62890476D01*
X107661905Y-62938095D01*
X108852381Y-62652381D02*
X108947620Y-62652381D01*
X109042858Y-62700000D01*
X109090477Y-62747619D01*
X109138096Y-62842857D01*
X109185715Y-63033333D01*
X109185715Y-63271429D01*
X109138096Y-63461905D01*
X109090477Y-63557143D01*
X109042858Y-63604762D01*
X108947620Y-63652381D01*
X108852381Y-63652381D01*
X108757143Y-63604762D01*
X108709524Y-63557143D01*
X108661905Y-63461905D01*
X108614286Y-63271429D01*
X108614286Y-63033333D01*
X108661905Y-62842857D01*
X108709524Y-62747619D01*
X108757143Y-62700000D01*
X108852381Y-62652381D01*
X109804762Y-62652381D02*
X109900001Y-62652381D01*
X109995239Y-62700000D01*
X110042858Y-62747619D01*
X110090477Y-62842857D01*
X110138096Y-63033333D01*
X110138096Y-63271429D01*
X110090477Y-63461905D01*
X110042858Y-63557143D01*
X109995239Y-63604762D01*
X109900001Y-63652381D01*
X109804762Y-63652381D01*
X109709524Y-63604762D01*
X109661905Y-63557143D01*
X109614286Y-63461905D01*
X109566667Y-63271429D01*
X109566667Y-63033333D01*
X109614286Y-62842857D01*
X109661905Y-62747619D01*
X109709524Y-62700000D01*
X109804762Y-62652381D01*
X101957143Y-66752381D02*
X101623809Y-66276190D01*
X101385714Y-66752381D02*
X101385714Y-65752381D01*
X101766667Y-65752381D01*
X101861905Y-65800000D01*
X101909524Y-65847619D01*
X101957143Y-65942857D01*
X101957143Y-66085714D01*
X101909524Y-66180952D01*
X101861905Y-66228571D01*
X101766667Y-66276190D01*
X101385714Y-66276190D01*
X102909524Y-66752381D02*
X102338095Y-66752381D01*
X102623809Y-66752381D02*
X102623809Y-65752381D01*
X102528571Y-65895238D01*
X102433333Y-65990476D01*
X102338095Y-66038095D01*
X103290476Y-65847619D02*
X103338095Y-65800000D01*
X103433333Y-65752381D01*
X103671429Y-65752381D01*
X103766667Y-65800000D01*
X103814286Y-65847619D01*
X103861905Y-65942857D01*
X103861905Y-66038095D01*
X103814286Y-66180952D01*
X103242857Y-66752381D01*
X103861905Y-66752381D01*
X108090476Y-65752381D02*
X108709524Y-65752381D01*
X108376190Y-66133333D01*
X108519048Y-66133333D01*
X108614286Y-66180952D01*
X108661905Y-66228571D01*
X108709524Y-66323810D01*
X108709524Y-66561905D01*
X108661905Y-66657143D01*
X108614286Y-66704762D01*
X108519048Y-66752381D01*
X108233333Y-66752381D01*
X108138095Y-66704762D01*
X108090476Y-66657143D01*
X109185714Y-66752381D02*
X109376190Y-66752381D01*
X109471429Y-66704762D01*
X109519048Y-66657143D01*
X109614286Y-66514286D01*
X109661905Y-66323810D01*
X109661905Y-65942857D01*
X109614286Y-65847619D01*
X109566667Y-65800000D01*
X109471429Y-65752381D01*
X109280952Y-65752381D01*
X109185714Y-65800000D01*
X109138095Y-65847619D01*
X109090476Y-65942857D01*
X109090476Y-66180952D01*
X109138095Y-66276190D01*
X109185714Y-66323810D01*
X109280952Y-66371429D01*
X109471429Y-66371429D01*
X109566667Y-66323810D01*
X109614286Y-66276190D01*
X109661905Y-66180952D01*
X71248095Y-64722381D02*
X71248095Y-65531905D01*
X71295714Y-65627143D01*
X71343333Y-65674762D01*
X71438571Y-65722381D01*
X71629048Y-65722381D01*
X71724286Y-65674762D01*
X71771905Y-65627143D01*
X71819524Y-65531905D01*
X71819524Y-64722381D01*
X72819524Y-65722381D02*
X72248095Y-65722381D01*
X72533809Y-65722381D02*
X72533809Y-64722381D01*
X72438571Y-64865238D01*
X72343333Y-64960476D01*
X72248095Y-65008095D01*
X65724286Y-90822381D02*
X65724286Y-89822381D01*
X66105239Y-89822381D01*
X66200477Y-89870000D01*
X66248096Y-89917619D01*
X66295715Y-90012857D01*
X66295715Y-90155714D01*
X66248096Y-90250952D01*
X66200477Y-90298571D01*
X66105239Y-90346190D01*
X65724286Y-90346190D01*
X66724286Y-90822381D02*
X66724286Y-89822381D01*
X67771905Y-90727143D02*
X67724286Y-90774762D01*
X67581429Y-90822381D01*
X67486191Y-90822381D01*
X67343333Y-90774762D01*
X67248095Y-90679524D01*
X67200476Y-90584286D01*
X67152857Y-90393810D01*
X67152857Y-90250952D01*
X67200476Y-90060476D01*
X67248095Y-89965238D01*
X67343333Y-89870000D01*
X67486191Y-89822381D01*
X67581429Y-89822381D01*
X67724286Y-89870000D01*
X67771905Y-89917619D01*
X68724286Y-90822381D02*
X68152857Y-90822381D01*
X68438571Y-90822381D02*
X68438571Y-89822381D01*
X68343333Y-89965238D01*
X68248095Y-90060476D01*
X68152857Y-90108095D01*
X69581429Y-89822381D02*
X69390952Y-89822381D01*
X69295714Y-89870000D01*
X69248095Y-89917619D01*
X69152857Y-90060476D01*
X69105238Y-90250952D01*
X69105238Y-90631905D01*
X69152857Y-90727143D01*
X69200476Y-90774762D01*
X69295714Y-90822381D01*
X69486191Y-90822381D01*
X69581429Y-90774762D01*
X69629048Y-90727143D01*
X69676667Y-90631905D01*
X69676667Y-90393810D01*
X69629048Y-90298571D01*
X69581429Y-90250952D01*
X69486191Y-90203333D01*
X69295714Y-90203333D01*
X69200476Y-90250952D01*
X69152857Y-90298571D01*
X69105238Y-90393810D01*
X70390953Y-91203333D02*
X70343333Y-91155714D01*
X70248095Y-91012857D01*
X70200476Y-90917619D01*
X70152857Y-90774762D01*
X70105238Y-90536667D01*
X70105238Y-90346190D01*
X70152857Y-90108095D01*
X70200476Y-89965238D01*
X70248095Y-89870000D01*
X70343333Y-89727143D01*
X70390953Y-89679524D01*
X71248096Y-90822381D02*
X70771905Y-90822381D01*
X70771905Y-89822381D01*
X71486191Y-91203333D02*
X71533810Y-91155714D01*
X71629048Y-91012857D01*
X71676667Y-90917619D01*
X71724286Y-90774762D01*
X71771905Y-90536667D01*
X71771905Y-90346190D01*
X71724286Y-90108095D01*
X71676667Y-89965238D01*
X71629048Y-89870000D01*
X71533810Y-89727143D01*
X71486191Y-89679524D01*
X72581430Y-90298571D02*
X72248096Y-90298571D01*
X72248096Y-90822381D02*
X72248096Y-89822381D01*
X72724287Y-89822381D01*
X73248096Y-90250952D02*
X73152858Y-90203333D01*
X73105239Y-90155714D01*
X73057620Y-90060476D01*
X73057620Y-90012857D01*
X73105239Y-89917619D01*
X73152858Y-89870000D01*
X73248096Y-89822381D01*
X73438573Y-89822381D01*
X73533811Y-89870000D01*
X73581430Y-89917619D01*
X73629049Y-90012857D01*
X73629049Y-90060476D01*
X73581430Y-90155714D01*
X73533811Y-90203333D01*
X73438573Y-90250952D01*
X73248096Y-90250952D01*
X73152858Y-90298571D01*
X73105239Y-90346190D01*
X73057620Y-90441429D01*
X73057620Y-90631905D01*
X73105239Y-90727143D01*
X73152858Y-90774762D01*
X73248096Y-90822381D01*
X73438573Y-90822381D01*
X73533811Y-90774762D01*
X73581430Y-90727143D01*
X73629049Y-90631905D01*
X73629049Y-90441429D01*
X73581430Y-90346190D01*
X73533811Y-90298571D01*
X73438573Y-90250952D01*
X74200477Y-90250952D02*
X74105239Y-90203333D01*
X74057620Y-90155714D01*
X74010001Y-90060476D01*
X74010001Y-90012857D01*
X74057620Y-89917619D01*
X74105239Y-89870000D01*
X74200477Y-89822381D01*
X74390954Y-89822381D01*
X74486192Y-89870000D01*
X74533811Y-89917619D01*
X74581430Y-90012857D01*
X74581430Y-90060476D01*
X74533811Y-90155714D01*
X74486192Y-90203333D01*
X74390954Y-90250952D01*
X74200477Y-90250952D01*
X74105239Y-90298571D01*
X74057620Y-90346190D01*
X74010001Y-90441429D01*
X74010001Y-90631905D01*
X74057620Y-90727143D01*
X74105239Y-90774762D01*
X74200477Y-90822381D01*
X74390954Y-90822381D01*
X74486192Y-90774762D01*
X74533811Y-90727143D01*
X74581430Y-90631905D01*
X74581430Y-90441429D01*
X74533811Y-90346190D01*
X74486192Y-90298571D01*
X74390954Y-90250952D01*
X75010001Y-90441429D02*
X75771906Y-90441429D01*
X76248096Y-90822381D02*
X76248096Y-89822381D01*
X77438572Y-89774762D02*
X76581429Y-91060476D01*
X77771905Y-90822381D02*
X77771905Y-89822381D01*
X78152858Y-89822381D01*
X78248096Y-89870000D01*
X78295715Y-89917619D01*
X78343334Y-90012857D01*
X78343334Y-90155714D01*
X78295715Y-90250952D01*
X78248096Y-90298571D01*
X78152858Y-90346190D01*
X77771905Y-90346190D01*
X101848095Y-84982381D02*
X101848095Y-85791905D01*
X101895714Y-85887143D01*
X101943333Y-85934762D01*
X102038571Y-85982381D01*
X102229048Y-85982381D01*
X102324286Y-85934762D01*
X102371905Y-85887143D01*
X102419524Y-85791905D01*
X102419524Y-84982381D01*
X102848095Y-85077619D02*
X102895714Y-85030000D01*
X102990952Y-84982381D01*
X103229048Y-84982381D01*
X103324286Y-85030000D01*
X103371905Y-85077619D01*
X103419524Y-85172857D01*
X103419524Y-85268095D01*
X103371905Y-85410952D01*
X102800476Y-85982381D01*
X103419524Y-85982381D01*
X100419524Y-73582381D02*
X100419524Y-72582381D01*
X100800477Y-72582381D01*
X100895715Y-72630000D01*
X100943334Y-72677619D01*
X100990953Y-72772857D01*
X100990953Y-72915714D01*
X100943334Y-73010952D01*
X100895715Y-73058571D01*
X100800477Y-73106190D01*
X100419524Y-73106190D01*
X101990953Y-73487143D02*
X101943334Y-73534762D01*
X101800477Y-73582381D01*
X101705239Y-73582381D01*
X101562381Y-73534762D01*
X101467143Y-73439524D01*
X101419524Y-73344286D01*
X101371905Y-73153810D01*
X101371905Y-73010952D01*
X101419524Y-72820476D01*
X101467143Y-72725238D01*
X101562381Y-72630000D01*
X101705239Y-72582381D01*
X101800477Y-72582381D01*
X101943334Y-72630000D01*
X101990953Y-72677619D01*
X102562381Y-73010952D02*
X102467143Y-72963333D01*
X102419524Y-72915714D01*
X102371905Y-72820476D01*
X102371905Y-72772857D01*
X102419524Y-72677619D01*
X102467143Y-72630000D01*
X102562381Y-72582381D01*
X102752858Y-72582381D01*
X102848096Y-72630000D01*
X102895715Y-72677619D01*
X102943334Y-72772857D01*
X102943334Y-72820476D01*
X102895715Y-72915714D01*
X102848096Y-72963333D01*
X102752858Y-73010952D01*
X102562381Y-73010952D01*
X102467143Y-73058571D01*
X102419524Y-73106190D01*
X102371905Y-73201429D01*
X102371905Y-73391905D01*
X102419524Y-73487143D01*
X102467143Y-73534762D01*
X102562381Y-73582381D01*
X102752858Y-73582381D01*
X102848096Y-73534762D01*
X102895715Y-73487143D01*
X102943334Y-73391905D01*
X102943334Y-73201429D01*
X102895715Y-73106190D01*
X102848096Y-73058571D01*
X102752858Y-73010952D01*
X103324286Y-72677619D02*
X103371905Y-72630000D01*
X103467143Y-72582381D01*
X103705239Y-72582381D01*
X103800477Y-72630000D01*
X103848096Y-72677619D01*
X103895715Y-72772857D01*
X103895715Y-72868095D01*
X103848096Y-73010952D01*
X103276667Y-73582381D01*
X103895715Y-73582381D01*
X104229048Y-72582381D02*
X104895715Y-72582381D01*
X104467143Y-73582381D01*
X41132381Y-70301905D02*
X41941905Y-70301905D01*
X42037143Y-70254286D01*
X42084762Y-70206667D01*
X42132381Y-70111429D01*
X42132381Y-69920952D01*
X42084762Y-69825714D01*
X42037143Y-69778095D01*
X41941905Y-69730476D01*
X41132381Y-69730476D01*
X41132381Y-69349524D02*
X41132381Y-68730476D01*
X41513333Y-69063810D01*
X41513333Y-68920952D01*
X41560952Y-68825714D01*
X41608571Y-68778095D01*
X41703810Y-68730476D01*
X41941905Y-68730476D01*
X42037143Y-68778095D01*
X42084762Y-68825714D01*
X42132381Y-68920952D01*
X42132381Y-69206667D01*
X42084762Y-69301905D01*
X42037143Y-69349524D01*
X47852381Y-71361905D02*
X47852381Y-70695238D01*
X48852381Y-71123810D01*
X48280952Y-70171429D02*
X48233333Y-70266667D01*
X48185714Y-70314286D01*
X48090476Y-70361905D01*
X48042857Y-70361905D01*
X47947619Y-70314286D01*
X47900000Y-70266667D01*
X47852381Y-70171429D01*
X47852381Y-69980952D01*
X47900000Y-69885714D01*
X47947619Y-69838095D01*
X48042857Y-69790476D01*
X48090476Y-69790476D01*
X48185714Y-69838095D01*
X48233333Y-69885714D01*
X48280952Y-69980952D01*
X48280952Y-70171429D01*
X48328571Y-70266667D01*
X48376190Y-70314286D01*
X48471429Y-70361905D01*
X48661905Y-70361905D01*
X48757143Y-70314286D01*
X48804762Y-70266667D01*
X48852381Y-70171429D01*
X48852381Y-69980952D01*
X48804762Y-69885714D01*
X48757143Y-69838095D01*
X48661905Y-69790476D01*
X48471429Y-69790476D01*
X48376190Y-69838095D01*
X48328571Y-69885714D01*
X48280952Y-69980952D01*
X47852381Y-69171429D02*
X47852381Y-69076190D01*
X47900000Y-68980952D01*
X47947619Y-68933333D01*
X48042857Y-68885714D01*
X48233333Y-68838095D01*
X48471429Y-68838095D01*
X48661905Y-68885714D01*
X48757143Y-68933333D01*
X48804762Y-68980952D01*
X48852381Y-69076190D01*
X48852381Y-69171429D01*
X48804762Y-69266667D01*
X48757143Y-69314286D01*
X48661905Y-69361905D01*
X48471429Y-69409524D01*
X48233333Y-69409524D01*
X48042857Y-69361905D01*
X47947619Y-69314286D01*
X47900000Y-69266667D01*
X47852381Y-69171429D01*
X47852381Y-67933333D02*
X47852381Y-68409524D01*
X48328571Y-68457143D01*
X48280952Y-68409524D01*
X48233333Y-68314286D01*
X48233333Y-68076190D01*
X48280952Y-67980952D01*
X48328571Y-67933333D01*
X48423810Y-67885714D01*
X48661905Y-67885714D01*
X48757143Y-67933333D01*
X48804762Y-67980952D01*
X48852381Y-68076190D01*
X48852381Y-68314286D01*
X48804762Y-68409524D01*
X48757143Y-68457143D01*
X54633334Y-86457143D02*
X54585715Y-86504762D01*
X54442858Y-86552381D01*
X54347620Y-86552381D01*
X54204762Y-86504762D01*
X54109524Y-86409524D01*
X54061905Y-86314286D01*
X54014286Y-86123810D01*
X54014286Y-85980952D01*
X54061905Y-85790476D01*
X54109524Y-85695238D01*
X54204762Y-85600000D01*
X54347620Y-85552381D01*
X54442858Y-85552381D01*
X54585715Y-85600000D01*
X54633334Y-85647619D01*
X55585715Y-86552381D02*
X55014286Y-86552381D01*
X55300000Y-86552381D02*
X55300000Y-85552381D01*
X55204762Y-85695238D01*
X55109524Y-85790476D01*
X55014286Y-85838095D01*
X57309524Y-95907619D02*
X57357143Y-95860000D01*
X57452381Y-95812381D01*
X57690477Y-95812381D01*
X57785715Y-95860000D01*
X57833334Y-95907619D01*
X57880953Y-96002857D01*
X57880953Y-96098095D01*
X57833334Y-96240952D01*
X57261905Y-96812381D01*
X57880953Y-96812381D01*
X58261905Y-95907619D02*
X58309524Y-95860000D01*
X58404762Y-95812381D01*
X58642858Y-95812381D01*
X58738096Y-95860000D01*
X58785715Y-95907619D01*
X58833334Y-96002857D01*
X58833334Y-96098095D01*
X58785715Y-96240952D01*
X58214286Y-96812381D01*
X58833334Y-96812381D01*
X59452381Y-95812381D02*
X59547620Y-95812381D01*
X59642858Y-95860000D01*
X59690477Y-95907619D01*
X59738096Y-96002857D01*
X59785715Y-96193333D01*
X59785715Y-96431429D01*
X59738096Y-96621905D01*
X59690477Y-96717143D01*
X59642858Y-96764762D01*
X59547620Y-96812381D01*
X59452381Y-96812381D01*
X59357143Y-96764762D01*
X59309524Y-96717143D01*
X59261905Y-96621905D01*
X59214286Y-96431429D01*
X59214286Y-96193333D01*
X59261905Y-96002857D01*
X59309524Y-95907619D01*
X59357143Y-95860000D01*
X59452381Y-95812381D01*
X60642858Y-96145714D02*
X60642858Y-96812381D01*
X60214286Y-96145714D02*
X60214286Y-96669524D01*
X60261905Y-96764762D01*
X60357143Y-96812381D01*
X60500001Y-96812381D01*
X60595239Y-96764762D01*
X60642858Y-96717143D01*
X57433334Y-63997143D02*
X57385715Y-64044762D01*
X57242858Y-64092381D01*
X57147620Y-64092381D01*
X57004762Y-64044762D01*
X56909524Y-63949524D01*
X56861905Y-63854286D01*
X56814286Y-63663810D01*
X56814286Y-63520952D01*
X56861905Y-63330476D01*
X56909524Y-63235238D01*
X57004762Y-63140000D01*
X57147620Y-63092381D01*
X57242858Y-63092381D01*
X57385715Y-63140000D01*
X57433334Y-63187619D01*
X57814286Y-63187619D02*
X57861905Y-63140000D01*
X57957143Y-63092381D01*
X58195239Y-63092381D01*
X58290477Y-63140000D01*
X58338096Y-63187619D01*
X58385715Y-63282857D01*
X58385715Y-63378095D01*
X58338096Y-63520952D01*
X57766667Y-64092381D01*
X58385715Y-64092381D01*
X56480953Y-76212381D02*
X55909524Y-76212381D01*
X56195238Y-76212381D02*
X56195238Y-75212381D01*
X56100000Y-75355238D01*
X56004762Y-75450476D01*
X55909524Y-75498095D01*
X57100000Y-75212381D02*
X57195239Y-75212381D01*
X57290477Y-75260000D01*
X57338096Y-75307619D01*
X57385715Y-75402857D01*
X57433334Y-75593333D01*
X57433334Y-75831429D01*
X57385715Y-76021905D01*
X57338096Y-76117143D01*
X57290477Y-76164762D01*
X57195239Y-76212381D01*
X57100000Y-76212381D01*
X57004762Y-76164762D01*
X56957143Y-76117143D01*
X56909524Y-76021905D01*
X56861905Y-75831429D01*
X56861905Y-75593333D01*
X56909524Y-75402857D01*
X56957143Y-75307619D01*
X57004762Y-75260000D01*
X57100000Y-75212381D01*
X58052381Y-75212381D02*
X58147620Y-75212381D01*
X58242858Y-75260000D01*
X58290477Y-75307619D01*
X58338096Y-75402857D01*
X58385715Y-75593333D01*
X58385715Y-75831429D01*
X58338096Y-76021905D01*
X58290477Y-76117143D01*
X58242858Y-76164762D01*
X58147620Y-76212381D01*
X58052381Y-76212381D01*
X57957143Y-76164762D01*
X57909524Y-76117143D01*
X57861905Y-76021905D01*
X57814286Y-75831429D01*
X57814286Y-75593333D01*
X57861905Y-75402857D01*
X57909524Y-75307619D01*
X57957143Y-75260000D01*
X58052381Y-75212381D01*
X59242858Y-75545714D02*
X59242858Y-76212381D01*
X58814286Y-75545714D02*
X58814286Y-76069524D01*
X58861905Y-76164762D01*
X58957143Y-76212381D01*
X59100001Y-76212381D01*
X59195239Y-76164762D01*
X59242858Y-76117143D01*
X130852381Y-83238095D02*
X129852381Y-83238095D01*
X129852381Y-82857142D01*
X129900000Y-82761904D01*
X129947619Y-82714285D01*
X130042857Y-82666666D01*
X130185714Y-82666666D01*
X130280952Y-82714285D01*
X130328571Y-82761904D01*
X130376190Y-82857142D01*
X130376190Y-83238095D01*
X130185714Y-81809523D02*
X130852381Y-81809523D01*
X129804762Y-82047619D02*
X130519048Y-82285714D01*
X130519048Y-81666666D01*
X130852381Y-78138095D02*
X129852381Y-78138095D01*
X129852381Y-77757142D01*
X129900000Y-77661904D01*
X129947619Y-77614285D01*
X130042857Y-77566666D01*
X130185714Y-77566666D01*
X130280952Y-77614285D01*
X130328571Y-77661904D01*
X130376190Y-77757142D01*
X130376190Y-78138095D01*
X129852381Y-76661904D02*
X129852381Y-77138095D01*
X130328571Y-77185714D01*
X130280952Y-77138095D01*
X130233333Y-77042857D01*
X130233333Y-76804761D01*
X130280952Y-76709523D01*
X130328571Y-76661904D01*
X130423810Y-76614285D01*
X130661905Y-76614285D01*
X130757143Y-76661904D01*
X130804762Y-76709523D01*
X130852381Y-76804761D01*
X130852381Y-77042857D01*
X130804762Y-77138095D01*
X130757143Y-77185714D01*
X74666667Y-48452381D02*
X74333333Y-47976190D01*
X74095238Y-48452381D02*
X74095238Y-47452381D01*
X74476191Y-47452381D01*
X74571429Y-47500000D01*
X74619048Y-47547619D01*
X74666667Y-47642857D01*
X74666667Y-47785714D01*
X74619048Y-47880952D01*
X74571429Y-47928571D01*
X74476191Y-47976190D01*
X74095238Y-47976190D01*
X75095238Y-47928571D02*
X75428572Y-47928571D01*
X75571429Y-48452381D02*
X75095238Y-48452381D01*
X75095238Y-47452381D01*
X75571429Y-47452381D01*
X76333334Y-47928571D02*
X76000000Y-47928571D01*
X76000000Y-48452381D02*
X76000000Y-47452381D01*
X76476191Y-47452381D01*
X77000000Y-47452381D02*
X77000000Y-47690476D01*
X76761905Y-47595238D02*
X77000000Y-47690476D01*
X77238096Y-47595238D01*
X76857143Y-47880952D02*
X77000000Y-47690476D01*
X77142858Y-47880952D01*
X77761905Y-47452381D02*
X77761905Y-47690476D01*
X77523810Y-47595238D02*
X77761905Y-47690476D01*
X78000001Y-47595238D01*
X77619048Y-47880952D02*
X77761905Y-47690476D01*
X77904763Y-47880952D01*
X66266667Y-97052381D02*
X66266667Y-97766667D01*
X66219047Y-97909524D01*
X66123809Y-98004762D01*
X65980952Y-98052381D01*
X65885714Y-98052381D01*
X66742857Y-98052381D02*
X66742857Y-97052381D01*
X67123810Y-97052381D01*
X67219048Y-97100000D01*
X67266667Y-97147619D01*
X67314286Y-97242857D01*
X67314286Y-97385714D01*
X67266667Y-97480952D01*
X67219048Y-97528571D01*
X67123810Y-97576190D01*
X66742857Y-97576190D01*
X68266667Y-98052381D02*
X67695238Y-98052381D01*
X67980952Y-98052381D02*
X67980952Y-97052381D01*
X67885714Y-97195238D01*
X67790476Y-97290476D01*
X67695238Y-97338095D01*
M02*
