G04 #@! TF.FileFunction,Soldermask,Top*
%FSLAX46Y46*%
G04 Gerber Fmt 4.6, Leading zero omitted, Abs format (unit mm)*
G04 Created by KiCad (PCBNEW 4.0.5) date 2017 June 19, Monday 06:47:11*
%MOMM*%
%LPD*%
G01*
G04 APERTURE LIST*
%ADD10C,0.100000*%
%ADD11C,3.600000*%
%ADD12R,2.000000X2.000000*%
%ADD13O,2.000000X2.000000*%
%ADD14R,2.100000X2.100000*%
%ADD15O,2.100000X2.100000*%
%ADD16R,2.127200X2.127200*%
%ADD17O,2.127200X2.127200*%
%ADD18C,1.400000*%
%ADD19R,1.400000X1.400000*%
%ADD20C,2.000000*%
%ADD21R,2.200000X2.200000*%
%ADD22O,2.200000X2.200000*%
%ADD23R,2.400000X2.400000*%
%ADD24C,2.400000*%
%ADD25R,3.900000X3.900000*%
%ADD26R,4.000000X2.500000*%
%ADD27O,4.000000X2.500000*%
G04 APERTURE END LIST*
D10*
D11*
X125500000Y-80200000D03*
X107500000Y-102000000D03*
X107500000Y-58000000D03*
X64500000Y-102000000D03*
X64500000Y-58000000D03*
D12*
X110550000Y-89350000D03*
D13*
X110550000Y-96970000D03*
D12*
X114100000Y-89350000D03*
D13*
X114100000Y-96970000D03*
D12*
X117200000Y-89300000D03*
D13*
X117200000Y-96920000D03*
D12*
X121100000Y-78600000D03*
D13*
X121100000Y-86220000D03*
D12*
X107000000Y-89350000D03*
D13*
X107000000Y-96970000D03*
D12*
X96350000Y-89350000D03*
D13*
X96350000Y-96970000D03*
D12*
X92800000Y-89350000D03*
D13*
X92800000Y-96970000D03*
D14*
X83400000Y-77840000D03*
D15*
X83400000Y-80380000D03*
X83400000Y-82920000D03*
X83400000Y-85460000D03*
X83400000Y-88000000D03*
D14*
X83500000Y-69020000D03*
D15*
X83500000Y-71560000D03*
X83500000Y-74100000D03*
D16*
X99100000Y-103460000D03*
D17*
X99100000Y-106000000D03*
X96560000Y-103460000D03*
X96560000Y-106000000D03*
X94020000Y-103460000D03*
X94020000Y-106000000D03*
X91480000Y-103460000D03*
X91480000Y-106000000D03*
D14*
X85340000Y-106000000D03*
D15*
X82800000Y-106000000D03*
X80260000Y-106000000D03*
X77720000Y-106000000D03*
X75180000Y-106000000D03*
X72640000Y-106000000D03*
D18*
X112270000Y-83430000D03*
X113540000Y-84700000D03*
D19*
X111000000Y-84700000D03*
D18*
X116200000Y-52300000D03*
X117470000Y-53570000D03*
D19*
X114930000Y-53570000D03*
D18*
X116400000Y-58500000D03*
X117670000Y-59770000D03*
D19*
X115130000Y-59770000D03*
D18*
X100330000Y-52930000D03*
X101600000Y-54200000D03*
D19*
X99060000Y-54200000D03*
D18*
X100400000Y-59300000D03*
X101670000Y-60570000D03*
D19*
X99130000Y-60570000D03*
D20*
X110100000Y-78900000D03*
D13*
X117720000Y-78900000D03*
D20*
X103450000Y-89350000D03*
D13*
X103450000Y-96970000D03*
D20*
X99900000Y-97000000D03*
D13*
X99900000Y-89380000D03*
D20*
X89400000Y-97100000D03*
D13*
X89400000Y-89480000D03*
D20*
X108380000Y-69700000D03*
D13*
X116000000Y-69700000D03*
D20*
X108280000Y-73400000D03*
D13*
X115900000Y-73400000D03*
D20*
X120600000Y-64600000D03*
D13*
X120600000Y-72220000D03*
D20*
X94700000Y-78600000D03*
D13*
X94700000Y-86220000D03*
D20*
X86600000Y-54500000D03*
D13*
X94220000Y-54500000D03*
D20*
X55080000Y-82700000D03*
D13*
X62700000Y-82700000D03*
D20*
X105200000Y-63200000D03*
D13*
X112820000Y-63200000D03*
D20*
X105200000Y-66300000D03*
D13*
X112820000Y-66300000D03*
D12*
X68200000Y-67660000D03*
D13*
X75820000Y-87980000D03*
X68200000Y-70200000D03*
X75820000Y-85440000D03*
X68200000Y-72740000D03*
X75820000Y-82900000D03*
X68200000Y-75280000D03*
X75820000Y-80360000D03*
X68200000Y-77820000D03*
X75820000Y-77820000D03*
X68200000Y-80360000D03*
X75820000Y-75280000D03*
X68200000Y-82900000D03*
X75820000Y-72740000D03*
X68200000Y-85440000D03*
X75820000Y-70200000D03*
X68200000Y-87980000D03*
X75820000Y-67660000D03*
D12*
X106420000Y-83140000D03*
D13*
X98800000Y-75520000D03*
X106420000Y-80600000D03*
X98800000Y-78060000D03*
X106420000Y-78060000D03*
X98800000Y-80600000D03*
X106420000Y-75520000D03*
X98800000Y-83140000D03*
D21*
X45300000Y-72080000D03*
D22*
X45300000Y-69540000D03*
X45300000Y-67000000D03*
D23*
X56500000Y-90300000D03*
D24*
X61500000Y-90300000D03*
D23*
X55827856Y-88300000D03*
D24*
X62172144Y-92300000D03*
D23*
X55100000Y-69700000D03*
D24*
X60100000Y-69700000D03*
D23*
X54427856Y-67700000D03*
D24*
X60772144Y-71700000D03*
D25*
X50200000Y-90100000D03*
X44200000Y-90100000D03*
X47200000Y-94800000D03*
D26*
X125800000Y-92400000D03*
D27*
X125800000Y-87400000D03*
D26*
X125800000Y-72500000D03*
D27*
X125800000Y-67500000D03*
D14*
X67100000Y-92500000D03*
D15*
X67100000Y-95040000D03*
D11*
X46500000Y-80000000D03*
M02*
