G04 #@! TF.FileFunction,Copper,L2,Bot,Signal*
%FSLAX46Y46*%
G04 Gerber Fmt 4.6, Leading zero omitted, Abs format (unit mm)*
G04 Created by KiCad (PCBNEW 4.0.5) date 2017 June 19, Monday 06:47:11*
%MOMM*%
%LPD*%
G01*
G04 APERTURE LIST*
%ADD10C,0.100000*%
%ADD11R,1.600000X1.600000*%
%ADD12O,1.600000X1.600000*%
%ADD13R,1.700000X1.700000*%
%ADD14O,1.700000X1.700000*%
%ADD15R,1.727200X1.727200*%
%ADD16O,1.727200X1.727200*%
%ADD17C,1.000000*%
%ADD18R,1.000000X1.000000*%
%ADD19C,1.600000*%
%ADD20R,1.800000X1.800000*%
%ADD21O,1.800000X1.800000*%
%ADD22R,2.000000X2.000000*%
%ADD23C,2.000000*%
%ADD24R,3.500000X3.500000*%
%ADD25R,3.600000X2.100000*%
%ADD26O,3.600000X2.100000*%
%ADD27C,0.600000*%
%ADD28C,0.508000*%
%ADD29C,0.250000*%
%ADD30C,0.254000*%
G04 APERTURE END LIST*
D10*
D11*
X110550000Y-89350000D03*
D12*
X110550000Y-96970000D03*
D11*
X114100000Y-89350000D03*
D12*
X114100000Y-96970000D03*
D11*
X117200000Y-89300000D03*
D12*
X117200000Y-96920000D03*
D11*
X121100000Y-78600000D03*
D12*
X121100000Y-86220000D03*
D11*
X107000000Y-89350000D03*
D12*
X107000000Y-96970000D03*
D11*
X96350000Y-89350000D03*
D12*
X96350000Y-96970000D03*
D11*
X92800000Y-89350000D03*
D12*
X92800000Y-96970000D03*
D13*
X83400000Y-77840000D03*
D14*
X83400000Y-80380000D03*
X83400000Y-82920000D03*
X83400000Y-85460000D03*
X83400000Y-88000000D03*
D13*
X83500000Y-69020000D03*
D14*
X83500000Y-71560000D03*
X83500000Y-74100000D03*
D15*
X99100000Y-103460000D03*
D16*
X99100000Y-106000000D03*
X96560000Y-103460000D03*
X96560000Y-106000000D03*
X94020000Y-103460000D03*
X94020000Y-106000000D03*
X91480000Y-103460000D03*
X91480000Y-106000000D03*
D13*
X85340000Y-106000000D03*
D14*
X82800000Y-106000000D03*
X80260000Y-106000000D03*
X77720000Y-106000000D03*
X75180000Y-106000000D03*
X72640000Y-106000000D03*
D17*
X112270000Y-83430000D03*
X113540000Y-84700000D03*
D18*
X111000000Y-84700000D03*
D17*
X116200000Y-52300000D03*
X117470000Y-53570000D03*
D18*
X114930000Y-53570000D03*
D17*
X116400000Y-58500000D03*
X117670000Y-59770000D03*
D18*
X115130000Y-59770000D03*
D17*
X100330000Y-52930000D03*
X101600000Y-54200000D03*
D18*
X99060000Y-54200000D03*
D17*
X100400000Y-59300000D03*
X101670000Y-60570000D03*
D18*
X99130000Y-60570000D03*
D19*
X110100000Y-78900000D03*
D12*
X117720000Y-78900000D03*
D19*
X103450000Y-89350000D03*
D12*
X103450000Y-96970000D03*
D19*
X99900000Y-97000000D03*
D12*
X99900000Y-89380000D03*
D19*
X89400000Y-97100000D03*
D12*
X89400000Y-89480000D03*
D19*
X108380000Y-69700000D03*
D12*
X116000000Y-69700000D03*
D19*
X108280000Y-73400000D03*
D12*
X115900000Y-73400000D03*
D19*
X120600000Y-64600000D03*
D12*
X120600000Y-72220000D03*
D19*
X94700000Y-78600000D03*
D12*
X94700000Y-86220000D03*
D19*
X86600000Y-54500000D03*
D12*
X94220000Y-54500000D03*
D19*
X55080000Y-82700000D03*
D12*
X62700000Y-82700000D03*
D19*
X105200000Y-63200000D03*
D12*
X112820000Y-63200000D03*
D19*
X105200000Y-66300000D03*
D12*
X112820000Y-66300000D03*
D11*
X68200000Y-67660000D03*
D12*
X75820000Y-87980000D03*
X68200000Y-70200000D03*
X75820000Y-85440000D03*
X68200000Y-72740000D03*
X75820000Y-82900000D03*
X68200000Y-75280000D03*
X75820000Y-80360000D03*
X68200000Y-77820000D03*
X75820000Y-77820000D03*
X68200000Y-80360000D03*
X75820000Y-75280000D03*
X68200000Y-82900000D03*
X75820000Y-72740000D03*
X68200000Y-85440000D03*
X75820000Y-70200000D03*
X68200000Y-87980000D03*
X75820000Y-67660000D03*
D11*
X106420000Y-83140000D03*
D12*
X98800000Y-75520000D03*
X106420000Y-80600000D03*
X98800000Y-78060000D03*
X106420000Y-78060000D03*
X98800000Y-80600000D03*
X106420000Y-75520000D03*
X98800000Y-83140000D03*
D20*
X45300000Y-72080000D03*
D21*
X45300000Y-69540000D03*
X45300000Y-67000000D03*
D22*
X56500000Y-90300000D03*
D23*
X61500000Y-90300000D03*
D22*
X55827856Y-88300000D03*
D23*
X62172144Y-92300000D03*
D22*
X55100000Y-69700000D03*
D23*
X60100000Y-69700000D03*
D22*
X54427856Y-67700000D03*
D23*
X60772144Y-71700000D03*
D24*
X50200000Y-90100000D03*
X44200000Y-90100000D03*
X47200000Y-94800000D03*
D25*
X125800000Y-92400000D03*
D26*
X125800000Y-87400000D03*
D25*
X125800000Y-72500000D03*
D26*
X125800000Y-67500000D03*
D13*
X67100000Y-92500000D03*
D14*
X67100000Y-95040000D03*
D27*
X70600000Y-78100000D03*
X75200000Y-103700000D03*
X93500000Y-75300000D03*
X90800000Y-65800000D03*
D28*
X106420000Y-83140000D02*
X106420000Y-84448000D01*
X101157201Y-89710799D02*
X101157201Y-89983457D01*
X106420000Y-84448000D02*
X101157201Y-89710799D01*
X101157201Y-89983457D02*
X95427859Y-95712799D01*
X95427859Y-95712799D02*
X90787201Y-95712799D01*
X90199999Y-96300001D02*
X89400000Y-97100000D01*
X90787201Y-95712799D02*
X90199999Y-96300001D01*
X77437201Y-76562799D02*
X77437201Y-73724799D01*
X77437201Y-73724799D02*
X82142000Y-69020000D01*
X82142000Y-69020000D02*
X83500000Y-69020000D01*
X68200000Y-77820000D02*
X69457201Y-76562799D01*
X69457201Y-76562799D02*
X77437201Y-76562799D01*
X47200000Y-94800000D02*
X59672144Y-94800000D01*
X59672144Y-94800000D02*
X62172144Y-92300000D01*
X44200000Y-90100000D02*
X44200000Y-92358000D01*
X44200000Y-92358000D02*
X46642000Y-94800000D01*
X46642000Y-94800000D02*
X47200000Y-94800000D01*
X60772144Y-88157931D02*
X60772144Y-77800000D01*
X68200000Y-77820000D02*
X60792144Y-77820000D01*
X60772144Y-77800000D02*
X60772144Y-73114213D01*
X60792144Y-77820000D02*
X60772144Y-77800000D01*
X60772144Y-71700000D02*
X60772144Y-70372144D01*
X60772144Y-70372144D02*
X60100000Y-69700000D01*
X45300000Y-69540000D02*
X46572792Y-69540000D01*
X59357931Y-71700000D02*
X60772144Y-71700000D01*
X46572792Y-69540000D02*
X48732792Y-71700000D01*
X48732792Y-71700000D02*
X59357931Y-71700000D01*
X61500000Y-90300000D02*
X61500000Y-88885787D01*
X61500000Y-88885787D02*
X60772144Y-88157931D01*
X60772144Y-73114213D02*
X60772144Y-71700000D01*
X85340000Y-101160000D02*
X73220000Y-101160000D01*
X73220000Y-101160000D02*
X67100000Y-95040000D01*
X62172144Y-92300000D02*
X64360000Y-92300000D01*
X64360000Y-92300000D02*
X67100000Y-95040000D01*
X62172144Y-92300000D02*
X62172144Y-90972144D01*
X62172144Y-90972144D02*
X61500000Y-90300000D01*
X85340000Y-106000000D02*
X85340000Y-101160000D01*
X85340000Y-101160000D02*
X89400000Y-97100000D01*
X96560000Y-106000000D02*
X95239199Y-107320801D01*
X95239199Y-107320801D02*
X88018801Y-107320801D01*
X88018801Y-107320801D02*
X86698000Y-106000000D01*
X86698000Y-106000000D02*
X85340000Y-106000000D01*
X106420000Y-75520000D02*
X108257201Y-77357201D01*
X108257201Y-77357201D02*
X108257201Y-95712799D01*
X108257201Y-95712799D02*
X107799999Y-96170001D01*
X107799999Y-96170001D02*
X107000000Y-96970000D01*
D29*
X112270000Y-83430000D02*
X112270000Y-81070000D01*
X112270000Y-81070000D02*
X110100000Y-78900000D01*
X68200000Y-82900000D02*
X70600000Y-80500000D01*
X70600000Y-80500000D02*
X70600000Y-78100000D01*
D28*
X80260000Y-106000000D02*
X82760000Y-108500000D01*
X82760000Y-108500000D02*
X98554786Y-108500000D01*
X98554786Y-108500000D02*
X100420801Y-106633985D01*
X100420801Y-104780801D02*
X99100000Y-103460000D01*
X100420801Y-106633985D02*
X100420801Y-104780801D01*
D29*
X83400000Y-88000000D02*
X82294999Y-89105001D01*
X82294999Y-89105001D02*
X69325001Y-89105001D01*
X69325001Y-89105001D02*
X68999999Y-88779999D01*
X68999999Y-88779999D02*
X68200000Y-87980000D01*
X75200000Y-103700000D02*
X77500000Y-106000000D01*
X77500000Y-106000000D02*
X77720000Y-106000000D01*
X115130000Y-59770000D02*
X115130000Y-58548998D01*
X115130000Y-58548998D02*
X116200000Y-57478998D01*
X116200000Y-57478998D02*
X116200000Y-53007106D01*
X116200000Y-53007106D02*
X116200000Y-52300000D01*
X101600000Y-54200000D02*
X100892894Y-54200000D01*
X99792895Y-55299999D02*
X95019999Y-55299999D01*
X100892894Y-54200000D02*
X99792895Y-55299999D01*
X95019999Y-55299999D02*
X94220000Y-54500000D01*
X93500000Y-75300000D02*
X98580000Y-75300000D01*
X98580000Y-75300000D02*
X98800000Y-75520000D01*
X89400000Y-89480000D02*
X95825001Y-83054999D01*
X95825001Y-83054999D02*
X95825001Y-78494999D01*
X95825001Y-78494999D02*
X98000001Y-76319999D01*
X98000001Y-76319999D02*
X98800000Y-75520000D01*
X90800000Y-65800000D02*
X94700000Y-69700000D01*
X94700000Y-69700000D02*
X108380000Y-69700000D01*
X94700000Y-86220000D02*
X95499999Y-85420001D01*
X95499999Y-85420001D02*
X101599999Y-85420001D01*
X101599999Y-85420001D02*
X105620001Y-81399999D01*
X105620001Y-81399999D02*
X106420000Y-80600000D01*
D30*
G36*
X117871023Y-50897167D02*
X118609439Y-51390561D01*
X119102833Y-52128977D01*
X119303642Y-53138514D01*
X119988726Y-56582665D01*
X120050716Y-56732321D01*
X120094741Y-56838606D01*
X122045696Y-59758416D01*
X122241584Y-59954304D01*
X125161394Y-61905259D01*
X125417335Y-62011274D01*
X128861486Y-62696358D01*
X129871023Y-62897167D01*
X130609439Y-63390561D01*
X131102833Y-64128977D01*
X131290000Y-65069931D01*
X131290000Y-94930069D01*
X131102833Y-95871023D01*
X130609439Y-96609439D01*
X129871023Y-97102833D01*
X128861486Y-97303642D01*
X125417335Y-97988726D01*
X125161394Y-98094741D01*
X122241584Y-100045696D01*
X122045696Y-100241584D01*
X120094741Y-103161394D01*
X119988726Y-103417335D01*
X119303642Y-106861485D01*
X119303642Y-106861486D01*
X119102833Y-107871023D01*
X118609439Y-108609439D01*
X117871023Y-109102833D01*
X116930069Y-109290000D01*
X98941879Y-109290000D01*
X99183404Y-109128618D01*
X101049419Y-107262603D01*
X101084769Y-107209698D01*
X101242130Y-106974191D01*
X101309801Y-106633985D01*
X101309801Y-104780801D01*
X101242130Y-104440595D01*
X101049419Y-104152183D01*
X100611040Y-103713804D01*
X100611040Y-102596400D01*
X100582105Y-102442619D01*
X105264613Y-102442619D01*
X105604155Y-103264372D01*
X106232321Y-103893636D01*
X107053481Y-104234611D01*
X107942619Y-104235387D01*
X108764372Y-103895845D01*
X109393636Y-103267679D01*
X109734611Y-102446519D01*
X109735387Y-101557381D01*
X109395845Y-100735628D01*
X108767679Y-100106364D01*
X107946519Y-99765389D01*
X107057381Y-99764613D01*
X106235628Y-100104155D01*
X105606364Y-100732321D01*
X105265389Y-101553481D01*
X105264613Y-102442619D01*
X100582105Y-102442619D01*
X100566762Y-102361083D01*
X100427690Y-102144959D01*
X100215490Y-101999969D01*
X99963600Y-101948960D01*
X98236400Y-101948960D01*
X98001083Y-101993238D01*
X97784959Y-102132310D01*
X97639969Y-102344510D01*
X97631136Y-102388131D01*
X97619670Y-102370971D01*
X97133489Y-102046115D01*
X96560000Y-101932041D01*
X95986511Y-102046115D01*
X95500330Y-102370971D01*
X95290000Y-102685752D01*
X95079670Y-102370971D01*
X94593489Y-102046115D01*
X94020000Y-101932041D01*
X93446511Y-102046115D01*
X92960330Y-102370971D01*
X92750000Y-102685752D01*
X92539670Y-102370971D01*
X92053489Y-102046115D01*
X91480000Y-101932041D01*
X90906511Y-102046115D01*
X90420330Y-102370971D01*
X90095474Y-102857152D01*
X89981400Y-103430641D01*
X89981400Y-103489359D01*
X90095474Y-104062848D01*
X90420330Y-104549029D01*
X90691172Y-104730000D01*
X90420330Y-104910971D01*
X90095474Y-105397152D01*
X89981400Y-105970641D01*
X89981400Y-106029359D01*
X90095474Y-106602848D01*
X90420330Y-107089029D01*
X90906511Y-107413885D01*
X91480000Y-107527959D01*
X92053489Y-107413885D01*
X92539670Y-107089029D01*
X92750000Y-106774248D01*
X92960330Y-107089029D01*
X93446511Y-107413885D01*
X94020000Y-107527959D01*
X94593489Y-107413885D01*
X95079670Y-107089029D01*
X95295664Y-106765772D01*
X95353179Y-106888490D01*
X95785053Y-107282688D01*
X96200974Y-107454958D01*
X96433000Y-107333817D01*
X96433000Y-106127000D01*
X96413000Y-106127000D01*
X96413000Y-105873000D01*
X96433000Y-105873000D01*
X96433000Y-105853000D01*
X96687000Y-105853000D01*
X96687000Y-105873000D01*
X96707000Y-105873000D01*
X96707000Y-106127000D01*
X96687000Y-106127000D01*
X96687000Y-107333817D01*
X96919026Y-107454958D01*
X97334947Y-107282688D01*
X97766821Y-106888490D01*
X97824336Y-106765772D01*
X98040330Y-107089029D01*
X98440881Y-107356669D01*
X98186550Y-107611000D01*
X83128236Y-107611000D01*
X82992949Y-107475713D01*
X83368285Y-107401054D01*
X83850054Y-107079147D01*
X83879403Y-107035223D01*
X83951673Y-107209698D01*
X84130301Y-107388327D01*
X84363690Y-107485000D01*
X85054250Y-107485000D01*
X85213000Y-107326250D01*
X85213000Y-106127000D01*
X85467000Y-106127000D01*
X85467000Y-107326250D01*
X85625750Y-107485000D01*
X86316310Y-107485000D01*
X86549699Y-107388327D01*
X86728327Y-107209698D01*
X86825000Y-106976309D01*
X86825000Y-106285750D01*
X86666250Y-106127000D01*
X85467000Y-106127000D01*
X85213000Y-106127000D01*
X85193000Y-106127000D01*
X85193000Y-105873000D01*
X85213000Y-105873000D01*
X85213000Y-104673750D01*
X85467000Y-104673750D01*
X85467000Y-105873000D01*
X86666250Y-105873000D01*
X86825000Y-105714250D01*
X86825000Y-105023691D01*
X86728327Y-104790302D01*
X86549699Y-104611673D01*
X86316310Y-104515000D01*
X85625750Y-104515000D01*
X85467000Y-104673750D01*
X85213000Y-104673750D01*
X85054250Y-104515000D01*
X84363690Y-104515000D01*
X84130301Y-104611673D01*
X83951673Y-104790302D01*
X83879403Y-104964777D01*
X83850054Y-104920853D01*
X83368285Y-104598946D01*
X82800000Y-104485907D01*
X82231715Y-104598946D01*
X81749946Y-104920853D01*
X81530000Y-105250026D01*
X81310054Y-104920853D01*
X80828285Y-104598946D01*
X80260000Y-104485907D01*
X79691715Y-104598946D01*
X79209946Y-104920853D01*
X78990000Y-105250026D01*
X78770054Y-104920853D01*
X78288285Y-104598946D01*
X77720000Y-104485907D01*
X77170092Y-104595290D01*
X76135122Y-103560320D01*
X76135162Y-103514833D01*
X75993117Y-103171057D01*
X75730327Y-102907808D01*
X75386799Y-102765162D01*
X75014833Y-102764838D01*
X74671057Y-102906883D01*
X74407808Y-103169673D01*
X74265162Y-103513201D01*
X74264838Y-103885167D01*
X74406883Y-104228943D01*
X74669673Y-104492192D01*
X74824725Y-104556576D01*
X74611715Y-104598946D01*
X74129946Y-104920853D01*
X73910000Y-105250026D01*
X73690054Y-104920853D01*
X73208285Y-104598946D01*
X72640000Y-104485907D01*
X72071715Y-104598946D01*
X71589946Y-104920853D01*
X71268039Y-105402622D01*
X71155000Y-105970907D01*
X71155000Y-106029093D01*
X71268039Y-106597378D01*
X71589946Y-107079147D01*
X72071715Y-107401054D01*
X72640000Y-107514093D01*
X73208285Y-107401054D01*
X73690054Y-107079147D01*
X73910000Y-106749974D01*
X74129946Y-107079147D01*
X74611715Y-107401054D01*
X75180000Y-107514093D01*
X75748285Y-107401054D01*
X76230054Y-107079147D01*
X76450000Y-106749974D01*
X76669946Y-107079147D01*
X77151715Y-107401054D01*
X77720000Y-107514093D01*
X78288285Y-107401054D01*
X78770054Y-107079147D01*
X78990000Y-106749974D01*
X79209946Y-107079147D01*
X79691715Y-107401054D01*
X80260000Y-107514093D01*
X80474242Y-107471478D01*
X82131382Y-109128618D01*
X82372907Y-109290000D01*
X55069931Y-109290000D01*
X54128977Y-109102833D01*
X53390561Y-108609439D01*
X52897167Y-107871023D01*
X52696358Y-106861486D01*
X52696358Y-106861485D01*
X52011274Y-103417335D01*
X51905259Y-103161394D01*
X51424989Y-102442619D01*
X62264613Y-102442619D01*
X62604155Y-103264372D01*
X63232321Y-103893636D01*
X64053481Y-104234611D01*
X64942619Y-104235387D01*
X65764372Y-103895845D01*
X66393636Y-103267679D01*
X66734611Y-102446519D01*
X66735387Y-101557381D01*
X66395845Y-100735628D01*
X65767679Y-100106364D01*
X65177949Y-99861487D01*
X87303642Y-99861487D01*
X87303642Y-100138513D01*
X87379762Y-100521196D01*
X87399395Y-100568593D01*
X87485776Y-100777138D01*
X87702549Y-101101561D01*
X87702550Y-101101562D01*
X87898438Y-101297451D01*
X88222862Y-101514223D01*
X88327055Y-101557381D01*
X88478804Y-101620238D01*
X88861486Y-101696358D01*
X88931416Y-101696358D01*
X89000000Y-101710000D01*
X101000000Y-101710000D01*
X101068584Y-101696358D01*
X101138513Y-101696358D01*
X101521196Y-101620238D01*
X101596160Y-101589187D01*
X101777138Y-101514224D01*
X102101561Y-101297451D01*
X102172630Y-101226382D01*
X102297451Y-101101562D01*
X102514223Y-100777138D01*
X102558136Y-100671123D01*
X102620238Y-100521196D01*
X102696358Y-100138514D01*
X102696358Y-99861486D01*
X102620238Y-99478804D01*
X102558136Y-99328877D01*
X102514223Y-99222862D01*
X102297451Y-98898438D01*
X102101562Y-98702550D01*
X102101561Y-98702549D01*
X101777138Y-98485776D01*
X101593368Y-98409657D01*
X101521196Y-98379762D01*
X101138513Y-98303642D01*
X101068584Y-98303642D01*
X101000000Y-98290000D01*
X100535714Y-98290000D01*
X100711800Y-98217243D01*
X101115824Y-97813923D01*
X101334750Y-97286691D01*
X101335050Y-96941887D01*
X102015000Y-96941887D01*
X102015000Y-96998113D01*
X102124233Y-97547264D01*
X102435302Y-98012811D01*
X102900849Y-98323880D01*
X103450000Y-98433113D01*
X103999151Y-98323880D01*
X104464698Y-98012811D01*
X104775767Y-97547264D01*
X104885000Y-96998113D01*
X104885000Y-96941887D01*
X104775767Y-96392736D01*
X104464698Y-95927189D01*
X103999151Y-95616120D01*
X103450000Y-95506887D01*
X102900849Y-95616120D01*
X102435302Y-95927189D01*
X102124233Y-96392736D01*
X102015000Y-96941887D01*
X101335050Y-96941887D01*
X101335248Y-96715813D01*
X101117243Y-96188200D01*
X100713923Y-95784176D01*
X100186691Y-95565250D01*
X99615813Y-95564752D01*
X99088200Y-95782757D01*
X98684176Y-96186077D01*
X98465250Y-96713309D01*
X98464752Y-97284187D01*
X98682757Y-97811800D01*
X99086077Y-98215824D01*
X99264713Y-98290000D01*
X96949856Y-98290000D01*
X97364698Y-98012811D01*
X97675767Y-97547264D01*
X97785000Y-96998113D01*
X97785000Y-96941887D01*
X97675767Y-96392736D01*
X97364698Y-95927189D01*
X96899151Y-95616120D01*
X96350000Y-95506887D01*
X95800849Y-95616120D01*
X95335302Y-95927189D01*
X95024233Y-96392736D01*
X94915000Y-96941887D01*
X94915000Y-96998113D01*
X95024233Y-97547264D01*
X95335302Y-98012811D01*
X95750144Y-98290000D01*
X93399856Y-98290000D01*
X93814698Y-98012811D01*
X94125767Y-97547264D01*
X94235000Y-96998113D01*
X94235000Y-96941887D01*
X94125767Y-96392736D01*
X93814698Y-95927189D01*
X93349151Y-95616120D01*
X92800000Y-95506887D01*
X92250849Y-95616120D01*
X91785302Y-95927189D01*
X91474233Y-96392736D01*
X91365000Y-96941887D01*
X91365000Y-96998113D01*
X91474233Y-97547264D01*
X91785302Y-98012811D01*
X92200144Y-98290000D01*
X90173242Y-98290000D01*
X90228139Y-98107745D01*
X89400000Y-97279605D01*
X88571861Y-98107745D01*
X88643904Y-98346922D01*
X88478804Y-98379762D01*
X88406632Y-98409657D01*
X88222862Y-98485777D01*
X87898438Y-98702549D01*
X87777390Y-98823598D01*
X87702549Y-98898439D01*
X87485776Y-99222862D01*
X87420091Y-99381441D01*
X87379762Y-99478804D01*
X87303642Y-99861487D01*
X65177949Y-99861487D01*
X64946519Y-99765389D01*
X64057381Y-99764613D01*
X63235628Y-100104155D01*
X62606364Y-100732321D01*
X62265389Y-101553481D01*
X62264613Y-102442619D01*
X51424989Y-102442619D01*
X49954304Y-100241584D01*
X49758416Y-100045696D01*
X46838606Y-98094741D01*
X46582665Y-97988726D01*
X43138514Y-97303642D01*
X42128977Y-97102833D01*
X41390561Y-96609439D01*
X40897167Y-95871023D01*
X40740967Y-95085750D01*
X44815000Y-95085750D01*
X44815000Y-96676310D01*
X44911673Y-96909699D01*
X45090302Y-97088327D01*
X45323691Y-97185000D01*
X46914250Y-97185000D01*
X47073000Y-97026250D01*
X47073000Y-94927000D01*
X47327000Y-94927000D01*
X47327000Y-97026250D01*
X47485750Y-97185000D01*
X49076309Y-97185000D01*
X49309698Y-97088327D01*
X49488327Y-96909699D01*
X49499293Y-96883223D01*
X87953035Y-96883223D01*
X87980222Y-97453454D01*
X88146136Y-97854005D01*
X88392255Y-97928139D01*
X89220395Y-97100000D01*
X89579605Y-97100000D01*
X90407745Y-97928139D01*
X90653864Y-97854005D01*
X90846965Y-97316777D01*
X90819778Y-96746546D01*
X90653864Y-96345995D01*
X90407745Y-96271861D01*
X89579605Y-97100000D01*
X89220395Y-97100000D01*
X88392255Y-96271861D01*
X88146136Y-96345995D01*
X87953035Y-96883223D01*
X49499293Y-96883223D01*
X49585000Y-96676310D01*
X49585000Y-95396890D01*
X65658524Y-95396890D01*
X65828355Y-95806924D01*
X66218642Y-96235183D01*
X66743108Y-96481486D01*
X66973000Y-96360819D01*
X66973000Y-95167000D01*
X67227000Y-95167000D01*
X67227000Y-96360819D01*
X67456892Y-96481486D01*
X67981358Y-96235183D01*
X68111613Y-96092255D01*
X88571861Y-96092255D01*
X89400000Y-96920395D01*
X90228139Y-96092255D01*
X90154005Y-95846136D01*
X89616777Y-95653035D01*
X89046546Y-95680222D01*
X88645995Y-95846136D01*
X88571861Y-96092255D01*
X68111613Y-96092255D01*
X68371645Y-95806924D01*
X68541476Y-95396890D01*
X68420155Y-95167000D01*
X67227000Y-95167000D01*
X66973000Y-95167000D01*
X65779845Y-95167000D01*
X65658524Y-95396890D01*
X49585000Y-95396890D01*
X49585000Y-95085750D01*
X49426250Y-94927000D01*
X47327000Y-94927000D01*
X47073000Y-94927000D01*
X44973750Y-94927000D01*
X44815000Y-95085750D01*
X40740967Y-95085750D01*
X40710000Y-94930069D01*
X40710000Y-90385750D01*
X41815000Y-90385750D01*
X41815000Y-91976310D01*
X41911673Y-92209699D01*
X42090302Y-92388327D01*
X42323691Y-92485000D01*
X43914250Y-92485000D01*
X44073000Y-92326250D01*
X44073000Y-90227000D01*
X44327000Y-90227000D01*
X44327000Y-92326250D01*
X44485750Y-92485000D01*
X45154696Y-92485000D01*
X45090302Y-92511673D01*
X44911673Y-92690301D01*
X44815000Y-92923690D01*
X44815000Y-94514250D01*
X44973750Y-94673000D01*
X47073000Y-94673000D01*
X47073000Y-92573750D01*
X47327000Y-92573750D01*
X47327000Y-94673000D01*
X49426250Y-94673000D01*
X49585000Y-94514250D01*
X49585000Y-93452532D01*
X61199217Y-93452532D01*
X61297880Y-93719387D01*
X61907605Y-93945908D01*
X62557604Y-93921856D01*
X63046408Y-93719387D01*
X63145071Y-93452532D01*
X62172144Y-92479605D01*
X61199217Y-93452532D01*
X49585000Y-93452532D01*
X49585000Y-92923690D01*
X49488327Y-92690301D01*
X49309698Y-92511673D01*
X49275337Y-92497440D01*
X51950000Y-92497440D01*
X52185317Y-92453162D01*
X52401441Y-92314090D01*
X52546431Y-92101890D01*
X52559883Y-92035461D01*
X60526236Y-92035461D01*
X60550288Y-92685460D01*
X60752757Y-93174264D01*
X61019612Y-93272927D01*
X61992539Y-92300000D01*
X62351749Y-92300000D01*
X63324676Y-93272927D01*
X63591531Y-93174264D01*
X63818052Y-92564539D01*
X63794000Y-91914540D01*
X63684425Y-91650000D01*
X65602560Y-91650000D01*
X65602560Y-93350000D01*
X65646838Y-93585317D01*
X65785910Y-93801441D01*
X65998110Y-93946431D01*
X66106107Y-93968301D01*
X65828355Y-94273076D01*
X65658524Y-94683110D01*
X65779845Y-94913000D01*
X66973000Y-94913000D01*
X66973000Y-94893000D01*
X67227000Y-94893000D01*
X67227000Y-94913000D01*
X68420155Y-94913000D01*
X68541476Y-94683110D01*
X68371645Y-94273076D01*
X68095499Y-93970063D01*
X68185317Y-93953162D01*
X68401441Y-93814090D01*
X68546431Y-93601890D01*
X68597440Y-93350000D01*
X68597440Y-91650000D01*
X68553162Y-91414683D01*
X68414090Y-91198559D01*
X68201890Y-91053569D01*
X67950000Y-91002560D01*
X66250000Y-91002560D01*
X66014683Y-91046838D01*
X65798559Y-91185910D01*
X65653569Y-91398110D01*
X65602560Y-91650000D01*
X63684425Y-91650000D01*
X63591531Y-91425736D01*
X63324676Y-91327073D01*
X62351749Y-92300000D01*
X61992539Y-92300000D01*
X61978397Y-92285858D01*
X62158002Y-92106253D01*
X62172144Y-92120395D01*
X63145071Y-91147468D01*
X63046408Y-90880613D01*
X63030656Y-90874761D01*
X63145908Y-90564539D01*
X63121856Y-89914540D01*
X62919387Y-89425736D01*
X62652532Y-89327073D01*
X61679605Y-90300000D01*
X61693748Y-90314143D01*
X61514143Y-90493748D01*
X61500000Y-90479605D01*
X60527073Y-91452532D01*
X60625736Y-91719387D01*
X60641488Y-91725239D01*
X60526236Y-92035461D01*
X52559883Y-92035461D01*
X52597440Y-91850000D01*
X52597440Y-88350000D01*
X52553162Y-88114683D01*
X52414090Y-87898559D01*
X52201890Y-87753569D01*
X51950000Y-87702560D01*
X48450000Y-87702560D01*
X48214683Y-87746838D01*
X47998559Y-87885910D01*
X47853569Y-88098110D01*
X47802560Y-88350000D01*
X47802560Y-91850000D01*
X47846838Y-92085317D01*
X47985910Y-92301441D01*
X48152109Y-92415000D01*
X47485750Y-92415000D01*
X47327000Y-92573750D01*
X47073000Y-92573750D01*
X46914250Y-92415000D01*
X46245304Y-92415000D01*
X46309698Y-92388327D01*
X46488327Y-92209699D01*
X46585000Y-91976310D01*
X46585000Y-90385750D01*
X46426250Y-90227000D01*
X44327000Y-90227000D01*
X44073000Y-90227000D01*
X41973750Y-90227000D01*
X41815000Y-90385750D01*
X40710000Y-90385750D01*
X40710000Y-88223690D01*
X41815000Y-88223690D01*
X41815000Y-89814250D01*
X41973750Y-89973000D01*
X44073000Y-89973000D01*
X44073000Y-87873750D01*
X44327000Y-87873750D01*
X44327000Y-89973000D01*
X46426250Y-89973000D01*
X46585000Y-89814250D01*
X46585000Y-88223690D01*
X46488327Y-87990301D01*
X46309698Y-87811673D01*
X46076309Y-87715000D01*
X44485750Y-87715000D01*
X44327000Y-87873750D01*
X44073000Y-87873750D01*
X43914250Y-87715000D01*
X42323691Y-87715000D01*
X42090302Y-87811673D01*
X41911673Y-87990301D01*
X41815000Y-88223690D01*
X40710000Y-88223690D01*
X40710000Y-87300000D01*
X54180416Y-87300000D01*
X54180416Y-89300000D01*
X54224694Y-89535317D01*
X54363766Y-89751441D01*
X54575966Y-89896431D01*
X54827856Y-89947440D01*
X54852560Y-89947440D01*
X54852560Y-91300000D01*
X54896838Y-91535317D01*
X55035910Y-91751441D01*
X55248110Y-91896431D01*
X55500000Y-91947440D01*
X57500000Y-91947440D01*
X57735317Y-91903162D01*
X57951441Y-91764090D01*
X58096431Y-91551890D01*
X58147440Y-91300000D01*
X58147440Y-90035461D01*
X59854092Y-90035461D01*
X59878144Y-90685460D01*
X60080613Y-91174264D01*
X60347468Y-91272927D01*
X61320395Y-90300000D01*
X60347468Y-89327073D01*
X60080613Y-89425736D01*
X59854092Y-90035461D01*
X58147440Y-90035461D01*
X58147440Y-89300000D01*
X58118740Y-89147468D01*
X60527073Y-89147468D01*
X61500000Y-90120395D01*
X62472927Y-89147468D01*
X62374264Y-88880613D01*
X61764539Y-88654092D01*
X61114540Y-88678144D01*
X60625736Y-88880613D01*
X60527073Y-89147468D01*
X58118740Y-89147468D01*
X58103162Y-89064683D01*
X57964090Y-88848559D01*
X57751890Y-88703569D01*
X57500000Y-88652560D01*
X57475296Y-88652560D01*
X57475296Y-87300000D01*
X57431018Y-87064683D01*
X57291946Y-86848559D01*
X57079746Y-86703569D01*
X56827856Y-86652560D01*
X54827856Y-86652560D01*
X54592539Y-86696838D01*
X54376415Y-86835910D01*
X54231425Y-87048110D01*
X54180416Y-87300000D01*
X40710000Y-87300000D01*
X40710000Y-82984187D01*
X53644752Y-82984187D01*
X53862757Y-83511800D01*
X54266077Y-83915824D01*
X54793309Y-84134750D01*
X55364187Y-84135248D01*
X55891800Y-83917243D01*
X56295824Y-83513923D01*
X56514750Y-82986691D01*
X56515000Y-82700000D01*
X61236887Y-82700000D01*
X61346120Y-83249151D01*
X61657189Y-83714698D01*
X62122736Y-84025767D01*
X62671887Y-84135000D01*
X62728113Y-84135000D01*
X63277264Y-84025767D01*
X63742811Y-83714698D01*
X64053880Y-83249151D01*
X64163113Y-82700000D01*
X64053880Y-82150849D01*
X63742811Y-81685302D01*
X63277264Y-81374233D01*
X62728113Y-81265000D01*
X62671887Y-81265000D01*
X62122736Y-81374233D01*
X61657189Y-81685302D01*
X61346120Y-82150849D01*
X61236887Y-82700000D01*
X56515000Y-82700000D01*
X56515248Y-82415813D01*
X56297243Y-81888200D01*
X55893923Y-81484176D01*
X55366691Y-81265250D01*
X54795813Y-81264752D01*
X54268200Y-81482757D01*
X53864176Y-81886077D01*
X53645250Y-82413309D01*
X53644752Y-82984187D01*
X40710000Y-82984187D01*
X40710000Y-80442619D01*
X44264613Y-80442619D01*
X44604155Y-81264372D01*
X45232321Y-81893636D01*
X46053481Y-82234611D01*
X46942619Y-82235387D01*
X47764372Y-81895845D01*
X48393636Y-81267679D01*
X48734611Y-80446519D01*
X48734686Y-80360000D01*
X66736887Y-80360000D01*
X66846120Y-80909151D01*
X67157189Y-81374698D01*
X67539275Y-81630000D01*
X67157189Y-81885302D01*
X66846120Y-82350849D01*
X66736887Y-82900000D01*
X66846120Y-83449151D01*
X67157189Y-83914698D01*
X67539275Y-84170000D01*
X67157189Y-84425302D01*
X66846120Y-84890849D01*
X66736887Y-85440000D01*
X66846120Y-85989151D01*
X67157189Y-86454698D01*
X67539275Y-86710000D01*
X67157189Y-86965302D01*
X66846120Y-87430849D01*
X66736887Y-87980000D01*
X66846120Y-88529151D01*
X67157189Y-88994698D01*
X67622736Y-89305767D01*
X68171887Y-89415000D01*
X68228113Y-89415000D01*
X68505102Y-89359904D01*
X68787600Y-89642402D01*
X69034161Y-89807149D01*
X69325001Y-89865001D01*
X82294999Y-89865001D01*
X82585838Y-89807149D01*
X82832400Y-89642402D01*
X83053031Y-89421771D01*
X83370907Y-89485000D01*
X83429093Y-89485000D01*
X83595563Y-89451887D01*
X87965000Y-89451887D01*
X87965000Y-89508113D01*
X88074233Y-90057264D01*
X88385302Y-90522811D01*
X88850849Y-90833880D01*
X89400000Y-90943113D01*
X89949151Y-90833880D01*
X90414698Y-90522811D01*
X90725767Y-90057264D01*
X90835000Y-89508113D01*
X90835000Y-89451887D01*
X90779904Y-89174898D01*
X91352560Y-88602242D01*
X91352560Y-90150000D01*
X91396838Y-90385317D01*
X91535910Y-90601441D01*
X91748110Y-90746431D01*
X92000000Y-90797440D01*
X93600000Y-90797440D01*
X93835317Y-90753162D01*
X94051441Y-90614090D01*
X94196431Y-90401890D01*
X94247440Y-90150000D01*
X94247440Y-88550000D01*
X94902560Y-88550000D01*
X94902560Y-90150000D01*
X94946838Y-90385317D01*
X95085910Y-90601441D01*
X95298110Y-90746431D01*
X95550000Y-90797440D01*
X97150000Y-90797440D01*
X97385317Y-90753162D01*
X97601441Y-90614090D01*
X97746431Y-90401890D01*
X97797440Y-90150000D01*
X97797440Y-89351887D01*
X98465000Y-89351887D01*
X98465000Y-89408113D01*
X98574233Y-89957264D01*
X98885302Y-90422811D01*
X99350849Y-90733880D01*
X99900000Y-90843113D01*
X100449151Y-90733880D01*
X100914698Y-90422811D01*
X101225767Y-89957264D01*
X101290031Y-89634187D01*
X102014752Y-89634187D01*
X102232757Y-90161800D01*
X102636077Y-90565824D01*
X103163309Y-90784750D01*
X103734187Y-90785248D01*
X104261800Y-90567243D01*
X104665824Y-90163923D01*
X104884750Y-89636691D01*
X104885248Y-89065813D01*
X104667243Y-88538200D01*
X104263923Y-88134176D01*
X103736691Y-87915250D01*
X103165813Y-87914752D01*
X102638200Y-88132757D01*
X102234176Y-88536077D01*
X102015250Y-89063309D01*
X102014752Y-89634187D01*
X101290031Y-89634187D01*
X101335000Y-89408113D01*
X101335000Y-89351887D01*
X101225767Y-88802736D01*
X100914698Y-88337189D01*
X100449151Y-88026120D01*
X99900000Y-87916887D01*
X99350849Y-88026120D01*
X98885302Y-88337189D01*
X98574233Y-88802736D01*
X98465000Y-89351887D01*
X97797440Y-89351887D01*
X97797440Y-88550000D01*
X97753162Y-88314683D01*
X97614090Y-88098559D01*
X97401890Y-87953569D01*
X97150000Y-87902560D01*
X95550000Y-87902560D01*
X95314683Y-87946838D01*
X95098559Y-88085910D01*
X94953569Y-88298110D01*
X94902560Y-88550000D01*
X94247440Y-88550000D01*
X94203162Y-88314683D01*
X94064090Y-88098559D01*
X93851890Y-87953569D01*
X93600000Y-87902560D01*
X92052242Y-87902560D01*
X93338281Y-86616521D01*
X93374233Y-86797264D01*
X93685302Y-87262811D01*
X94150849Y-87573880D01*
X94700000Y-87683113D01*
X95249151Y-87573880D01*
X95714698Y-87262811D01*
X96025767Y-86797264D01*
X96135000Y-86248113D01*
X96135000Y-86191887D01*
X96132636Y-86180001D01*
X101599999Y-86180001D01*
X101890838Y-86122149D01*
X102137400Y-85957402D01*
X104669052Y-83425750D01*
X104985000Y-83425750D01*
X104985000Y-84066310D01*
X105081673Y-84299699D01*
X105260302Y-84478327D01*
X105493691Y-84575000D01*
X106134250Y-84575000D01*
X106293000Y-84416250D01*
X106293000Y-83267000D01*
X105143750Y-83267000D01*
X104985000Y-83425750D01*
X104669052Y-83425750D01*
X105112776Y-82982026D01*
X105143750Y-83013000D01*
X106293000Y-83013000D01*
X106293000Y-82993000D01*
X106547000Y-82993000D01*
X106547000Y-83013000D01*
X106567000Y-83013000D01*
X106567000Y-83267000D01*
X106547000Y-83267000D01*
X106547000Y-84416250D01*
X106705750Y-84575000D01*
X107346309Y-84575000D01*
X107368201Y-84565932D01*
X107368201Y-87902560D01*
X106200000Y-87902560D01*
X105964683Y-87946838D01*
X105748559Y-88085910D01*
X105603569Y-88298110D01*
X105552560Y-88550000D01*
X105552560Y-90150000D01*
X105596838Y-90385317D01*
X105735910Y-90601441D01*
X105948110Y-90746431D01*
X106200000Y-90797440D01*
X107368201Y-90797440D01*
X107368201Y-95344563D01*
X107171720Y-95541044D01*
X107000000Y-95506887D01*
X106450849Y-95616120D01*
X105985302Y-95927189D01*
X105674233Y-96392736D01*
X105565000Y-96941887D01*
X105565000Y-96998113D01*
X105674233Y-97547264D01*
X105985302Y-98012811D01*
X106450849Y-98323880D01*
X107000000Y-98433113D01*
X107549151Y-98323880D01*
X108014698Y-98012811D01*
X108325767Y-97547264D01*
X108435000Y-96998113D01*
X108435000Y-96941887D01*
X109115000Y-96941887D01*
X109115000Y-96998113D01*
X109224233Y-97547264D01*
X109535302Y-98012811D01*
X110000849Y-98323880D01*
X110550000Y-98433113D01*
X111099151Y-98323880D01*
X111564698Y-98012811D01*
X111875767Y-97547264D01*
X111985000Y-96998113D01*
X111985000Y-96941887D01*
X112665000Y-96941887D01*
X112665000Y-96998113D01*
X112774233Y-97547264D01*
X113085302Y-98012811D01*
X113550849Y-98323880D01*
X114100000Y-98433113D01*
X114649151Y-98323880D01*
X115114698Y-98012811D01*
X115425767Y-97547264D01*
X115535000Y-96998113D01*
X115535000Y-96941887D01*
X115525055Y-96891887D01*
X115765000Y-96891887D01*
X115765000Y-96948113D01*
X115874233Y-97497264D01*
X116185302Y-97962811D01*
X116650849Y-98273880D01*
X117200000Y-98383113D01*
X117749151Y-98273880D01*
X118214698Y-97962811D01*
X118525767Y-97497264D01*
X118635000Y-96948113D01*
X118635000Y-96891887D01*
X118525767Y-96342736D01*
X118214698Y-95877189D01*
X117749151Y-95566120D01*
X117200000Y-95456887D01*
X116650849Y-95566120D01*
X116185302Y-95877189D01*
X115874233Y-96342736D01*
X115765000Y-96891887D01*
X115525055Y-96891887D01*
X115425767Y-96392736D01*
X115114698Y-95927189D01*
X114649151Y-95616120D01*
X114100000Y-95506887D01*
X113550849Y-95616120D01*
X113085302Y-95927189D01*
X112774233Y-96392736D01*
X112665000Y-96941887D01*
X111985000Y-96941887D01*
X111875767Y-96392736D01*
X111564698Y-95927189D01*
X111099151Y-95616120D01*
X110550000Y-95506887D01*
X110000849Y-95616120D01*
X109535302Y-95927189D01*
X109224233Y-96392736D01*
X109115000Y-96941887D01*
X108435000Y-96941887D01*
X108410171Y-96817065D01*
X108885819Y-96341417D01*
X109078530Y-96053005D01*
X109146201Y-95712799D01*
X109146201Y-91350000D01*
X123352560Y-91350000D01*
X123352560Y-93450000D01*
X123396838Y-93685317D01*
X123535910Y-93901441D01*
X123748110Y-94046431D01*
X124000000Y-94097440D01*
X127600000Y-94097440D01*
X127835317Y-94053162D01*
X128051441Y-93914090D01*
X128196431Y-93701890D01*
X128247440Y-93450000D01*
X128247440Y-91350000D01*
X128203162Y-91114683D01*
X128064090Y-90898559D01*
X127851890Y-90753569D01*
X127600000Y-90702560D01*
X124000000Y-90702560D01*
X123764683Y-90746838D01*
X123548559Y-90885910D01*
X123403569Y-91098110D01*
X123352560Y-91350000D01*
X109146201Y-91350000D01*
X109146201Y-90381932D01*
X109146838Y-90385317D01*
X109285910Y-90601441D01*
X109498110Y-90746431D01*
X109750000Y-90797440D01*
X111350000Y-90797440D01*
X111585317Y-90753162D01*
X111801441Y-90614090D01*
X111946431Y-90401890D01*
X111997440Y-90150000D01*
X111997440Y-88550000D01*
X112652560Y-88550000D01*
X112652560Y-90150000D01*
X112696838Y-90385317D01*
X112835910Y-90601441D01*
X113048110Y-90746431D01*
X113300000Y-90797440D01*
X114900000Y-90797440D01*
X115135317Y-90753162D01*
X115351441Y-90614090D01*
X115496431Y-90401890D01*
X115547440Y-90150000D01*
X115547440Y-88550000D01*
X115538032Y-88500000D01*
X115752560Y-88500000D01*
X115752560Y-90100000D01*
X115796838Y-90335317D01*
X115935910Y-90551441D01*
X116148110Y-90696431D01*
X116400000Y-90747440D01*
X118000000Y-90747440D01*
X118235317Y-90703162D01*
X118451441Y-90564090D01*
X118596431Y-90351890D01*
X118647440Y-90100000D01*
X118647440Y-88500000D01*
X118603162Y-88264683D01*
X118464090Y-88048559D01*
X118251890Y-87903569D01*
X118000000Y-87852560D01*
X116400000Y-87852560D01*
X116164683Y-87896838D01*
X115948559Y-88035910D01*
X115803569Y-88248110D01*
X115752560Y-88500000D01*
X115538032Y-88500000D01*
X115503162Y-88314683D01*
X115364090Y-88098559D01*
X115151890Y-87953569D01*
X114900000Y-87902560D01*
X113300000Y-87902560D01*
X113064683Y-87946838D01*
X112848559Y-88085910D01*
X112703569Y-88298110D01*
X112652560Y-88550000D01*
X111997440Y-88550000D01*
X111953162Y-88314683D01*
X111814090Y-88098559D01*
X111601890Y-87953569D01*
X111350000Y-87902560D01*
X109750000Y-87902560D01*
X109514683Y-87946838D01*
X109298559Y-88085910D01*
X109153569Y-88298110D01*
X109146201Y-88334494D01*
X109146201Y-86191887D01*
X119665000Y-86191887D01*
X119665000Y-86248113D01*
X119774233Y-86797264D01*
X120085302Y-87262811D01*
X120550849Y-87573880D01*
X121100000Y-87683113D01*
X121649151Y-87573880D01*
X121909380Y-87400000D01*
X123317296Y-87400000D01*
X123445559Y-88044822D01*
X123810821Y-88591475D01*
X124357474Y-88956737D01*
X125002296Y-89085000D01*
X126597704Y-89085000D01*
X127242526Y-88956737D01*
X127789179Y-88591475D01*
X128154441Y-88044822D01*
X128282704Y-87400000D01*
X128154441Y-86755178D01*
X127789179Y-86208525D01*
X127242526Y-85843263D01*
X126597704Y-85715000D01*
X125002296Y-85715000D01*
X124357474Y-85843263D01*
X123810821Y-86208525D01*
X123445559Y-86755178D01*
X123317296Y-87400000D01*
X121909380Y-87400000D01*
X122114698Y-87262811D01*
X122425767Y-86797264D01*
X122535000Y-86248113D01*
X122535000Y-86191887D01*
X122425767Y-85642736D01*
X122114698Y-85177189D01*
X121649151Y-84866120D01*
X121100000Y-84756887D01*
X120550849Y-84866120D01*
X120085302Y-85177189D01*
X119774233Y-85642736D01*
X119665000Y-86191887D01*
X109146201Y-86191887D01*
X109146201Y-79975704D01*
X109286077Y-80115824D01*
X109813309Y-80334750D01*
X110384187Y-80335248D01*
X110438149Y-80312951D01*
X111510000Y-81384802D01*
X111510000Y-82584941D01*
X111308355Y-82786235D01*
X111135197Y-83203244D01*
X111134892Y-83552560D01*
X110500000Y-83552560D01*
X110264683Y-83596838D01*
X110048559Y-83735910D01*
X109903569Y-83948110D01*
X109852560Y-84200000D01*
X109852560Y-85200000D01*
X109896838Y-85435317D01*
X110035910Y-85651441D01*
X110248110Y-85796431D01*
X110500000Y-85847440D01*
X111500000Y-85847440D01*
X111735317Y-85803162D01*
X111951441Y-85664090D01*
X112096431Y-85451890D01*
X112147440Y-85200000D01*
X112147440Y-84564894D01*
X112405117Y-84565119D01*
X112404803Y-84924775D01*
X112577233Y-85342086D01*
X112896235Y-85661645D01*
X113313244Y-85834803D01*
X113764775Y-85835197D01*
X114182086Y-85662767D01*
X114501645Y-85343765D01*
X114674803Y-84926756D01*
X114675197Y-84475225D01*
X114502767Y-84057914D01*
X114183765Y-83738355D01*
X113766756Y-83565197D01*
X113404883Y-83564881D01*
X113405197Y-83205225D01*
X113232767Y-82787914D01*
X113030000Y-82584793D01*
X113030000Y-81070000D01*
X112972148Y-80779161D01*
X112972148Y-80779160D01*
X112880915Y-80642619D01*
X123264613Y-80642619D01*
X123604155Y-81464372D01*
X124232321Y-82093636D01*
X125053481Y-82434611D01*
X125942619Y-82435387D01*
X126764372Y-82095845D01*
X127393636Y-81467679D01*
X127734611Y-80646519D01*
X127735387Y-79757381D01*
X127395845Y-78935628D01*
X126767679Y-78306364D01*
X125946519Y-77965389D01*
X125057381Y-77964613D01*
X124235628Y-78304155D01*
X123606364Y-78932321D01*
X123265389Y-79753481D01*
X123264613Y-80642619D01*
X112880915Y-80642619D01*
X112807401Y-80532599D01*
X111513256Y-79238454D01*
X111534750Y-79186691D01*
X111535000Y-78900000D01*
X116256887Y-78900000D01*
X116366120Y-79449151D01*
X116677189Y-79914698D01*
X117142736Y-80225767D01*
X117691887Y-80335000D01*
X117748113Y-80335000D01*
X118297264Y-80225767D01*
X118762811Y-79914698D01*
X119073880Y-79449151D01*
X119183113Y-78900000D01*
X119073880Y-78350849D01*
X118762811Y-77885302D01*
X118635148Y-77800000D01*
X119652560Y-77800000D01*
X119652560Y-79400000D01*
X119696838Y-79635317D01*
X119835910Y-79851441D01*
X120048110Y-79996431D01*
X120300000Y-80047440D01*
X121900000Y-80047440D01*
X122135317Y-80003162D01*
X122351441Y-79864090D01*
X122496431Y-79651890D01*
X122547440Y-79400000D01*
X122547440Y-77800000D01*
X122503162Y-77564683D01*
X122364090Y-77348559D01*
X122151890Y-77203569D01*
X121900000Y-77152560D01*
X120300000Y-77152560D01*
X120064683Y-77196838D01*
X119848559Y-77335910D01*
X119703569Y-77548110D01*
X119652560Y-77800000D01*
X118635148Y-77800000D01*
X118297264Y-77574233D01*
X117748113Y-77465000D01*
X117691887Y-77465000D01*
X117142736Y-77574233D01*
X116677189Y-77885302D01*
X116366120Y-78350849D01*
X116256887Y-78900000D01*
X111535000Y-78900000D01*
X111535248Y-78615813D01*
X111317243Y-78088200D01*
X110913923Y-77684176D01*
X110386691Y-77465250D01*
X109815813Y-77464752D01*
X109288200Y-77682757D01*
X109146201Y-77824509D01*
X109146201Y-77357201D01*
X109108020Y-77165250D01*
X109078531Y-77016996D01*
X108885819Y-76728583D01*
X107848956Y-75691720D01*
X107883113Y-75520000D01*
X107773880Y-74970849D01*
X107563763Y-74656387D01*
X107993309Y-74834750D01*
X108564187Y-74835248D01*
X109091800Y-74617243D01*
X109495824Y-74213923D01*
X109688860Y-73749039D01*
X114508096Y-73749039D01*
X114668959Y-74137423D01*
X115044866Y-74552389D01*
X115550959Y-74791914D01*
X115773000Y-74670629D01*
X115773000Y-73527000D01*
X116027000Y-73527000D01*
X116027000Y-74670629D01*
X116249041Y-74791914D01*
X116755134Y-74552389D01*
X117131041Y-74137423D01*
X117291904Y-73749039D01*
X117169915Y-73527000D01*
X116027000Y-73527000D01*
X115773000Y-73527000D01*
X114630085Y-73527000D01*
X114508096Y-73749039D01*
X109688860Y-73749039D01*
X109714750Y-73686691D01*
X109715248Y-73115813D01*
X109688452Y-73050961D01*
X114508096Y-73050961D01*
X114630085Y-73273000D01*
X115773000Y-73273000D01*
X115773000Y-72129371D01*
X116027000Y-72129371D01*
X116027000Y-73273000D01*
X117169915Y-73273000D01*
X117291904Y-73050961D01*
X117131041Y-72662577D01*
X117046310Y-72569041D01*
X119208086Y-72569041D01*
X119447611Y-73075134D01*
X119862577Y-73451041D01*
X120250961Y-73611904D01*
X120473000Y-73489915D01*
X120473000Y-72347000D01*
X120727000Y-72347000D01*
X120727000Y-73489915D01*
X120949039Y-73611904D01*
X121337423Y-73451041D01*
X121752389Y-73075134D01*
X121889349Y-72785750D01*
X123365000Y-72785750D01*
X123365000Y-73676309D01*
X123461673Y-73909698D01*
X123640301Y-74088327D01*
X123873690Y-74185000D01*
X125514250Y-74185000D01*
X125673000Y-74026250D01*
X125673000Y-72627000D01*
X125927000Y-72627000D01*
X125927000Y-74026250D01*
X126085750Y-74185000D01*
X127726310Y-74185000D01*
X127959699Y-74088327D01*
X128138327Y-73909698D01*
X128235000Y-73676309D01*
X128235000Y-72785750D01*
X128076250Y-72627000D01*
X125927000Y-72627000D01*
X125673000Y-72627000D01*
X123523750Y-72627000D01*
X123365000Y-72785750D01*
X121889349Y-72785750D01*
X121991914Y-72569041D01*
X121870629Y-72347000D01*
X120727000Y-72347000D01*
X120473000Y-72347000D01*
X119329371Y-72347000D01*
X119208086Y-72569041D01*
X117046310Y-72569041D01*
X116755134Y-72247611D01*
X116249041Y-72008086D01*
X116027000Y-72129371D01*
X115773000Y-72129371D01*
X115550959Y-72008086D01*
X115044866Y-72247611D01*
X114668959Y-72662577D01*
X114508096Y-73050961D01*
X109688452Y-73050961D01*
X109497243Y-72588200D01*
X109093923Y-72184176D01*
X108566691Y-71965250D01*
X107995813Y-71964752D01*
X107468200Y-72182757D01*
X107064176Y-72586077D01*
X106845250Y-73113309D01*
X106844752Y-73684187D01*
X107062757Y-74211800D01*
X107141284Y-74290465D01*
X106997264Y-74194233D01*
X106448113Y-74085000D01*
X106391887Y-74085000D01*
X105842736Y-74194233D01*
X105377189Y-74505302D01*
X105066120Y-74970849D01*
X104956887Y-75520000D01*
X105066120Y-76069151D01*
X105377189Y-76534698D01*
X105759275Y-76790000D01*
X105377189Y-77045302D01*
X105066120Y-77510849D01*
X104956887Y-78060000D01*
X105066120Y-78609151D01*
X105377189Y-79074698D01*
X105759275Y-79330000D01*
X105377189Y-79585302D01*
X105066120Y-80050849D01*
X104956887Y-80600000D01*
X105021312Y-80923886D01*
X101285197Y-84660001D01*
X95499999Y-84660001D01*
X95257413Y-84708255D01*
X95243849Y-84710953D01*
X96362402Y-83592400D01*
X96527149Y-83345838D01*
X96585001Y-83054999D01*
X96585001Y-78809801D01*
X97337405Y-78057398D01*
X97336887Y-78060000D01*
X97446120Y-78609151D01*
X97757189Y-79074698D01*
X98139275Y-79330000D01*
X97757189Y-79585302D01*
X97446120Y-80050849D01*
X97336887Y-80600000D01*
X97446120Y-81149151D01*
X97757189Y-81614698D01*
X98139275Y-81870000D01*
X97757189Y-82125302D01*
X97446120Y-82590849D01*
X97336887Y-83140000D01*
X97446120Y-83689151D01*
X97757189Y-84154698D01*
X98222736Y-84465767D01*
X98771887Y-84575000D01*
X98828113Y-84575000D01*
X99377264Y-84465767D01*
X99842811Y-84154698D01*
X100153880Y-83689151D01*
X100263113Y-83140000D01*
X100153880Y-82590849D01*
X99842811Y-82125302D01*
X99460725Y-81870000D01*
X99842811Y-81614698D01*
X100153880Y-81149151D01*
X100263113Y-80600000D01*
X100153880Y-80050849D01*
X99842811Y-79585302D01*
X99460725Y-79330000D01*
X99842811Y-79074698D01*
X100153880Y-78609151D01*
X100263113Y-78060000D01*
X100153880Y-77510849D01*
X99842811Y-77045302D01*
X99460725Y-76790000D01*
X99842811Y-76534698D01*
X100153880Y-76069151D01*
X100263113Y-75520000D01*
X100153880Y-74970849D01*
X99842811Y-74505302D01*
X99377264Y-74194233D01*
X98828113Y-74085000D01*
X98771887Y-74085000D01*
X98222736Y-74194233D01*
X97757189Y-74505302D01*
X97734005Y-74540000D01*
X94062463Y-74540000D01*
X94030327Y-74507808D01*
X93686799Y-74365162D01*
X93314833Y-74364838D01*
X92971057Y-74506883D01*
X92707808Y-74769673D01*
X92565162Y-75113201D01*
X92564838Y-75485167D01*
X92706883Y-75828943D01*
X92969673Y-76092192D01*
X93313201Y-76234838D01*
X93685167Y-76235162D01*
X94028943Y-76093117D01*
X94062118Y-76060000D01*
X97185197Y-76060000D01*
X95687321Y-77557877D01*
X95513923Y-77384176D01*
X94986691Y-77165250D01*
X94415813Y-77164752D01*
X93888200Y-77382757D01*
X93484176Y-77786077D01*
X93265250Y-78313309D01*
X93264752Y-78884187D01*
X93482757Y-79411800D01*
X93886077Y-79815824D01*
X94413309Y-80034750D01*
X94984187Y-80035248D01*
X95065001Y-80001856D01*
X95065001Y-82740197D01*
X89723886Y-88081312D01*
X89400000Y-88016887D01*
X88850849Y-88126120D01*
X88385302Y-88437189D01*
X88074233Y-88902736D01*
X87965000Y-89451887D01*
X83595563Y-89451887D01*
X83997378Y-89371961D01*
X84479147Y-89050054D01*
X84801054Y-88568285D01*
X84914093Y-88000000D01*
X84801054Y-87431715D01*
X84479147Y-86949946D01*
X84149974Y-86730000D01*
X84479147Y-86510054D01*
X84801054Y-86028285D01*
X84914093Y-85460000D01*
X84801054Y-84891715D01*
X84479147Y-84409946D01*
X84149974Y-84190000D01*
X84479147Y-83970054D01*
X84801054Y-83488285D01*
X84914093Y-82920000D01*
X84801054Y-82351715D01*
X84479147Y-81869946D01*
X84149974Y-81650000D01*
X84479147Y-81430054D01*
X84801054Y-80948285D01*
X84914093Y-80380000D01*
X84801054Y-79811715D01*
X84479147Y-79329946D01*
X84437548Y-79302150D01*
X84485317Y-79293162D01*
X84701441Y-79154090D01*
X84846431Y-78941890D01*
X84897440Y-78690000D01*
X84897440Y-76990000D01*
X84853162Y-76754683D01*
X84714090Y-76538559D01*
X84501890Y-76393569D01*
X84250000Y-76342560D01*
X82550000Y-76342560D01*
X82314683Y-76386838D01*
X82098559Y-76525910D01*
X81953569Y-76738110D01*
X81902560Y-76990000D01*
X81902560Y-78690000D01*
X81946838Y-78925317D01*
X82085910Y-79141441D01*
X82298110Y-79286431D01*
X82365541Y-79300086D01*
X82320853Y-79329946D01*
X81998946Y-79811715D01*
X81885907Y-80380000D01*
X81998946Y-80948285D01*
X82320853Y-81430054D01*
X82650026Y-81650000D01*
X82320853Y-81869946D01*
X81998946Y-82351715D01*
X81885907Y-82920000D01*
X81998946Y-83488285D01*
X82320853Y-83970054D01*
X82650026Y-84190000D01*
X82320853Y-84409946D01*
X81998946Y-84891715D01*
X81885907Y-85460000D01*
X81998946Y-86028285D01*
X82320853Y-86510054D01*
X82650026Y-86730000D01*
X82320853Y-86949946D01*
X81998946Y-87431715D01*
X81885907Y-88000000D01*
X81954532Y-88345001D01*
X77210510Y-88345001D01*
X77283113Y-87980000D01*
X77173880Y-87430849D01*
X76862811Y-86965302D01*
X76480725Y-86710000D01*
X76862811Y-86454698D01*
X77173880Y-85989151D01*
X77283113Y-85440000D01*
X77173880Y-84890849D01*
X76862811Y-84425302D01*
X76480725Y-84170000D01*
X76862811Y-83914698D01*
X77173880Y-83449151D01*
X77283113Y-82900000D01*
X77173880Y-82350849D01*
X76862811Y-81885302D01*
X76480725Y-81630000D01*
X76862811Y-81374698D01*
X77173880Y-80909151D01*
X77283113Y-80360000D01*
X77173880Y-79810849D01*
X76862811Y-79345302D01*
X76480725Y-79090000D01*
X76862811Y-78834698D01*
X77173880Y-78369151D01*
X77283113Y-77820000D01*
X77173880Y-77270849D01*
X76862811Y-76805302D01*
X76480725Y-76550000D01*
X76862811Y-76294698D01*
X77173880Y-75829151D01*
X77283113Y-75280000D01*
X77173880Y-74730849D01*
X76862811Y-74265302D01*
X76480725Y-74010000D01*
X76862811Y-73754698D01*
X77173880Y-73289151D01*
X77283113Y-72740000D01*
X77173880Y-72190849D01*
X76862811Y-71725302D01*
X76615420Y-71560000D01*
X81985907Y-71560000D01*
X82098946Y-72128285D01*
X82420853Y-72610054D01*
X82750026Y-72830000D01*
X82420853Y-73049946D01*
X82098946Y-73531715D01*
X81985907Y-74100000D01*
X82098946Y-74668285D01*
X82420853Y-75150054D01*
X82902622Y-75471961D01*
X83470907Y-75585000D01*
X83529093Y-75585000D01*
X84097378Y-75471961D01*
X84579147Y-75150054D01*
X84901054Y-74668285D01*
X85014093Y-74100000D01*
X84901054Y-73531715D01*
X84579147Y-73049946D01*
X84249974Y-72830000D01*
X84579147Y-72610054D01*
X84901054Y-72128285D01*
X84952239Y-71870959D01*
X119208086Y-71870959D01*
X119329371Y-72093000D01*
X120473000Y-72093000D01*
X120473000Y-70950085D01*
X120727000Y-70950085D01*
X120727000Y-72093000D01*
X121870629Y-72093000D01*
X121991914Y-71870959D01*
X121752389Y-71364866D01*
X121706936Y-71323691D01*
X123365000Y-71323691D01*
X123365000Y-72214250D01*
X123523750Y-72373000D01*
X125673000Y-72373000D01*
X125673000Y-70973750D01*
X125927000Y-70973750D01*
X125927000Y-72373000D01*
X128076250Y-72373000D01*
X128235000Y-72214250D01*
X128235000Y-71323691D01*
X128138327Y-71090302D01*
X127959699Y-70911673D01*
X127726310Y-70815000D01*
X126085750Y-70815000D01*
X125927000Y-70973750D01*
X125673000Y-70973750D01*
X125514250Y-70815000D01*
X123873690Y-70815000D01*
X123640301Y-70911673D01*
X123461673Y-71090302D01*
X123365000Y-71323691D01*
X121706936Y-71323691D01*
X121337423Y-70988959D01*
X120949039Y-70828096D01*
X120727000Y-70950085D01*
X120473000Y-70950085D01*
X120250961Y-70828096D01*
X119862577Y-70988959D01*
X119447611Y-71364866D01*
X119208086Y-71870959D01*
X84952239Y-71870959D01*
X85014093Y-71560000D01*
X84901054Y-70991715D01*
X84579147Y-70509946D01*
X84535223Y-70480597D01*
X84709698Y-70408327D01*
X84888327Y-70229699D01*
X84985000Y-69996310D01*
X84985000Y-69305750D01*
X84826250Y-69147000D01*
X83627000Y-69147000D01*
X83627000Y-69167000D01*
X83373000Y-69167000D01*
X83373000Y-69147000D01*
X82173750Y-69147000D01*
X82015000Y-69305750D01*
X82015000Y-69996310D01*
X82111673Y-70229699D01*
X82290302Y-70408327D01*
X82464777Y-70480597D01*
X82420853Y-70509946D01*
X82098946Y-70991715D01*
X81985907Y-71560000D01*
X76615420Y-71560000D01*
X76480725Y-71470000D01*
X76862811Y-71214698D01*
X77173880Y-70749151D01*
X77283113Y-70200000D01*
X77173880Y-69650849D01*
X76862811Y-69185302D01*
X76480725Y-68930000D01*
X76862811Y-68674698D01*
X77173880Y-68209151D01*
X77206792Y-68043690D01*
X82015000Y-68043690D01*
X82015000Y-68734250D01*
X82173750Y-68893000D01*
X83373000Y-68893000D01*
X83373000Y-67693750D01*
X83627000Y-67693750D01*
X83627000Y-68893000D01*
X84826250Y-68893000D01*
X84985000Y-68734250D01*
X84985000Y-68043690D01*
X84888327Y-67810301D01*
X84709698Y-67631673D01*
X84476309Y-67535000D01*
X83785750Y-67535000D01*
X83627000Y-67693750D01*
X83373000Y-67693750D01*
X83214250Y-67535000D01*
X82523691Y-67535000D01*
X82290302Y-67631673D01*
X82111673Y-67810301D01*
X82015000Y-68043690D01*
X77206792Y-68043690D01*
X77283113Y-67660000D01*
X77173880Y-67110849D01*
X76862811Y-66645302D01*
X76397264Y-66334233D01*
X75848113Y-66225000D01*
X75791887Y-66225000D01*
X75242736Y-66334233D01*
X74777189Y-66645302D01*
X74466120Y-67110849D01*
X74356887Y-67660000D01*
X74466120Y-68209151D01*
X74777189Y-68674698D01*
X75159275Y-68930000D01*
X74777189Y-69185302D01*
X74466120Y-69650849D01*
X74356887Y-70200000D01*
X74466120Y-70749151D01*
X74777189Y-71214698D01*
X75159275Y-71470000D01*
X74777189Y-71725302D01*
X74466120Y-72190849D01*
X74356887Y-72740000D01*
X74466120Y-73289151D01*
X74777189Y-73754698D01*
X75159275Y-74010000D01*
X74777189Y-74265302D01*
X74466120Y-74730849D01*
X74356887Y-75280000D01*
X74466120Y-75829151D01*
X74777189Y-76294698D01*
X75159275Y-76550000D01*
X74777189Y-76805302D01*
X74466120Y-77270849D01*
X74356887Y-77820000D01*
X74466120Y-78369151D01*
X74777189Y-78834698D01*
X75159275Y-79090000D01*
X74777189Y-79345302D01*
X74466120Y-79810849D01*
X74356887Y-80360000D01*
X74466120Y-80909151D01*
X74777189Y-81374698D01*
X75159275Y-81630000D01*
X74777189Y-81885302D01*
X74466120Y-82350849D01*
X74356887Y-82900000D01*
X74466120Y-83449151D01*
X74777189Y-83914698D01*
X75159275Y-84170000D01*
X74777189Y-84425302D01*
X74466120Y-84890849D01*
X74356887Y-85440000D01*
X74466120Y-85989151D01*
X74777189Y-86454698D01*
X75159275Y-86710000D01*
X74777189Y-86965302D01*
X74466120Y-87430849D01*
X74356887Y-87980000D01*
X74429490Y-88345001D01*
X69639803Y-88345001D01*
X69598688Y-88303886D01*
X69663113Y-87980000D01*
X69553880Y-87430849D01*
X69242811Y-86965302D01*
X68860725Y-86710000D01*
X69242811Y-86454698D01*
X69553880Y-85989151D01*
X69663113Y-85440000D01*
X69553880Y-84890849D01*
X69242811Y-84425302D01*
X68860725Y-84170000D01*
X69242811Y-83914698D01*
X69553880Y-83449151D01*
X69663113Y-82900000D01*
X69598688Y-82576114D01*
X71137401Y-81037401D01*
X71302148Y-80790839D01*
X71360000Y-80500000D01*
X71360000Y-78662463D01*
X71392192Y-78630327D01*
X71534838Y-78286799D01*
X71535162Y-77914833D01*
X71393117Y-77571057D01*
X71130327Y-77307808D01*
X70786799Y-77165162D01*
X70414833Y-77164838D01*
X70071057Y-77306883D01*
X69807808Y-77569673D01*
X69665162Y-77913201D01*
X69664838Y-78285167D01*
X69806883Y-78628943D01*
X69840000Y-78662118D01*
X69840000Y-80185198D01*
X69662595Y-80362603D01*
X69663113Y-80360000D01*
X69553880Y-79810849D01*
X69242811Y-79345302D01*
X68838297Y-79075014D01*
X69055134Y-78972389D01*
X69431041Y-78557423D01*
X69591904Y-78169039D01*
X69469915Y-77947000D01*
X68327000Y-77947000D01*
X68327000Y-77967000D01*
X68073000Y-77967000D01*
X68073000Y-77947000D01*
X66930085Y-77947000D01*
X66808096Y-78169039D01*
X66968959Y-78557423D01*
X67344866Y-78972389D01*
X67561703Y-79075014D01*
X67157189Y-79345302D01*
X66846120Y-79810849D01*
X66736887Y-80360000D01*
X48734686Y-80360000D01*
X48735387Y-79557381D01*
X48395845Y-78735628D01*
X47767679Y-78106364D01*
X46946519Y-77765389D01*
X46057381Y-77764613D01*
X45235628Y-78104155D01*
X44606364Y-78732321D01*
X44265389Y-79553481D01*
X44264613Y-80442619D01*
X40710000Y-80442619D01*
X40710000Y-71180000D01*
X43752560Y-71180000D01*
X43752560Y-72980000D01*
X43796838Y-73215317D01*
X43935910Y-73431441D01*
X44148110Y-73576431D01*
X44400000Y-73627440D01*
X46200000Y-73627440D01*
X46435317Y-73583162D01*
X46651441Y-73444090D01*
X46796431Y-73231890D01*
X46847440Y-72980000D01*
X46847440Y-72852532D01*
X59799217Y-72852532D01*
X59897880Y-73119387D01*
X60507605Y-73345908D01*
X61157604Y-73321856D01*
X61646408Y-73119387D01*
X61745071Y-72852532D01*
X60772144Y-71879605D01*
X59799217Y-72852532D01*
X46847440Y-72852532D01*
X46847440Y-71435461D01*
X59126236Y-71435461D01*
X59150288Y-72085460D01*
X59352757Y-72574264D01*
X59619612Y-72672927D01*
X60592539Y-71700000D01*
X60951749Y-71700000D01*
X61924676Y-72672927D01*
X62191531Y-72574264D01*
X62418052Y-71964539D01*
X62394000Y-71314540D01*
X62191531Y-70825736D01*
X61924676Y-70727073D01*
X60951749Y-71700000D01*
X60592539Y-71700000D01*
X60578397Y-71685858D01*
X60758002Y-71506253D01*
X60772144Y-71520395D01*
X61745071Y-70547468D01*
X61646408Y-70280613D01*
X61630656Y-70274761D01*
X61658430Y-70200000D01*
X66736887Y-70200000D01*
X66846120Y-70749151D01*
X67157189Y-71214698D01*
X67539275Y-71470000D01*
X67157189Y-71725302D01*
X66846120Y-72190849D01*
X66736887Y-72740000D01*
X66846120Y-73289151D01*
X67157189Y-73754698D01*
X67539275Y-74010000D01*
X67157189Y-74265302D01*
X66846120Y-74730849D01*
X66736887Y-75280000D01*
X66846120Y-75829151D01*
X67157189Y-76294698D01*
X67561703Y-76564986D01*
X67344866Y-76667611D01*
X66968959Y-77082577D01*
X66808096Y-77470961D01*
X66930085Y-77693000D01*
X68073000Y-77693000D01*
X68073000Y-77673000D01*
X68327000Y-77673000D01*
X68327000Y-77693000D01*
X69469915Y-77693000D01*
X69591904Y-77470961D01*
X69431041Y-77082577D01*
X69055134Y-76667611D01*
X68838297Y-76564986D01*
X69242811Y-76294698D01*
X69553880Y-75829151D01*
X69663113Y-75280000D01*
X69553880Y-74730849D01*
X69242811Y-74265302D01*
X68860725Y-74010000D01*
X69242811Y-73754698D01*
X69553880Y-73289151D01*
X69663113Y-72740000D01*
X69553880Y-72190849D01*
X69242811Y-71725302D01*
X68860725Y-71470000D01*
X69242811Y-71214698D01*
X69553880Y-70749151D01*
X69663113Y-70200000D01*
X69553880Y-69650849D01*
X69242811Y-69185302D01*
X69098535Y-69088899D01*
X69235317Y-69063162D01*
X69451441Y-68924090D01*
X69596431Y-68711890D01*
X69647440Y-68460000D01*
X69647440Y-66860000D01*
X69603162Y-66624683D01*
X69464090Y-66408559D01*
X69251890Y-66263569D01*
X69000000Y-66212560D01*
X67400000Y-66212560D01*
X67164683Y-66256838D01*
X66948559Y-66395910D01*
X66803569Y-66608110D01*
X66752560Y-66860000D01*
X66752560Y-68460000D01*
X66796838Y-68695317D01*
X66935910Y-68911441D01*
X67148110Y-69056431D01*
X67303089Y-69087815D01*
X67157189Y-69185302D01*
X66846120Y-69650849D01*
X66736887Y-70200000D01*
X61658430Y-70200000D01*
X61745908Y-69964539D01*
X61721856Y-69314540D01*
X61519387Y-68825736D01*
X61252532Y-68727073D01*
X60279605Y-69700000D01*
X60293748Y-69714143D01*
X60114143Y-69893748D01*
X60100000Y-69879605D01*
X59127073Y-70852532D01*
X59225736Y-71119387D01*
X59241488Y-71125239D01*
X59126236Y-71435461D01*
X46847440Y-71435461D01*
X46847440Y-71180000D01*
X46803162Y-70944683D01*
X46664090Y-70728559D01*
X46451890Y-70583569D01*
X46400854Y-70573234D01*
X46537966Y-70447576D01*
X46791046Y-69904742D01*
X46670997Y-69667000D01*
X45427000Y-69667000D01*
X45427000Y-69687000D01*
X45173000Y-69687000D01*
X45173000Y-69667000D01*
X43929003Y-69667000D01*
X43808954Y-69904742D01*
X44062034Y-70447576D01*
X44196538Y-70570844D01*
X44164683Y-70576838D01*
X43948559Y-70715910D01*
X43803569Y-70928110D01*
X43752560Y-71180000D01*
X40710000Y-71180000D01*
X40710000Y-66969928D01*
X43765000Y-66969928D01*
X43765000Y-67030072D01*
X43881845Y-67617491D01*
X44214591Y-68115481D01*
X44452582Y-68274501D01*
X44062034Y-68632424D01*
X43808954Y-69175258D01*
X43929003Y-69413000D01*
X45173000Y-69413000D01*
X45173000Y-69393000D01*
X45427000Y-69393000D01*
X45427000Y-69413000D01*
X46670997Y-69413000D01*
X46791046Y-69175258D01*
X46537966Y-68632424D01*
X46147418Y-68274501D01*
X46385409Y-68115481D01*
X46718155Y-67617491D01*
X46835000Y-67030072D01*
X46835000Y-66969928D01*
X46781308Y-66700000D01*
X52780416Y-66700000D01*
X52780416Y-68700000D01*
X52824694Y-68935317D01*
X52963766Y-69151441D01*
X53175966Y-69296431D01*
X53427856Y-69347440D01*
X53452560Y-69347440D01*
X53452560Y-70700000D01*
X53496838Y-70935317D01*
X53635910Y-71151441D01*
X53848110Y-71296431D01*
X54100000Y-71347440D01*
X56100000Y-71347440D01*
X56335317Y-71303162D01*
X56551441Y-71164090D01*
X56696431Y-70951890D01*
X56747440Y-70700000D01*
X56747440Y-69435461D01*
X58454092Y-69435461D01*
X58478144Y-70085460D01*
X58680613Y-70574264D01*
X58947468Y-70672927D01*
X59920395Y-69700000D01*
X58947468Y-68727073D01*
X58680613Y-68825736D01*
X58454092Y-69435461D01*
X56747440Y-69435461D01*
X56747440Y-68700000D01*
X56718740Y-68547468D01*
X59127073Y-68547468D01*
X60100000Y-69520395D01*
X61072927Y-68547468D01*
X60974264Y-68280613D01*
X60364539Y-68054092D01*
X59714540Y-68078144D01*
X59225736Y-68280613D01*
X59127073Y-68547468D01*
X56718740Y-68547468D01*
X56703162Y-68464683D01*
X56564090Y-68248559D01*
X56351890Y-68103569D01*
X56100000Y-68052560D01*
X56075296Y-68052560D01*
X56075296Y-66700000D01*
X56031018Y-66464683D01*
X55891946Y-66248559D01*
X55679746Y-66103569D01*
X55427856Y-66052560D01*
X53427856Y-66052560D01*
X53192539Y-66096838D01*
X52976415Y-66235910D01*
X52831425Y-66448110D01*
X52780416Y-66700000D01*
X46781308Y-66700000D01*
X46718155Y-66382509D01*
X46452660Y-65985167D01*
X89864838Y-65985167D01*
X90006883Y-66328943D01*
X90269673Y-66592192D01*
X90613201Y-66734838D01*
X90660077Y-66734879D01*
X94162599Y-70237401D01*
X94409161Y-70402148D01*
X94700000Y-70460000D01*
X107141354Y-70460000D01*
X107162757Y-70511800D01*
X107566077Y-70915824D01*
X108093309Y-71134750D01*
X108664187Y-71135248D01*
X109191800Y-70917243D01*
X109595824Y-70513923D01*
X109814750Y-69986691D01*
X109815000Y-69700000D01*
X114536887Y-69700000D01*
X114646120Y-70249151D01*
X114957189Y-70714698D01*
X115422736Y-71025767D01*
X115971887Y-71135000D01*
X116028113Y-71135000D01*
X116577264Y-71025767D01*
X117042811Y-70714698D01*
X117353880Y-70249151D01*
X117463113Y-69700000D01*
X117353880Y-69150849D01*
X117042811Y-68685302D01*
X116577264Y-68374233D01*
X116028113Y-68265000D01*
X115971887Y-68265000D01*
X115422736Y-68374233D01*
X114957189Y-68685302D01*
X114646120Y-69150849D01*
X114536887Y-69700000D01*
X109815000Y-69700000D01*
X109815248Y-69415813D01*
X109597243Y-68888200D01*
X109193923Y-68484176D01*
X108666691Y-68265250D01*
X108095813Y-68264752D01*
X107568200Y-68482757D01*
X107164176Y-68886077D01*
X107141785Y-68940000D01*
X95014802Y-68940000D01*
X92658989Y-66584187D01*
X103764752Y-66584187D01*
X103982757Y-67111800D01*
X104386077Y-67515824D01*
X104913309Y-67734750D01*
X105484187Y-67735248D01*
X106011800Y-67517243D01*
X106415824Y-67113923D01*
X106634750Y-66586691D01*
X106635000Y-66300000D01*
X111356887Y-66300000D01*
X111466120Y-66849151D01*
X111777189Y-67314698D01*
X112242736Y-67625767D01*
X112791887Y-67735000D01*
X112848113Y-67735000D01*
X113397264Y-67625767D01*
X113585487Y-67500000D01*
X123317296Y-67500000D01*
X123445559Y-68144822D01*
X123810821Y-68691475D01*
X124357474Y-69056737D01*
X125002296Y-69185000D01*
X126597704Y-69185000D01*
X127242526Y-69056737D01*
X127789179Y-68691475D01*
X128154441Y-68144822D01*
X128282704Y-67500000D01*
X128154441Y-66855178D01*
X127789179Y-66308525D01*
X127242526Y-65943263D01*
X126597704Y-65815000D01*
X125002296Y-65815000D01*
X124357474Y-65943263D01*
X123810821Y-66308525D01*
X123445559Y-66855178D01*
X123317296Y-67500000D01*
X113585487Y-67500000D01*
X113862811Y-67314698D01*
X114173880Y-66849151D01*
X114283113Y-66300000D01*
X114173880Y-65750849D01*
X113862811Y-65285302D01*
X113397264Y-64974233D01*
X112944573Y-64884187D01*
X119164752Y-64884187D01*
X119382757Y-65411800D01*
X119786077Y-65815824D01*
X120313309Y-66034750D01*
X120884187Y-66035248D01*
X121411800Y-65817243D01*
X121815824Y-65413923D01*
X122034750Y-64886691D01*
X122035248Y-64315813D01*
X121817243Y-63788200D01*
X121413923Y-63384176D01*
X120886691Y-63165250D01*
X120315813Y-63164752D01*
X119788200Y-63382757D01*
X119384176Y-63786077D01*
X119165250Y-64313309D01*
X119164752Y-64884187D01*
X112944573Y-64884187D01*
X112848113Y-64865000D01*
X112791887Y-64865000D01*
X112242736Y-64974233D01*
X111777189Y-65285302D01*
X111466120Y-65750849D01*
X111356887Y-66300000D01*
X106635000Y-66300000D01*
X106635248Y-66015813D01*
X106417243Y-65488200D01*
X106013923Y-65084176D01*
X105486691Y-64865250D01*
X104915813Y-64864752D01*
X104388200Y-65082757D01*
X103984176Y-65486077D01*
X103765250Y-66013309D01*
X103764752Y-66584187D01*
X92658989Y-66584187D01*
X91735122Y-65660320D01*
X91735162Y-65614833D01*
X91593117Y-65271057D01*
X91330327Y-65007808D01*
X90986799Y-64865162D01*
X90614833Y-64864838D01*
X90271057Y-65006883D01*
X90007808Y-65269673D01*
X89865162Y-65613201D01*
X89864838Y-65985167D01*
X46452660Y-65985167D01*
X46385409Y-65884519D01*
X45887419Y-65551773D01*
X45300000Y-65434928D01*
X44712581Y-65551773D01*
X44214591Y-65884519D01*
X43881845Y-66382509D01*
X43765000Y-66969928D01*
X40710000Y-66969928D01*
X40710000Y-65069931D01*
X40897167Y-64128977D01*
X41328002Y-63484187D01*
X103764752Y-63484187D01*
X103982757Y-64011800D01*
X104386077Y-64415824D01*
X104913309Y-64634750D01*
X105484187Y-64635248D01*
X106011800Y-64417243D01*
X106415824Y-64013923D01*
X106634750Y-63486691D01*
X106635000Y-63200000D01*
X111356887Y-63200000D01*
X111466120Y-63749151D01*
X111777189Y-64214698D01*
X112242736Y-64525767D01*
X112791887Y-64635000D01*
X112848113Y-64635000D01*
X113397264Y-64525767D01*
X113862811Y-64214698D01*
X114173880Y-63749151D01*
X114283113Y-63200000D01*
X114173880Y-62650849D01*
X113862811Y-62185302D01*
X113397264Y-61874233D01*
X112848113Y-61765000D01*
X112791887Y-61765000D01*
X112242736Y-61874233D01*
X111777189Y-62185302D01*
X111466120Y-62650849D01*
X111356887Y-63200000D01*
X106635000Y-63200000D01*
X106635248Y-62915813D01*
X106417243Y-62388200D01*
X106013923Y-61984176D01*
X105486691Y-61765250D01*
X104915813Y-61764752D01*
X104388200Y-61982757D01*
X103984176Y-62386077D01*
X103765250Y-62913309D01*
X103764752Y-63484187D01*
X41328002Y-63484187D01*
X41390561Y-63390561D01*
X42128977Y-62897167D01*
X43138514Y-62696358D01*
X46582665Y-62011274D01*
X46838606Y-61905259D01*
X49758416Y-59954304D01*
X49954304Y-59758416D01*
X50833491Y-58442619D01*
X62264613Y-58442619D01*
X62604155Y-59264372D01*
X63232321Y-59893636D01*
X64053481Y-60234611D01*
X64942619Y-60235387D01*
X65342885Y-60070000D01*
X97982560Y-60070000D01*
X97982560Y-61070000D01*
X98026838Y-61305317D01*
X98165910Y-61521441D01*
X98378110Y-61666431D01*
X98630000Y-61717440D01*
X99630000Y-61717440D01*
X99865317Y-61673162D01*
X100081441Y-61534090D01*
X100226431Y-61321890D01*
X100277440Y-61070000D01*
X100277440Y-60434894D01*
X100535117Y-60435119D01*
X100534803Y-60794775D01*
X100707233Y-61212086D01*
X101026235Y-61531645D01*
X101443244Y-61704803D01*
X101894775Y-61705197D01*
X102312086Y-61532767D01*
X102631645Y-61213765D01*
X102804803Y-60796756D01*
X102805197Y-60345225D01*
X102632767Y-59927914D01*
X102313765Y-59608355D01*
X101896756Y-59435197D01*
X101534883Y-59434881D01*
X101535197Y-59075225D01*
X101362767Y-58657914D01*
X101147848Y-58442619D01*
X105264613Y-58442619D01*
X105604155Y-59264372D01*
X106232321Y-59893636D01*
X107053481Y-60234611D01*
X107942619Y-60235387D01*
X108764372Y-59895845D01*
X109393636Y-59267679D01*
X109734611Y-58446519D01*
X109735387Y-57557381D01*
X109395845Y-56735628D01*
X108767679Y-56106364D01*
X107946519Y-55765389D01*
X107057381Y-55764613D01*
X106235628Y-56104155D01*
X105606364Y-56732321D01*
X105265389Y-57553481D01*
X105264613Y-58442619D01*
X101147848Y-58442619D01*
X101043765Y-58338355D01*
X100626756Y-58165197D01*
X100175225Y-58164803D01*
X99757914Y-58337233D01*
X99438355Y-58656235D01*
X99265197Y-59073244D01*
X99264892Y-59422560D01*
X98630000Y-59422560D01*
X98394683Y-59466838D01*
X98178559Y-59605910D01*
X98033569Y-59818110D01*
X97982560Y-60070000D01*
X65342885Y-60070000D01*
X65764372Y-59895845D01*
X66393636Y-59267679D01*
X66734611Y-58446519D01*
X66735387Y-57557381D01*
X66395845Y-56735628D01*
X65767679Y-56106364D01*
X64946519Y-55765389D01*
X64057381Y-55764613D01*
X63235628Y-56104155D01*
X62606364Y-56732321D01*
X62265389Y-57553481D01*
X62264613Y-58442619D01*
X50833491Y-58442619D01*
X51905259Y-56838606D01*
X51949284Y-56732321D01*
X52011274Y-56582665D01*
X52369013Y-54784187D01*
X85164752Y-54784187D01*
X85382757Y-55311800D01*
X85786077Y-55715824D01*
X86313309Y-55934750D01*
X86884187Y-55935248D01*
X87411800Y-55717243D01*
X87815824Y-55313923D01*
X88034750Y-54786691D01*
X88035000Y-54500000D01*
X92756887Y-54500000D01*
X92866120Y-55049151D01*
X93177189Y-55514698D01*
X93642736Y-55825767D01*
X94191887Y-55935000D01*
X94248113Y-55935000D01*
X94541367Y-55876668D01*
X94729159Y-56002147D01*
X94777413Y-56011745D01*
X95019999Y-56059999D01*
X99792895Y-56059999D01*
X100083734Y-56002147D01*
X100330296Y-55837400D01*
X100991435Y-55176261D01*
X101373244Y-55334803D01*
X101824775Y-55335197D01*
X102242086Y-55162767D01*
X102561645Y-54843765D01*
X102734803Y-54426756D01*
X102735197Y-53975225D01*
X102562767Y-53557914D01*
X102243765Y-53238355D01*
X101838323Y-53070000D01*
X113782560Y-53070000D01*
X113782560Y-54070000D01*
X113826838Y-54305317D01*
X113965910Y-54521441D01*
X114178110Y-54666431D01*
X114430000Y-54717440D01*
X115430000Y-54717440D01*
X115440000Y-54715558D01*
X115440000Y-57164196D01*
X114592599Y-58011597D01*
X114427852Y-58258159D01*
X114370000Y-58548998D01*
X114370000Y-58682721D01*
X114178559Y-58805910D01*
X114033569Y-59018110D01*
X113982560Y-59270000D01*
X113982560Y-60270000D01*
X114026838Y-60505317D01*
X114165910Y-60721441D01*
X114378110Y-60866431D01*
X114630000Y-60917440D01*
X115630000Y-60917440D01*
X115865317Y-60873162D01*
X116081441Y-60734090D01*
X116226431Y-60521890D01*
X116277440Y-60270000D01*
X116277440Y-59634894D01*
X116535117Y-59635119D01*
X116534803Y-59994775D01*
X116707233Y-60412086D01*
X117026235Y-60731645D01*
X117443244Y-60904803D01*
X117894775Y-60905197D01*
X118312086Y-60732767D01*
X118631645Y-60413765D01*
X118804803Y-59996756D01*
X118805197Y-59545225D01*
X118632767Y-59127914D01*
X118313765Y-58808355D01*
X117896756Y-58635197D01*
X117534883Y-58634881D01*
X117535197Y-58275225D01*
X117362767Y-57857914D01*
X117043765Y-57538355D01*
X116955485Y-57501698D01*
X116960000Y-57478998D01*
X116960000Y-54587189D01*
X117243244Y-54704803D01*
X117694775Y-54705197D01*
X118112086Y-54532767D01*
X118431645Y-54213765D01*
X118604803Y-53796756D01*
X118605197Y-53345225D01*
X118432767Y-52927914D01*
X118113765Y-52608355D01*
X117696756Y-52435197D01*
X117334883Y-52434881D01*
X117335197Y-52075225D01*
X117162767Y-51657914D01*
X116843765Y-51338355D01*
X116426756Y-51165197D01*
X115975225Y-51164803D01*
X115557914Y-51337233D01*
X115238355Y-51656235D01*
X115065197Y-52073244D01*
X115064892Y-52422560D01*
X114430000Y-52422560D01*
X114194683Y-52466838D01*
X113978559Y-52605910D01*
X113833569Y-52818110D01*
X113782560Y-53070000D01*
X101838323Y-53070000D01*
X101826756Y-53065197D01*
X101464883Y-53064881D01*
X101465197Y-52705225D01*
X101292767Y-52287914D01*
X100973765Y-51968355D01*
X100556756Y-51795197D01*
X100105225Y-51794803D01*
X99687914Y-51967233D01*
X99368355Y-52286235D01*
X99195197Y-52703244D01*
X99194892Y-53052560D01*
X98560000Y-53052560D01*
X98324683Y-53096838D01*
X98108559Y-53235910D01*
X97963569Y-53448110D01*
X97912560Y-53700000D01*
X97912560Y-54539999D01*
X95675157Y-54539999D01*
X95683113Y-54500000D01*
X95573880Y-53950849D01*
X95262811Y-53485302D01*
X94797264Y-53174233D01*
X94248113Y-53065000D01*
X94191887Y-53065000D01*
X93642736Y-53174233D01*
X93177189Y-53485302D01*
X92866120Y-53950849D01*
X92756887Y-54500000D01*
X88035000Y-54500000D01*
X88035248Y-54215813D01*
X87817243Y-53688200D01*
X87413923Y-53284176D01*
X86886691Y-53065250D01*
X86315813Y-53064752D01*
X85788200Y-53282757D01*
X85384176Y-53686077D01*
X85165250Y-54213309D01*
X85164752Y-54784187D01*
X52369013Y-54784187D01*
X52696358Y-53138514D01*
X52897167Y-52128977D01*
X53390561Y-51390561D01*
X54128977Y-50897167D01*
X55069931Y-50710000D01*
X116930069Y-50710000D01*
X117871023Y-50897167D01*
X117871023Y-50897167D01*
G37*
X117871023Y-50897167D02*
X118609439Y-51390561D01*
X119102833Y-52128977D01*
X119303642Y-53138514D01*
X119988726Y-56582665D01*
X120050716Y-56732321D01*
X120094741Y-56838606D01*
X122045696Y-59758416D01*
X122241584Y-59954304D01*
X125161394Y-61905259D01*
X125417335Y-62011274D01*
X128861486Y-62696358D01*
X129871023Y-62897167D01*
X130609439Y-63390561D01*
X131102833Y-64128977D01*
X131290000Y-65069931D01*
X131290000Y-94930069D01*
X131102833Y-95871023D01*
X130609439Y-96609439D01*
X129871023Y-97102833D01*
X128861486Y-97303642D01*
X125417335Y-97988726D01*
X125161394Y-98094741D01*
X122241584Y-100045696D01*
X122045696Y-100241584D01*
X120094741Y-103161394D01*
X119988726Y-103417335D01*
X119303642Y-106861485D01*
X119303642Y-106861486D01*
X119102833Y-107871023D01*
X118609439Y-108609439D01*
X117871023Y-109102833D01*
X116930069Y-109290000D01*
X98941879Y-109290000D01*
X99183404Y-109128618D01*
X101049419Y-107262603D01*
X101084769Y-107209698D01*
X101242130Y-106974191D01*
X101309801Y-106633985D01*
X101309801Y-104780801D01*
X101242130Y-104440595D01*
X101049419Y-104152183D01*
X100611040Y-103713804D01*
X100611040Y-102596400D01*
X100582105Y-102442619D01*
X105264613Y-102442619D01*
X105604155Y-103264372D01*
X106232321Y-103893636D01*
X107053481Y-104234611D01*
X107942619Y-104235387D01*
X108764372Y-103895845D01*
X109393636Y-103267679D01*
X109734611Y-102446519D01*
X109735387Y-101557381D01*
X109395845Y-100735628D01*
X108767679Y-100106364D01*
X107946519Y-99765389D01*
X107057381Y-99764613D01*
X106235628Y-100104155D01*
X105606364Y-100732321D01*
X105265389Y-101553481D01*
X105264613Y-102442619D01*
X100582105Y-102442619D01*
X100566762Y-102361083D01*
X100427690Y-102144959D01*
X100215490Y-101999969D01*
X99963600Y-101948960D01*
X98236400Y-101948960D01*
X98001083Y-101993238D01*
X97784959Y-102132310D01*
X97639969Y-102344510D01*
X97631136Y-102388131D01*
X97619670Y-102370971D01*
X97133489Y-102046115D01*
X96560000Y-101932041D01*
X95986511Y-102046115D01*
X95500330Y-102370971D01*
X95290000Y-102685752D01*
X95079670Y-102370971D01*
X94593489Y-102046115D01*
X94020000Y-101932041D01*
X93446511Y-102046115D01*
X92960330Y-102370971D01*
X92750000Y-102685752D01*
X92539670Y-102370971D01*
X92053489Y-102046115D01*
X91480000Y-101932041D01*
X90906511Y-102046115D01*
X90420330Y-102370971D01*
X90095474Y-102857152D01*
X89981400Y-103430641D01*
X89981400Y-103489359D01*
X90095474Y-104062848D01*
X90420330Y-104549029D01*
X90691172Y-104730000D01*
X90420330Y-104910971D01*
X90095474Y-105397152D01*
X89981400Y-105970641D01*
X89981400Y-106029359D01*
X90095474Y-106602848D01*
X90420330Y-107089029D01*
X90906511Y-107413885D01*
X91480000Y-107527959D01*
X92053489Y-107413885D01*
X92539670Y-107089029D01*
X92750000Y-106774248D01*
X92960330Y-107089029D01*
X93446511Y-107413885D01*
X94020000Y-107527959D01*
X94593489Y-107413885D01*
X95079670Y-107089029D01*
X95295664Y-106765772D01*
X95353179Y-106888490D01*
X95785053Y-107282688D01*
X96200974Y-107454958D01*
X96433000Y-107333817D01*
X96433000Y-106127000D01*
X96413000Y-106127000D01*
X96413000Y-105873000D01*
X96433000Y-105873000D01*
X96433000Y-105853000D01*
X96687000Y-105853000D01*
X96687000Y-105873000D01*
X96707000Y-105873000D01*
X96707000Y-106127000D01*
X96687000Y-106127000D01*
X96687000Y-107333817D01*
X96919026Y-107454958D01*
X97334947Y-107282688D01*
X97766821Y-106888490D01*
X97824336Y-106765772D01*
X98040330Y-107089029D01*
X98440881Y-107356669D01*
X98186550Y-107611000D01*
X83128236Y-107611000D01*
X82992949Y-107475713D01*
X83368285Y-107401054D01*
X83850054Y-107079147D01*
X83879403Y-107035223D01*
X83951673Y-107209698D01*
X84130301Y-107388327D01*
X84363690Y-107485000D01*
X85054250Y-107485000D01*
X85213000Y-107326250D01*
X85213000Y-106127000D01*
X85467000Y-106127000D01*
X85467000Y-107326250D01*
X85625750Y-107485000D01*
X86316310Y-107485000D01*
X86549699Y-107388327D01*
X86728327Y-107209698D01*
X86825000Y-106976309D01*
X86825000Y-106285750D01*
X86666250Y-106127000D01*
X85467000Y-106127000D01*
X85213000Y-106127000D01*
X85193000Y-106127000D01*
X85193000Y-105873000D01*
X85213000Y-105873000D01*
X85213000Y-104673750D01*
X85467000Y-104673750D01*
X85467000Y-105873000D01*
X86666250Y-105873000D01*
X86825000Y-105714250D01*
X86825000Y-105023691D01*
X86728327Y-104790302D01*
X86549699Y-104611673D01*
X86316310Y-104515000D01*
X85625750Y-104515000D01*
X85467000Y-104673750D01*
X85213000Y-104673750D01*
X85054250Y-104515000D01*
X84363690Y-104515000D01*
X84130301Y-104611673D01*
X83951673Y-104790302D01*
X83879403Y-104964777D01*
X83850054Y-104920853D01*
X83368285Y-104598946D01*
X82800000Y-104485907D01*
X82231715Y-104598946D01*
X81749946Y-104920853D01*
X81530000Y-105250026D01*
X81310054Y-104920853D01*
X80828285Y-104598946D01*
X80260000Y-104485907D01*
X79691715Y-104598946D01*
X79209946Y-104920853D01*
X78990000Y-105250026D01*
X78770054Y-104920853D01*
X78288285Y-104598946D01*
X77720000Y-104485907D01*
X77170092Y-104595290D01*
X76135122Y-103560320D01*
X76135162Y-103514833D01*
X75993117Y-103171057D01*
X75730327Y-102907808D01*
X75386799Y-102765162D01*
X75014833Y-102764838D01*
X74671057Y-102906883D01*
X74407808Y-103169673D01*
X74265162Y-103513201D01*
X74264838Y-103885167D01*
X74406883Y-104228943D01*
X74669673Y-104492192D01*
X74824725Y-104556576D01*
X74611715Y-104598946D01*
X74129946Y-104920853D01*
X73910000Y-105250026D01*
X73690054Y-104920853D01*
X73208285Y-104598946D01*
X72640000Y-104485907D01*
X72071715Y-104598946D01*
X71589946Y-104920853D01*
X71268039Y-105402622D01*
X71155000Y-105970907D01*
X71155000Y-106029093D01*
X71268039Y-106597378D01*
X71589946Y-107079147D01*
X72071715Y-107401054D01*
X72640000Y-107514093D01*
X73208285Y-107401054D01*
X73690054Y-107079147D01*
X73910000Y-106749974D01*
X74129946Y-107079147D01*
X74611715Y-107401054D01*
X75180000Y-107514093D01*
X75748285Y-107401054D01*
X76230054Y-107079147D01*
X76450000Y-106749974D01*
X76669946Y-107079147D01*
X77151715Y-107401054D01*
X77720000Y-107514093D01*
X78288285Y-107401054D01*
X78770054Y-107079147D01*
X78990000Y-106749974D01*
X79209946Y-107079147D01*
X79691715Y-107401054D01*
X80260000Y-107514093D01*
X80474242Y-107471478D01*
X82131382Y-109128618D01*
X82372907Y-109290000D01*
X55069931Y-109290000D01*
X54128977Y-109102833D01*
X53390561Y-108609439D01*
X52897167Y-107871023D01*
X52696358Y-106861486D01*
X52696358Y-106861485D01*
X52011274Y-103417335D01*
X51905259Y-103161394D01*
X51424989Y-102442619D01*
X62264613Y-102442619D01*
X62604155Y-103264372D01*
X63232321Y-103893636D01*
X64053481Y-104234611D01*
X64942619Y-104235387D01*
X65764372Y-103895845D01*
X66393636Y-103267679D01*
X66734611Y-102446519D01*
X66735387Y-101557381D01*
X66395845Y-100735628D01*
X65767679Y-100106364D01*
X65177949Y-99861487D01*
X87303642Y-99861487D01*
X87303642Y-100138513D01*
X87379762Y-100521196D01*
X87399395Y-100568593D01*
X87485776Y-100777138D01*
X87702549Y-101101561D01*
X87702550Y-101101562D01*
X87898438Y-101297451D01*
X88222862Y-101514223D01*
X88327055Y-101557381D01*
X88478804Y-101620238D01*
X88861486Y-101696358D01*
X88931416Y-101696358D01*
X89000000Y-101710000D01*
X101000000Y-101710000D01*
X101068584Y-101696358D01*
X101138513Y-101696358D01*
X101521196Y-101620238D01*
X101596160Y-101589187D01*
X101777138Y-101514224D01*
X102101561Y-101297451D01*
X102172630Y-101226382D01*
X102297451Y-101101562D01*
X102514223Y-100777138D01*
X102558136Y-100671123D01*
X102620238Y-100521196D01*
X102696358Y-100138514D01*
X102696358Y-99861486D01*
X102620238Y-99478804D01*
X102558136Y-99328877D01*
X102514223Y-99222862D01*
X102297451Y-98898438D01*
X102101562Y-98702550D01*
X102101561Y-98702549D01*
X101777138Y-98485776D01*
X101593368Y-98409657D01*
X101521196Y-98379762D01*
X101138513Y-98303642D01*
X101068584Y-98303642D01*
X101000000Y-98290000D01*
X100535714Y-98290000D01*
X100711800Y-98217243D01*
X101115824Y-97813923D01*
X101334750Y-97286691D01*
X101335050Y-96941887D01*
X102015000Y-96941887D01*
X102015000Y-96998113D01*
X102124233Y-97547264D01*
X102435302Y-98012811D01*
X102900849Y-98323880D01*
X103450000Y-98433113D01*
X103999151Y-98323880D01*
X104464698Y-98012811D01*
X104775767Y-97547264D01*
X104885000Y-96998113D01*
X104885000Y-96941887D01*
X104775767Y-96392736D01*
X104464698Y-95927189D01*
X103999151Y-95616120D01*
X103450000Y-95506887D01*
X102900849Y-95616120D01*
X102435302Y-95927189D01*
X102124233Y-96392736D01*
X102015000Y-96941887D01*
X101335050Y-96941887D01*
X101335248Y-96715813D01*
X101117243Y-96188200D01*
X100713923Y-95784176D01*
X100186691Y-95565250D01*
X99615813Y-95564752D01*
X99088200Y-95782757D01*
X98684176Y-96186077D01*
X98465250Y-96713309D01*
X98464752Y-97284187D01*
X98682757Y-97811800D01*
X99086077Y-98215824D01*
X99264713Y-98290000D01*
X96949856Y-98290000D01*
X97364698Y-98012811D01*
X97675767Y-97547264D01*
X97785000Y-96998113D01*
X97785000Y-96941887D01*
X97675767Y-96392736D01*
X97364698Y-95927189D01*
X96899151Y-95616120D01*
X96350000Y-95506887D01*
X95800849Y-95616120D01*
X95335302Y-95927189D01*
X95024233Y-96392736D01*
X94915000Y-96941887D01*
X94915000Y-96998113D01*
X95024233Y-97547264D01*
X95335302Y-98012811D01*
X95750144Y-98290000D01*
X93399856Y-98290000D01*
X93814698Y-98012811D01*
X94125767Y-97547264D01*
X94235000Y-96998113D01*
X94235000Y-96941887D01*
X94125767Y-96392736D01*
X93814698Y-95927189D01*
X93349151Y-95616120D01*
X92800000Y-95506887D01*
X92250849Y-95616120D01*
X91785302Y-95927189D01*
X91474233Y-96392736D01*
X91365000Y-96941887D01*
X91365000Y-96998113D01*
X91474233Y-97547264D01*
X91785302Y-98012811D01*
X92200144Y-98290000D01*
X90173242Y-98290000D01*
X90228139Y-98107745D01*
X89400000Y-97279605D01*
X88571861Y-98107745D01*
X88643904Y-98346922D01*
X88478804Y-98379762D01*
X88406632Y-98409657D01*
X88222862Y-98485777D01*
X87898438Y-98702549D01*
X87777390Y-98823598D01*
X87702549Y-98898439D01*
X87485776Y-99222862D01*
X87420091Y-99381441D01*
X87379762Y-99478804D01*
X87303642Y-99861487D01*
X65177949Y-99861487D01*
X64946519Y-99765389D01*
X64057381Y-99764613D01*
X63235628Y-100104155D01*
X62606364Y-100732321D01*
X62265389Y-101553481D01*
X62264613Y-102442619D01*
X51424989Y-102442619D01*
X49954304Y-100241584D01*
X49758416Y-100045696D01*
X46838606Y-98094741D01*
X46582665Y-97988726D01*
X43138514Y-97303642D01*
X42128977Y-97102833D01*
X41390561Y-96609439D01*
X40897167Y-95871023D01*
X40740967Y-95085750D01*
X44815000Y-95085750D01*
X44815000Y-96676310D01*
X44911673Y-96909699D01*
X45090302Y-97088327D01*
X45323691Y-97185000D01*
X46914250Y-97185000D01*
X47073000Y-97026250D01*
X47073000Y-94927000D01*
X47327000Y-94927000D01*
X47327000Y-97026250D01*
X47485750Y-97185000D01*
X49076309Y-97185000D01*
X49309698Y-97088327D01*
X49488327Y-96909699D01*
X49499293Y-96883223D01*
X87953035Y-96883223D01*
X87980222Y-97453454D01*
X88146136Y-97854005D01*
X88392255Y-97928139D01*
X89220395Y-97100000D01*
X89579605Y-97100000D01*
X90407745Y-97928139D01*
X90653864Y-97854005D01*
X90846965Y-97316777D01*
X90819778Y-96746546D01*
X90653864Y-96345995D01*
X90407745Y-96271861D01*
X89579605Y-97100000D01*
X89220395Y-97100000D01*
X88392255Y-96271861D01*
X88146136Y-96345995D01*
X87953035Y-96883223D01*
X49499293Y-96883223D01*
X49585000Y-96676310D01*
X49585000Y-95396890D01*
X65658524Y-95396890D01*
X65828355Y-95806924D01*
X66218642Y-96235183D01*
X66743108Y-96481486D01*
X66973000Y-96360819D01*
X66973000Y-95167000D01*
X67227000Y-95167000D01*
X67227000Y-96360819D01*
X67456892Y-96481486D01*
X67981358Y-96235183D01*
X68111613Y-96092255D01*
X88571861Y-96092255D01*
X89400000Y-96920395D01*
X90228139Y-96092255D01*
X90154005Y-95846136D01*
X89616777Y-95653035D01*
X89046546Y-95680222D01*
X88645995Y-95846136D01*
X88571861Y-96092255D01*
X68111613Y-96092255D01*
X68371645Y-95806924D01*
X68541476Y-95396890D01*
X68420155Y-95167000D01*
X67227000Y-95167000D01*
X66973000Y-95167000D01*
X65779845Y-95167000D01*
X65658524Y-95396890D01*
X49585000Y-95396890D01*
X49585000Y-95085750D01*
X49426250Y-94927000D01*
X47327000Y-94927000D01*
X47073000Y-94927000D01*
X44973750Y-94927000D01*
X44815000Y-95085750D01*
X40740967Y-95085750D01*
X40710000Y-94930069D01*
X40710000Y-90385750D01*
X41815000Y-90385750D01*
X41815000Y-91976310D01*
X41911673Y-92209699D01*
X42090302Y-92388327D01*
X42323691Y-92485000D01*
X43914250Y-92485000D01*
X44073000Y-92326250D01*
X44073000Y-90227000D01*
X44327000Y-90227000D01*
X44327000Y-92326250D01*
X44485750Y-92485000D01*
X45154696Y-92485000D01*
X45090302Y-92511673D01*
X44911673Y-92690301D01*
X44815000Y-92923690D01*
X44815000Y-94514250D01*
X44973750Y-94673000D01*
X47073000Y-94673000D01*
X47073000Y-92573750D01*
X47327000Y-92573750D01*
X47327000Y-94673000D01*
X49426250Y-94673000D01*
X49585000Y-94514250D01*
X49585000Y-93452532D01*
X61199217Y-93452532D01*
X61297880Y-93719387D01*
X61907605Y-93945908D01*
X62557604Y-93921856D01*
X63046408Y-93719387D01*
X63145071Y-93452532D01*
X62172144Y-92479605D01*
X61199217Y-93452532D01*
X49585000Y-93452532D01*
X49585000Y-92923690D01*
X49488327Y-92690301D01*
X49309698Y-92511673D01*
X49275337Y-92497440D01*
X51950000Y-92497440D01*
X52185317Y-92453162D01*
X52401441Y-92314090D01*
X52546431Y-92101890D01*
X52559883Y-92035461D01*
X60526236Y-92035461D01*
X60550288Y-92685460D01*
X60752757Y-93174264D01*
X61019612Y-93272927D01*
X61992539Y-92300000D01*
X62351749Y-92300000D01*
X63324676Y-93272927D01*
X63591531Y-93174264D01*
X63818052Y-92564539D01*
X63794000Y-91914540D01*
X63684425Y-91650000D01*
X65602560Y-91650000D01*
X65602560Y-93350000D01*
X65646838Y-93585317D01*
X65785910Y-93801441D01*
X65998110Y-93946431D01*
X66106107Y-93968301D01*
X65828355Y-94273076D01*
X65658524Y-94683110D01*
X65779845Y-94913000D01*
X66973000Y-94913000D01*
X66973000Y-94893000D01*
X67227000Y-94893000D01*
X67227000Y-94913000D01*
X68420155Y-94913000D01*
X68541476Y-94683110D01*
X68371645Y-94273076D01*
X68095499Y-93970063D01*
X68185317Y-93953162D01*
X68401441Y-93814090D01*
X68546431Y-93601890D01*
X68597440Y-93350000D01*
X68597440Y-91650000D01*
X68553162Y-91414683D01*
X68414090Y-91198559D01*
X68201890Y-91053569D01*
X67950000Y-91002560D01*
X66250000Y-91002560D01*
X66014683Y-91046838D01*
X65798559Y-91185910D01*
X65653569Y-91398110D01*
X65602560Y-91650000D01*
X63684425Y-91650000D01*
X63591531Y-91425736D01*
X63324676Y-91327073D01*
X62351749Y-92300000D01*
X61992539Y-92300000D01*
X61978397Y-92285858D01*
X62158002Y-92106253D01*
X62172144Y-92120395D01*
X63145071Y-91147468D01*
X63046408Y-90880613D01*
X63030656Y-90874761D01*
X63145908Y-90564539D01*
X63121856Y-89914540D01*
X62919387Y-89425736D01*
X62652532Y-89327073D01*
X61679605Y-90300000D01*
X61693748Y-90314143D01*
X61514143Y-90493748D01*
X61500000Y-90479605D01*
X60527073Y-91452532D01*
X60625736Y-91719387D01*
X60641488Y-91725239D01*
X60526236Y-92035461D01*
X52559883Y-92035461D01*
X52597440Y-91850000D01*
X52597440Y-88350000D01*
X52553162Y-88114683D01*
X52414090Y-87898559D01*
X52201890Y-87753569D01*
X51950000Y-87702560D01*
X48450000Y-87702560D01*
X48214683Y-87746838D01*
X47998559Y-87885910D01*
X47853569Y-88098110D01*
X47802560Y-88350000D01*
X47802560Y-91850000D01*
X47846838Y-92085317D01*
X47985910Y-92301441D01*
X48152109Y-92415000D01*
X47485750Y-92415000D01*
X47327000Y-92573750D01*
X47073000Y-92573750D01*
X46914250Y-92415000D01*
X46245304Y-92415000D01*
X46309698Y-92388327D01*
X46488327Y-92209699D01*
X46585000Y-91976310D01*
X46585000Y-90385750D01*
X46426250Y-90227000D01*
X44327000Y-90227000D01*
X44073000Y-90227000D01*
X41973750Y-90227000D01*
X41815000Y-90385750D01*
X40710000Y-90385750D01*
X40710000Y-88223690D01*
X41815000Y-88223690D01*
X41815000Y-89814250D01*
X41973750Y-89973000D01*
X44073000Y-89973000D01*
X44073000Y-87873750D01*
X44327000Y-87873750D01*
X44327000Y-89973000D01*
X46426250Y-89973000D01*
X46585000Y-89814250D01*
X46585000Y-88223690D01*
X46488327Y-87990301D01*
X46309698Y-87811673D01*
X46076309Y-87715000D01*
X44485750Y-87715000D01*
X44327000Y-87873750D01*
X44073000Y-87873750D01*
X43914250Y-87715000D01*
X42323691Y-87715000D01*
X42090302Y-87811673D01*
X41911673Y-87990301D01*
X41815000Y-88223690D01*
X40710000Y-88223690D01*
X40710000Y-87300000D01*
X54180416Y-87300000D01*
X54180416Y-89300000D01*
X54224694Y-89535317D01*
X54363766Y-89751441D01*
X54575966Y-89896431D01*
X54827856Y-89947440D01*
X54852560Y-89947440D01*
X54852560Y-91300000D01*
X54896838Y-91535317D01*
X55035910Y-91751441D01*
X55248110Y-91896431D01*
X55500000Y-91947440D01*
X57500000Y-91947440D01*
X57735317Y-91903162D01*
X57951441Y-91764090D01*
X58096431Y-91551890D01*
X58147440Y-91300000D01*
X58147440Y-90035461D01*
X59854092Y-90035461D01*
X59878144Y-90685460D01*
X60080613Y-91174264D01*
X60347468Y-91272927D01*
X61320395Y-90300000D01*
X60347468Y-89327073D01*
X60080613Y-89425736D01*
X59854092Y-90035461D01*
X58147440Y-90035461D01*
X58147440Y-89300000D01*
X58118740Y-89147468D01*
X60527073Y-89147468D01*
X61500000Y-90120395D01*
X62472927Y-89147468D01*
X62374264Y-88880613D01*
X61764539Y-88654092D01*
X61114540Y-88678144D01*
X60625736Y-88880613D01*
X60527073Y-89147468D01*
X58118740Y-89147468D01*
X58103162Y-89064683D01*
X57964090Y-88848559D01*
X57751890Y-88703569D01*
X57500000Y-88652560D01*
X57475296Y-88652560D01*
X57475296Y-87300000D01*
X57431018Y-87064683D01*
X57291946Y-86848559D01*
X57079746Y-86703569D01*
X56827856Y-86652560D01*
X54827856Y-86652560D01*
X54592539Y-86696838D01*
X54376415Y-86835910D01*
X54231425Y-87048110D01*
X54180416Y-87300000D01*
X40710000Y-87300000D01*
X40710000Y-82984187D01*
X53644752Y-82984187D01*
X53862757Y-83511800D01*
X54266077Y-83915824D01*
X54793309Y-84134750D01*
X55364187Y-84135248D01*
X55891800Y-83917243D01*
X56295824Y-83513923D01*
X56514750Y-82986691D01*
X56515000Y-82700000D01*
X61236887Y-82700000D01*
X61346120Y-83249151D01*
X61657189Y-83714698D01*
X62122736Y-84025767D01*
X62671887Y-84135000D01*
X62728113Y-84135000D01*
X63277264Y-84025767D01*
X63742811Y-83714698D01*
X64053880Y-83249151D01*
X64163113Y-82700000D01*
X64053880Y-82150849D01*
X63742811Y-81685302D01*
X63277264Y-81374233D01*
X62728113Y-81265000D01*
X62671887Y-81265000D01*
X62122736Y-81374233D01*
X61657189Y-81685302D01*
X61346120Y-82150849D01*
X61236887Y-82700000D01*
X56515000Y-82700000D01*
X56515248Y-82415813D01*
X56297243Y-81888200D01*
X55893923Y-81484176D01*
X55366691Y-81265250D01*
X54795813Y-81264752D01*
X54268200Y-81482757D01*
X53864176Y-81886077D01*
X53645250Y-82413309D01*
X53644752Y-82984187D01*
X40710000Y-82984187D01*
X40710000Y-80442619D01*
X44264613Y-80442619D01*
X44604155Y-81264372D01*
X45232321Y-81893636D01*
X46053481Y-82234611D01*
X46942619Y-82235387D01*
X47764372Y-81895845D01*
X48393636Y-81267679D01*
X48734611Y-80446519D01*
X48734686Y-80360000D01*
X66736887Y-80360000D01*
X66846120Y-80909151D01*
X67157189Y-81374698D01*
X67539275Y-81630000D01*
X67157189Y-81885302D01*
X66846120Y-82350849D01*
X66736887Y-82900000D01*
X66846120Y-83449151D01*
X67157189Y-83914698D01*
X67539275Y-84170000D01*
X67157189Y-84425302D01*
X66846120Y-84890849D01*
X66736887Y-85440000D01*
X66846120Y-85989151D01*
X67157189Y-86454698D01*
X67539275Y-86710000D01*
X67157189Y-86965302D01*
X66846120Y-87430849D01*
X66736887Y-87980000D01*
X66846120Y-88529151D01*
X67157189Y-88994698D01*
X67622736Y-89305767D01*
X68171887Y-89415000D01*
X68228113Y-89415000D01*
X68505102Y-89359904D01*
X68787600Y-89642402D01*
X69034161Y-89807149D01*
X69325001Y-89865001D01*
X82294999Y-89865001D01*
X82585838Y-89807149D01*
X82832400Y-89642402D01*
X83053031Y-89421771D01*
X83370907Y-89485000D01*
X83429093Y-89485000D01*
X83595563Y-89451887D01*
X87965000Y-89451887D01*
X87965000Y-89508113D01*
X88074233Y-90057264D01*
X88385302Y-90522811D01*
X88850849Y-90833880D01*
X89400000Y-90943113D01*
X89949151Y-90833880D01*
X90414698Y-90522811D01*
X90725767Y-90057264D01*
X90835000Y-89508113D01*
X90835000Y-89451887D01*
X90779904Y-89174898D01*
X91352560Y-88602242D01*
X91352560Y-90150000D01*
X91396838Y-90385317D01*
X91535910Y-90601441D01*
X91748110Y-90746431D01*
X92000000Y-90797440D01*
X93600000Y-90797440D01*
X93835317Y-90753162D01*
X94051441Y-90614090D01*
X94196431Y-90401890D01*
X94247440Y-90150000D01*
X94247440Y-88550000D01*
X94902560Y-88550000D01*
X94902560Y-90150000D01*
X94946838Y-90385317D01*
X95085910Y-90601441D01*
X95298110Y-90746431D01*
X95550000Y-90797440D01*
X97150000Y-90797440D01*
X97385317Y-90753162D01*
X97601441Y-90614090D01*
X97746431Y-90401890D01*
X97797440Y-90150000D01*
X97797440Y-89351887D01*
X98465000Y-89351887D01*
X98465000Y-89408113D01*
X98574233Y-89957264D01*
X98885302Y-90422811D01*
X99350849Y-90733880D01*
X99900000Y-90843113D01*
X100449151Y-90733880D01*
X100914698Y-90422811D01*
X101225767Y-89957264D01*
X101290031Y-89634187D01*
X102014752Y-89634187D01*
X102232757Y-90161800D01*
X102636077Y-90565824D01*
X103163309Y-90784750D01*
X103734187Y-90785248D01*
X104261800Y-90567243D01*
X104665824Y-90163923D01*
X104884750Y-89636691D01*
X104885248Y-89065813D01*
X104667243Y-88538200D01*
X104263923Y-88134176D01*
X103736691Y-87915250D01*
X103165813Y-87914752D01*
X102638200Y-88132757D01*
X102234176Y-88536077D01*
X102015250Y-89063309D01*
X102014752Y-89634187D01*
X101290031Y-89634187D01*
X101335000Y-89408113D01*
X101335000Y-89351887D01*
X101225767Y-88802736D01*
X100914698Y-88337189D01*
X100449151Y-88026120D01*
X99900000Y-87916887D01*
X99350849Y-88026120D01*
X98885302Y-88337189D01*
X98574233Y-88802736D01*
X98465000Y-89351887D01*
X97797440Y-89351887D01*
X97797440Y-88550000D01*
X97753162Y-88314683D01*
X97614090Y-88098559D01*
X97401890Y-87953569D01*
X97150000Y-87902560D01*
X95550000Y-87902560D01*
X95314683Y-87946838D01*
X95098559Y-88085910D01*
X94953569Y-88298110D01*
X94902560Y-88550000D01*
X94247440Y-88550000D01*
X94203162Y-88314683D01*
X94064090Y-88098559D01*
X93851890Y-87953569D01*
X93600000Y-87902560D01*
X92052242Y-87902560D01*
X93338281Y-86616521D01*
X93374233Y-86797264D01*
X93685302Y-87262811D01*
X94150849Y-87573880D01*
X94700000Y-87683113D01*
X95249151Y-87573880D01*
X95714698Y-87262811D01*
X96025767Y-86797264D01*
X96135000Y-86248113D01*
X96135000Y-86191887D01*
X96132636Y-86180001D01*
X101599999Y-86180001D01*
X101890838Y-86122149D01*
X102137400Y-85957402D01*
X104669052Y-83425750D01*
X104985000Y-83425750D01*
X104985000Y-84066310D01*
X105081673Y-84299699D01*
X105260302Y-84478327D01*
X105493691Y-84575000D01*
X106134250Y-84575000D01*
X106293000Y-84416250D01*
X106293000Y-83267000D01*
X105143750Y-83267000D01*
X104985000Y-83425750D01*
X104669052Y-83425750D01*
X105112776Y-82982026D01*
X105143750Y-83013000D01*
X106293000Y-83013000D01*
X106293000Y-82993000D01*
X106547000Y-82993000D01*
X106547000Y-83013000D01*
X106567000Y-83013000D01*
X106567000Y-83267000D01*
X106547000Y-83267000D01*
X106547000Y-84416250D01*
X106705750Y-84575000D01*
X107346309Y-84575000D01*
X107368201Y-84565932D01*
X107368201Y-87902560D01*
X106200000Y-87902560D01*
X105964683Y-87946838D01*
X105748559Y-88085910D01*
X105603569Y-88298110D01*
X105552560Y-88550000D01*
X105552560Y-90150000D01*
X105596838Y-90385317D01*
X105735910Y-90601441D01*
X105948110Y-90746431D01*
X106200000Y-90797440D01*
X107368201Y-90797440D01*
X107368201Y-95344563D01*
X107171720Y-95541044D01*
X107000000Y-95506887D01*
X106450849Y-95616120D01*
X105985302Y-95927189D01*
X105674233Y-96392736D01*
X105565000Y-96941887D01*
X105565000Y-96998113D01*
X105674233Y-97547264D01*
X105985302Y-98012811D01*
X106450849Y-98323880D01*
X107000000Y-98433113D01*
X107549151Y-98323880D01*
X108014698Y-98012811D01*
X108325767Y-97547264D01*
X108435000Y-96998113D01*
X108435000Y-96941887D01*
X109115000Y-96941887D01*
X109115000Y-96998113D01*
X109224233Y-97547264D01*
X109535302Y-98012811D01*
X110000849Y-98323880D01*
X110550000Y-98433113D01*
X111099151Y-98323880D01*
X111564698Y-98012811D01*
X111875767Y-97547264D01*
X111985000Y-96998113D01*
X111985000Y-96941887D01*
X112665000Y-96941887D01*
X112665000Y-96998113D01*
X112774233Y-97547264D01*
X113085302Y-98012811D01*
X113550849Y-98323880D01*
X114100000Y-98433113D01*
X114649151Y-98323880D01*
X115114698Y-98012811D01*
X115425767Y-97547264D01*
X115535000Y-96998113D01*
X115535000Y-96941887D01*
X115525055Y-96891887D01*
X115765000Y-96891887D01*
X115765000Y-96948113D01*
X115874233Y-97497264D01*
X116185302Y-97962811D01*
X116650849Y-98273880D01*
X117200000Y-98383113D01*
X117749151Y-98273880D01*
X118214698Y-97962811D01*
X118525767Y-97497264D01*
X118635000Y-96948113D01*
X118635000Y-96891887D01*
X118525767Y-96342736D01*
X118214698Y-95877189D01*
X117749151Y-95566120D01*
X117200000Y-95456887D01*
X116650849Y-95566120D01*
X116185302Y-95877189D01*
X115874233Y-96342736D01*
X115765000Y-96891887D01*
X115525055Y-96891887D01*
X115425767Y-96392736D01*
X115114698Y-95927189D01*
X114649151Y-95616120D01*
X114100000Y-95506887D01*
X113550849Y-95616120D01*
X113085302Y-95927189D01*
X112774233Y-96392736D01*
X112665000Y-96941887D01*
X111985000Y-96941887D01*
X111875767Y-96392736D01*
X111564698Y-95927189D01*
X111099151Y-95616120D01*
X110550000Y-95506887D01*
X110000849Y-95616120D01*
X109535302Y-95927189D01*
X109224233Y-96392736D01*
X109115000Y-96941887D01*
X108435000Y-96941887D01*
X108410171Y-96817065D01*
X108885819Y-96341417D01*
X109078530Y-96053005D01*
X109146201Y-95712799D01*
X109146201Y-91350000D01*
X123352560Y-91350000D01*
X123352560Y-93450000D01*
X123396838Y-93685317D01*
X123535910Y-93901441D01*
X123748110Y-94046431D01*
X124000000Y-94097440D01*
X127600000Y-94097440D01*
X127835317Y-94053162D01*
X128051441Y-93914090D01*
X128196431Y-93701890D01*
X128247440Y-93450000D01*
X128247440Y-91350000D01*
X128203162Y-91114683D01*
X128064090Y-90898559D01*
X127851890Y-90753569D01*
X127600000Y-90702560D01*
X124000000Y-90702560D01*
X123764683Y-90746838D01*
X123548559Y-90885910D01*
X123403569Y-91098110D01*
X123352560Y-91350000D01*
X109146201Y-91350000D01*
X109146201Y-90381932D01*
X109146838Y-90385317D01*
X109285910Y-90601441D01*
X109498110Y-90746431D01*
X109750000Y-90797440D01*
X111350000Y-90797440D01*
X111585317Y-90753162D01*
X111801441Y-90614090D01*
X111946431Y-90401890D01*
X111997440Y-90150000D01*
X111997440Y-88550000D01*
X112652560Y-88550000D01*
X112652560Y-90150000D01*
X112696838Y-90385317D01*
X112835910Y-90601441D01*
X113048110Y-90746431D01*
X113300000Y-90797440D01*
X114900000Y-90797440D01*
X115135317Y-90753162D01*
X115351441Y-90614090D01*
X115496431Y-90401890D01*
X115547440Y-90150000D01*
X115547440Y-88550000D01*
X115538032Y-88500000D01*
X115752560Y-88500000D01*
X115752560Y-90100000D01*
X115796838Y-90335317D01*
X115935910Y-90551441D01*
X116148110Y-90696431D01*
X116400000Y-90747440D01*
X118000000Y-90747440D01*
X118235317Y-90703162D01*
X118451441Y-90564090D01*
X118596431Y-90351890D01*
X118647440Y-90100000D01*
X118647440Y-88500000D01*
X118603162Y-88264683D01*
X118464090Y-88048559D01*
X118251890Y-87903569D01*
X118000000Y-87852560D01*
X116400000Y-87852560D01*
X116164683Y-87896838D01*
X115948559Y-88035910D01*
X115803569Y-88248110D01*
X115752560Y-88500000D01*
X115538032Y-88500000D01*
X115503162Y-88314683D01*
X115364090Y-88098559D01*
X115151890Y-87953569D01*
X114900000Y-87902560D01*
X113300000Y-87902560D01*
X113064683Y-87946838D01*
X112848559Y-88085910D01*
X112703569Y-88298110D01*
X112652560Y-88550000D01*
X111997440Y-88550000D01*
X111953162Y-88314683D01*
X111814090Y-88098559D01*
X111601890Y-87953569D01*
X111350000Y-87902560D01*
X109750000Y-87902560D01*
X109514683Y-87946838D01*
X109298559Y-88085910D01*
X109153569Y-88298110D01*
X109146201Y-88334494D01*
X109146201Y-86191887D01*
X119665000Y-86191887D01*
X119665000Y-86248113D01*
X119774233Y-86797264D01*
X120085302Y-87262811D01*
X120550849Y-87573880D01*
X121100000Y-87683113D01*
X121649151Y-87573880D01*
X121909380Y-87400000D01*
X123317296Y-87400000D01*
X123445559Y-88044822D01*
X123810821Y-88591475D01*
X124357474Y-88956737D01*
X125002296Y-89085000D01*
X126597704Y-89085000D01*
X127242526Y-88956737D01*
X127789179Y-88591475D01*
X128154441Y-88044822D01*
X128282704Y-87400000D01*
X128154441Y-86755178D01*
X127789179Y-86208525D01*
X127242526Y-85843263D01*
X126597704Y-85715000D01*
X125002296Y-85715000D01*
X124357474Y-85843263D01*
X123810821Y-86208525D01*
X123445559Y-86755178D01*
X123317296Y-87400000D01*
X121909380Y-87400000D01*
X122114698Y-87262811D01*
X122425767Y-86797264D01*
X122535000Y-86248113D01*
X122535000Y-86191887D01*
X122425767Y-85642736D01*
X122114698Y-85177189D01*
X121649151Y-84866120D01*
X121100000Y-84756887D01*
X120550849Y-84866120D01*
X120085302Y-85177189D01*
X119774233Y-85642736D01*
X119665000Y-86191887D01*
X109146201Y-86191887D01*
X109146201Y-79975704D01*
X109286077Y-80115824D01*
X109813309Y-80334750D01*
X110384187Y-80335248D01*
X110438149Y-80312951D01*
X111510000Y-81384802D01*
X111510000Y-82584941D01*
X111308355Y-82786235D01*
X111135197Y-83203244D01*
X111134892Y-83552560D01*
X110500000Y-83552560D01*
X110264683Y-83596838D01*
X110048559Y-83735910D01*
X109903569Y-83948110D01*
X109852560Y-84200000D01*
X109852560Y-85200000D01*
X109896838Y-85435317D01*
X110035910Y-85651441D01*
X110248110Y-85796431D01*
X110500000Y-85847440D01*
X111500000Y-85847440D01*
X111735317Y-85803162D01*
X111951441Y-85664090D01*
X112096431Y-85451890D01*
X112147440Y-85200000D01*
X112147440Y-84564894D01*
X112405117Y-84565119D01*
X112404803Y-84924775D01*
X112577233Y-85342086D01*
X112896235Y-85661645D01*
X113313244Y-85834803D01*
X113764775Y-85835197D01*
X114182086Y-85662767D01*
X114501645Y-85343765D01*
X114674803Y-84926756D01*
X114675197Y-84475225D01*
X114502767Y-84057914D01*
X114183765Y-83738355D01*
X113766756Y-83565197D01*
X113404883Y-83564881D01*
X113405197Y-83205225D01*
X113232767Y-82787914D01*
X113030000Y-82584793D01*
X113030000Y-81070000D01*
X112972148Y-80779161D01*
X112972148Y-80779160D01*
X112880915Y-80642619D01*
X123264613Y-80642619D01*
X123604155Y-81464372D01*
X124232321Y-82093636D01*
X125053481Y-82434611D01*
X125942619Y-82435387D01*
X126764372Y-82095845D01*
X127393636Y-81467679D01*
X127734611Y-80646519D01*
X127735387Y-79757381D01*
X127395845Y-78935628D01*
X126767679Y-78306364D01*
X125946519Y-77965389D01*
X125057381Y-77964613D01*
X124235628Y-78304155D01*
X123606364Y-78932321D01*
X123265389Y-79753481D01*
X123264613Y-80642619D01*
X112880915Y-80642619D01*
X112807401Y-80532599D01*
X111513256Y-79238454D01*
X111534750Y-79186691D01*
X111535000Y-78900000D01*
X116256887Y-78900000D01*
X116366120Y-79449151D01*
X116677189Y-79914698D01*
X117142736Y-80225767D01*
X117691887Y-80335000D01*
X117748113Y-80335000D01*
X118297264Y-80225767D01*
X118762811Y-79914698D01*
X119073880Y-79449151D01*
X119183113Y-78900000D01*
X119073880Y-78350849D01*
X118762811Y-77885302D01*
X118635148Y-77800000D01*
X119652560Y-77800000D01*
X119652560Y-79400000D01*
X119696838Y-79635317D01*
X119835910Y-79851441D01*
X120048110Y-79996431D01*
X120300000Y-80047440D01*
X121900000Y-80047440D01*
X122135317Y-80003162D01*
X122351441Y-79864090D01*
X122496431Y-79651890D01*
X122547440Y-79400000D01*
X122547440Y-77800000D01*
X122503162Y-77564683D01*
X122364090Y-77348559D01*
X122151890Y-77203569D01*
X121900000Y-77152560D01*
X120300000Y-77152560D01*
X120064683Y-77196838D01*
X119848559Y-77335910D01*
X119703569Y-77548110D01*
X119652560Y-77800000D01*
X118635148Y-77800000D01*
X118297264Y-77574233D01*
X117748113Y-77465000D01*
X117691887Y-77465000D01*
X117142736Y-77574233D01*
X116677189Y-77885302D01*
X116366120Y-78350849D01*
X116256887Y-78900000D01*
X111535000Y-78900000D01*
X111535248Y-78615813D01*
X111317243Y-78088200D01*
X110913923Y-77684176D01*
X110386691Y-77465250D01*
X109815813Y-77464752D01*
X109288200Y-77682757D01*
X109146201Y-77824509D01*
X109146201Y-77357201D01*
X109108020Y-77165250D01*
X109078531Y-77016996D01*
X108885819Y-76728583D01*
X107848956Y-75691720D01*
X107883113Y-75520000D01*
X107773880Y-74970849D01*
X107563763Y-74656387D01*
X107993309Y-74834750D01*
X108564187Y-74835248D01*
X109091800Y-74617243D01*
X109495824Y-74213923D01*
X109688860Y-73749039D01*
X114508096Y-73749039D01*
X114668959Y-74137423D01*
X115044866Y-74552389D01*
X115550959Y-74791914D01*
X115773000Y-74670629D01*
X115773000Y-73527000D01*
X116027000Y-73527000D01*
X116027000Y-74670629D01*
X116249041Y-74791914D01*
X116755134Y-74552389D01*
X117131041Y-74137423D01*
X117291904Y-73749039D01*
X117169915Y-73527000D01*
X116027000Y-73527000D01*
X115773000Y-73527000D01*
X114630085Y-73527000D01*
X114508096Y-73749039D01*
X109688860Y-73749039D01*
X109714750Y-73686691D01*
X109715248Y-73115813D01*
X109688452Y-73050961D01*
X114508096Y-73050961D01*
X114630085Y-73273000D01*
X115773000Y-73273000D01*
X115773000Y-72129371D01*
X116027000Y-72129371D01*
X116027000Y-73273000D01*
X117169915Y-73273000D01*
X117291904Y-73050961D01*
X117131041Y-72662577D01*
X117046310Y-72569041D01*
X119208086Y-72569041D01*
X119447611Y-73075134D01*
X119862577Y-73451041D01*
X120250961Y-73611904D01*
X120473000Y-73489915D01*
X120473000Y-72347000D01*
X120727000Y-72347000D01*
X120727000Y-73489915D01*
X120949039Y-73611904D01*
X121337423Y-73451041D01*
X121752389Y-73075134D01*
X121889349Y-72785750D01*
X123365000Y-72785750D01*
X123365000Y-73676309D01*
X123461673Y-73909698D01*
X123640301Y-74088327D01*
X123873690Y-74185000D01*
X125514250Y-74185000D01*
X125673000Y-74026250D01*
X125673000Y-72627000D01*
X125927000Y-72627000D01*
X125927000Y-74026250D01*
X126085750Y-74185000D01*
X127726310Y-74185000D01*
X127959699Y-74088327D01*
X128138327Y-73909698D01*
X128235000Y-73676309D01*
X128235000Y-72785750D01*
X128076250Y-72627000D01*
X125927000Y-72627000D01*
X125673000Y-72627000D01*
X123523750Y-72627000D01*
X123365000Y-72785750D01*
X121889349Y-72785750D01*
X121991914Y-72569041D01*
X121870629Y-72347000D01*
X120727000Y-72347000D01*
X120473000Y-72347000D01*
X119329371Y-72347000D01*
X119208086Y-72569041D01*
X117046310Y-72569041D01*
X116755134Y-72247611D01*
X116249041Y-72008086D01*
X116027000Y-72129371D01*
X115773000Y-72129371D01*
X115550959Y-72008086D01*
X115044866Y-72247611D01*
X114668959Y-72662577D01*
X114508096Y-73050961D01*
X109688452Y-73050961D01*
X109497243Y-72588200D01*
X109093923Y-72184176D01*
X108566691Y-71965250D01*
X107995813Y-71964752D01*
X107468200Y-72182757D01*
X107064176Y-72586077D01*
X106845250Y-73113309D01*
X106844752Y-73684187D01*
X107062757Y-74211800D01*
X107141284Y-74290465D01*
X106997264Y-74194233D01*
X106448113Y-74085000D01*
X106391887Y-74085000D01*
X105842736Y-74194233D01*
X105377189Y-74505302D01*
X105066120Y-74970849D01*
X104956887Y-75520000D01*
X105066120Y-76069151D01*
X105377189Y-76534698D01*
X105759275Y-76790000D01*
X105377189Y-77045302D01*
X105066120Y-77510849D01*
X104956887Y-78060000D01*
X105066120Y-78609151D01*
X105377189Y-79074698D01*
X105759275Y-79330000D01*
X105377189Y-79585302D01*
X105066120Y-80050849D01*
X104956887Y-80600000D01*
X105021312Y-80923886D01*
X101285197Y-84660001D01*
X95499999Y-84660001D01*
X95257413Y-84708255D01*
X95243849Y-84710953D01*
X96362402Y-83592400D01*
X96527149Y-83345838D01*
X96585001Y-83054999D01*
X96585001Y-78809801D01*
X97337405Y-78057398D01*
X97336887Y-78060000D01*
X97446120Y-78609151D01*
X97757189Y-79074698D01*
X98139275Y-79330000D01*
X97757189Y-79585302D01*
X97446120Y-80050849D01*
X97336887Y-80600000D01*
X97446120Y-81149151D01*
X97757189Y-81614698D01*
X98139275Y-81870000D01*
X97757189Y-82125302D01*
X97446120Y-82590849D01*
X97336887Y-83140000D01*
X97446120Y-83689151D01*
X97757189Y-84154698D01*
X98222736Y-84465767D01*
X98771887Y-84575000D01*
X98828113Y-84575000D01*
X99377264Y-84465767D01*
X99842811Y-84154698D01*
X100153880Y-83689151D01*
X100263113Y-83140000D01*
X100153880Y-82590849D01*
X99842811Y-82125302D01*
X99460725Y-81870000D01*
X99842811Y-81614698D01*
X100153880Y-81149151D01*
X100263113Y-80600000D01*
X100153880Y-80050849D01*
X99842811Y-79585302D01*
X99460725Y-79330000D01*
X99842811Y-79074698D01*
X100153880Y-78609151D01*
X100263113Y-78060000D01*
X100153880Y-77510849D01*
X99842811Y-77045302D01*
X99460725Y-76790000D01*
X99842811Y-76534698D01*
X100153880Y-76069151D01*
X100263113Y-75520000D01*
X100153880Y-74970849D01*
X99842811Y-74505302D01*
X99377264Y-74194233D01*
X98828113Y-74085000D01*
X98771887Y-74085000D01*
X98222736Y-74194233D01*
X97757189Y-74505302D01*
X97734005Y-74540000D01*
X94062463Y-74540000D01*
X94030327Y-74507808D01*
X93686799Y-74365162D01*
X93314833Y-74364838D01*
X92971057Y-74506883D01*
X92707808Y-74769673D01*
X92565162Y-75113201D01*
X92564838Y-75485167D01*
X92706883Y-75828943D01*
X92969673Y-76092192D01*
X93313201Y-76234838D01*
X93685167Y-76235162D01*
X94028943Y-76093117D01*
X94062118Y-76060000D01*
X97185197Y-76060000D01*
X95687321Y-77557877D01*
X95513923Y-77384176D01*
X94986691Y-77165250D01*
X94415813Y-77164752D01*
X93888200Y-77382757D01*
X93484176Y-77786077D01*
X93265250Y-78313309D01*
X93264752Y-78884187D01*
X93482757Y-79411800D01*
X93886077Y-79815824D01*
X94413309Y-80034750D01*
X94984187Y-80035248D01*
X95065001Y-80001856D01*
X95065001Y-82740197D01*
X89723886Y-88081312D01*
X89400000Y-88016887D01*
X88850849Y-88126120D01*
X88385302Y-88437189D01*
X88074233Y-88902736D01*
X87965000Y-89451887D01*
X83595563Y-89451887D01*
X83997378Y-89371961D01*
X84479147Y-89050054D01*
X84801054Y-88568285D01*
X84914093Y-88000000D01*
X84801054Y-87431715D01*
X84479147Y-86949946D01*
X84149974Y-86730000D01*
X84479147Y-86510054D01*
X84801054Y-86028285D01*
X84914093Y-85460000D01*
X84801054Y-84891715D01*
X84479147Y-84409946D01*
X84149974Y-84190000D01*
X84479147Y-83970054D01*
X84801054Y-83488285D01*
X84914093Y-82920000D01*
X84801054Y-82351715D01*
X84479147Y-81869946D01*
X84149974Y-81650000D01*
X84479147Y-81430054D01*
X84801054Y-80948285D01*
X84914093Y-80380000D01*
X84801054Y-79811715D01*
X84479147Y-79329946D01*
X84437548Y-79302150D01*
X84485317Y-79293162D01*
X84701441Y-79154090D01*
X84846431Y-78941890D01*
X84897440Y-78690000D01*
X84897440Y-76990000D01*
X84853162Y-76754683D01*
X84714090Y-76538559D01*
X84501890Y-76393569D01*
X84250000Y-76342560D01*
X82550000Y-76342560D01*
X82314683Y-76386838D01*
X82098559Y-76525910D01*
X81953569Y-76738110D01*
X81902560Y-76990000D01*
X81902560Y-78690000D01*
X81946838Y-78925317D01*
X82085910Y-79141441D01*
X82298110Y-79286431D01*
X82365541Y-79300086D01*
X82320853Y-79329946D01*
X81998946Y-79811715D01*
X81885907Y-80380000D01*
X81998946Y-80948285D01*
X82320853Y-81430054D01*
X82650026Y-81650000D01*
X82320853Y-81869946D01*
X81998946Y-82351715D01*
X81885907Y-82920000D01*
X81998946Y-83488285D01*
X82320853Y-83970054D01*
X82650026Y-84190000D01*
X82320853Y-84409946D01*
X81998946Y-84891715D01*
X81885907Y-85460000D01*
X81998946Y-86028285D01*
X82320853Y-86510054D01*
X82650026Y-86730000D01*
X82320853Y-86949946D01*
X81998946Y-87431715D01*
X81885907Y-88000000D01*
X81954532Y-88345001D01*
X77210510Y-88345001D01*
X77283113Y-87980000D01*
X77173880Y-87430849D01*
X76862811Y-86965302D01*
X76480725Y-86710000D01*
X76862811Y-86454698D01*
X77173880Y-85989151D01*
X77283113Y-85440000D01*
X77173880Y-84890849D01*
X76862811Y-84425302D01*
X76480725Y-84170000D01*
X76862811Y-83914698D01*
X77173880Y-83449151D01*
X77283113Y-82900000D01*
X77173880Y-82350849D01*
X76862811Y-81885302D01*
X76480725Y-81630000D01*
X76862811Y-81374698D01*
X77173880Y-80909151D01*
X77283113Y-80360000D01*
X77173880Y-79810849D01*
X76862811Y-79345302D01*
X76480725Y-79090000D01*
X76862811Y-78834698D01*
X77173880Y-78369151D01*
X77283113Y-77820000D01*
X77173880Y-77270849D01*
X76862811Y-76805302D01*
X76480725Y-76550000D01*
X76862811Y-76294698D01*
X77173880Y-75829151D01*
X77283113Y-75280000D01*
X77173880Y-74730849D01*
X76862811Y-74265302D01*
X76480725Y-74010000D01*
X76862811Y-73754698D01*
X77173880Y-73289151D01*
X77283113Y-72740000D01*
X77173880Y-72190849D01*
X76862811Y-71725302D01*
X76615420Y-71560000D01*
X81985907Y-71560000D01*
X82098946Y-72128285D01*
X82420853Y-72610054D01*
X82750026Y-72830000D01*
X82420853Y-73049946D01*
X82098946Y-73531715D01*
X81985907Y-74100000D01*
X82098946Y-74668285D01*
X82420853Y-75150054D01*
X82902622Y-75471961D01*
X83470907Y-75585000D01*
X83529093Y-75585000D01*
X84097378Y-75471961D01*
X84579147Y-75150054D01*
X84901054Y-74668285D01*
X85014093Y-74100000D01*
X84901054Y-73531715D01*
X84579147Y-73049946D01*
X84249974Y-72830000D01*
X84579147Y-72610054D01*
X84901054Y-72128285D01*
X84952239Y-71870959D01*
X119208086Y-71870959D01*
X119329371Y-72093000D01*
X120473000Y-72093000D01*
X120473000Y-70950085D01*
X120727000Y-70950085D01*
X120727000Y-72093000D01*
X121870629Y-72093000D01*
X121991914Y-71870959D01*
X121752389Y-71364866D01*
X121706936Y-71323691D01*
X123365000Y-71323691D01*
X123365000Y-72214250D01*
X123523750Y-72373000D01*
X125673000Y-72373000D01*
X125673000Y-70973750D01*
X125927000Y-70973750D01*
X125927000Y-72373000D01*
X128076250Y-72373000D01*
X128235000Y-72214250D01*
X128235000Y-71323691D01*
X128138327Y-71090302D01*
X127959699Y-70911673D01*
X127726310Y-70815000D01*
X126085750Y-70815000D01*
X125927000Y-70973750D01*
X125673000Y-70973750D01*
X125514250Y-70815000D01*
X123873690Y-70815000D01*
X123640301Y-70911673D01*
X123461673Y-71090302D01*
X123365000Y-71323691D01*
X121706936Y-71323691D01*
X121337423Y-70988959D01*
X120949039Y-70828096D01*
X120727000Y-70950085D01*
X120473000Y-70950085D01*
X120250961Y-70828096D01*
X119862577Y-70988959D01*
X119447611Y-71364866D01*
X119208086Y-71870959D01*
X84952239Y-71870959D01*
X85014093Y-71560000D01*
X84901054Y-70991715D01*
X84579147Y-70509946D01*
X84535223Y-70480597D01*
X84709698Y-70408327D01*
X84888327Y-70229699D01*
X84985000Y-69996310D01*
X84985000Y-69305750D01*
X84826250Y-69147000D01*
X83627000Y-69147000D01*
X83627000Y-69167000D01*
X83373000Y-69167000D01*
X83373000Y-69147000D01*
X82173750Y-69147000D01*
X82015000Y-69305750D01*
X82015000Y-69996310D01*
X82111673Y-70229699D01*
X82290302Y-70408327D01*
X82464777Y-70480597D01*
X82420853Y-70509946D01*
X82098946Y-70991715D01*
X81985907Y-71560000D01*
X76615420Y-71560000D01*
X76480725Y-71470000D01*
X76862811Y-71214698D01*
X77173880Y-70749151D01*
X77283113Y-70200000D01*
X77173880Y-69650849D01*
X76862811Y-69185302D01*
X76480725Y-68930000D01*
X76862811Y-68674698D01*
X77173880Y-68209151D01*
X77206792Y-68043690D01*
X82015000Y-68043690D01*
X82015000Y-68734250D01*
X82173750Y-68893000D01*
X83373000Y-68893000D01*
X83373000Y-67693750D01*
X83627000Y-67693750D01*
X83627000Y-68893000D01*
X84826250Y-68893000D01*
X84985000Y-68734250D01*
X84985000Y-68043690D01*
X84888327Y-67810301D01*
X84709698Y-67631673D01*
X84476309Y-67535000D01*
X83785750Y-67535000D01*
X83627000Y-67693750D01*
X83373000Y-67693750D01*
X83214250Y-67535000D01*
X82523691Y-67535000D01*
X82290302Y-67631673D01*
X82111673Y-67810301D01*
X82015000Y-68043690D01*
X77206792Y-68043690D01*
X77283113Y-67660000D01*
X77173880Y-67110849D01*
X76862811Y-66645302D01*
X76397264Y-66334233D01*
X75848113Y-66225000D01*
X75791887Y-66225000D01*
X75242736Y-66334233D01*
X74777189Y-66645302D01*
X74466120Y-67110849D01*
X74356887Y-67660000D01*
X74466120Y-68209151D01*
X74777189Y-68674698D01*
X75159275Y-68930000D01*
X74777189Y-69185302D01*
X74466120Y-69650849D01*
X74356887Y-70200000D01*
X74466120Y-70749151D01*
X74777189Y-71214698D01*
X75159275Y-71470000D01*
X74777189Y-71725302D01*
X74466120Y-72190849D01*
X74356887Y-72740000D01*
X74466120Y-73289151D01*
X74777189Y-73754698D01*
X75159275Y-74010000D01*
X74777189Y-74265302D01*
X74466120Y-74730849D01*
X74356887Y-75280000D01*
X74466120Y-75829151D01*
X74777189Y-76294698D01*
X75159275Y-76550000D01*
X74777189Y-76805302D01*
X74466120Y-77270849D01*
X74356887Y-77820000D01*
X74466120Y-78369151D01*
X74777189Y-78834698D01*
X75159275Y-79090000D01*
X74777189Y-79345302D01*
X74466120Y-79810849D01*
X74356887Y-80360000D01*
X74466120Y-80909151D01*
X74777189Y-81374698D01*
X75159275Y-81630000D01*
X74777189Y-81885302D01*
X74466120Y-82350849D01*
X74356887Y-82900000D01*
X74466120Y-83449151D01*
X74777189Y-83914698D01*
X75159275Y-84170000D01*
X74777189Y-84425302D01*
X74466120Y-84890849D01*
X74356887Y-85440000D01*
X74466120Y-85989151D01*
X74777189Y-86454698D01*
X75159275Y-86710000D01*
X74777189Y-86965302D01*
X74466120Y-87430849D01*
X74356887Y-87980000D01*
X74429490Y-88345001D01*
X69639803Y-88345001D01*
X69598688Y-88303886D01*
X69663113Y-87980000D01*
X69553880Y-87430849D01*
X69242811Y-86965302D01*
X68860725Y-86710000D01*
X69242811Y-86454698D01*
X69553880Y-85989151D01*
X69663113Y-85440000D01*
X69553880Y-84890849D01*
X69242811Y-84425302D01*
X68860725Y-84170000D01*
X69242811Y-83914698D01*
X69553880Y-83449151D01*
X69663113Y-82900000D01*
X69598688Y-82576114D01*
X71137401Y-81037401D01*
X71302148Y-80790839D01*
X71360000Y-80500000D01*
X71360000Y-78662463D01*
X71392192Y-78630327D01*
X71534838Y-78286799D01*
X71535162Y-77914833D01*
X71393117Y-77571057D01*
X71130327Y-77307808D01*
X70786799Y-77165162D01*
X70414833Y-77164838D01*
X70071057Y-77306883D01*
X69807808Y-77569673D01*
X69665162Y-77913201D01*
X69664838Y-78285167D01*
X69806883Y-78628943D01*
X69840000Y-78662118D01*
X69840000Y-80185198D01*
X69662595Y-80362603D01*
X69663113Y-80360000D01*
X69553880Y-79810849D01*
X69242811Y-79345302D01*
X68838297Y-79075014D01*
X69055134Y-78972389D01*
X69431041Y-78557423D01*
X69591904Y-78169039D01*
X69469915Y-77947000D01*
X68327000Y-77947000D01*
X68327000Y-77967000D01*
X68073000Y-77967000D01*
X68073000Y-77947000D01*
X66930085Y-77947000D01*
X66808096Y-78169039D01*
X66968959Y-78557423D01*
X67344866Y-78972389D01*
X67561703Y-79075014D01*
X67157189Y-79345302D01*
X66846120Y-79810849D01*
X66736887Y-80360000D01*
X48734686Y-80360000D01*
X48735387Y-79557381D01*
X48395845Y-78735628D01*
X47767679Y-78106364D01*
X46946519Y-77765389D01*
X46057381Y-77764613D01*
X45235628Y-78104155D01*
X44606364Y-78732321D01*
X44265389Y-79553481D01*
X44264613Y-80442619D01*
X40710000Y-80442619D01*
X40710000Y-71180000D01*
X43752560Y-71180000D01*
X43752560Y-72980000D01*
X43796838Y-73215317D01*
X43935910Y-73431441D01*
X44148110Y-73576431D01*
X44400000Y-73627440D01*
X46200000Y-73627440D01*
X46435317Y-73583162D01*
X46651441Y-73444090D01*
X46796431Y-73231890D01*
X46847440Y-72980000D01*
X46847440Y-72852532D01*
X59799217Y-72852532D01*
X59897880Y-73119387D01*
X60507605Y-73345908D01*
X61157604Y-73321856D01*
X61646408Y-73119387D01*
X61745071Y-72852532D01*
X60772144Y-71879605D01*
X59799217Y-72852532D01*
X46847440Y-72852532D01*
X46847440Y-71435461D01*
X59126236Y-71435461D01*
X59150288Y-72085460D01*
X59352757Y-72574264D01*
X59619612Y-72672927D01*
X60592539Y-71700000D01*
X60951749Y-71700000D01*
X61924676Y-72672927D01*
X62191531Y-72574264D01*
X62418052Y-71964539D01*
X62394000Y-71314540D01*
X62191531Y-70825736D01*
X61924676Y-70727073D01*
X60951749Y-71700000D01*
X60592539Y-71700000D01*
X60578397Y-71685858D01*
X60758002Y-71506253D01*
X60772144Y-71520395D01*
X61745071Y-70547468D01*
X61646408Y-70280613D01*
X61630656Y-70274761D01*
X61658430Y-70200000D01*
X66736887Y-70200000D01*
X66846120Y-70749151D01*
X67157189Y-71214698D01*
X67539275Y-71470000D01*
X67157189Y-71725302D01*
X66846120Y-72190849D01*
X66736887Y-72740000D01*
X66846120Y-73289151D01*
X67157189Y-73754698D01*
X67539275Y-74010000D01*
X67157189Y-74265302D01*
X66846120Y-74730849D01*
X66736887Y-75280000D01*
X66846120Y-75829151D01*
X67157189Y-76294698D01*
X67561703Y-76564986D01*
X67344866Y-76667611D01*
X66968959Y-77082577D01*
X66808096Y-77470961D01*
X66930085Y-77693000D01*
X68073000Y-77693000D01*
X68073000Y-77673000D01*
X68327000Y-77673000D01*
X68327000Y-77693000D01*
X69469915Y-77693000D01*
X69591904Y-77470961D01*
X69431041Y-77082577D01*
X69055134Y-76667611D01*
X68838297Y-76564986D01*
X69242811Y-76294698D01*
X69553880Y-75829151D01*
X69663113Y-75280000D01*
X69553880Y-74730849D01*
X69242811Y-74265302D01*
X68860725Y-74010000D01*
X69242811Y-73754698D01*
X69553880Y-73289151D01*
X69663113Y-72740000D01*
X69553880Y-72190849D01*
X69242811Y-71725302D01*
X68860725Y-71470000D01*
X69242811Y-71214698D01*
X69553880Y-70749151D01*
X69663113Y-70200000D01*
X69553880Y-69650849D01*
X69242811Y-69185302D01*
X69098535Y-69088899D01*
X69235317Y-69063162D01*
X69451441Y-68924090D01*
X69596431Y-68711890D01*
X69647440Y-68460000D01*
X69647440Y-66860000D01*
X69603162Y-66624683D01*
X69464090Y-66408559D01*
X69251890Y-66263569D01*
X69000000Y-66212560D01*
X67400000Y-66212560D01*
X67164683Y-66256838D01*
X66948559Y-66395910D01*
X66803569Y-66608110D01*
X66752560Y-66860000D01*
X66752560Y-68460000D01*
X66796838Y-68695317D01*
X66935910Y-68911441D01*
X67148110Y-69056431D01*
X67303089Y-69087815D01*
X67157189Y-69185302D01*
X66846120Y-69650849D01*
X66736887Y-70200000D01*
X61658430Y-70200000D01*
X61745908Y-69964539D01*
X61721856Y-69314540D01*
X61519387Y-68825736D01*
X61252532Y-68727073D01*
X60279605Y-69700000D01*
X60293748Y-69714143D01*
X60114143Y-69893748D01*
X60100000Y-69879605D01*
X59127073Y-70852532D01*
X59225736Y-71119387D01*
X59241488Y-71125239D01*
X59126236Y-71435461D01*
X46847440Y-71435461D01*
X46847440Y-71180000D01*
X46803162Y-70944683D01*
X46664090Y-70728559D01*
X46451890Y-70583569D01*
X46400854Y-70573234D01*
X46537966Y-70447576D01*
X46791046Y-69904742D01*
X46670997Y-69667000D01*
X45427000Y-69667000D01*
X45427000Y-69687000D01*
X45173000Y-69687000D01*
X45173000Y-69667000D01*
X43929003Y-69667000D01*
X43808954Y-69904742D01*
X44062034Y-70447576D01*
X44196538Y-70570844D01*
X44164683Y-70576838D01*
X43948559Y-70715910D01*
X43803569Y-70928110D01*
X43752560Y-71180000D01*
X40710000Y-71180000D01*
X40710000Y-66969928D01*
X43765000Y-66969928D01*
X43765000Y-67030072D01*
X43881845Y-67617491D01*
X44214591Y-68115481D01*
X44452582Y-68274501D01*
X44062034Y-68632424D01*
X43808954Y-69175258D01*
X43929003Y-69413000D01*
X45173000Y-69413000D01*
X45173000Y-69393000D01*
X45427000Y-69393000D01*
X45427000Y-69413000D01*
X46670997Y-69413000D01*
X46791046Y-69175258D01*
X46537966Y-68632424D01*
X46147418Y-68274501D01*
X46385409Y-68115481D01*
X46718155Y-67617491D01*
X46835000Y-67030072D01*
X46835000Y-66969928D01*
X46781308Y-66700000D01*
X52780416Y-66700000D01*
X52780416Y-68700000D01*
X52824694Y-68935317D01*
X52963766Y-69151441D01*
X53175966Y-69296431D01*
X53427856Y-69347440D01*
X53452560Y-69347440D01*
X53452560Y-70700000D01*
X53496838Y-70935317D01*
X53635910Y-71151441D01*
X53848110Y-71296431D01*
X54100000Y-71347440D01*
X56100000Y-71347440D01*
X56335317Y-71303162D01*
X56551441Y-71164090D01*
X56696431Y-70951890D01*
X56747440Y-70700000D01*
X56747440Y-69435461D01*
X58454092Y-69435461D01*
X58478144Y-70085460D01*
X58680613Y-70574264D01*
X58947468Y-70672927D01*
X59920395Y-69700000D01*
X58947468Y-68727073D01*
X58680613Y-68825736D01*
X58454092Y-69435461D01*
X56747440Y-69435461D01*
X56747440Y-68700000D01*
X56718740Y-68547468D01*
X59127073Y-68547468D01*
X60100000Y-69520395D01*
X61072927Y-68547468D01*
X60974264Y-68280613D01*
X60364539Y-68054092D01*
X59714540Y-68078144D01*
X59225736Y-68280613D01*
X59127073Y-68547468D01*
X56718740Y-68547468D01*
X56703162Y-68464683D01*
X56564090Y-68248559D01*
X56351890Y-68103569D01*
X56100000Y-68052560D01*
X56075296Y-68052560D01*
X56075296Y-66700000D01*
X56031018Y-66464683D01*
X55891946Y-66248559D01*
X55679746Y-66103569D01*
X55427856Y-66052560D01*
X53427856Y-66052560D01*
X53192539Y-66096838D01*
X52976415Y-66235910D01*
X52831425Y-66448110D01*
X52780416Y-66700000D01*
X46781308Y-66700000D01*
X46718155Y-66382509D01*
X46452660Y-65985167D01*
X89864838Y-65985167D01*
X90006883Y-66328943D01*
X90269673Y-66592192D01*
X90613201Y-66734838D01*
X90660077Y-66734879D01*
X94162599Y-70237401D01*
X94409161Y-70402148D01*
X94700000Y-70460000D01*
X107141354Y-70460000D01*
X107162757Y-70511800D01*
X107566077Y-70915824D01*
X108093309Y-71134750D01*
X108664187Y-71135248D01*
X109191800Y-70917243D01*
X109595824Y-70513923D01*
X109814750Y-69986691D01*
X109815000Y-69700000D01*
X114536887Y-69700000D01*
X114646120Y-70249151D01*
X114957189Y-70714698D01*
X115422736Y-71025767D01*
X115971887Y-71135000D01*
X116028113Y-71135000D01*
X116577264Y-71025767D01*
X117042811Y-70714698D01*
X117353880Y-70249151D01*
X117463113Y-69700000D01*
X117353880Y-69150849D01*
X117042811Y-68685302D01*
X116577264Y-68374233D01*
X116028113Y-68265000D01*
X115971887Y-68265000D01*
X115422736Y-68374233D01*
X114957189Y-68685302D01*
X114646120Y-69150849D01*
X114536887Y-69700000D01*
X109815000Y-69700000D01*
X109815248Y-69415813D01*
X109597243Y-68888200D01*
X109193923Y-68484176D01*
X108666691Y-68265250D01*
X108095813Y-68264752D01*
X107568200Y-68482757D01*
X107164176Y-68886077D01*
X107141785Y-68940000D01*
X95014802Y-68940000D01*
X92658989Y-66584187D01*
X103764752Y-66584187D01*
X103982757Y-67111800D01*
X104386077Y-67515824D01*
X104913309Y-67734750D01*
X105484187Y-67735248D01*
X106011800Y-67517243D01*
X106415824Y-67113923D01*
X106634750Y-66586691D01*
X106635000Y-66300000D01*
X111356887Y-66300000D01*
X111466120Y-66849151D01*
X111777189Y-67314698D01*
X112242736Y-67625767D01*
X112791887Y-67735000D01*
X112848113Y-67735000D01*
X113397264Y-67625767D01*
X113585487Y-67500000D01*
X123317296Y-67500000D01*
X123445559Y-68144822D01*
X123810821Y-68691475D01*
X124357474Y-69056737D01*
X125002296Y-69185000D01*
X126597704Y-69185000D01*
X127242526Y-69056737D01*
X127789179Y-68691475D01*
X128154441Y-68144822D01*
X128282704Y-67500000D01*
X128154441Y-66855178D01*
X127789179Y-66308525D01*
X127242526Y-65943263D01*
X126597704Y-65815000D01*
X125002296Y-65815000D01*
X124357474Y-65943263D01*
X123810821Y-66308525D01*
X123445559Y-66855178D01*
X123317296Y-67500000D01*
X113585487Y-67500000D01*
X113862811Y-67314698D01*
X114173880Y-66849151D01*
X114283113Y-66300000D01*
X114173880Y-65750849D01*
X113862811Y-65285302D01*
X113397264Y-64974233D01*
X112944573Y-64884187D01*
X119164752Y-64884187D01*
X119382757Y-65411800D01*
X119786077Y-65815824D01*
X120313309Y-66034750D01*
X120884187Y-66035248D01*
X121411800Y-65817243D01*
X121815824Y-65413923D01*
X122034750Y-64886691D01*
X122035248Y-64315813D01*
X121817243Y-63788200D01*
X121413923Y-63384176D01*
X120886691Y-63165250D01*
X120315813Y-63164752D01*
X119788200Y-63382757D01*
X119384176Y-63786077D01*
X119165250Y-64313309D01*
X119164752Y-64884187D01*
X112944573Y-64884187D01*
X112848113Y-64865000D01*
X112791887Y-64865000D01*
X112242736Y-64974233D01*
X111777189Y-65285302D01*
X111466120Y-65750849D01*
X111356887Y-66300000D01*
X106635000Y-66300000D01*
X106635248Y-66015813D01*
X106417243Y-65488200D01*
X106013923Y-65084176D01*
X105486691Y-64865250D01*
X104915813Y-64864752D01*
X104388200Y-65082757D01*
X103984176Y-65486077D01*
X103765250Y-66013309D01*
X103764752Y-66584187D01*
X92658989Y-66584187D01*
X91735122Y-65660320D01*
X91735162Y-65614833D01*
X91593117Y-65271057D01*
X91330327Y-65007808D01*
X90986799Y-64865162D01*
X90614833Y-64864838D01*
X90271057Y-65006883D01*
X90007808Y-65269673D01*
X89865162Y-65613201D01*
X89864838Y-65985167D01*
X46452660Y-65985167D01*
X46385409Y-65884519D01*
X45887419Y-65551773D01*
X45300000Y-65434928D01*
X44712581Y-65551773D01*
X44214591Y-65884519D01*
X43881845Y-66382509D01*
X43765000Y-66969928D01*
X40710000Y-66969928D01*
X40710000Y-65069931D01*
X40897167Y-64128977D01*
X41328002Y-63484187D01*
X103764752Y-63484187D01*
X103982757Y-64011800D01*
X104386077Y-64415824D01*
X104913309Y-64634750D01*
X105484187Y-64635248D01*
X106011800Y-64417243D01*
X106415824Y-64013923D01*
X106634750Y-63486691D01*
X106635000Y-63200000D01*
X111356887Y-63200000D01*
X111466120Y-63749151D01*
X111777189Y-64214698D01*
X112242736Y-64525767D01*
X112791887Y-64635000D01*
X112848113Y-64635000D01*
X113397264Y-64525767D01*
X113862811Y-64214698D01*
X114173880Y-63749151D01*
X114283113Y-63200000D01*
X114173880Y-62650849D01*
X113862811Y-62185302D01*
X113397264Y-61874233D01*
X112848113Y-61765000D01*
X112791887Y-61765000D01*
X112242736Y-61874233D01*
X111777189Y-62185302D01*
X111466120Y-62650849D01*
X111356887Y-63200000D01*
X106635000Y-63200000D01*
X106635248Y-62915813D01*
X106417243Y-62388200D01*
X106013923Y-61984176D01*
X105486691Y-61765250D01*
X104915813Y-61764752D01*
X104388200Y-61982757D01*
X103984176Y-62386077D01*
X103765250Y-62913309D01*
X103764752Y-63484187D01*
X41328002Y-63484187D01*
X41390561Y-63390561D01*
X42128977Y-62897167D01*
X43138514Y-62696358D01*
X46582665Y-62011274D01*
X46838606Y-61905259D01*
X49758416Y-59954304D01*
X49954304Y-59758416D01*
X50833491Y-58442619D01*
X62264613Y-58442619D01*
X62604155Y-59264372D01*
X63232321Y-59893636D01*
X64053481Y-60234611D01*
X64942619Y-60235387D01*
X65342885Y-60070000D01*
X97982560Y-60070000D01*
X97982560Y-61070000D01*
X98026838Y-61305317D01*
X98165910Y-61521441D01*
X98378110Y-61666431D01*
X98630000Y-61717440D01*
X99630000Y-61717440D01*
X99865317Y-61673162D01*
X100081441Y-61534090D01*
X100226431Y-61321890D01*
X100277440Y-61070000D01*
X100277440Y-60434894D01*
X100535117Y-60435119D01*
X100534803Y-60794775D01*
X100707233Y-61212086D01*
X101026235Y-61531645D01*
X101443244Y-61704803D01*
X101894775Y-61705197D01*
X102312086Y-61532767D01*
X102631645Y-61213765D01*
X102804803Y-60796756D01*
X102805197Y-60345225D01*
X102632767Y-59927914D01*
X102313765Y-59608355D01*
X101896756Y-59435197D01*
X101534883Y-59434881D01*
X101535197Y-59075225D01*
X101362767Y-58657914D01*
X101147848Y-58442619D01*
X105264613Y-58442619D01*
X105604155Y-59264372D01*
X106232321Y-59893636D01*
X107053481Y-60234611D01*
X107942619Y-60235387D01*
X108764372Y-59895845D01*
X109393636Y-59267679D01*
X109734611Y-58446519D01*
X109735387Y-57557381D01*
X109395845Y-56735628D01*
X108767679Y-56106364D01*
X107946519Y-55765389D01*
X107057381Y-55764613D01*
X106235628Y-56104155D01*
X105606364Y-56732321D01*
X105265389Y-57553481D01*
X105264613Y-58442619D01*
X101147848Y-58442619D01*
X101043765Y-58338355D01*
X100626756Y-58165197D01*
X100175225Y-58164803D01*
X99757914Y-58337233D01*
X99438355Y-58656235D01*
X99265197Y-59073244D01*
X99264892Y-59422560D01*
X98630000Y-59422560D01*
X98394683Y-59466838D01*
X98178559Y-59605910D01*
X98033569Y-59818110D01*
X97982560Y-60070000D01*
X65342885Y-60070000D01*
X65764372Y-59895845D01*
X66393636Y-59267679D01*
X66734611Y-58446519D01*
X66735387Y-57557381D01*
X66395845Y-56735628D01*
X65767679Y-56106364D01*
X64946519Y-55765389D01*
X64057381Y-55764613D01*
X63235628Y-56104155D01*
X62606364Y-56732321D01*
X62265389Y-57553481D01*
X62264613Y-58442619D01*
X50833491Y-58442619D01*
X51905259Y-56838606D01*
X51949284Y-56732321D01*
X52011274Y-56582665D01*
X52369013Y-54784187D01*
X85164752Y-54784187D01*
X85382757Y-55311800D01*
X85786077Y-55715824D01*
X86313309Y-55934750D01*
X86884187Y-55935248D01*
X87411800Y-55717243D01*
X87815824Y-55313923D01*
X88034750Y-54786691D01*
X88035000Y-54500000D01*
X92756887Y-54500000D01*
X92866120Y-55049151D01*
X93177189Y-55514698D01*
X93642736Y-55825767D01*
X94191887Y-55935000D01*
X94248113Y-55935000D01*
X94541367Y-55876668D01*
X94729159Y-56002147D01*
X94777413Y-56011745D01*
X95019999Y-56059999D01*
X99792895Y-56059999D01*
X100083734Y-56002147D01*
X100330296Y-55837400D01*
X100991435Y-55176261D01*
X101373244Y-55334803D01*
X101824775Y-55335197D01*
X102242086Y-55162767D01*
X102561645Y-54843765D01*
X102734803Y-54426756D01*
X102735197Y-53975225D01*
X102562767Y-53557914D01*
X102243765Y-53238355D01*
X101838323Y-53070000D01*
X113782560Y-53070000D01*
X113782560Y-54070000D01*
X113826838Y-54305317D01*
X113965910Y-54521441D01*
X114178110Y-54666431D01*
X114430000Y-54717440D01*
X115430000Y-54717440D01*
X115440000Y-54715558D01*
X115440000Y-57164196D01*
X114592599Y-58011597D01*
X114427852Y-58258159D01*
X114370000Y-58548998D01*
X114370000Y-58682721D01*
X114178559Y-58805910D01*
X114033569Y-59018110D01*
X113982560Y-59270000D01*
X113982560Y-60270000D01*
X114026838Y-60505317D01*
X114165910Y-60721441D01*
X114378110Y-60866431D01*
X114630000Y-60917440D01*
X115630000Y-60917440D01*
X115865317Y-60873162D01*
X116081441Y-60734090D01*
X116226431Y-60521890D01*
X116277440Y-60270000D01*
X116277440Y-59634894D01*
X116535117Y-59635119D01*
X116534803Y-59994775D01*
X116707233Y-60412086D01*
X117026235Y-60731645D01*
X117443244Y-60904803D01*
X117894775Y-60905197D01*
X118312086Y-60732767D01*
X118631645Y-60413765D01*
X118804803Y-59996756D01*
X118805197Y-59545225D01*
X118632767Y-59127914D01*
X118313765Y-58808355D01*
X117896756Y-58635197D01*
X117534883Y-58634881D01*
X117535197Y-58275225D01*
X117362767Y-57857914D01*
X117043765Y-57538355D01*
X116955485Y-57501698D01*
X116960000Y-57478998D01*
X116960000Y-54587189D01*
X117243244Y-54704803D01*
X117694775Y-54705197D01*
X118112086Y-54532767D01*
X118431645Y-54213765D01*
X118604803Y-53796756D01*
X118605197Y-53345225D01*
X118432767Y-52927914D01*
X118113765Y-52608355D01*
X117696756Y-52435197D01*
X117334883Y-52434881D01*
X117335197Y-52075225D01*
X117162767Y-51657914D01*
X116843765Y-51338355D01*
X116426756Y-51165197D01*
X115975225Y-51164803D01*
X115557914Y-51337233D01*
X115238355Y-51656235D01*
X115065197Y-52073244D01*
X115064892Y-52422560D01*
X114430000Y-52422560D01*
X114194683Y-52466838D01*
X113978559Y-52605910D01*
X113833569Y-52818110D01*
X113782560Y-53070000D01*
X101838323Y-53070000D01*
X101826756Y-53065197D01*
X101464883Y-53064881D01*
X101465197Y-52705225D01*
X101292767Y-52287914D01*
X100973765Y-51968355D01*
X100556756Y-51795197D01*
X100105225Y-51794803D01*
X99687914Y-51967233D01*
X99368355Y-52286235D01*
X99195197Y-52703244D01*
X99194892Y-53052560D01*
X98560000Y-53052560D01*
X98324683Y-53096838D01*
X98108559Y-53235910D01*
X97963569Y-53448110D01*
X97912560Y-53700000D01*
X97912560Y-54539999D01*
X95675157Y-54539999D01*
X95683113Y-54500000D01*
X95573880Y-53950849D01*
X95262811Y-53485302D01*
X94797264Y-53174233D01*
X94248113Y-53065000D01*
X94191887Y-53065000D01*
X93642736Y-53174233D01*
X93177189Y-53485302D01*
X92866120Y-53950849D01*
X92756887Y-54500000D01*
X88035000Y-54500000D01*
X88035248Y-54215813D01*
X87817243Y-53688200D01*
X87413923Y-53284176D01*
X86886691Y-53065250D01*
X86315813Y-53064752D01*
X85788200Y-53282757D01*
X85384176Y-53686077D01*
X85165250Y-54213309D01*
X85164752Y-54784187D01*
X52369013Y-54784187D01*
X52696358Y-53138514D01*
X52897167Y-52128977D01*
X53390561Y-51390561D01*
X54128977Y-50897167D01*
X55069931Y-50710000D01*
X116930069Y-50710000D01*
X117871023Y-50897167D01*
M02*
