G04 #@! TF.FileFunction,Legend,Top*
%FSLAX46Y46*%
G04 Gerber Fmt 4.6, Leading zero omitted, Abs format (unit mm)*
G04 Created by KiCad (PCBNEW 4.0.5) date 2017 June 19, Monday 06:47:11*
%MOMM*%
%LPD*%
G01*
G04 APERTURE LIST*
%ADD10C,0.100000*%
%ADD11C,0.120000*%
%ADD12C,0.150000*%
G04 APERTURE END LIST*
D10*
D11*
X111610000Y-91100000D02*
X109490000Y-91100000D01*
X109490000Y-91100000D02*
X109490000Y-95220000D01*
X109490000Y-95220000D02*
X111610000Y-95220000D01*
X111610000Y-95220000D02*
X111610000Y-91100000D01*
X110550000Y-90330000D02*
X110550000Y-91100000D01*
X110550000Y-95990000D02*
X110550000Y-95220000D01*
X111610000Y-91760000D02*
X109490000Y-91760000D01*
X115160000Y-91100000D02*
X113040000Y-91100000D01*
X113040000Y-91100000D02*
X113040000Y-95220000D01*
X113040000Y-95220000D02*
X115160000Y-95220000D01*
X115160000Y-95220000D02*
X115160000Y-91100000D01*
X114100000Y-90330000D02*
X114100000Y-91100000D01*
X114100000Y-95990000D02*
X114100000Y-95220000D01*
X115160000Y-91760000D02*
X113040000Y-91760000D01*
X118260000Y-91050000D02*
X116140000Y-91050000D01*
X116140000Y-91050000D02*
X116140000Y-95170000D01*
X116140000Y-95170000D02*
X118260000Y-95170000D01*
X118260000Y-95170000D02*
X118260000Y-91050000D01*
X117200000Y-90280000D02*
X117200000Y-91050000D01*
X117200000Y-95940000D02*
X117200000Y-95170000D01*
X118260000Y-91710000D02*
X116140000Y-91710000D01*
X122160000Y-80350000D02*
X120040000Y-80350000D01*
X120040000Y-80350000D02*
X120040000Y-84470000D01*
X120040000Y-84470000D02*
X122160000Y-84470000D01*
X122160000Y-84470000D02*
X122160000Y-80350000D01*
X121100000Y-79580000D02*
X121100000Y-80350000D01*
X121100000Y-85240000D02*
X121100000Y-84470000D01*
X122160000Y-81010000D02*
X120040000Y-81010000D01*
X108060000Y-91100000D02*
X105940000Y-91100000D01*
X105940000Y-91100000D02*
X105940000Y-95220000D01*
X105940000Y-95220000D02*
X108060000Y-95220000D01*
X108060000Y-95220000D02*
X108060000Y-91100000D01*
X107000000Y-90330000D02*
X107000000Y-91100000D01*
X107000000Y-95990000D02*
X107000000Y-95220000D01*
X108060000Y-91760000D02*
X105940000Y-91760000D01*
X97410000Y-91100000D02*
X95290000Y-91100000D01*
X95290000Y-91100000D02*
X95290000Y-95220000D01*
X95290000Y-95220000D02*
X97410000Y-95220000D01*
X97410000Y-95220000D02*
X97410000Y-91100000D01*
X96350000Y-90330000D02*
X96350000Y-91100000D01*
X96350000Y-95990000D02*
X96350000Y-95220000D01*
X97410000Y-91760000D02*
X95290000Y-91760000D01*
X93860000Y-91100000D02*
X91740000Y-91100000D01*
X91740000Y-91100000D02*
X91740000Y-95220000D01*
X91740000Y-95220000D02*
X93860000Y-95220000D01*
X93860000Y-95220000D02*
X93860000Y-91100000D01*
X92800000Y-90330000D02*
X92800000Y-91100000D01*
X92800000Y-95990000D02*
X92800000Y-95220000D01*
X93860000Y-91760000D02*
X91740000Y-91760000D01*
X82070000Y-79110000D02*
X82070000Y-89330000D01*
X82070000Y-89330000D02*
X84730000Y-89330000D01*
X84730000Y-89330000D02*
X84730000Y-79110000D01*
X84730000Y-79110000D02*
X82070000Y-79110000D01*
X82070000Y-77840000D02*
X82070000Y-76510000D01*
X82070000Y-76510000D02*
X83400000Y-76510000D01*
X82170000Y-70290000D02*
X82170000Y-75430000D01*
X82170000Y-75430000D02*
X84830000Y-75430000D01*
X84830000Y-75430000D02*
X84830000Y-70290000D01*
X84830000Y-70290000D02*
X82170000Y-70290000D01*
X82170000Y-69020000D02*
X82170000Y-67690000D01*
X82170000Y-67690000D02*
X83500000Y-67690000D01*
D12*
X97830000Y-102190000D02*
X90210000Y-102190000D01*
X90210000Y-102190000D02*
X90210000Y-107270000D01*
X90210000Y-107270000D02*
X100370000Y-107270000D01*
X100370000Y-107270000D02*
X100370000Y-104730000D01*
X100650000Y-103460000D02*
X100650000Y-101910000D01*
X100370000Y-104730000D02*
X97830000Y-104730000D01*
X97830000Y-104730000D02*
X97830000Y-102190000D01*
X100650000Y-101910000D02*
X99100000Y-101910000D01*
D11*
X84070000Y-104670000D02*
X71310000Y-104670000D01*
X71310000Y-104670000D02*
X71310000Y-107330000D01*
X71310000Y-107330000D02*
X84070000Y-107330000D01*
X84070000Y-107330000D02*
X84070000Y-104670000D01*
X85340000Y-104670000D02*
X86670000Y-104670000D01*
X86670000Y-104670000D02*
X86670000Y-106000000D01*
X110470000Y-86550000D02*
X114070000Y-86550000D01*
X110431522Y-86538478D02*
G75*
G02X112270000Y-82100000I1838478J1838478D01*
G01*
X114108478Y-86538478D02*
G75*
G03X112270000Y-82100000I-1838478J1838478D01*
G01*
X114400000Y-55420000D02*
X118000000Y-55420000D01*
X114361522Y-55408478D02*
G75*
G02X116200000Y-50970000I1838478J1838478D01*
G01*
X118038478Y-55408478D02*
G75*
G03X116200000Y-50970000I-1838478J1838478D01*
G01*
X114600000Y-61620000D02*
X118200000Y-61620000D01*
X114561522Y-61608478D02*
G75*
G02X116400000Y-57170000I1838478J1838478D01*
G01*
X118238478Y-61608478D02*
G75*
G03X116400000Y-57170000I-1838478J1838478D01*
G01*
X98530000Y-56050000D02*
X102130000Y-56050000D01*
X98491522Y-56038478D02*
G75*
G02X100330000Y-51600000I1838478J1838478D01*
G01*
X102168478Y-56038478D02*
G75*
G03X100330000Y-51600000I-1838478J1838478D01*
G01*
X98600000Y-62420000D02*
X102200000Y-62420000D01*
X98561522Y-62408478D02*
G75*
G02X100400000Y-57970000I1838478J1838478D01*
G01*
X102238478Y-62408478D02*
G75*
G03X100400000Y-57970000I-1838478J1838478D01*
G01*
X110700000Y-77920000D02*
X110700000Y-77590000D01*
X110700000Y-77590000D02*
X117120000Y-77590000D01*
X117120000Y-77590000D02*
X117120000Y-77920000D01*
X110700000Y-79880000D02*
X110700000Y-80210000D01*
X110700000Y-80210000D02*
X117120000Y-80210000D01*
X117120000Y-80210000D02*
X117120000Y-79880000D01*
X104430000Y-89950000D02*
X104760000Y-89950000D01*
X104760000Y-89950000D02*
X104760000Y-96370000D01*
X104760000Y-96370000D02*
X104430000Y-96370000D01*
X102470000Y-89950000D02*
X102140000Y-89950000D01*
X102140000Y-89950000D02*
X102140000Y-96370000D01*
X102140000Y-96370000D02*
X102470000Y-96370000D01*
X98920000Y-96400000D02*
X98590000Y-96400000D01*
X98590000Y-96400000D02*
X98590000Y-89980000D01*
X98590000Y-89980000D02*
X98920000Y-89980000D01*
X100880000Y-96400000D02*
X101210000Y-96400000D01*
X101210000Y-96400000D02*
X101210000Y-89980000D01*
X101210000Y-89980000D02*
X100880000Y-89980000D01*
X88420000Y-96500000D02*
X88090000Y-96500000D01*
X88090000Y-96500000D02*
X88090000Y-90080000D01*
X88090000Y-90080000D02*
X88420000Y-90080000D01*
X90380000Y-96500000D02*
X90710000Y-96500000D01*
X90710000Y-96500000D02*
X90710000Y-90080000D01*
X90710000Y-90080000D02*
X90380000Y-90080000D01*
X108980000Y-68720000D02*
X108980000Y-68390000D01*
X108980000Y-68390000D02*
X115400000Y-68390000D01*
X115400000Y-68390000D02*
X115400000Y-68720000D01*
X108980000Y-70680000D02*
X108980000Y-71010000D01*
X108980000Y-71010000D02*
X115400000Y-71010000D01*
X115400000Y-71010000D02*
X115400000Y-70680000D01*
X108880000Y-72420000D02*
X108880000Y-72090000D01*
X108880000Y-72090000D02*
X115300000Y-72090000D01*
X115300000Y-72090000D02*
X115300000Y-72420000D01*
X108880000Y-74380000D02*
X108880000Y-74710000D01*
X108880000Y-74710000D02*
X115300000Y-74710000D01*
X115300000Y-74710000D02*
X115300000Y-74380000D01*
X121580000Y-65200000D02*
X121910000Y-65200000D01*
X121910000Y-65200000D02*
X121910000Y-71620000D01*
X121910000Y-71620000D02*
X121580000Y-71620000D01*
X119620000Y-65200000D02*
X119290000Y-65200000D01*
X119290000Y-65200000D02*
X119290000Y-71620000D01*
X119290000Y-71620000D02*
X119620000Y-71620000D01*
X95680000Y-79200000D02*
X96010000Y-79200000D01*
X96010000Y-79200000D02*
X96010000Y-85620000D01*
X96010000Y-85620000D02*
X95680000Y-85620000D01*
X93720000Y-79200000D02*
X93390000Y-79200000D01*
X93390000Y-79200000D02*
X93390000Y-85620000D01*
X93390000Y-85620000D02*
X93720000Y-85620000D01*
X87200000Y-53520000D02*
X87200000Y-53190000D01*
X87200000Y-53190000D02*
X93620000Y-53190000D01*
X93620000Y-53190000D02*
X93620000Y-53520000D01*
X87200000Y-55480000D02*
X87200000Y-55810000D01*
X87200000Y-55810000D02*
X93620000Y-55810000D01*
X93620000Y-55810000D02*
X93620000Y-55480000D01*
X55680000Y-81720000D02*
X55680000Y-81390000D01*
X55680000Y-81390000D02*
X62100000Y-81390000D01*
X62100000Y-81390000D02*
X62100000Y-81720000D01*
X55680000Y-83680000D02*
X55680000Y-84010000D01*
X55680000Y-84010000D02*
X62100000Y-84010000D01*
X62100000Y-84010000D02*
X62100000Y-83680000D01*
X105800000Y-62220000D02*
X105800000Y-61890000D01*
X105800000Y-61890000D02*
X112220000Y-61890000D01*
X112220000Y-61890000D02*
X112220000Y-62220000D01*
X105800000Y-64180000D02*
X105800000Y-64510000D01*
X105800000Y-64510000D02*
X112220000Y-64510000D01*
X112220000Y-64510000D02*
X112220000Y-64180000D01*
X105800000Y-65320000D02*
X105800000Y-64990000D01*
X105800000Y-64990000D02*
X112220000Y-64990000D01*
X112220000Y-64990000D02*
X112220000Y-65320000D01*
X105800000Y-67280000D02*
X105800000Y-67610000D01*
X105800000Y-67610000D02*
X112220000Y-67610000D01*
X112220000Y-67610000D02*
X112220000Y-67280000D01*
X71010000Y-66270000D02*
X69240000Y-66270000D01*
X69240000Y-66270000D02*
X69240000Y-89370000D01*
X69240000Y-89370000D02*
X74780000Y-89370000D01*
X74780000Y-89370000D02*
X74780000Y-66270000D01*
X74780000Y-66270000D02*
X73010000Y-66270000D01*
X73010000Y-66270000D02*
G75*
G02X71010000Y-66270000I-1000000J0D01*
G01*
X103610000Y-84530000D02*
X105380000Y-84530000D01*
X105380000Y-84530000D02*
X105380000Y-74130000D01*
X105380000Y-74130000D02*
X99840000Y-74130000D01*
X99840000Y-74130000D02*
X99840000Y-84530000D01*
X99840000Y-84530000D02*
X101610000Y-84530000D01*
X101610000Y-84530000D02*
G75*
G02X103610000Y-84530000I1000000J0D01*
G01*
X42680000Y-74660000D02*
X42680000Y-64420000D01*
X47321000Y-74660000D02*
X47321000Y-64420000D01*
X42680000Y-74660000D02*
X47321000Y-74660000D01*
X42680000Y-64420000D02*
X47321000Y-64420000D01*
X44190000Y-74660000D02*
X44190000Y-64420000D01*
X42680000Y-71390000D02*
X44190000Y-71390000D01*
X42680000Y-67689000D02*
X44190000Y-67689000D01*
X63951525Y-89120806D02*
G75*
G03X54048667Y-89120000I-4951525J-1179194D01*
G01*
X63951525Y-91479194D02*
G75*
G02X54048667Y-91480000I-4951525J1179194D01*
G01*
X63951525Y-91479194D02*
G75*
G03X63951333Y-89120000I-4951525J1179194D01*
G01*
X59000000Y-85250000D02*
X59000000Y-95350000D01*
X59040000Y-85250000D02*
X59040000Y-95350000D01*
X59080000Y-85250000D02*
X59080000Y-95350000D01*
X59120000Y-85251000D02*
X59120000Y-95349000D01*
X59160000Y-85252000D02*
X59160000Y-95348000D01*
X59200000Y-85253000D02*
X59200000Y-95347000D01*
X59240000Y-85255000D02*
X59240000Y-95345000D01*
X59280000Y-85257000D02*
X59280000Y-95343000D01*
X59320000Y-85260000D02*
X59320000Y-95340000D01*
X59360000Y-85262000D02*
X59360000Y-95338000D01*
X59400000Y-85265000D02*
X59400000Y-95335000D01*
X59440000Y-85269000D02*
X59440000Y-95331000D01*
X59480000Y-85272000D02*
X59480000Y-95328000D01*
X59520000Y-85276000D02*
X59520000Y-95324000D01*
X59560000Y-85280000D02*
X59560000Y-95320000D01*
X59600000Y-85285000D02*
X59600000Y-95315000D01*
X59640000Y-85290000D02*
X59640000Y-95310000D01*
X59680000Y-85295000D02*
X59680000Y-95305000D01*
X59721000Y-85301000D02*
X59721000Y-95299000D01*
X59761000Y-85307000D02*
X59761000Y-95293000D01*
X59801000Y-85313000D02*
X59801000Y-95287000D01*
X59841000Y-85319000D02*
X59841000Y-95281000D01*
X59881000Y-85326000D02*
X59881000Y-95274000D01*
X59921000Y-85333000D02*
X59921000Y-95267000D01*
X59961000Y-85341000D02*
X59961000Y-95259000D01*
X60001000Y-85349000D02*
X60001000Y-95251000D01*
X60041000Y-85357000D02*
X60041000Y-95243000D01*
X60081000Y-85365000D02*
X60081000Y-95235000D01*
X60121000Y-85374000D02*
X60121000Y-95226000D01*
X60161000Y-85383000D02*
X60161000Y-95217000D01*
X60201000Y-85393000D02*
X60201000Y-95207000D01*
X60241000Y-85403000D02*
X60241000Y-95197000D01*
X60281000Y-85413000D02*
X60281000Y-95187000D01*
X60321000Y-85424000D02*
X60321000Y-89119000D01*
X60321000Y-91481000D02*
X60321000Y-95176000D01*
X60361000Y-85435000D02*
X60361000Y-89119000D01*
X60361000Y-91481000D02*
X60361000Y-95165000D01*
X60401000Y-85446000D02*
X60401000Y-89119000D01*
X60401000Y-91481000D02*
X60401000Y-95154000D01*
X60441000Y-85457000D02*
X60441000Y-89119000D01*
X60441000Y-91481000D02*
X60441000Y-95143000D01*
X60481000Y-85469000D02*
X60481000Y-89119000D01*
X60481000Y-91481000D02*
X60481000Y-95131000D01*
X60521000Y-85482000D02*
X60521000Y-89119000D01*
X60521000Y-91481000D02*
X60521000Y-95118000D01*
X60561000Y-85494000D02*
X60561000Y-89119000D01*
X60561000Y-91481000D02*
X60561000Y-95106000D01*
X60601000Y-85508000D02*
X60601000Y-89119000D01*
X60601000Y-91481000D02*
X60601000Y-95092000D01*
X60641000Y-85521000D02*
X60641000Y-89119000D01*
X60641000Y-91481000D02*
X60641000Y-95079000D01*
X60681000Y-85535000D02*
X60681000Y-89119000D01*
X60681000Y-91481000D02*
X60681000Y-95065000D01*
X60721000Y-85549000D02*
X60721000Y-89119000D01*
X60721000Y-91481000D02*
X60721000Y-95051000D01*
X60761000Y-85563000D02*
X60761000Y-89119000D01*
X60761000Y-91481000D02*
X60761000Y-95037000D01*
X60801000Y-85578000D02*
X60801000Y-89119000D01*
X60801000Y-91481000D02*
X60801000Y-95022000D01*
X60841000Y-85594000D02*
X60841000Y-89119000D01*
X60841000Y-91481000D02*
X60841000Y-95006000D01*
X60881000Y-85609000D02*
X60881000Y-89119000D01*
X60881000Y-91481000D02*
X60881000Y-94991000D01*
X60921000Y-85626000D02*
X60921000Y-89119000D01*
X60921000Y-91481000D02*
X60921000Y-94974000D01*
X60961000Y-85642000D02*
X60961000Y-89119000D01*
X60961000Y-91481000D02*
X60961000Y-94958000D01*
X61001000Y-85659000D02*
X61001000Y-89119000D01*
X61001000Y-93480000D02*
X61001000Y-94941000D01*
X61041000Y-85676000D02*
X61041000Y-89119000D01*
X61041000Y-93480000D02*
X61041000Y-94924000D01*
X61081000Y-85694000D02*
X61081000Y-89119000D01*
X61081000Y-93480000D02*
X61081000Y-94906000D01*
X61121000Y-85712000D02*
X61121000Y-89119000D01*
X61121000Y-93480000D02*
X61121000Y-94888000D01*
X61161000Y-85731000D02*
X61161000Y-89119000D01*
X61161000Y-93480000D02*
X61161000Y-94869000D01*
X61201000Y-85750000D02*
X61201000Y-89119000D01*
X61201000Y-93480000D02*
X61201000Y-94850000D01*
X61241000Y-85769000D02*
X61241000Y-89119000D01*
X61241000Y-93480000D02*
X61241000Y-94831000D01*
X61281000Y-85789000D02*
X61281000Y-89119000D01*
X61281000Y-93480000D02*
X61281000Y-94811000D01*
X61321000Y-85809000D02*
X61321000Y-89119000D01*
X61321000Y-93480000D02*
X61321000Y-94791000D01*
X61361000Y-85830000D02*
X61361000Y-89119000D01*
X61361000Y-93480000D02*
X61361000Y-94770000D01*
X61401000Y-85851000D02*
X61401000Y-89119000D01*
X61401000Y-93480000D02*
X61401000Y-94749000D01*
X61441000Y-85872000D02*
X61441000Y-89119000D01*
X61441000Y-93480000D02*
X61441000Y-94728000D01*
X61481000Y-85895000D02*
X61481000Y-89119000D01*
X61481000Y-93480000D02*
X61481000Y-94705000D01*
X61521000Y-85917000D02*
X61521000Y-89119000D01*
X61521000Y-93480000D02*
X61521000Y-94683000D01*
X61561000Y-85940000D02*
X61561000Y-89119000D01*
X61561000Y-93480000D02*
X61561000Y-94660000D01*
X61601000Y-85964000D02*
X61601000Y-89119000D01*
X61601000Y-93480000D02*
X61601000Y-94636000D01*
X61641000Y-85988000D02*
X61641000Y-89119000D01*
X61641000Y-93480000D02*
X61641000Y-94612000D01*
X61681000Y-86012000D02*
X61681000Y-89119000D01*
X61681000Y-93480000D02*
X61681000Y-94588000D01*
X61721000Y-86037000D02*
X61721000Y-89119000D01*
X61721000Y-93480000D02*
X61721000Y-94563000D01*
X61761000Y-86063000D02*
X61761000Y-89119000D01*
X61761000Y-93480000D02*
X61761000Y-94537000D01*
X61801000Y-86089000D02*
X61801000Y-89119000D01*
X61801000Y-93480000D02*
X61801000Y-94511000D01*
X61841000Y-86115000D02*
X61841000Y-89119000D01*
X61841000Y-93480000D02*
X61841000Y-94485000D01*
X61881000Y-86143000D02*
X61881000Y-89119000D01*
X61881000Y-93480000D02*
X61881000Y-94457000D01*
X61921000Y-86170000D02*
X61921000Y-89119000D01*
X61921000Y-93480000D02*
X61921000Y-94430000D01*
X61961000Y-86199000D02*
X61961000Y-89119000D01*
X61961000Y-93480000D02*
X61961000Y-94401000D01*
X62001000Y-86228000D02*
X62001000Y-89119000D01*
X62001000Y-93480000D02*
X62001000Y-94372000D01*
X62041000Y-86257000D02*
X62041000Y-89119000D01*
X62041000Y-93480000D02*
X62041000Y-94343000D01*
X62081000Y-86287000D02*
X62081000Y-89119000D01*
X62081000Y-93480000D02*
X62081000Y-94313000D01*
X62121000Y-86318000D02*
X62121000Y-89119000D01*
X62121000Y-93480000D02*
X62121000Y-94282000D01*
X62161000Y-86349000D02*
X62161000Y-89119000D01*
X62161000Y-93480000D02*
X62161000Y-94251000D01*
X62201000Y-86381000D02*
X62201000Y-89119000D01*
X62201000Y-93480000D02*
X62201000Y-94219000D01*
X62241000Y-86414000D02*
X62241000Y-89119000D01*
X62241000Y-93480000D02*
X62241000Y-94186000D01*
X62281000Y-86447000D02*
X62281000Y-89119000D01*
X62281000Y-93480000D02*
X62281000Y-94153000D01*
X62321000Y-86481000D02*
X62321000Y-89119000D01*
X62321000Y-93480000D02*
X62321000Y-94119000D01*
X62361000Y-86516000D02*
X62361000Y-89119000D01*
X62361000Y-93480000D02*
X62361000Y-94084000D01*
X62401000Y-86552000D02*
X62401000Y-89119000D01*
X62401000Y-93480000D02*
X62401000Y-94048000D01*
X62441000Y-86588000D02*
X62441000Y-89119000D01*
X62441000Y-93480000D02*
X62441000Y-94012000D01*
X62481000Y-86625000D02*
X62481000Y-89119000D01*
X62481000Y-93480000D02*
X62481000Y-93975000D01*
X62521000Y-86663000D02*
X62521000Y-89119000D01*
X62521000Y-93480000D02*
X62521000Y-93937000D01*
X62561000Y-86702000D02*
X62561000Y-89119000D01*
X62561000Y-93480000D02*
X62561000Y-93898000D01*
X62601000Y-86741000D02*
X62601000Y-89119000D01*
X62601000Y-93480000D02*
X62601000Y-93859000D01*
X62641000Y-86782000D02*
X62641000Y-89119000D01*
X62641000Y-93480000D02*
X62641000Y-93818000D01*
X62681000Y-86823000D02*
X62681000Y-91120000D01*
X62681000Y-93480000D02*
X62681000Y-93777000D01*
X62721000Y-86865000D02*
X62721000Y-91120000D01*
X62721000Y-93480000D02*
X62721000Y-93735000D01*
X62761000Y-86909000D02*
X62761000Y-91120000D01*
X62761000Y-93480000D02*
X62761000Y-93691000D01*
X62801000Y-86953000D02*
X62801000Y-91120000D01*
X62801000Y-93480000D02*
X62801000Y-93647000D01*
X62841000Y-86998000D02*
X62841000Y-91120000D01*
X62841000Y-93480000D02*
X62841000Y-93602000D01*
X62881000Y-87045000D02*
X62881000Y-91120000D01*
X62881000Y-93480000D02*
X62881000Y-93555000D01*
X62921000Y-87093000D02*
X62921000Y-91120000D01*
X62921000Y-93480000D02*
X62921000Y-93507000D01*
X62961000Y-87142000D02*
X62961000Y-91120000D01*
X63001000Y-87192000D02*
X63001000Y-91120000D01*
X63041000Y-87243000D02*
X63041000Y-91120000D01*
X63081000Y-87296000D02*
X63081000Y-91120000D01*
X63121000Y-87351000D02*
X63121000Y-91120000D01*
X63161000Y-87406000D02*
X63161000Y-91120000D01*
X63201000Y-87464000D02*
X63201000Y-91120000D01*
X63241000Y-87523000D02*
X63241000Y-91120000D01*
X63281000Y-87585000D02*
X63281000Y-91120000D01*
X63321000Y-87648000D02*
X63321000Y-91120000D01*
X63361000Y-87713000D02*
X63361000Y-92887000D01*
X63401000Y-87781000D02*
X63401000Y-92819000D01*
X63441000Y-87851000D02*
X63441000Y-92749000D01*
X63481000Y-87923000D02*
X63481000Y-92677000D01*
X63521000Y-87999000D02*
X63521000Y-92601000D01*
X63561000Y-88078000D02*
X63561000Y-92522000D01*
X63601000Y-88160000D02*
X63601000Y-92440000D01*
X63641000Y-88247000D02*
X63641000Y-92353000D01*
X63681000Y-88338000D02*
X63681000Y-92262000D01*
X63721000Y-88434000D02*
X63721000Y-92166000D01*
X63761000Y-88537000D02*
X63761000Y-92063000D01*
X63801000Y-88646000D02*
X63801000Y-91954000D01*
X63841000Y-88764000D02*
X63841000Y-91836000D01*
X63881000Y-88893000D02*
X63881000Y-91707000D01*
X63921000Y-89035000D02*
X63921000Y-91565000D01*
X63961000Y-89196000D02*
X63961000Y-91404000D01*
X64001000Y-89387000D02*
X64001000Y-91213000D01*
X64041000Y-89628000D02*
X64041000Y-90972000D01*
X64081000Y-90021000D02*
X64081000Y-90579000D01*
X53800000Y-90300000D02*
X55300000Y-90300000D01*
X54550000Y-89550000D02*
X54550000Y-91050000D01*
X62551525Y-68520806D02*
G75*
G03X52648667Y-68520000I-4951525J-1179194D01*
G01*
X62551525Y-70879194D02*
G75*
G02X52648667Y-70880000I-4951525J1179194D01*
G01*
X62551525Y-70879194D02*
G75*
G03X62551333Y-68520000I-4951525J1179194D01*
G01*
X57600000Y-64650000D02*
X57600000Y-74750000D01*
X57640000Y-64650000D02*
X57640000Y-74750000D01*
X57680000Y-64650000D02*
X57680000Y-74750000D01*
X57720000Y-64651000D02*
X57720000Y-74749000D01*
X57760000Y-64652000D02*
X57760000Y-74748000D01*
X57800000Y-64653000D02*
X57800000Y-74747000D01*
X57840000Y-64655000D02*
X57840000Y-74745000D01*
X57880000Y-64657000D02*
X57880000Y-74743000D01*
X57920000Y-64660000D02*
X57920000Y-74740000D01*
X57960000Y-64662000D02*
X57960000Y-74738000D01*
X58000000Y-64665000D02*
X58000000Y-74735000D01*
X58040000Y-64669000D02*
X58040000Y-74731000D01*
X58080000Y-64672000D02*
X58080000Y-74728000D01*
X58120000Y-64676000D02*
X58120000Y-74724000D01*
X58160000Y-64680000D02*
X58160000Y-74720000D01*
X58200000Y-64685000D02*
X58200000Y-74715000D01*
X58240000Y-64690000D02*
X58240000Y-74710000D01*
X58280000Y-64695000D02*
X58280000Y-74705000D01*
X58321000Y-64701000D02*
X58321000Y-74699000D01*
X58361000Y-64707000D02*
X58361000Y-74693000D01*
X58401000Y-64713000D02*
X58401000Y-74687000D01*
X58441000Y-64719000D02*
X58441000Y-74681000D01*
X58481000Y-64726000D02*
X58481000Y-74674000D01*
X58521000Y-64733000D02*
X58521000Y-74667000D01*
X58561000Y-64741000D02*
X58561000Y-74659000D01*
X58601000Y-64749000D02*
X58601000Y-74651000D01*
X58641000Y-64757000D02*
X58641000Y-74643000D01*
X58681000Y-64765000D02*
X58681000Y-74635000D01*
X58721000Y-64774000D02*
X58721000Y-74626000D01*
X58761000Y-64783000D02*
X58761000Y-74617000D01*
X58801000Y-64793000D02*
X58801000Y-74607000D01*
X58841000Y-64803000D02*
X58841000Y-74597000D01*
X58881000Y-64813000D02*
X58881000Y-74587000D01*
X58921000Y-64824000D02*
X58921000Y-68519000D01*
X58921000Y-70881000D02*
X58921000Y-74576000D01*
X58961000Y-64835000D02*
X58961000Y-68519000D01*
X58961000Y-70881000D02*
X58961000Y-74565000D01*
X59001000Y-64846000D02*
X59001000Y-68519000D01*
X59001000Y-70881000D02*
X59001000Y-74554000D01*
X59041000Y-64857000D02*
X59041000Y-68519000D01*
X59041000Y-70881000D02*
X59041000Y-74543000D01*
X59081000Y-64869000D02*
X59081000Y-68519000D01*
X59081000Y-70881000D02*
X59081000Y-74531000D01*
X59121000Y-64882000D02*
X59121000Y-68519000D01*
X59121000Y-70881000D02*
X59121000Y-74518000D01*
X59161000Y-64894000D02*
X59161000Y-68519000D01*
X59161000Y-70881000D02*
X59161000Y-74506000D01*
X59201000Y-64908000D02*
X59201000Y-68519000D01*
X59201000Y-70881000D02*
X59201000Y-74492000D01*
X59241000Y-64921000D02*
X59241000Y-68519000D01*
X59241000Y-70881000D02*
X59241000Y-74479000D01*
X59281000Y-64935000D02*
X59281000Y-68519000D01*
X59281000Y-70881000D02*
X59281000Y-74465000D01*
X59321000Y-64949000D02*
X59321000Y-68519000D01*
X59321000Y-70881000D02*
X59321000Y-74451000D01*
X59361000Y-64963000D02*
X59361000Y-68519000D01*
X59361000Y-70881000D02*
X59361000Y-74437000D01*
X59401000Y-64978000D02*
X59401000Y-68519000D01*
X59401000Y-70881000D02*
X59401000Y-74422000D01*
X59441000Y-64994000D02*
X59441000Y-68519000D01*
X59441000Y-70881000D02*
X59441000Y-74406000D01*
X59481000Y-65009000D02*
X59481000Y-68519000D01*
X59481000Y-70881000D02*
X59481000Y-74391000D01*
X59521000Y-65026000D02*
X59521000Y-68519000D01*
X59521000Y-70881000D02*
X59521000Y-74374000D01*
X59561000Y-65042000D02*
X59561000Y-68519000D01*
X59561000Y-70881000D02*
X59561000Y-74358000D01*
X59601000Y-65059000D02*
X59601000Y-68519000D01*
X59601000Y-72880000D02*
X59601000Y-74341000D01*
X59641000Y-65076000D02*
X59641000Y-68519000D01*
X59641000Y-72880000D02*
X59641000Y-74324000D01*
X59681000Y-65094000D02*
X59681000Y-68519000D01*
X59681000Y-72880000D02*
X59681000Y-74306000D01*
X59721000Y-65112000D02*
X59721000Y-68519000D01*
X59721000Y-72880000D02*
X59721000Y-74288000D01*
X59761000Y-65131000D02*
X59761000Y-68519000D01*
X59761000Y-72880000D02*
X59761000Y-74269000D01*
X59801000Y-65150000D02*
X59801000Y-68519000D01*
X59801000Y-72880000D02*
X59801000Y-74250000D01*
X59841000Y-65169000D02*
X59841000Y-68519000D01*
X59841000Y-72880000D02*
X59841000Y-74231000D01*
X59881000Y-65189000D02*
X59881000Y-68519000D01*
X59881000Y-72880000D02*
X59881000Y-74211000D01*
X59921000Y-65209000D02*
X59921000Y-68519000D01*
X59921000Y-72880000D02*
X59921000Y-74191000D01*
X59961000Y-65230000D02*
X59961000Y-68519000D01*
X59961000Y-72880000D02*
X59961000Y-74170000D01*
X60001000Y-65251000D02*
X60001000Y-68519000D01*
X60001000Y-72880000D02*
X60001000Y-74149000D01*
X60041000Y-65272000D02*
X60041000Y-68519000D01*
X60041000Y-72880000D02*
X60041000Y-74128000D01*
X60081000Y-65295000D02*
X60081000Y-68519000D01*
X60081000Y-72880000D02*
X60081000Y-74105000D01*
X60121000Y-65317000D02*
X60121000Y-68519000D01*
X60121000Y-72880000D02*
X60121000Y-74083000D01*
X60161000Y-65340000D02*
X60161000Y-68519000D01*
X60161000Y-72880000D02*
X60161000Y-74060000D01*
X60201000Y-65364000D02*
X60201000Y-68519000D01*
X60201000Y-72880000D02*
X60201000Y-74036000D01*
X60241000Y-65388000D02*
X60241000Y-68519000D01*
X60241000Y-72880000D02*
X60241000Y-74012000D01*
X60281000Y-65412000D02*
X60281000Y-68519000D01*
X60281000Y-72880000D02*
X60281000Y-73988000D01*
X60321000Y-65437000D02*
X60321000Y-68519000D01*
X60321000Y-72880000D02*
X60321000Y-73963000D01*
X60361000Y-65463000D02*
X60361000Y-68519000D01*
X60361000Y-72880000D02*
X60361000Y-73937000D01*
X60401000Y-65489000D02*
X60401000Y-68519000D01*
X60401000Y-72880000D02*
X60401000Y-73911000D01*
X60441000Y-65515000D02*
X60441000Y-68519000D01*
X60441000Y-72880000D02*
X60441000Y-73885000D01*
X60481000Y-65543000D02*
X60481000Y-68519000D01*
X60481000Y-72880000D02*
X60481000Y-73857000D01*
X60521000Y-65570000D02*
X60521000Y-68519000D01*
X60521000Y-72880000D02*
X60521000Y-73830000D01*
X60561000Y-65599000D02*
X60561000Y-68519000D01*
X60561000Y-72880000D02*
X60561000Y-73801000D01*
X60601000Y-65628000D02*
X60601000Y-68519000D01*
X60601000Y-72880000D02*
X60601000Y-73772000D01*
X60641000Y-65657000D02*
X60641000Y-68519000D01*
X60641000Y-72880000D02*
X60641000Y-73743000D01*
X60681000Y-65687000D02*
X60681000Y-68519000D01*
X60681000Y-72880000D02*
X60681000Y-73713000D01*
X60721000Y-65718000D02*
X60721000Y-68519000D01*
X60721000Y-72880000D02*
X60721000Y-73682000D01*
X60761000Y-65749000D02*
X60761000Y-68519000D01*
X60761000Y-72880000D02*
X60761000Y-73651000D01*
X60801000Y-65781000D02*
X60801000Y-68519000D01*
X60801000Y-72880000D02*
X60801000Y-73619000D01*
X60841000Y-65814000D02*
X60841000Y-68519000D01*
X60841000Y-72880000D02*
X60841000Y-73586000D01*
X60881000Y-65847000D02*
X60881000Y-68519000D01*
X60881000Y-72880000D02*
X60881000Y-73553000D01*
X60921000Y-65881000D02*
X60921000Y-68519000D01*
X60921000Y-72880000D02*
X60921000Y-73519000D01*
X60961000Y-65916000D02*
X60961000Y-68519000D01*
X60961000Y-72880000D02*
X60961000Y-73484000D01*
X61001000Y-65952000D02*
X61001000Y-68519000D01*
X61001000Y-72880000D02*
X61001000Y-73448000D01*
X61041000Y-65988000D02*
X61041000Y-68519000D01*
X61041000Y-72880000D02*
X61041000Y-73412000D01*
X61081000Y-66025000D02*
X61081000Y-68519000D01*
X61081000Y-72880000D02*
X61081000Y-73375000D01*
X61121000Y-66063000D02*
X61121000Y-68519000D01*
X61121000Y-72880000D02*
X61121000Y-73337000D01*
X61161000Y-66102000D02*
X61161000Y-68519000D01*
X61161000Y-72880000D02*
X61161000Y-73298000D01*
X61201000Y-66141000D02*
X61201000Y-68519000D01*
X61201000Y-72880000D02*
X61201000Y-73259000D01*
X61241000Y-66182000D02*
X61241000Y-68519000D01*
X61241000Y-72880000D02*
X61241000Y-73218000D01*
X61281000Y-66223000D02*
X61281000Y-70520000D01*
X61281000Y-72880000D02*
X61281000Y-73177000D01*
X61321000Y-66265000D02*
X61321000Y-70520000D01*
X61321000Y-72880000D02*
X61321000Y-73135000D01*
X61361000Y-66309000D02*
X61361000Y-70520000D01*
X61361000Y-72880000D02*
X61361000Y-73091000D01*
X61401000Y-66353000D02*
X61401000Y-70520000D01*
X61401000Y-72880000D02*
X61401000Y-73047000D01*
X61441000Y-66398000D02*
X61441000Y-70520000D01*
X61441000Y-72880000D02*
X61441000Y-73002000D01*
X61481000Y-66445000D02*
X61481000Y-70520000D01*
X61481000Y-72880000D02*
X61481000Y-72955000D01*
X61521000Y-66493000D02*
X61521000Y-70520000D01*
X61521000Y-72880000D02*
X61521000Y-72907000D01*
X61561000Y-66542000D02*
X61561000Y-70520000D01*
X61601000Y-66592000D02*
X61601000Y-70520000D01*
X61641000Y-66643000D02*
X61641000Y-70520000D01*
X61681000Y-66696000D02*
X61681000Y-70520000D01*
X61721000Y-66751000D02*
X61721000Y-70520000D01*
X61761000Y-66806000D02*
X61761000Y-70520000D01*
X61801000Y-66864000D02*
X61801000Y-70520000D01*
X61841000Y-66923000D02*
X61841000Y-70520000D01*
X61881000Y-66985000D02*
X61881000Y-70520000D01*
X61921000Y-67048000D02*
X61921000Y-70520000D01*
X61961000Y-67113000D02*
X61961000Y-72287000D01*
X62001000Y-67181000D02*
X62001000Y-72219000D01*
X62041000Y-67251000D02*
X62041000Y-72149000D01*
X62081000Y-67323000D02*
X62081000Y-72077000D01*
X62121000Y-67399000D02*
X62121000Y-72001000D01*
X62161000Y-67478000D02*
X62161000Y-71922000D01*
X62201000Y-67560000D02*
X62201000Y-71840000D01*
X62241000Y-67647000D02*
X62241000Y-71753000D01*
X62281000Y-67738000D02*
X62281000Y-71662000D01*
X62321000Y-67834000D02*
X62321000Y-71566000D01*
X62361000Y-67937000D02*
X62361000Y-71463000D01*
X62401000Y-68046000D02*
X62401000Y-71354000D01*
X62441000Y-68164000D02*
X62441000Y-71236000D01*
X62481000Y-68293000D02*
X62481000Y-71107000D01*
X62521000Y-68435000D02*
X62521000Y-70965000D01*
X62561000Y-68596000D02*
X62561000Y-70804000D01*
X62601000Y-68787000D02*
X62601000Y-70613000D01*
X62641000Y-69028000D02*
X62641000Y-70372000D01*
X62681000Y-69421000D02*
X62681000Y-69979000D01*
X52400000Y-69700000D02*
X53900000Y-69700000D01*
X53150000Y-68950000D02*
X53150000Y-70450000D01*
X45200000Y-94700000D02*
X36400000Y-94700000D01*
X36400000Y-94700000D02*
X36400000Y-85500000D01*
X51100000Y-92000000D02*
X51100000Y-94700000D01*
X51100000Y-94700000D02*
X49200000Y-94700000D01*
X36400000Y-85500000D02*
X51100000Y-85500000D01*
X51100000Y-85500000D02*
X51100000Y-88100000D01*
X123720000Y-95980000D02*
X135880000Y-95980000D01*
X135880000Y-95980000D02*
X135880000Y-83820000D01*
X135880000Y-83820000D02*
X123720000Y-83820000D01*
X123720000Y-83820000D02*
X123720000Y-95980000D01*
X134380000Y-95980000D02*
X132580000Y-95980000D01*
X132580000Y-95980000D02*
X132580000Y-83820000D01*
X132580000Y-83820000D02*
X134380000Y-83820000D01*
X134380000Y-83820000D02*
X134380000Y-95980000D01*
X135880000Y-93400000D02*
X135880000Y-91400000D01*
X135880000Y-91400000D02*
X134380000Y-91650000D01*
X134380000Y-91650000D02*
X134380000Y-93150000D01*
X134380000Y-93150000D02*
X135880000Y-93400000D01*
X135880000Y-88400000D02*
X135880000Y-86400000D01*
X135880000Y-86400000D02*
X134380000Y-86650000D01*
X134380000Y-86650000D02*
X134380000Y-88150000D01*
X134380000Y-88150000D02*
X135880000Y-88400000D01*
X122920000Y-92100000D02*
X123520000Y-92400000D01*
X123520000Y-92400000D02*
X122920000Y-92700000D01*
X122920000Y-92700000D02*
X122920000Y-92100000D01*
X123720000Y-76080000D02*
X135880000Y-76080000D01*
X135880000Y-76080000D02*
X135880000Y-63920000D01*
X135880000Y-63920000D02*
X123720000Y-63920000D01*
X123720000Y-63920000D02*
X123720000Y-76080000D01*
X134380000Y-76080000D02*
X132580000Y-76080000D01*
X132580000Y-76080000D02*
X132580000Y-63920000D01*
X132580000Y-63920000D02*
X134380000Y-63920000D01*
X134380000Y-63920000D02*
X134380000Y-76080000D01*
X135880000Y-73500000D02*
X135880000Y-71500000D01*
X135880000Y-71500000D02*
X134380000Y-71750000D01*
X134380000Y-71750000D02*
X134380000Y-73250000D01*
X134380000Y-73250000D02*
X135880000Y-73500000D01*
X135880000Y-68500000D02*
X135880000Y-66500000D01*
X135880000Y-66500000D02*
X134380000Y-66750000D01*
X134380000Y-66750000D02*
X134380000Y-68250000D01*
X134380000Y-68250000D02*
X135880000Y-68500000D01*
X122920000Y-72200000D02*
X123520000Y-72500000D01*
X123520000Y-72500000D02*
X122920000Y-72800000D01*
X122920000Y-72800000D02*
X122920000Y-72200000D01*
D12*
X36000000Y-110000000D02*
X36000000Y-50000000D01*
X132000000Y-114000000D02*
X40000000Y-114000000D01*
X136000000Y-50000000D02*
X136000000Y-110000000D01*
X40000000Y-46000000D02*
X132000000Y-46000000D01*
X36000000Y-110000000D02*
G75*
G03X40000000Y-114000000I4000000J0D01*
G01*
X132000000Y-114000000D02*
G75*
G03X136000000Y-110000000I0J4000000D01*
G01*
X136000000Y-50000000D02*
G75*
G03X132000000Y-46000000I-4000000J0D01*
G01*
X40000000Y-46000000D02*
G75*
G03X36000000Y-50000000I0J-4000000D01*
G01*
X128500000Y-80000000D02*
G75*
G03X128500000Y-80000000I-3000000J0D01*
G01*
X111000000Y-102000000D02*
G75*
G03X111000000Y-102000000I-3500000J0D01*
G01*
X111000000Y-58000000D02*
G75*
G03X111000000Y-58000000I-3500000J0D01*
G01*
X68000000Y-102000000D02*
G75*
G03X68000000Y-102000000I-3500000J0D01*
G01*
X68000000Y-58000000D02*
G75*
G03X68000000Y-58000000I-3500000J0D01*
G01*
X50000000Y-80000000D02*
G75*
G03X50000000Y-80000000I-3500000J0D01*
G01*
D11*
X65770000Y-93770000D02*
X65770000Y-96370000D01*
X65770000Y-96370000D02*
X68430000Y-96370000D01*
X68430000Y-96370000D02*
X68430000Y-93770000D01*
X68430000Y-93770000D02*
X65770000Y-93770000D01*
X65770000Y-92500000D02*
X65770000Y-91170000D01*
X65770000Y-91170000D02*
X67100000Y-91170000D01*
D12*
X124166667Y-76452381D02*
X123833333Y-75976190D01*
X123595238Y-76452381D02*
X123595238Y-75452381D01*
X123976191Y-75452381D01*
X124071429Y-75500000D01*
X124119048Y-75547619D01*
X124166667Y-75642857D01*
X124166667Y-75785714D01*
X124119048Y-75880952D01*
X124071429Y-75928571D01*
X123976191Y-75976190D01*
X123595238Y-75976190D01*
X124595238Y-75928571D02*
X124928572Y-75928571D01*
X125071429Y-76452381D02*
X124595238Y-76452381D01*
X124595238Y-75452381D01*
X125071429Y-75452381D01*
X125833334Y-75928571D02*
X125500000Y-75928571D01*
X125500000Y-76452381D02*
X125500000Y-75452381D01*
X125976191Y-75452381D01*
X126500000Y-75452381D02*
X126500000Y-75690476D01*
X126261905Y-75595238D02*
X126500000Y-75690476D01*
X126738096Y-75595238D01*
X126357143Y-75880952D02*
X126500000Y-75690476D01*
X126642858Y-75880952D01*
X127261905Y-75452381D02*
X127261905Y-75690476D01*
X127023810Y-75595238D02*
X127261905Y-75690476D01*
X127500001Y-75595238D01*
X127119048Y-75880952D02*
X127261905Y-75690476D01*
X127404763Y-75880952D01*
X106166667Y-98252381D02*
X105833333Y-97776190D01*
X105595238Y-98252381D02*
X105595238Y-97252381D01*
X105976191Y-97252381D01*
X106071429Y-97300000D01*
X106119048Y-97347619D01*
X106166667Y-97442857D01*
X106166667Y-97585714D01*
X106119048Y-97680952D01*
X106071429Y-97728571D01*
X105976191Y-97776190D01*
X105595238Y-97776190D01*
X106595238Y-97728571D02*
X106928572Y-97728571D01*
X107071429Y-98252381D02*
X106595238Y-98252381D01*
X106595238Y-97252381D01*
X107071429Y-97252381D01*
X107833334Y-97728571D02*
X107500000Y-97728571D01*
X107500000Y-98252381D02*
X107500000Y-97252381D01*
X107976191Y-97252381D01*
X108500000Y-97252381D02*
X108500000Y-97490476D01*
X108261905Y-97395238D02*
X108500000Y-97490476D01*
X108738096Y-97395238D01*
X108357143Y-97680952D02*
X108500000Y-97490476D01*
X108642858Y-97680952D01*
X109261905Y-97252381D02*
X109261905Y-97490476D01*
X109023810Y-97395238D02*
X109261905Y-97490476D01*
X109500001Y-97395238D01*
X109119048Y-97680952D02*
X109261905Y-97490476D01*
X109404763Y-97680952D01*
X106166667Y-54252381D02*
X105833333Y-53776190D01*
X105595238Y-54252381D02*
X105595238Y-53252381D01*
X105976191Y-53252381D01*
X106071429Y-53300000D01*
X106119048Y-53347619D01*
X106166667Y-53442857D01*
X106166667Y-53585714D01*
X106119048Y-53680952D01*
X106071429Y-53728571D01*
X105976191Y-53776190D01*
X105595238Y-53776190D01*
X106595238Y-53728571D02*
X106928572Y-53728571D01*
X107071429Y-54252381D02*
X106595238Y-54252381D01*
X106595238Y-53252381D01*
X107071429Y-53252381D01*
X107833334Y-53728571D02*
X107500000Y-53728571D01*
X107500000Y-54252381D02*
X107500000Y-53252381D01*
X107976191Y-53252381D01*
X108500000Y-53252381D02*
X108500000Y-53490476D01*
X108261905Y-53395238D02*
X108500000Y-53490476D01*
X108738096Y-53395238D01*
X108357143Y-53680952D02*
X108500000Y-53490476D01*
X108642858Y-53680952D01*
X109261905Y-53252381D02*
X109261905Y-53490476D01*
X109023810Y-53395238D02*
X109261905Y-53490476D01*
X109500001Y-53395238D01*
X109119048Y-53680952D02*
X109261905Y-53490476D01*
X109404763Y-53680952D01*
X63166667Y-98252381D02*
X62833333Y-97776190D01*
X62595238Y-98252381D02*
X62595238Y-97252381D01*
X62976191Y-97252381D01*
X63071429Y-97300000D01*
X63119048Y-97347619D01*
X63166667Y-97442857D01*
X63166667Y-97585714D01*
X63119048Y-97680952D01*
X63071429Y-97728571D01*
X62976191Y-97776190D01*
X62595238Y-97776190D01*
X63595238Y-97728571D02*
X63928572Y-97728571D01*
X64071429Y-98252381D02*
X63595238Y-98252381D01*
X63595238Y-97252381D01*
X64071429Y-97252381D01*
X64833334Y-97728571D02*
X64500000Y-97728571D01*
X64500000Y-98252381D02*
X64500000Y-97252381D01*
X64976191Y-97252381D01*
X65500000Y-97252381D02*
X65500000Y-97490476D01*
X65261905Y-97395238D02*
X65500000Y-97490476D01*
X65738096Y-97395238D01*
X65357143Y-97680952D02*
X65500000Y-97490476D01*
X65642858Y-97680952D01*
X66261905Y-97252381D02*
X66261905Y-97490476D01*
X66023810Y-97395238D02*
X66261905Y-97490476D01*
X66500001Y-97395238D01*
X66119048Y-97680952D02*
X66261905Y-97490476D01*
X66404763Y-97680952D01*
X63166667Y-54252381D02*
X62833333Y-53776190D01*
X62595238Y-54252381D02*
X62595238Y-53252381D01*
X62976191Y-53252381D01*
X63071429Y-53300000D01*
X63119048Y-53347619D01*
X63166667Y-53442857D01*
X63166667Y-53585714D01*
X63119048Y-53680952D01*
X63071429Y-53728571D01*
X62976191Y-53776190D01*
X62595238Y-53776190D01*
X63595238Y-53728571D02*
X63928572Y-53728571D01*
X64071429Y-54252381D02*
X63595238Y-54252381D01*
X63595238Y-53252381D01*
X64071429Y-53252381D01*
X64833334Y-53728571D02*
X64500000Y-53728571D01*
X64500000Y-54252381D02*
X64500000Y-53252381D01*
X64976191Y-53252381D01*
X65500000Y-53252381D02*
X65500000Y-53490476D01*
X65261905Y-53395238D02*
X65500000Y-53490476D01*
X65738096Y-53395238D01*
X65357143Y-53680952D02*
X65500000Y-53490476D01*
X65642858Y-53680952D01*
X66261905Y-53252381D02*
X66261905Y-53490476D01*
X66023810Y-53395238D02*
X66261905Y-53490476D01*
X66500001Y-53395238D01*
X66119048Y-53680952D02*
X66261905Y-53490476D01*
X66404763Y-53680952D01*
X113062381Y-93898095D02*
X112062381Y-93898095D01*
X112062381Y-93660000D01*
X112110000Y-93517142D01*
X112205238Y-93421904D01*
X112300476Y-93374285D01*
X112490952Y-93326666D01*
X112633810Y-93326666D01*
X112824286Y-93374285D01*
X112919524Y-93421904D01*
X113014762Y-93517142D01*
X113062381Y-93660000D01*
X113062381Y-93898095D01*
X112062381Y-92421904D02*
X112062381Y-92898095D01*
X112538571Y-92945714D01*
X112490952Y-92898095D01*
X112443333Y-92802857D01*
X112443333Y-92564761D01*
X112490952Y-92469523D01*
X112538571Y-92421904D01*
X112633810Y-92374285D01*
X112871905Y-92374285D01*
X112967143Y-92421904D01*
X113014762Y-92469523D01*
X113062381Y-92564761D01*
X113062381Y-92802857D01*
X113014762Y-92898095D01*
X112967143Y-92945714D01*
X116612381Y-93898095D02*
X115612381Y-93898095D01*
X115612381Y-93660000D01*
X115660000Y-93517142D01*
X115755238Y-93421904D01*
X115850476Y-93374285D01*
X116040952Y-93326666D01*
X116183810Y-93326666D01*
X116374286Y-93374285D01*
X116469524Y-93421904D01*
X116564762Y-93517142D01*
X116612381Y-93660000D01*
X116612381Y-93898095D01*
X115612381Y-92469523D02*
X115612381Y-92660000D01*
X115660000Y-92755238D01*
X115707619Y-92802857D01*
X115850476Y-92898095D01*
X116040952Y-92945714D01*
X116421905Y-92945714D01*
X116517143Y-92898095D01*
X116564762Y-92850476D01*
X116612381Y-92755238D01*
X116612381Y-92564761D01*
X116564762Y-92469523D01*
X116517143Y-92421904D01*
X116421905Y-92374285D01*
X116183810Y-92374285D01*
X116088571Y-92421904D01*
X116040952Y-92469523D01*
X115993333Y-92564761D01*
X115993333Y-92755238D01*
X116040952Y-92850476D01*
X116088571Y-92898095D01*
X116183810Y-92945714D01*
X119712381Y-93848095D02*
X118712381Y-93848095D01*
X118712381Y-93610000D01*
X118760000Y-93467142D01*
X118855238Y-93371904D01*
X118950476Y-93324285D01*
X119140952Y-93276666D01*
X119283810Y-93276666D01*
X119474286Y-93324285D01*
X119569524Y-93371904D01*
X119664762Y-93467142D01*
X119712381Y-93610000D01*
X119712381Y-93848095D01*
X118712381Y-92943333D02*
X118712381Y-92276666D01*
X119712381Y-92705238D01*
X123612381Y-83148095D02*
X122612381Y-83148095D01*
X122612381Y-82910000D01*
X122660000Y-82767142D01*
X122755238Y-82671904D01*
X122850476Y-82624285D01*
X123040952Y-82576666D01*
X123183810Y-82576666D01*
X123374286Y-82624285D01*
X123469524Y-82671904D01*
X123564762Y-82767142D01*
X123612381Y-82910000D01*
X123612381Y-83148095D01*
X123040952Y-82005238D02*
X122993333Y-82100476D01*
X122945714Y-82148095D01*
X122850476Y-82195714D01*
X122802857Y-82195714D01*
X122707619Y-82148095D01*
X122660000Y-82100476D01*
X122612381Y-82005238D01*
X122612381Y-81814761D01*
X122660000Y-81719523D01*
X122707619Y-81671904D01*
X122802857Y-81624285D01*
X122850476Y-81624285D01*
X122945714Y-81671904D01*
X122993333Y-81719523D01*
X123040952Y-81814761D01*
X123040952Y-82005238D01*
X123088571Y-82100476D01*
X123136190Y-82148095D01*
X123231429Y-82195714D01*
X123421905Y-82195714D01*
X123517143Y-82148095D01*
X123564762Y-82100476D01*
X123612381Y-82005238D01*
X123612381Y-81814761D01*
X123564762Y-81719523D01*
X123517143Y-81671904D01*
X123421905Y-81624285D01*
X123231429Y-81624285D01*
X123136190Y-81671904D01*
X123088571Y-81719523D01*
X123040952Y-81814761D01*
X109512381Y-93898095D02*
X108512381Y-93898095D01*
X108512381Y-93660000D01*
X108560000Y-93517142D01*
X108655238Y-93421904D01*
X108750476Y-93374285D01*
X108940952Y-93326666D01*
X109083810Y-93326666D01*
X109274286Y-93374285D01*
X109369524Y-93421904D01*
X109464762Y-93517142D01*
X109512381Y-93660000D01*
X109512381Y-93898095D01*
X109512381Y-92850476D02*
X109512381Y-92660000D01*
X109464762Y-92564761D01*
X109417143Y-92517142D01*
X109274286Y-92421904D01*
X109083810Y-92374285D01*
X108702857Y-92374285D01*
X108607619Y-92421904D01*
X108560000Y-92469523D01*
X108512381Y-92564761D01*
X108512381Y-92755238D01*
X108560000Y-92850476D01*
X108607619Y-92898095D01*
X108702857Y-92945714D01*
X108940952Y-92945714D01*
X109036190Y-92898095D01*
X109083810Y-92850476D01*
X109131429Y-92755238D01*
X109131429Y-92564761D01*
X109083810Y-92469523D01*
X109036190Y-92421904D01*
X108940952Y-92374285D01*
X98862381Y-94374286D02*
X97862381Y-94374286D01*
X97862381Y-94136191D01*
X97910000Y-93993333D01*
X98005238Y-93898095D01*
X98100476Y-93850476D01*
X98290952Y-93802857D01*
X98433810Y-93802857D01*
X98624286Y-93850476D01*
X98719524Y-93898095D01*
X98814762Y-93993333D01*
X98862381Y-94136191D01*
X98862381Y-94374286D01*
X98862381Y-92850476D02*
X98862381Y-93421905D01*
X98862381Y-93136191D02*
X97862381Y-93136191D01*
X98005238Y-93231429D01*
X98100476Y-93326667D01*
X98148095Y-93421905D01*
X97862381Y-92231429D02*
X97862381Y-92136190D01*
X97910000Y-92040952D01*
X97957619Y-91993333D01*
X98052857Y-91945714D01*
X98243333Y-91898095D01*
X98481429Y-91898095D01*
X98671905Y-91945714D01*
X98767143Y-91993333D01*
X98814762Y-92040952D01*
X98862381Y-92136190D01*
X98862381Y-92231429D01*
X98814762Y-92326667D01*
X98767143Y-92374286D01*
X98671905Y-92421905D01*
X98481429Y-92469524D01*
X98243333Y-92469524D01*
X98052857Y-92421905D01*
X97957619Y-92374286D01*
X97910000Y-92326667D01*
X97862381Y-92231429D01*
X95312381Y-94374286D02*
X94312381Y-94374286D01*
X94312381Y-94136191D01*
X94360000Y-93993333D01*
X94455238Y-93898095D01*
X94550476Y-93850476D01*
X94740952Y-93802857D01*
X94883810Y-93802857D01*
X95074286Y-93850476D01*
X95169524Y-93898095D01*
X95264762Y-93993333D01*
X95312381Y-94136191D01*
X95312381Y-94374286D01*
X95312381Y-92850476D02*
X95312381Y-93421905D01*
X95312381Y-93136191D02*
X94312381Y-93136191D01*
X94455238Y-93231429D01*
X94550476Y-93326667D01*
X94598095Y-93421905D01*
X95312381Y-91898095D02*
X95312381Y-92469524D01*
X95312381Y-92183810D02*
X94312381Y-92183810D01*
X94455238Y-92279048D01*
X94550476Y-92374286D01*
X94598095Y-92469524D01*
X82661905Y-75962381D02*
X82661905Y-74962381D01*
X83042858Y-74962381D01*
X83138096Y-75010000D01*
X83185715Y-75057619D01*
X83233334Y-75152857D01*
X83233334Y-75295714D01*
X83185715Y-75390952D01*
X83138096Y-75438571D01*
X83042858Y-75486190D01*
X82661905Y-75486190D01*
X83614286Y-75057619D02*
X83661905Y-75010000D01*
X83757143Y-74962381D01*
X83995239Y-74962381D01*
X84090477Y-75010000D01*
X84138096Y-75057619D01*
X84185715Y-75152857D01*
X84185715Y-75248095D01*
X84138096Y-75390952D01*
X83566667Y-75962381D01*
X84185715Y-75962381D01*
X82761905Y-67142381D02*
X82761905Y-66142381D01*
X83142858Y-66142381D01*
X83238096Y-66190000D01*
X83285715Y-66237619D01*
X83333334Y-66332857D01*
X83333334Y-66475714D01*
X83285715Y-66570952D01*
X83238096Y-66618571D01*
X83142858Y-66666190D01*
X82761905Y-66666190D01*
X83666667Y-66142381D02*
X84285715Y-66142381D01*
X83952381Y-66523333D01*
X84095239Y-66523333D01*
X84190477Y-66570952D01*
X84238096Y-66618571D01*
X84285715Y-66713810D01*
X84285715Y-66951905D01*
X84238096Y-67047143D01*
X84190477Y-67094762D01*
X84095239Y-67142381D01*
X83809524Y-67142381D01*
X83714286Y-67094762D01*
X83666667Y-67047143D01*
X102854381Y-104198095D02*
X101854381Y-104198095D01*
X101854381Y-103817142D01*
X101902000Y-103721904D01*
X101949619Y-103674285D01*
X102044857Y-103626666D01*
X102187714Y-103626666D01*
X102282952Y-103674285D01*
X102330571Y-103721904D01*
X102378190Y-103817142D01*
X102378190Y-104198095D01*
X101854381Y-102769523D02*
X101854381Y-102960000D01*
X101902000Y-103055238D01*
X101949619Y-103102857D01*
X102092476Y-103198095D01*
X102282952Y-103245714D01*
X102663905Y-103245714D01*
X102759143Y-103198095D01*
X102806762Y-103150476D01*
X102854381Y-103055238D01*
X102854381Y-102864761D01*
X102806762Y-102769523D01*
X102759143Y-102721904D01*
X102663905Y-102674285D01*
X102425810Y-102674285D01*
X102330571Y-102721904D01*
X102282952Y-102769523D01*
X102235333Y-102864761D01*
X102235333Y-103055238D01*
X102282952Y-103150476D01*
X102330571Y-103198095D01*
X102425810Y-103245714D01*
X88630381Y-108015714D02*
X87630381Y-108015714D01*
X88344667Y-107682380D01*
X87630381Y-107349047D01*
X88630381Y-107349047D01*
X88154190Y-106682381D02*
X88630381Y-106682381D01*
X87630381Y-107015714D02*
X88154190Y-106682381D01*
X87630381Y-106349047D01*
X88582762Y-106063333D02*
X88630381Y-105920476D01*
X88630381Y-105682380D01*
X88582762Y-105587142D01*
X88535143Y-105539523D01*
X88439905Y-105491904D01*
X88344667Y-105491904D01*
X88249429Y-105539523D01*
X88201810Y-105587142D01*
X88154190Y-105682380D01*
X88106571Y-105872857D01*
X88058952Y-105968095D01*
X88011333Y-106015714D01*
X87916095Y-106063333D01*
X87820857Y-106063333D01*
X87725619Y-106015714D01*
X87678000Y-105968095D01*
X87630381Y-105872857D01*
X87630381Y-105634761D01*
X87678000Y-105491904D01*
X87630381Y-105158571D02*
X88630381Y-104491904D01*
X87630381Y-104491904D02*
X88630381Y-105158571D01*
X88725619Y-104349047D02*
X88725619Y-103587142D01*
X87725619Y-103396666D02*
X87678000Y-103349047D01*
X87630381Y-103253809D01*
X87630381Y-103015713D01*
X87678000Y-102920475D01*
X87725619Y-102872856D01*
X87820857Y-102825237D01*
X87916095Y-102825237D01*
X88058952Y-102872856D01*
X88630381Y-103444285D01*
X88630381Y-102825237D01*
X88535143Y-102396666D02*
X88582762Y-102349047D01*
X88630381Y-102396666D01*
X88582762Y-102444285D01*
X88535143Y-102396666D01*
X88630381Y-102396666D01*
X87630381Y-101730000D02*
X87630381Y-101634761D01*
X87678000Y-101539523D01*
X87725619Y-101491904D01*
X87820857Y-101444285D01*
X88011333Y-101396666D01*
X88249429Y-101396666D01*
X88439905Y-101444285D01*
X88535143Y-101491904D01*
X88582762Y-101539523D01*
X88630381Y-101634761D01*
X88630381Y-101730000D01*
X88582762Y-101825238D01*
X88535143Y-101872857D01*
X88439905Y-101920476D01*
X88249429Y-101968095D01*
X88011333Y-101968095D01*
X87820857Y-101920476D01*
X87725619Y-101872857D01*
X87678000Y-101825238D01*
X87630381Y-101730000D01*
X88122381Y-106738095D02*
X87122381Y-106738095D01*
X87122381Y-106357142D01*
X87170000Y-106261904D01*
X87217619Y-106214285D01*
X87312857Y-106166666D01*
X87455714Y-106166666D01*
X87550952Y-106214285D01*
X87598571Y-106261904D01*
X87646190Y-106357142D01*
X87646190Y-106738095D01*
X87122381Y-105833333D02*
X87122381Y-105166666D01*
X88122381Y-105595238D01*
X112174762Y-81687619D02*
X112079524Y-81640000D01*
X111984286Y-81544762D01*
X111841429Y-81401905D01*
X111746190Y-81354286D01*
X111650952Y-81354286D01*
X111698571Y-81592381D02*
X111603333Y-81544762D01*
X111508095Y-81449524D01*
X111460476Y-81259048D01*
X111460476Y-80925714D01*
X111508095Y-80735238D01*
X111603333Y-80640000D01*
X111698571Y-80592381D01*
X111889048Y-80592381D01*
X111984286Y-80640000D01*
X112079524Y-80735238D01*
X112127143Y-80925714D01*
X112127143Y-81259048D01*
X112079524Y-81449524D01*
X111984286Y-81544762D01*
X111889048Y-81592381D01*
X111698571Y-81592381D01*
X113079524Y-81592381D02*
X112508095Y-81592381D01*
X112793809Y-81592381D02*
X112793809Y-80592381D01*
X112698571Y-80735238D01*
X112603333Y-80830476D01*
X112508095Y-80878095D01*
X116104762Y-50557619D02*
X116009524Y-50510000D01*
X115914286Y-50414762D01*
X115771429Y-50271905D01*
X115676190Y-50224286D01*
X115580952Y-50224286D01*
X115628571Y-50462381D02*
X115533333Y-50414762D01*
X115438095Y-50319524D01*
X115390476Y-50129048D01*
X115390476Y-49795714D01*
X115438095Y-49605238D01*
X115533333Y-49510000D01*
X115628571Y-49462381D01*
X115819048Y-49462381D01*
X115914286Y-49510000D01*
X116009524Y-49605238D01*
X116057143Y-49795714D01*
X116057143Y-50129048D01*
X116009524Y-50319524D01*
X115914286Y-50414762D01*
X115819048Y-50462381D01*
X115628571Y-50462381D01*
X116438095Y-49557619D02*
X116485714Y-49510000D01*
X116580952Y-49462381D01*
X116819048Y-49462381D01*
X116914286Y-49510000D01*
X116961905Y-49557619D01*
X117009524Y-49652857D01*
X117009524Y-49748095D01*
X116961905Y-49890952D01*
X116390476Y-50462381D01*
X117009524Y-50462381D01*
X116304762Y-56757619D02*
X116209524Y-56710000D01*
X116114286Y-56614762D01*
X115971429Y-56471905D01*
X115876190Y-56424286D01*
X115780952Y-56424286D01*
X115828571Y-56662381D02*
X115733333Y-56614762D01*
X115638095Y-56519524D01*
X115590476Y-56329048D01*
X115590476Y-55995714D01*
X115638095Y-55805238D01*
X115733333Y-55710000D01*
X115828571Y-55662381D01*
X116019048Y-55662381D01*
X116114286Y-55710000D01*
X116209524Y-55805238D01*
X116257143Y-55995714D01*
X116257143Y-56329048D01*
X116209524Y-56519524D01*
X116114286Y-56614762D01*
X116019048Y-56662381D01*
X115828571Y-56662381D01*
X116590476Y-55662381D02*
X117209524Y-55662381D01*
X116876190Y-56043333D01*
X117019048Y-56043333D01*
X117114286Y-56090952D01*
X117161905Y-56138571D01*
X117209524Y-56233810D01*
X117209524Y-56471905D01*
X117161905Y-56567143D01*
X117114286Y-56614762D01*
X117019048Y-56662381D01*
X116733333Y-56662381D01*
X116638095Y-56614762D01*
X116590476Y-56567143D01*
X100234762Y-51187619D02*
X100139524Y-51140000D01*
X100044286Y-51044762D01*
X99901429Y-50901905D01*
X99806190Y-50854286D01*
X99710952Y-50854286D01*
X99758571Y-51092381D02*
X99663333Y-51044762D01*
X99568095Y-50949524D01*
X99520476Y-50759048D01*
X99520476Y-50425714D01*
X99568095Y-50235238D01*
X99663333Y-50140000D01*
X99758571Y-50092381D01*
X99949048Y-50092381D01*
X100044286Y-50140000D01*
X100139524Y-50235238D01*
X100187143Y-50425714D01*
X100187143Y-50759048D01*
X100139524Y-50949524D01*
X100044286Y-51044762D01*
X99949048Y-51092381D01*
X99758571Y-51092381D01*
X101044286Y-50425714D02*
X101044286Y-51092381D01*
X100806190Y-50044762D02*
X100568095Y-50759048D01*
X101187143Y-50759048D01*
X100304762Y-57557619D02*
X100209524Y-57510000D01*
X100114286Y-57414762D01*
X99971429Y-57271905D01*
X99876190Y-57224286D01*
X99780952Y-57224286D01*
X99828571Y-57462381D02*
X99733333Y-57414762D01*
X99638095Y-57319524D01*
X99590476Y-57129048D01*
X99590476Y-56795714D01*
X99638095Y-56605238D01*
X99733333Y-56510000D01*
X99828571Y-56462381D01*
X100019048Y-56462381D01*
X100114286Y-56510000D01*
X100209524Y-56605238D01*
X100257143Y-56795714D01*
X100257143Y-57129048D01*
X100209524Y-57319524D01*
X100114286Y-57414762D01*
X100019048Y-57462381D01*
X99828571Y-57462381D01*
X101161905Y-56462381D02*
X100685714Y-56462381D01*
X100638095Y-56938571D01*
X100685714Y-56890952D01*
X100780952Y-56843333D01*
X101019048Y-56843333D01*
X101114286Y-56890952D01*
X101161905Y-56938571D01*
X101209524Y-57033810D01*
X101209524Y-57271905D01*
X101161905Y-57367143D01*
X101114286Y-57414762D01*
X101019048Y-57462381D01*
X100780952Y-57462381D01*
X100685714Y-57414762D01*
X100638095Y-57367143D01*
X113743334Y-77042381D02*
X113410000Y-76566190D01*
X113171905Y-77042381D02*
X113171905Y-76042381D01*
X113552858Y-76042381D01*
X113648096Y-76090000D01*
X113695715Y-76137619D01*
X113743334Y-76232857D01*
X113743334Y-76375714D01*
X113695715Y-76470952D01*
X113648096Y-76518571D01*
X113552858Y-76566190D01*
X113171905Y-76566190D01*
X114695715Y-77042381D02*
X114124286Y-77042381D01*
X114410000Y-77042381D02*
X114410000Y-76042381D01*
X114314762Y-76185238D01*
X114219524Y-76280476D01*
X114124286Y-76328095D01*
X106212381Y-93326666D02*
X105736190Y-93660000D01*
X106212381Y-93898095D02*
X105212381Y-93898095D01*
X105212381Y-93517142D01*
X105260000Y-93421904D01*
X105307619Y-93374285D01*
X105402857Y-93326666D01*
X105545714Y-93326666D01*
X105640952Y-93374285D01*
X105688571Y-93421904D01*
X105736190Y-93517142D01*
X105736190Y-93898095D01*
X105307619Y-92945714D02*
X105260000Y-92898095D01*
X105212381Y-92802857D01*
X105212381Y-92564761D01*
X105260000Y-92469523D01*
X105307619Y-92421904D01*
X105402857Y-92374285D01*
X105498095Y-92374285D01*
X105640952Y-92421904D01*
X106212381Y-92993333D01*
X106212381Y-92374285D01*
X98042381Y-93356666D02*
X97566190Y-93690000D01*
X98042381Y-93928095D02*
X97042381Y-93928095D01*
X97042381Y-93547142D01*
X97090000Y-93451904D01*
X97137619Y-93404285D01*
X97232857Y-93356666D01*
X97375714Y-93356666D01*
X97470952Y-93404285D01*
X97518571Y-93451904D01*
X97566190Y-93547142D01*
X97566190Y-93928095D01*
X97042381Y-93023333D02*
X97042381Y-92404285D01*
X97423333Y-92737619D01*
X97423333Y-92594761D01*
X97470952Y-92499523D01*
X97518571Y-92451904D01*
X97613810Y-92404285D01*
X97851905Y-92404285D01*
X97947143Y-92451904D01*
X97994762Y-92499523D01*
X98042381Y-92594761D01*
X98042381Y-92880476D01*
X97994762Y-92975714D01*
X97947143Y-93023333D01*
X87542381Y-93456666D02*
X87066190Y-93790000D01*
X87542381Y-94028095D02*
X86542381Y-94028095D01*
X86542381Y-93647142D01*
X86590000Y-93551904D01*
X86637619Y-93504285D01*
X86732857Y-93456666D01*
X86875714Y-93456666D01*
X86970952Y-93504285D01*
X87018571Y-93551904D01*
X87066190Y-93647142D01*
X87066190Y-94028095D01*
X86875714Y-92599523D02*
X87542381Y-92599523D01*
X86494762Y-92837619D02*
X87209048Y-93075714D01*
X87209048Y-92456666D01*
X112023334Y-67842381D02*
X111690000Y-67366190D01*
X111451905Y-67842381D02*
X111451905Y-66842381D01*
X111832858Y-66842381D01*
X111928096Y-66890000D01*
X111975715Y-66937619D01*
X112023334Y-67032857D01*
X112023334Y-67175714D01*
X111975715Y-67270952D01*
X111928096Y-67318571D01*
X111832858Y-67366190D01*
X111451905Y-67366190D01*
X112928096Y-66842381D02*
X112451905Y-66842381D01*
X112404286Y-67318571D01*
X112451905Y-67270952D01*
X112547143Y-67223333D01*
X112785239Y-67223333D01*
X112880477Y-67270952D01*
X112928096Y-67318571D01*
X112975715Y-67413810D01*
X112975715Y-67651905D01*
X112928096Y-67747143D01*
X112880477Y-67794762D01*
X112785239Y-67842381D01*
X112547143Y-67842381D01*
X112451905Y-67794762D01*
X112404286Y-67747143D01*
X111923334Y-71542381D02*
X111590000Y-71066190D01*
X111351905Y-71542381D02*
X111351905Y-70542381D01*
X111732858Y-70542381D01*
X111828096Y-70590000D01*
X111875715Y-70637619D01*
X111923334Y-70732857D01*
X111923334Y-70875714D01*
X111875715Y-70970952D01*
X111828096Y-71018571D01*
X111732858Y-71066190D01*
X111351905Y-71066190D01*
X112780477Y-70542381D02*
X112590000Y-70542381D01*
X112494762Y-70590000D01*
X112447143Y-70637619D01*
X112351905Y-70780476D01*
X112304286Y-70970952D01*
X112304286Y-71351905D01*
X112351905Y-71447143D01*
X112399524Y-71494762D01*
X112494762Y-71542381D01*
X112685239Y-71542381D01*
X112780477Y-71494762D01*
X112828096Y-71447143D01*
X112875715Y-71351905D01*
X112875715Y-71113810D01*
X112828096Y-71018571D01*
X112780477Y-70970952D01*
X112685239Y-70923333D01*
X112494762Y-70923333D01*
X112399524Y-70970952D01*
X112351905Y-71018571D01*
X112304286Y-71113810D01*
X123362381Y-68576666D02*
X122886190Y-68910000D01*
X123362381Y-69148095D02*
X122362381Y-69148095D01*
X122362381Y-68767142D01*
X122410000Y-68671904D01*
X122457619Y-68624285D01*
X122552857Y-68576666D01*
X122695714Y-68576666D01*
X122790952Y-68624285D01*
X122838571Y-68671904D01*
X122886190Y-68767142D01*
X122886190Y-69148095D01*
X122362381Y-68243333D02*
X122362381Y-67576666D01*
X123362381Y-68005238D01*
X97462381Y-82576666D02*
X96986190Y-82910000D01*
X97462381Y-83148095D02*
X96462381Y-83148095D01*
X96462381Y-82767142D01*
X96510000Y-82671904D01*
X96557619Y-82624285D01*
X96652857Y-82576666D01*
X96795714Y-82576666D01*
X96890952Y-82624285D01*
X96938571Y-82671904D01*
X96986190Y-82767142D01*
X96986190Y-83148095D01*
X96890952Y-82005238D02*
X96843333Y-82100476D01*
X96795714Y-82148095D01*
X96700476Y-82195714D01*
X96652857Y-82195714D01*
X96557619Y-82148095D01*
X96510000Y-82100476D01*
X96462381Y-82005238D01*
X96462381Y-81814761D01*
X96510000Y-81719523D01*
X96557619Y-81671904D01*
X96652857Y-81624285D01*
X96700476Y-81624285D01*
X96795714Y-81671904D01*
X96843333Y-81719523D01*
X96890952Y-81814761D01*
X96890952Y-82005238D01*
X96938571Y-82100476D01*
X96986190Y-82148095D01*
X97081429Y-82195714D01*
X97271905Y-82195714D01*
X97367143Y-82148095D01*
X97414762Y-82100476D01*
X97462381Y-82005238D01*
X97462381Y-81814761D01*
X97414762Y-81719523D01*
X97367143Y-81671904D01*
X97271905Y-81624285D01*
X97081429Y-81624285D01*
X96986190Y-81671904D01*
X96938571Y-81719523D01*
X96890952Y-81814761D01*
X90243334Y-52642381D02*
X89910000Y-52166190D01*
X89671905Y-52642381D02*
X89671905Y-51642381D01*
X90052858Y-51642381D01*
X90148096Y-51690000D01*
X90195715Y-51737619D01*
X90243334Y-51832857D01*
X90243334Y-51975714D01*
X90195715Y-52070952D01*
X90148096Y-52118571D01*
X90052858Y-52166190D01*
X89671905Y-52166190D01*
X90719524Y-52642381D02*
X90910000Y-52642381D01*
X91005239Y-52594762D01*
X91052858Y-52547143D01*
X91148096Y-52404286D01*
X91195715Y-52213810D01*
X91195715Y-51832857D01*
X91148096Y-51737619D01*
X91100477Y-51690000D01*
X91005239Y-51642381D01*
X90814762Y-51642381D01*
X90719524Y-51690000D01*
X90671905Y-51737619D01*
X90624286Y-51832857D01*
X90624286Y-52070952D01*
X90671905Y-52166190D01*
X90719524Y-52213810D01*
X90814762Y-52261429D01*
X91005239Y-52261429D01*
X91100477Y-52213810D01*
X91148096Y-52166190D01*
X91195715Y-52070952D01*
X58247143Y-80842381D02*
X57913809Y-80366190D01*
X57675714Y-80842381D02*
X57675714Y-79842381D01*
X58056667Y-79842381D01*
X58151905Y-79890000D01*
X58199524Y-79937619D01*
X58247143Y-80032857D01*
X58247143Y-80175714D01*
X58199524Y-80270952D01*
X58151905Y-80318571D01*
X58056667Y-80366190D01*
X57675714Y-80366190D01*
X59199524Y-80842381D02*
X58628095Y-80842381D01*
X58913809Y-80842381D02*
X58913809Y-79842381D01*
X58818571Y-79985238D01*
X58723333Y-80080476D01*
X58628095Y-80128095D01*
X59818571Y-79842381D02*
X59913810Y-79842381D01*
X60009048Y-79890000D01*
X60056667Y-79937619D01*
X60104286Y-80032857D01*
X60151905Y-80223333D01*
X60151905Y-80461429D01*
X60104286Y-80651905D01*
X60056667Y-80747143D01*
X60009048Y-80794762D01*
X59913810Y-80842381D01*
X59818571Y-80842381D01*
X59723333Y-80794762D01*
X59675714Y-80747143D01*
X59628095Y-80651905D01*
X59580476Y-80461429D01*
X59580476Y-80223333D01*
X59628095Y-80032857D01*
X59675714Y-79937619D01*
X59723333Y-79890000D01*
X59818571Y-79842381D01*
X108367143Y-61342381D02*
X108033809Y-60866190D01*
X107795714Y-61342381D02*
X107795714Y-60342381D01*
X108176667Y-60342381D01*
X108271905Y-60390000D01*
X108319524Y-60437619D01*
X108367143Y-60532857D01*
X108367143Y-60675714D01*
X108319524Y-60770952D01*
X108271905Y-60818571D01*
X108176667Y-60866190D01*
X107795714Y-60866190D01*
X109319524Y-61342381D02*
X108748095Y-61342381D01*
X109033809Y-61342381D02*
X109033809Y-60342381D01*
X108938571Y-60485238D01*
X108843333Y-60580476D01*
X108748095Y-60628095D01*
X110271905Y-61342381D02*
X109700476Y-61342381D01*
X109986190Y-61342381D02*
X109986190Y-60342381D01*
X109890952Y-60485238D01*
X109795714Y-60580476D01*
X109700476Y-60628095D01*
X108367143Y-64442381D02*
X108033809Y-63966190D01*
X107795714Y-64442381D02*
X107795714Y-63442381D01*
X108176667Y-63442381D01*
X108271905Y-63490000D01*
X108319524Y-63537619D01*
X108367143Y-63632857D01*
X108367143Y-63775714D01*
X108319524Y-63870952D01*
X108271905Y-63918571D01*
X108176667Y-63966190D01*
X107795714Y-63966190D01*
X109319524Y-64442381D02*
X108748095Y-64442381D01*
X109033809Y-64442381D02*
X109033809Y-63442381D01*
X108938571Y-63585238D01*
X108843333Y-63680476D01*
X108748095Y-63728095D01*
X109700476Y-63537619D02*
X109748095Y-63490000D01*
X109843333Y-63442381D01*
X110081429Y-63442381D01*
X110176667Y-63490000D01*
X110224286Y-63537619D01*
X110271905Y-63632857D01*
X110271905Y-63728095D01*
X110224286Y-63870952D01*
X109652857Y-64442381D01*
X110271905Y-64442381D01*
X71248095Y-64722381D02*
X71248095Y-65531905D01*
X71295714Y-65627143D01*
X71343333Y-65674762D01*
X71438571Y-65722381D01*
X71629048Y-65722381D01*
X71724286Y-65674762D01*
X71771905Y-65627143D01*
X71819524Y-65531905D01*
X71819524Y-64722381D01*
X72819524Y-65722381D02*
X72248095Y-65722381D01*
X72533809Y-65722381D02*
X72533809Y-64722381D01*
X72438571Y-64865238D01*
X72343333Y-64960476D01*
X72248095Y-65008095D01*
X101848095Y-84982381D02*
X101848095Y-85791905D01*
X101895714Y-85887143D01*
X101943333Y-85934762D01*
X102038571Y-85982381D01*
X102229048Y-85982381D01*
X102324286Y-85934762D01*
X102371905Y-85887143D01*
X102419524Y-85791905D01*
X102419524Y-84982381D01*
X102848095Y-85077619D02*
X102895714Y-85030000D01*
X102990952Y-84982381D01*
X103229048Y-84982381D01*
X103324286Y-85030000D01*
X103371905Y-85077619D01*
X103419524Y-85172857D01*
X103419524Y-85268095D01*
X103371905Y-85410952D01*
X102800476Y-85982381D01*
X103419524Y-85982381D01*
X41132381Y-70301905D02*
X41941905Y-70301905D01*
X42037143Y-70254286D01*
X42084762Y-70206667D01*
X42132381Y-70111429D01*
X42132381Y-69920952D01*
X42084762Y-69825714D01*
X42037143Y-69778095D01*
X41941905Y-69730476D01*
X41132381Y-69730476D01*
X41132381Y-69349524D02*
X41132381Y-68730476D01*
X41513333Y-69063810D01*
X41513333Y-68920952D01*
X41560952Y-68825714D01*
X41608571Y-68778095D01*
X41703810Y-68730476D01*
X41941905Y-68730476D01*
X42037143Y-68778095D01*
X42084762Y-68825714D01*
X42132381Y-68920952D01*
X42132381Y-69206667D01*
X42084762Y-69301905D01*
X42037143Y-69349524D01*
X58833334Y-84597143D02*
X58785715Y-84644762D01*
X58642858Y-84692381D01*
X58547620Y-84692381D01*
X58404762Y-84644762D01*
X58309524Y-84549524D01*
X58261905Y-84454286D01*
X58214286Y-84263810D01*
X58214286Y-84120952D01*
X58261905Y-83930476D01*
X58309524Y-83835238D01*
X58404762Y-83740000D01*
X58547620Y-83692381D01*
X58642858Y-83692381D01*
X58785715Y-83740000D01*
X58833334Y-83787619D01*
X59785715Y-84692381D02*
X59214286Y-84692381D01*
X59500000Y-84692381D02*
X59500000Y-83692381D01*
X59404762Y-83835238D01*
X59309524Y-83930476D01*
X59214286Y-83978095D01*
X57433334Y-63997143D02*
X57385715Y-64044762D01*
X57242858Y-64092381D01*
X57147620Y-64092381D01*
X57004762Y-64044762D01*
X56909524Y-63949524D01*
X56861905Y-63854286D01*
X56814286Y-63663810D01*
X56814286Y-63520952D01*
X56861905Y-63330476D01*
X56909524Y-63235238D01*
X57004762Y-63140000D01*
X57147620Y-63092381D01*
X57242858Y-63092381D01*
X57385715Y-63140000D01*
X57433334Y-63187619D01*
X57814286Y-63187619D02*
X57861905Y-63140000D01*
X57957143Y-63092381D01*
X58195239Y-63092381D01*
X58290477Y-63140000D01*
X58338096Y-63187619D01*
X58385715Y-63282857D01*
X58385715Y-63378095D01*
X58338096Y-63520952D01*
X57766667Y-64092381D01*
X58385715Y-64092381D01*
X40535715Y-96207143D02*
X40488096Y-96254762D01*
X40345239Y-96302381D01*
X40250001Y-96302381D01*
X40107143Y-96254762D01*
X40011905Y-96159524D01*
X39964286Y-96064286D01*
X39916667Y-95873810D01*
X39916667Y-95730952D01*
X39964286Y-95540476D01*
X40011905Y-95445238D01*
X40107143Y-95350000D01*
X40250001Y-95302381D01*
X40345239Y-95302381D01*
X40488096Y-95350000D01*
X40535715Y-95397619D01*
X41154762Y-95302381D02*
X41345239Y-95302381D01*
X41440477Y-95350000D01*
X41535715Y-95445238D01*
X41583334Y-95635714D01*
X41583334Y-95969048D01*
X41535715Y-96159524D01*
X41440477Y-96254762D01*
X41345239Y-96302381D01*
X41154762Y-96302381D01*
X41059524Y-96254762D01*
X40964286Y-96159524D01*
X40916667Y-95969048D01*
X40916667Y-95635714D01*
X40964286Y-95445238D01*
X41059524Y-95350000D01*
X41154762Y-95302381D01*
X42011905Y-96302381D02*
X42011905Y-95302381D01*
X42583334Y-96302381D01*
X42583334Y-95302381D01*
X43583334Y-96302381D02*
X43011905Y-96302381D01*
X43297619Y-96302381D02*
X43297619Y-95302381D01*
X43202381Y-95445238D01*
X43107143Y-95540476D01*
X43011905Y-95588095D01*
X123252381Y-89638095D02*
X122252381Y-89638095D01*
X122252381Y-89257142D01*
X122300000Y-89161904D01*
X122347619Y-89114285D01*
X122442857Y-89066666D01*
X122585714Y-89066666D01*
X122680952Y-89114285D01*
X122728571Y-89161904D01*
X122776190Y-89257142D01*
X122776190Y-89638095D01*
X122585714Y-88209523D02*
X123252381Y-88209523D01*
X122204762Y-88447619D02*
X122919048Y-88685714D01*
X122919048Y-88066666D01*
X123252381Y-69738095D02*
X122252381Y-69738095D01*
X122252381Y-69357142D01*
X122300000Y-69261904D01*
X122347619Y-69214285D01*
X122442857Y-69166666D01*
X122585714Y-69166666D01*
X122680952Y-69214285D01*
X122728571Y-69261904D01*
X122776190Y-69357142D01*
X122776190Y-69738095D01*
X122252381Y-68261904D02*
X122252381Y-68738095D01*
X122728571Y-68785714D01*
X122680952Y-68738095D01*
X122633333Y-68642857D01*
X122633333Y-68404761D01*
X122680952Y-68309523D01*
X122728571Y-68261904D01*
X122823810Y-68214285D01*
X123061905Y-68214285D01*
X123157143Y-68261904D01*
X123204762Y-68309523D01*
X123252381Y-68404761D01*
X123252381Y-68642857D01*
X123204762Y-68738095D01*
X123157143Y-68785714D01*
X74666667Y-48452381D02*
X74333333Y-47976190D01*
X74095238Y-48452381D02*
X74095238Y-47452381D01*
X74476191Y-47452381D01*
X74571429Y-47500000D01*
X74619048Y-47547619D01*
X74666667Y-47642857D01*
X74666667Y-47785714D01*
X74619048Y-47880952D01*
X74571429Y-47928571D01*
X74476191Y-47976190D01*
X74095238Y-47976190D01*
X75095238Y-47928571D02*
X75428572Y-47928571D01*
X75571429Y-48452381D02*
X75095238Y-48452381D01*
X75095238Y-47452381D01*
X75571429Y-47452381D01*
X76333334Y-47928571D02*
X76000000Y-47928571D01*
X76000000Y-48452381D02*
X76000000Y-47452381D01*
X76476191Y-47452381D01*
X77000000Y-47452381D02*
X77000000Y-47690476D01*
X76761905Y-47595238D02*
X77000000Y-47690476D01*
X77238096Y-47595238D01*
X76857143Y-47880952D02*
X77000000Y-47690476D01*
X77142858Y-47880952D01*
X77761905Y-47452381D02*
X77761905Y-47690476D01*
X77523810Y-47595238D02*
X77761905Y-47690476D01*
X78000001Y-47595238D01*
X77619048Y-47880952D02*
X77761905Y-47690476D01*
X77904763Y-47880952D01*
X66266667Y-89622381D02*
X66266667Y-90336667D01*
X66219047Y-90479524D01*
X66123809Y-90574762D01*
X65980952Y-90622381D01*
X65885714Y-90622381D01*
X66742857Y-90622381D02*
X66742857Y-89622381D01*
X67123810Y-89622381D01*
X67219048Y-89670000D01*
X67266667Y-89717619D01*
X67314286Y-89812857D01*
X67314286Y-89955714D01*
X67266667Y-90050952D01*
X67219048Y-90098571D01*
X67123810Y-90146190D01*
X66742857Y-90146190D01*
X68266667Y-90622381D02*
X67695238Y-90622381D01*
X67980952Y-90622381D02*
X67980952Y-89622381D01*
X67885714Y-89765238D01*
X67790476Y-89860476D01*
X67695238Y-89908095D01*
X45166667Y-76252381D02*
X44833333Y-75776190D01*
X44595238Y-76252381D02*
X44595238Y-75252381D01*
X44976191Y-75252381D01*
X45071429Y-75300000D01*
X45119048Y-75347619D01*
X45166667Y-75442857D01*
X45166667Y-75585714D01*
X45119048Y-75680952D01*
X45071429Y-75728571D01*
X44976191Y-75776190D01*
X44595238Y-75776190D01*
X45595238Y-75728571D02*
X45928572Y-75728571D01*
X46071429Y-76252381D02*
X45595238Y-76252381D01*
X45595238Y-75252381D01*
X46071429Y-75252381D01*
X46833334Y-75728571D02*
X46500000Y-75728571D01*
X46500000Y-76252381D02*
X46500000Y-75252381D01*
X46976191Y-75252381D01*
X47500000Y-75252381D02*
X47500000Y-75490476D01*
X47261905Y-75395238D02*
X47500000Y-75490476D01*
X47738096Y-75395238D01*
X47357143Y-75680952D02*
X47500000Y-75490476D01*
X47642858Y-75680952D01*
X48261905Y-75252381D02*
X48261905Y-75490476D01*
X48023810Y-75395238D02*
X48261905Y-75490476D01*
X48500001Y-75395238D01*
X48119048Y-75680952D02*
X48261905Y-75490476D01*
X48404763Y-75680952D01*
M02*
