G04 #@! TF.FileFunction,Profile,NP*
%FSLAX46Y46*%
G04 Gerber Fmt 4.6, Leading zero omitted, Abs format (unit mm)*
G04 Created by KiCad (PCBNEW 4.0.5) date 2017 June 19, Monday 06:47:11*
%MOMM*%
%LPD*%
G01*
G04 APERTURE LIST*
%ADD10C,0.100000*%
%ADD11C,0.150000*%
G04 APERTURE END LIST*
D10*
D11*
X101000000Y-101000000D02*
X89000000Y-101000000D01*
X89000000Y-99000000D02*
X101000000Y-99000000D01*
X101000000Y-101000000D02*
G75*
G03X101000000Y-99000000I0J1000000D01*
G01*
X89000000Y-99000000D02*
G75*
G03X89000000Y-101000000I0J-1000000D01*
G01*
X40000000Y-65000000D02*
X40000000Y-95000000D01*
X132000000Y-65000000D02*
X132000000Y-95000000D01*
X129000000Y-98000000D02*
G75*
G03X132000000Y-95000000I0J3000000D01*
G01*
X129000000Y-98000000D02*
G75*
G03X120000000Y-107000000I0J-9000000D01*
G01*
X52000000Y-107000000D02*
G75*
G03X55000000Y-110000000I3000000J0D01*
G01*
X40000000Y-95000000D02*
G75*
G03X43000000Y-98000000I3000000J0D01*
G01*
X52000000Y-107000000D02*
G75*
G03X43000000Y-98000000I-9000000J0D01*
G01*
X117000000Y-110000000D02*
X55000000Y-110000000D01*
X117000000Y-110000000D02*
G75*
G03X120000000Y-107000000I0J3000000D01*
G01*
X55000000Y-50000000D02*
G75*
G03X52000000Y-53000000I0J-3000000D01*
G01*
X55000000Y-50000000D02*
X117000000Y-50000000D01*
X120000000Y-53000000D02*
G75*
G03X129000000Y-62000000I9000000J0D01*
G01*
X132000000Y-65000000D02*
G75*
G03X129000000Y-62000000I-3000000J0D01*
G01*
X120000000Y-53000000D02*
G75*
G03X117000000Y-50000000I-3000000J0D01*
G01*
X43000000Y-62000000D02*
G75*
G03X52000000Y-53000000I0J9000000D01*
G01*
X43000000Y-62000000D02*
G75*
G03X40000000Y-65000000I0J-3000000D01*
G01*
M02*
