G04 #@! TF.FileFunction,Copper,L1,Top,Signal*
%FSLAX46Y46*%
G04 Gerber Fmt 4.6, Leading zero omitted, Abs format (unit mm)*
G04 Created by KiCad (PCBNEW 4.0.5) date 2017 June 19, Monday 06:47:11*
%MOMM*%
%LPD*%
G01*
G04 APERTURE LIST*
%ADD10C,0.100000*%
%ADD11R,1.600000X1.600000*%
%ADD12O,1.600000X1.600000*%
%ADD13R,1.700000X1.700000*%
%ADD14O,1.700000X1.700000*%
%ADD15R,1.727200X1.727200*%
%ADD16O,1.727200X1.727200*%
%ADD17C,1.000000*%
%ADD18R,1.000000X1.000000*%
%ADD19C,1.600000*%
%ADD20R,1.800000X1.800000*%
%ADD21O,1.800000X1.800000*%
%ADD22R,2.000000X2.000000*%
%ADD23C,2.000000*%
%ADD24R,3.500000X3.500000*%
%ADD25R,3.600000X2.100000*%
%ADD26O,3.600000X2.100000*%
%ADD27C,0.600000*%
%ADD28C,0.508000*%
%ADD29C,0.250000*%
G04 APERTURE END LIST*
D10*
D11*
X110550000Y-89350000D03*
D12*
X110550000Y-96970000D03*
D11*
X114100000Y-89350000D03*
D12*
X114100000Y-96970000D03*
D11*
X117200000Y-89300000D03*
D12*
X117200000Y-96920000D03*
D11*
X121100000Y-78600000D03*
D12*
X121100000Y-86220000D03*
D11*
X107000000Y-89350000D03*
D12*
X107000000Y-96970000D03*
D11*
X96350000Y-89350000D03*
D12*
X96350000Y-96970000D03*
D11*
X92800000Y-89350000D03*
D12*
X92800000Y-96970000D03*
D13*
X83400000Y-77840000D03*
D14*
X83400000Y-80380000D03*
X83400000Y-82920000D03*
X83400000Y-85460000D03*
X83400000Y-88000000D03*
D13*
X83500000Y-69020000D03*
D14*
X83500000Y-71560000D03*
X83500000Y-74100000D03*
D15*
X99100000Y-103460000D03*
D16*
X99100000Y-106000000D03*
X96560000Y-103460000D03*
X96560000Y-106000000D03*
X94020000Y-103460000D03*
X94020000Y-106000000D03*
X91480000Y-103460000D03*
X91480000Y-106000000D03*
D13*
X85340000Y-106000000D03*
D14*
X82800000Y-106000000D03*
X80260000Y-106000000D03*
X77720000Y-106000000D03*
X75180000Y-106000000D03*
X72640000Y-106000000D03*
D17*
X112270000Y-83430000D03*
X113540000Y-84700000D03*
D18*
X111000000Y-84700000D03*
D17*
X116200000Y-52300000D03*
X117470000Y-53570000D03*
D18*
X114930000Y-53570000D03*
D17*
X116400000Y-58500000D03*
X117670000Y-59770000D03*
D18*
X115130000Y-59770000D03*
D17*
X100330000Y-52930000D03*
X101600000Y-54200000D03*
D18*
X99060000Y-54200000D03*
D17*
X100400000Y-59300000D03*
X101670000Y-60570000D03*
D18*
X99130000Y-60570000D03*
D19*
X110100000Y-78900000D03*
D12*
X117720000Y-78900000D03*
D19*
X103450000Y-89350000D03*
D12*
X103450000Y-96970000D03*
D19*
X99900000Y-97000000D03*
D12*
X99900000Y-89380000D03*
D19*
X89400000Y-97100000D03*
D12*
X89400000Y-89480000D03*
D19*
X108380000Y-69700000D03*
D12*
X116000000Y-69700000D03*
D19*
X108280000Y-73400000D03*
D12*
X115900000Y-73400000D03*
D19*
X120600000Y-64600000D03*
D12*
X120600000Y-72220000D03*
D19*
X94700000Y-78600000D03*
D12*
X94700000Y-86220000D03*
D19*
X86600000Y-54500000D03*
D12*
X94220000Y-54500000D03*
D19*
X55080000Y-82700000D03*
D12*
X62700000Y-82700000D03*
D19*
X105200000Y-63200000D03*
D12*
X112820000Y-63200000D03*
D19*
X105200000Y-66300000D03*
D12*
X112820000Y-66300000D03*
D11*
X68200000Y-67660000D03*
D12*
X75820000Y-87980000D03*
X68200000Y-70200000D03*
X75820000Y-85440000D03*
X68200000Y-72740000D03*
X75820000Y-82900000D03*
X68200000Y-75280000D03*
X75820000Y-80360000D03*
X68200000Y-77820000D03*
X75820000Y-77820000D03*
X68200000Y-80360000D03*
X75820000Y-75280000D03*
X68200000Y-82900000D03*
X75820000Y-72740000D03*
X68200000Y-85440000D03*
X75820000Y-70200000D03*
X68200000Y-87980000D03*
X75820000Y-67660000D03*
D11*
X106420000Y-83140000D03*
D12*
X98800000Y-75520000D03*
X106420000Y-80600000D03*
X98800000Y-78060000D03*
X106420000Y-78060000D03*
X98800000Y-80600000D03*
X106420000Y-75520000D03*
X98800000Y-83140000D03*
D20*
X45300000Y-72080000D03*
D21*
X45300000Y-69540000D03*
X45300000Y-67000000D03*
D22*
X56500000Y-90300000D03*
D23*
X61500000Y-90300000D03*
D22*
X55827856Y-88300000D03*
D23*
X62172144Y-92300000D03*
D22*
X55100000Y-69700000D03*
D23*
X60100000Y-69700000D03*
D22*
X54427856Y-67700000D03*
D23*
X60772144Y-71700000D03*
D24*
X50200000Y-90100000D03*
X44200000Y-90100000D03*
X47200000Y-94800000D03*
D25*
X125800000Y-92400000D03*
D26*
X125800000Y-87400000D03*
D25*
X125800000Y-72500000D03*
D26*
X125800000Y-67500000D03*
D13*
X67100000Y-92500000D03*
D14*
X67100000Y-95040000D03*
D27*
X70600000Y-78100000D03*
X75200000Y-103700000D03*
X93500000Y-75300000D03*
X90800000Y-65800000D03*
D28*
X115900000Y-73400000D02*
X115900000Y-74968000D01*
X115900000Y-74968000D02*
X107728000Y-83140000D01*
X107728000Y-83140000D02*
X106420000Y-83140000D01*
X120600000Y-72220000D02*
X119420000Y-73400000D01*
X119420000Y-73400000D02*
X115900000Y-73400000D01*
X125800000Y-72500000D02*
X120880000Y-72500000D01*
X120880000Y-72500000D02*
X120600000Y-72220000D01*
X117670000Y-59770000D02*
X118427201Y-59012799D01*
X118427201Y-59012799D02*
X118427201Y-53110543D01*
X118427201Y-53110543D02*
X116659457Y-51342799D01*
X116659457Y-51342799D02*
X103102799Y-51342799D01*
X103102799Y-51342799D02*
X102472799Y-51972799D01*
X105200000Y-63200000D02*
X104300000Y-63200000D01*
X104300000Y-63200000D02*
X101670000Y-60570000D01*
X45300000Y-72080000D02*
X43892000Y-72080000D01*
X43892000Y-72080000D02*
X42800000Y-70988000D01*
X42800000Y-70988000D02*
X42800000Y-67491342D01*
X42800000Y-67491342D02*
X58318543Y-51972799D01*
X58318543Y-51972799D02*
X102472799Y-51972799D01*
X102472799Y-51972799D02*
X103700000Y-53200000D01*
X103700000Y-53200000D02*
X103700000Y-58540000D01*
X103700000Y-58540000D02*
X101670000Y-60570000D01*
X55827856Y-88300000D02*
X55827856Y-89808000D01*
X55827856Y-89808000D02*
X55535856Y-90100000D01*
X55535856Y-90100000D02*
X52458000Y-90100000D01*
X52458000Y-90100000D02*
X50200000Y-90100000D01*
X56500000Y-90300000D02*
X56500000Y-88972144D01*
X56500000Y-88972144D02*
X55827856Y-88300000D01*
X50800000Y-87242000D02*
X50800000Y-78988000D01*
X50800000Y-78988000D02*
X45300000Y-73488000D01*
X45300000Y-73488000D02*
X45300000Y-72080000D01*
X50200000Y-90100000D02*
X50200000Y-87842000D01*
X50200000Y-87842000D02*
X50800000Y-87242000D01*
D29*
X117200000Y-96920000D02*
X121720000Y-92400000D01*
X121720000Y-92400000D02*
X125800000Y-92400000D01*
X110550000Y-89350000D02*
X111600000Y-89350000D01*
X111600000Y-89350000D02*
X117200000Y-94950000D01*
X117200000Y-94950000D02*
X117200000Y-95788630D01*
X117200000Y-95788630D02*
X117200000Y-96920000D01*
D28*
X96350000Y-96970000D02*
X92800000Y-96970000D01*
X103450000Y-96970000D02*
X102162799Y-98257201D01*
X102162799Y-98257201D02*
X97637201Y-98257201D01*
X97637201Y-98257201D02*
X97149999Y-97769999D01*
X97149999Y-97769999D02*
X96350000Y-96970000D01*
X107000000Y-96970000D02*
X103450000Y-96970000D01*
X110550000Y-96970000D02*
X107000000Y-96970000D01*
X114100000Y-96970000D02*
X110550000Y-96970000D01*
D29*
X121100000Y-86220000D02*
X121100000Y-87585002D01*
X121100000Y-87585002D02*
X118260001Y-90425001D01*
X118260001Y-90425001D02*
X116225001Y-90425001D01*
X116225001Y-90425001D02*
X115150000Y-89350000D01*
X115150000Y-89350000D02*
X114100000Y-89350000D01*
X122280000Y-87400000D02*
X121100000Y-86220000D01*
X125800000Y-87400000D02*
X122280000Y-87400000D01*
X117200000Y-89300000D02*
X117200000Y-88250000D01*
X117200000Y-88250000D02*
X113650000Y-84700000D01*
X113650000Y-84700000D02*
X113540000Y-84700000D01*
X117720000Y-78900000D02*
X117720000Y-80520000D01*
X117720000Y-80520000D02*
X113540000Y-84700000D01*
X117720000Y-78900000D02*
X120800000Y-78900000D01*
X120800000Y-78900000D02*
X121100000Y-78600000D01*
X107000000Y-89350000D02*
X107000000Y-90400000D01*
X107000000Y-90400000D02*
X100400000Y-97000000D01*
X100400000Y-97000000D02*
X99900000Y-97000000D01*
X111000000Y-84700000D02*
X111000000Y-85450000D01*
X111000000Y-85450000D02*
X107100000Y-89350000D01*
X107100000Y-89350000D02*
X107000000Y-89350000D01*
X96350000Y-89350000D02*
X97400000Y-89350000D01*
X97400000Y-89350000D02*
X99925001Y-86824999D01*
X99925001Y-86824999D02*
X99925001Y-81725001D01*
X99925001Y-81725001D02*
X99599999Y-81399999D01*
X99599999Y-81399999D02*
X98800000Y-80600000D01*
X99599999Y-79800001D02*
X98800000Y-80600000D01*
X102465001Y-76934999D02*
X99599999Y-79800001D01*
X108134999Y-76934999D02*
X102465001Y-76934999D01*
X110100000Y-78900000D02*
X108134999Y-76934999D01*
X92800000Y-89350000D02*
X93850000Y-89350000D01*
X93850000Y-89350000D02*
X98800000Y-84400000D01*
X98800000Y-84271370D02*
X98800000Y-83140000D01*
X98800000Y-84400000D02*
X98800000Y-84271370D01*
X70600000Y-78100000D02*
X68200000Y-75700000D01*
X68200000Y-75700000D02*
X68200000Y-75280000D01*
X62700000Y-82700000D02*
X62700000Y-89200000D01*
X62700000Y-89200000D02*
X66000000Y-92500000D01*
X66000000Y-92500000D02*
X67100000Y-92500000D01*
X68200000Y-82900000D02*
X62900000Y-82900000D01*
X62900000Y-82900000D02*
X62700000Y-82700000D01*
D28*
X99100000Y-103460000D02*
X97779199Y-102139199D01*
X97779199Y-102139199D02*
X88139199Y-102139199D01*
X88139199Y-102139199D02*
X86775201Y-100775201D01*
X86775201Y-100775201D02*
X86775201Y-79857201D01*
X45300000Y-67000000D02*
X53727856Y-67000000D01*
X53727856Y-67000000D02*
X54427856Y-67700000D01*
X55100000Y-69700000D02*
X55100000Y-71208000D01*
X55100000Y-71208000D02*
X58702799Y-74810799D01*
X58702799Y-74810799D02*
X58702799Y-79077201D01*
X54427856Y-67700000D02*
X54427856Y-69027856D01*
X54427856Y-69027856D02*
X55100000Y-69700000D01*
X83400000Y-77840000D02*
X84758000Y-77840000D01*
X84758000Y-77840000D02*
X86775201Y-79857201D01*
X86775201Y-79857201D02*
X97002799Y-79857201D01*
X97002799Y-79857201D02*
X98000001Y-78859999D01*
X98000001Y-78859999D02*
X98800000Y-78060000D01*
X75820000Y-77820000D02*
X83380000Y-77820000D01*
X83380000Y-77820000D02*
X83400000Y-77840000D01*
X55080000Y-82700000D02*
X58702799Y-79077201D01*
X58702799Y-79077201D02*
X74562799Y-79077201D01*
X74562799Y-79077201D02*
X75020001Y-78619999D01*
X75020001Y-78619999D02*
X75820000Y-77820000D01*
X100330000Y-52930000D02*
X93570000Y-52930000D01*
X93570000Y-52930000D02*
X92962799Y-53537201D01*
X92962799Y-53537201D02*
X92962799Y-72222799D01*
X92962799Y-72222799D02*
X98800000Y-78060000D01*
D29*
X83400000Y-80380000D02*
X75840000Y-80380000D01*
X75840000Y-80380000D02*
X75820000Y-80360000D01*
X75820000Y-82900000D02*
X83380000Y-82900000D01*
X83380000Y-82900000D02*
X83400000Y-82920000D01*
X75820000Y-87980000D02*
X80880000Y-87980000D01*
X80880000Y-87980000D02*
X83400000Y-85460000D01*
X75820000Y-72740000D02*
X77000000Y-71560000D01*
X77000000Y-71560000D02*
X83500000Y-71560000D01*
X75820000Y-75280000D02*
X82320000Y-75280000D01*
X82320000Y-75280000D02*
X83500000Y-74100000D01*
X99100000Y-106000000D02*
X97908199Y-104808199D01*
X97908199Y-104808199D02*
X92671801Y-104808199D01*
X92671801Y-104808199D02*
X92343599Y-105136401D01*
X92343599Y-105136401D02*
X91480000Y-106000000D01*
X93156401Y-104323599D02*
X94020000Y-103460000D01*
X92519991Y-104323599D02*
X93156401Y-104323599D01*
X92032191Y-104811399D02*
X92519991Y-104323599D01*
X76368601Y-104811399D02*
X92032191Y-104811399D01*
X75180000Y-106000000D02*
X76368601Y-104811399D01*
X74330001Y-105150001D02*
X75180000Y-106000000D01*
X74244988Y-105064988D02*
X74330001Y-105150001D01*
X74244988Y-91484988D02*
X74244988Y-105064988D01*
X68200000Y-85440000D02*
X74244988Y-91484988D01*
X75820000Y-85440000D02*
X74694999Y-86565001D01*
X74694999Y-86565001D02*
X74694999Y-103194999D01*
X74694999Y-103194999D02*
X75200000Y-103700000D01*
X80120000Y-108400000D02*
X91620000Y-108400000D01*
X91620000Y-108400000D02*
X94020000Y-106000000D01*
X77720000Y-106000000D02*
X80120000Y-108400000D01*
X120600000Y-64600000D02*
X115770000Y-59770000D01*
X115770000Y-59770000D02*
X115130000Y-59770000D01*
X112820000Y-63200000D02*
X112820000Y-60494998D01*
X112820000Y-60494998D02*
X114814998Y-58500000D01*
X114814998Y-58500000D02*
X115692894Y-58500000D01*
X115692894Y-58500000D02*
X116400000Y-58500000D01*
X112820000Y-66300000D02*
X112820000Y-63200000D01*
X116400000Y-58500000D02*
X116400000Y-54640000D01*
X116400000Y-54640000D02*
X117470000Y-53570000D01*
X116000000Y-69700000D02*
X124900000Y-69700000D01*
X124900000Y-69700000D02*
X125800000Y-68800000D01*
X125800000Y-68800000D02*
X125800000Y-67500000D01*
X114930000Y-53570000D02*
X114930000Y-54320000D01*
X111694999Y-66840001D02*
X114554998Y-69700000D01*
X114930000Y-54320000D02*
X111694999Y-57555001D01*
X111694999Y-57555001D02*
X111694999Y-66840001D01*
X114554998Y-69700000D02*
X114868630Y-69700000D01*
X114868630Y-69700000D02*
X116000000Y-69700000D01*
X100400000Y-59300000D02*
X100400000Y-54790000D01*
X100400000Y-54790000D02*
X99810000Y-54200000D01*
X99810000Y-54200000D02*
X99060000Y-54200000D01*
X105200000Y-66300000D02*
X99470000Y-60570000D01*
X99470000Y-60570000D02*
X99130000Y-60570000D01*
X99900000Y-89380000D02*
X103420000Y-89380000D01*
X103420000Y-89380000D02*
X103450000Y-89350000D01*
X105100000Y-80254998D02*
X105100000Y-79380000D01*
X105100000Y-79380000D02*
X106420000Y-78060000D01*
X103450000Y-81904998D02*
X105100000Y-80254998D01*
X103450000Y-89350000D02*
X103450000Y-81904998D01*
X75820000Y-67660000D02*
X76619999Y-66860001D01*
X76619999Y-66860001D02*
X85060001Y-66860001D01*
X85060001Y-66860001D02*
X93200001Y-75000001D01*
X93200001Y-75000001D02*
X93500000Y-75300000D01*
X75820000Y-70200000D02*
X74600000Y-68980000D01*
X74600000Y-68980000D02*
X74600000Y-67214998D01*
X76014998Y-65800000D02*
X90800000Y-65800000D01*
X74600000Y-67214998D02*
X76014998Y-65800000D01*
X108280000Y-73400000D02*
X108280000Y-69800000D01*
X108280000Y-69800000D02*
X108380000Y-69700000D01*
X74405001Y-76405001D02*
X68200000Y-70200000D01*
X94700000Y-78600000D02*
X93568630Y-78600000D01*
X93568630Y-78600000D02*
X91373631Y-76405001D01*
X91373631Y-76405001D02*
X74405001Y-76405001D01*
X86600000Y-54500000D02*
X79174998Y-54500000D01*
X79174998Y-54500000D02*
X67074999Y-66599999D01*
X67074999Y-66599999D02*
X67074999Y-71614999D01*
X67400001Y-71940001D02*
X68200000Y-72740000D01*
X67074999Y-71614999D02*
X67400001Y-71940001D01*
M02*
