M48
;DRILL file {KiCad 4.0.5} date 2017 June 19, Monday 16:04:18
;FORMAT={-:-/ absolute / inch / decimal}
FMAT,2
INCH,TZ
T1C0.016
T2C0.024
T3C0.031
T4C0.039
T5C0.040
T6C0.055
T7C0.126
%
G90
G05
M72
T1
X2.7795Y-3.0748
X2.9606Y-4.0827
X3.5748Y-2.5906
X3.6811Y-2.9646
T2
X3.9Y-2.1339
X3.9028Y-2.3846
X3.95Y-2.0839
X3.9528Y-2.3346
X4.Y-2.1339
X4.0028Y-2.3846
X4.3701Y-3.3346
X4.4201Y-3.2846
X4.4701Y-3.3346
X4.5248Y-2.1091
X4.5327Y-2.3531
X4.5748Y-2.0591
X4.5827Y-2.3031
X4.6248Y-2.1091
X4.6327Y-2.3531
T3
X2.1685Y-3.2559
X2.4685Y-3.2559
X2.685Y-2.6638
X2.685Y-2.7638
X2.685Y-2.8638
X2.685Y-2.9638
X2.685Y-3.0638
X2.685Y-3.1638
X2.685Y-3.2638
X2.685Y-3.3638
X2.685Y-3.4638
X2.985Y-2.6638
X2.985Y-2.7638
X2.985Y-2.8638
X2.985Y-2.9638
X2.985Y-3.0638
X2.985Y-3.1638
X2.985Y-3.2638
X2.985Y-3.3638
X2.985Y-3.4638
X3.4094Y-2.1457
X3.5197Y-3.5228
X3.5197Y-3.8228
X3.6535Y-3.5177
X3.6535Y-3.8177
X3.7094Y-2.1457
X3.7283Y-3.0945
X3.7283Y-3.3945
X3.7933Y-3.5177
X3.7933Y-3.8177
X3.8898Y-2.9732
X3.8898Y-3.0732
X3.8898Y-3.1732
X3.8898Y-3.2732
X3.9331Y-3.5189
X3.9331Y-3.8189
X4.0728Y-3.5177
X4.0728Y-3.8177
X4.1417Y-2.4882
X4.1417Y-2.6102
X4.1898Y-2.9732
X4.1898Y-3.0732
X4.1898Y-3.1732
X4.1898Y-3.2732
X4.2126Y-3.5177
X4.2126Y-3.8177
X4.263Y-2.8898
X4.2669Y-2.7441
X4.3346Y-3.1063
X4.3524Y-3.5177
X4.3524Y-3.8177
X4.4417Y-2.4882
X4.4417Y-2.6102
X4.4921Y-3.5177
X4.4921Y-3.8177
X4.563Y-2.8898
X4.5669Y-2.7441
X4.6142Y-3.5157
X4.6142Y-3.8157
X4.6346Y-3.1063
X4.748Y-2.5433
X4.748Y-2.8433
X4.7677Y-3.0945
X4.7677Y-3.3945
T4
X1.7835Y-2.6378
X1.7835Y-2.7378
X1.7835Y-2.8378
X2.1428Y-2.6654
X2.1693Y-2.7441
X2.1979Y-3.4764
X2.2244Y-3.5551
X2.3661Y-2.7441
X2.3926Y-2.8228
X2.4213Y-3.5551
X2.4477Y-3.6339
X2.6417Y-3.6417
X2.6417Y-3.7417
X2.8598Y-4.1732
X2.9598Y-4.1732
X3.0598Y-4.1732
X3.1598Y-4.1732
X3.2598Y-4.1732
X3.2835Y-3.0646
X3.2835Y-3.1646
X3.2835Y-3.2646
X3.2835Y-3.3646
X3.2835Y-3.4646
X3.2874Y-2.7173
X3.2874Y-2.8173
X3.2874Y-2.9173
X3.3598Y-4.1732
T5
X3.6016Y-4.0732
X3.6016Y-4.1732
X3.7016Y-4.0732
X3.7016Y-4.1732
X3.8016Y-4.0732
X3.8016Y-4.1732
X3.9016Y-4.0732
X3.9016Y-4.1732
T6
X4.9528Y-2.6575
X4.9528Y-2.8543
X4.9528Y-3.4409
X4.9528Y-3.6378
T7
X1.8307Y-3.1496
X2.5394Y-2.2835
X2.5394Y-4.0157
X4.2323Y-2.2835
X4.2323Y-4.0157
X4.9409Y-3.1575
T4
X1.7402Y-3.5079G85X1.7402Y-3.5866
G05
X1.8189Y-3.7323G85X1.8976Y-3.7323
G05
X1.9764Y-3.5079G85X1.9764Y-3.5866
G05
T0
M30
